#VRML V2.0 utf8

DEF WHITE Appearance { material Material { diffuseColor 0.82 0.84 0.8 specularColor 0.42 0.42 0.4 shininess 0.35 } }
DEF DARK Appearance { material Material { diffuseColor 0.08 0.08 0.075 specularColor 0.12 0.12 0.12 shininess 0.2 } }
DEF METAL Appearance { material Material { diffuseColor 0.65 0.62 0.48 specularColor 0.78 0.75 0.6 shininess 0.65 } }
Group {
  children [
    Transform { translation 0.394 0 0.984 children [ Shape { appearance USE WHITE geometry Box { size 2.362 1.969 1.969 } } ] }
    Transform { translation 0.394 0.787 1.102 children [ Shape { appearance USE DARK geometry Box { size 1.496 0.433 0.984 } } ] }
    Transform { translation 0 0 0.157 children [ Shape { appearance USE METAL geometry Box { size 0.157 0.157 0.315 } } ] }
    Transform { translation 0.787 0 0.157 children [ Shape { appearance USE METAL geometry Box { size 0.157 0.157 0.315 } } ] }
  ]
}