%TF.GenerationSoftware,KiCad,Pcbnew,9.0.8+dfsg-1*%
%TF.CreationDate,2026-08-13T10:05:01+02:00*%
%TF.ProjectId,hsd-antweight-2s-v2,6873642d-616e-4747-9765-696768742d32,rev?*%
%TF.SameCoordinates,Original*%
%TF.FileFunction,Copper,L2,Bot*%
%TF.FilePolarity,Positive*%
%FSLAX46Y46*%
G04 Gerber Fmt 4.6, Leading zero omitted, Abs format (unit mm)*
G04 Created by KiCad (PCBNEW 9.0.8+dfsg-1) date 2026-08-13 10:05:01*
%MOMM*%
%LPD*%
G01*
G04 APERTURE LIST*
%TA.AperFunction,ComponentPad*%
%ADD10R,2.000000X2.000000*%
%TD*%
%TA.AperFunction,ComponentPad*%
%ADD11C,2.000000*%
%TD*%
%TA.AperFunction,ComponentPad*%
%ADD12R,1.800000X1.800000*%
%TD*%
%TA.AperFunction,ComponentPad*%
%ADD13C,1.800000*%
%TD*%
%TA.AperFunction,Conductor*%
%ADD14C,1.200000*%
%TD*%
%TA.AperFunction,Conductor*%
%ADD15C,0.800000*%
%TD*%
%TA.AperFunction,Conductor*%
%ADD16C,0.250000*%
%TD*%
%TA.AperFunction,Conductor*%
%ADD17C,0.200000*%
%TD*%
G04 APERTURE END LIST*
D10*
%TO.P,J8,1*%
%TO.N,5V_NC*%
X26360000Y-19010000D03*
D11*
%TO.P,J8,2*%
%TO.N,GND*%
X26360000Y-21550000D03*
%TO.P,J8,3*%
%TO.N,3V3*%
X26360000Y-24090000D03*
%TO.P,J8,4*%
%TO.N,GPIO4_SPARE*%
X26360000Y-26630000D03*
%TO.P,J8,5*%
%TO.N,GPIO3_SPARE*%
X26360000Y-29170000D03*
%TO.P,J8,6*%
%TO.N,GPIO2_SPARE*%
X26360000Y-31710000D03*
%TO.P,J8,7*%
%TO.N,GPIO1_SPARE*%
X26360000Y-34250000D03*
%TO.P,J8,8*%
%TO.N,GPIO0_SPARE*%
X26360000Y-36790000D03*
%TD*%
D10*
%TO.P,SW1,1*%
%TO.N,VBAT_RAW*%
X22200000Y-76500000D03*
D11*
%TO.P,SW1,2*%
%TO.N,VBAT_SW*%
X27200000Y-76500000D03*
%TD*%
D10*
%TO.P,U3,1*%
%TO.N,VBAT_SW*%
X26960000Y-68500000D03*
D11*
%TO.P,U3,2*%
%TO.N,GND*%
X29500000Y-68500000D03*
%TO.P,U3,3*%
%TO.N,3V3*%
X32040000Y-68500000D03*
%TD*%
D10*
%TO.P,J10,1*%
%TO.N,3V3*%
X42420000Y-76500000D03*
D11*
%TO.P,J10,2*%
%TO.N,GND*%
X44960000Y-76500000D03*
%TO.P,J10,3*%
%TO.N,VBAT_SW*%
X47500000Y-76500000D03*
%TD*%
D10*
%TO.P,U1,1*%
%TO.N,5V_NC*%
X28900000Y-19010000D03*
D11*
%TO.P,U1,2*%
%TO.N,GND*%
X28900000Y-21550000D03*
%TO.P,U1,3*%
%TO.N,3V3*%
X28900000Y-24090000D03*
%TO.P,U1,4*%
%TO.N,GPIO4_SPARE*%
X28900000Y-26630000D03*
%TO.P,U1,5*%
%TO.N,GPIO3_SPARE*%
X28900000Y-29170000D03*
%TO.P,U1,6*%
%TO.N,GPIO2_SPARE*%
X28900000Y-31710000D03*
%TO.P,U1,7*%
%TO.N,GPIO1_SPARE*%
X28900000Y-34250000D03*
%TO.P,U1,8*%
%TO.N,GPIO0_SPARE*%
X28900000Y-36790000D03*
%TO.P,U1,9*%
%TO.N,GPIO21_SPARE*%
X44140000Y-36790000D03*
%TO.P,U1,10*%
%TO.N,GPIO20_SPARE*%
X44140000Y-34250000D03*
%TO.P,U1,11*%
%TO.N,BIN2_GPIO10*%
X44140000Y-31710000D03*
%TO.P,U1,12*%
%TO.N,BIN1_GPIO9*%
X44140000Y-29170000D03*
%TO.P,U1,13*%
%TO.N,GPIO8_LED_EXPANSION*%
X44140000Y-26630000D03*
%TO.P,U1,14*%
%TO.N,AIN1_GPIO7*%
X44140000Y-24090000D03*
%TO.P,U1,15*%
%TO.N,AIN2_GPIO6*%
X44140000Y-21550000D03*
%TO.P,U1,16*%
%TO.N,GPIO5_SPARE*%
X44140000Y-19010000D03*
%TD*%
D12*
%TO.P,J6,1*%
%TO.N,M2A*%
X21500000Y-52040000D03*
D13*
%TO.P,J6,2*%
%TO.N,M2B*%
X21500000Y-54040000D03*
%TD*%
D12*
%TO.P,J4,1*%
%TO.N,VBAT_RAW*%
X34500000Y-76500000D03*
D13*
%TO.P,J4,2*%
%TO.N,GND*%
X36500000Y-76500000D03*
%TD*%
D10*
%TO.P,U2,1*%
%TO.N,BIN2_GPIO10*%
X43020000Y-44470000D03*
D11*
%TO.P,U2,2*%
%TO.N,GND*%
X43020000Y-59710000D03*
%TO.P,U2,3*%
%TO.N,BIN1_GPIO9*%
X40480000Y-44470000D03*
%TO.P,U2,4*%
%TO.N,M1A*%
X40480000Y-59710000D03*
%TO.P,U2,5*%
%TO.N,GND*%
X37940000Y-44470000D03*
%TO.P,U2,6*%
%TO.N,M1B*%
X37940000Y-59710000D03*
%TO.P,U2,7*%
%TO.N,VBAT_SW*%
X35400000Y-44470000D03*
%TO.P,U2,8*%
%TO.N,M2A*%
X35400000Y-59710000D03*
%TO.P,U2,9*%
%TO.N,AIN2_GPIO6*%
X32860000Y-44470000D03*
%TO.P,U2,10*%
%TO.N,M2B*%
X32860000Y-59710000D03*
%TO.P,U2,11*%
%TO.N,AIN1_GPIO7*%
X30320000Y-44470000D03*
%TO.P,U2,12*%
%TO.N,N/C*%
X30320000Y-59710000D03*
%TD*%
D10*
%TO.P,J9,1*%
%TO.N,GPIO21_SPARE*%
X46680000Y-36790000D03*
D11*
%TO.P,J9,2*%
%TO.N,GPIO20_SPARE*%
X46680000Y-34250000D03*
%TO.P,J9,3*%
%TO.N,BIN2_GPIO10*%
X46680000Y-31710000D03*
%TO.P,J9,4*%
%TO.N,BIN1_GPIO9*%
X46680000Y-29170000D03*
%TO.P,J9,5*%
%TO.N,GPIO8_LED_EXPANSION*%
X46680000Y-26630000D03*
%TO.P,J9,6*%
%TO.N,AIN1_GPIO7*%
X46680000Y-24090000D03*
%TO.P,J9,7*%
%TO.N,AIN2_GPIO6*%
X46680000Y-21550000D03*
%TO.P,J9,8*%
%TO.N,GPIO5_SPARE*%
X46680000Y-19010000D03*
%TD*%
D12*
%TO.P,J5,1*%
%TO.N,M1A*%
X51500000Y-54000000D03*
D13*
%TO.P,J5,2*%
%TO.N,M1B*%
X51500000Y-52000000D03*
%TD*%
D10*
%TO.P,C1_C2,1*%
%TO.N,VBAT_SW*%
X53000000Y-68500000D03*
D11*
%TO.P,C1_C2,2*%
%TO.N,GND*%
X53000000Y-72500000D03*
%TD*%
D14*
%TO.N,GND*%
X53000000Y-72500000D02*
X45000000Y-72500000D01*
X43000000Y-71000000D02*
X45000000Y-72500000D01*
X29500000Y-68500000D02*
X29500000Y-71000000D01*
X43000000Y-67580000D02*
X43020000Y-67560000D01*
X36500000Y-71000000D02*
X43000000Y-71000000D01*
X36500000Y-76500000D02*
X36500000Y-71000000D01*
X43000000Y-71000000D02*
X43000000Y-67580000D01*
X45000000Y-72500000D02*
X44960000Y-76500000D01*
X29500000Y-71000000D02*
X36500000Y-71000000D01*
X43020000Y-67560000D02*
X43020000Y-59710000D01*
%TO.N,VBAT_RAW*%
X34500000Y-76500000D02*
X34500000Y-73500000D01*
X34500000Y-73500000D02*
X22500000Y-73500000D01*
X22500000Y-73500000D02*
X22200000Y-76500000D01*
%TO.N,3V3*%
X15500000Y-24000000D02*
X15500000Y-66000000D01*
X32000000Y-66500000D02*
X32040000Y-68500000D01*
D15*
X15500000Y-24000000D02*
X28900000Y-24090000D01*
D14*
X15500000Y-66000000D02*
X32000000Y-66500000D01*
D16*
%TO.N,AIN2_GPIO6*%
X53000000Y-21500000D02*
X53000000Y-48000000D01*
X33000000Y-48000000D02*
X32860000Y-44470000D01*
X53000000Y-48000000D02*
X33000000Y-48000000D01*
X46680000Y-21550000D02*
X53000000Y-21500000D01*
D17*
%TO.N,AIN1_GPIO7*%
X36000000Y-24000000D02*
X44140000Y-24090000D01*
X30500000Y-41000000D02*
X35500000Y-41000000D01*
X35500000Y-41000000D02*
X36000000Y-24000000D01*
X30320000Y-44470000D02*
X30500000Y-41000000D01*
%TO.N,BIN1_GPIO9*%
X40480000Y-44470000D02*
X40500000Y-47000000D01*
X40500000Y-47000000D02*
X51000000Y-47000000D01*
X51000000Y-47000000D02*
X51000000Y-29000000D01*
X51000000Y-29000000D02*
X44140000Y-29170000D01*
D16*
%TO.N,BIN2_GPIO10*%
X44140000Y-31710000D02*
X49000000Y-31710000D01*
X49000000Y-44470000D02*
X43020000Y-44470000D01*
X49000000Y-31710000D02*
X49000000Y-44470000D01*
D15*
%TO.N,M1A*%
X40480000Y-54000000D02*
X51500000Y-54000000D01*
X40480000Y-59710000D02*
X40480000Y-54000000D01*
%TO.N,M1B*%
X37940000Y-59710000D02*
X37940000Y-52000000D01*
X37940000Y-52000000D02*
X51500000Y-52000000D01*
%TO.N,M2A*%
X35400000Y-52040000D02*
X21500000Y-52040000D01*
X35400000Y-59710000D02*
X35400000Y-52040000D01*
%TO.N,M2B*%
X32860000Y-54040000D02*
X21500000Y-54040000D01*
X32860000Y-59710000D02*
X32860000Y-54040000D01*
%TD*%
M02*
