M48
; DRILL file {KiCad 9.0.8+dfsg-1} date 2026-08-05T10:15:35+0200
; FORMAT={-:-/ absolute / metric / decimal}
; #@! TF.CreationDate,2026-08-05T10:15:35+02:00
; #@! TF.GenerationSoftware,Kicad,Pcbnew,9.0.8+dfsg-1
; #@! TF.FileFunction,Plated,1,2,PTH
FMAT,2
METRIC
; #@! TA.AperFunction,Plated,PTH,ViaDrill
T1C0.300
; #@! TA.AperFunction,Plated,PTH,ViaDrill
T2C0.700
; #@! TA.AperFunction,Plated,PTH,ComponentDrill
T3C0.800
; #@! TA.AperFunction,Plated,PTH,ComponentDrill
T4C1.000
; #@! TA.AperFunction,Plated,PTH,ComponentDrill
T5C1.500
; #@! TA.AperFunction,Plated,PTH,ComponentDrill
T6C2.500
%
G90
G05
T1
X77.15Y-110.125
T2
X110.0Y-78.85
T3
X82.0Y-86.375
X82.0Y-88.375
X104.0Y-86.375
X104.0Y-88.375
X105.46Y-111.25
X108.0Y-111.25
T4
X80.0Y-110.125
X82.54Y-110.125
X82.76Y-59.175
X82.76Y-61.715
X82.76Y-64.255
X82.76Y-66.795
X82.76Y-69.335
X82.76Y-71.875
X82.76Y-74.415
X82.76Y-76.955
X85.08Y-110.125
X85.3Y-59.175
X85.3Y-61.715
X85.3Y-64.255
X85.3Y-66.795
X85.3Y-69.335
X85.3Y-71.875
X85.3Y-74.415
X85.3Y-76.955
X86.5Y-80.875
X86.5Y-96.115
X89.04Y-80.875
X89.04Y-96.115
X91.58Y-80.875
X91.58Y-96.115
X94.12Y-80.875
X94.12Y-96.115
X94.38Y-112.875
X96.66Y-80.875
X96.66Y-96.115
X96.92Y-112.875
X99.2Y-80.875
X99.2Y-96.115
X99.46Y-112.875
X100.54Y-59.175
X100.54Y-61.715
X100.54Y-64.255
X100.54Y-66.795
X100.54Y-69.335
X100.54Y-71.875
X100.54Y-74.415
X100.54Y-76.955
X102.0Y-112.875
X103.0Y-101.25
X103.08Y-59.175
X103.08Y-61.715
X103.08Y-64.255
X103.08Y-66.795
X103.08Y-69.335
X103.08Y-71.875
X103.08Y-74.415
X103.08Y-76.955
X108.0Y-101.25
T5
X79.5Y-104.375
X84.5Y-104.375
T6
X94.0Y-108.0
X101.0Y-108.0
M30
