M48
; DRILL file {KiCad 9.0.8+dfsg-1} date 2026-08-05T10:15:35+0200
; FORMAT={-:-/ absolute / metric / decimal}
; #@! TF.CreationDate,2026-08-05T10:15:35+02:00
; #@! TF.GenerationSoftware,Kicad,Pcbnew,9.0.8+dfsg-1
; #@! TF.FileFunction,NonPlated,1,2,NPTH
FMAT,2
METRIC
; #@! TA.AperFunction,NonPlated,NPTH,ComponentDrill
T1C0.500
; #@! TA.AperFunction,NonPlated,NPTH,ComponentDrill
T2C1.000
; #@! TA.AperFunction,NonPlated,NPTH,ComponentDrill
T3C3.000
%
G90
G05
T1
X72.52Y-82.275
X72.52Y-83.075
X72.52Y-83.875
X72.52Y-84.675
X72.52Y-85.475
X72.52Y-110.275
X72.52Y-111.075
X72.52Y-111.875
X72.52Y-112.675
X72.52Y-113.475
X91.16Y-121.875
X91.96Y-121.875
X92.76Y-121.875
X93.56Y-121.875
X94.36Y-121.875
X113.0Y-110.275
X113.0Y-111.075
X113.0Y-111.875
X113.0Y-112.675
X113.0Y-113.475
T2
X67.76Y-44.5
X113.0Y-82.275
X113.0Y-83.075
X113.0Y-83.875
X113.0Y-84.675
X113.0Y-85.475
T3
X47.76Y-134.5
X117.76Y-44.5
X137.76Y-134.5
M30
