M48
; DRILL file {KiCad 9.0.8+dfsg-1} date 2026-08-27T14:56:56+0200
; FORMAT={-:-/ absolute / metric / decimal}
; #@! TF.CreationDate,2026-08-27T14:56:56+02:00
; #@! TF.GenerationSoftware,Kicad,Pcbnew,9.0.8+dfsg-1
; #@! TF.FileFunction,Plated,1,2,PTH
FMAT,2
METRIC
; #@! TA.AperFunction,Plated,PTH,ComponentDrill
T1C0.800
; #@! TA.AperFunction,Plated,PTH,ComponentDrill
T2C0.900
; #@! TA.AperFunction,Plated,PTH,ComponentDrill
T3C1.000
%
G90
G05
T1
X43.0Y-77.0
X45.0Y-77.0
X69.5Y-77.0
X71.5Y-77.0
X77.0Y-66.0
X77.0Y-68.0
T2
X82.0Y-66.0
X82.0Y-68.54
T3
X33.0Y-39.5
X36.5Y-46.42
X36.5Y-48.96
X36.5Y-51.5
X37.0Y-39.5
X41.0Y-66.0
X41.0Y-68.54
X41.0Y-71.08
X47.6Y-35.5
X47.6Y-38.04
X47.6Y-40.58
X47.6Y-43.12
X47.6Y-45.66
X47.6Y-48.2
X47.6Y-50.74
X47.6Y-53.28
X50.14Y-35.5
X50.14Y-38.04
X50.14Y-40.58
X50.14Y-43.12
X50.14Y-45.66
X50.14Y-48.2
X50.14Y-50.74
X50.14Y-53.28
X51.08Y-61.88
X51.08Y-77.12
X53.62Y-61.88
X53.62Y-77.12
X55.01Y-83.3
X56.16Y-61.88
X56.16Y-77.12
X57.55Y-83.3
X58.7Y-61.88
X58.7Y-77.12
X60.09Y-83.3
X61.24Y-61.88
X61.24Y-77.12
X63.78Y-61.88
X63.78Y-77.12
X65.38Y-35.5
X65.38Y-38.04
X65.38Y-40.58
X65.38Y-43.12
X65.38Y-45.66
X65.38Y-48.2
X65.38Y-50.74
X65.38Y-53.28
X67.92Y-35.5
X67.92Y-38.04
X67.92Y-40.58
X67.92Y-43.12
X67.92Y-45.66
X67.92Y-48.2
X67.92Y-50.74
X67.92Y-53.28
X81.0Y-42.96
X81.0Y-45.5
M30
