#VRML V2.0 utf8

DEF PCB Appearance {
  material Material {
    diffuseColor 0.035 0.18 0.12
    specularColor 0.18 0.25 0.22
    shininess 0.35
  }
}
DEF METAL Appearance {
  material Material {
    diffuseColor 0.62 0.66 0.68
    specularColor 0.9 0.9 0.9
    shininess 0.8
  }
}
DEF DARK Appearance {
  material Material {
    diffuseColor 0.035 0.035 0.04
    specularColor 0.18 0.18 0.2
    shininess 0.25
  }
}
DEF GOLD Appearance {
  material Material {
    diffuseColor 0.82 0.58 0.08
    specularColor 0.75 0.62 0.25
    shininess 0.65
  }
}
Group {
  children [
    Transform {
      translation 3 -3.543 0.472
      children [ Shape { appearance USE PCB geometry Box { size 7.087 8.661 0.394 } } ]
    }
    Transform {
      translation 3 0.492 0.906
      children [ Shape { appearance USE METAL geometry Box { size 3.15 1.181 0.63 } } ]
    }
    Transform {
      translation 3 -3.74 0.945
      children [ Shape { appearance USE DARK geometry Box { size 1.969 1.969 0.551 } } ]
    }
    Transform {
      translation 3 -6.496 0.925
      children [ Shape { appearance USE METAL geometry Box { size 4.252 1.575 0.512 } } ]
    }
    Transform {
      translation 0 -3.543 0.118
      children [ Shape { appearance USE GOLD geometry Box { size 0.394 7.48 0.236 } } ]
    }
    Transform {
      translation 6 -3.543 0.118
      children [ Shape { appearance USE GOLD geometry Box { size 0.394 7.48 0.236 } } ]
    }
  ]
}