999
dxflib 2.2.0.0
  0
SECTION
  2
HEADER
  9
$ACADVER
  1
AC1015
  9
$HANDSEED
  5
FFFF
  9
$DIMASZ
 40
2.5
  9
$PLIMMIN
 10
0.0
 20
0.0
  9
$DIMEXE
 40
1.25
  9
$DIMGAP
 40
0.625
  9
$PLIMMAX
 10
210.0
 20
297.0
  9
$INSUNITS
 70
4
  9
$DIMSTYLE
  2
Standard
  9
$MEASUREMENT
 70
1
  9
$DIMEXO
 40
0.625
  9
$DIMTXT
 40
2.5
  0
ENDSEC
  0
SECTION
  2
TABLES
  0
TABLE
  2
VPORT
  5
8
100
AcDbSymbolTable
 70
1
  0
VPORT
  5
30
100
AcDbSymbolTableRecord
100
AcDbViewportTableRecord
  2
*Active
 70
0
 10
0.0
 20
0.0
 11
1.0
 21
1.0
 12
286.30555555555549
 22
148.5
 13
0.0
 23
0.0
 14
10.0
 24
10.0
 15
10.0
 25
10.0
 16
0.0
 26
0.0
 36
1.0
 17
0.0
 27
0.0
 37
0.0
 40
297.0
 41
1.92798353909465
 42
50.0
 43
0.0
 44
0.0
 50
0.0
 51
0.0
 71
0
 72
100
 73
1
 74
3
 75
1
 76
1
 77
0
 78
0
281
0
 65
1
110
0.0
120
0.0
130
0.0
111
1.0
121
0.0
131
0.0
112
0.0
122
1.0
132
0.0
 79
0
146
0.0
  0
ENDTAB
  0
TABLE
  2
LTYPE
  5
5
100
AcDbSymbolTable
 70
21
  0
LTYPE
  5
14
100
AcDbSymbolTableRecord
100
AcDbLinetypeTableRecord
  2
ByBlock
 70
0
  3

 72
65
 73
0
 40
0.0
  0
LTYPE
  5
15
100
AcDbSymbolTableRecord
100
AcDbLinetypeTableRecord
  2
ByLayer
 70
0
  3

 72
65
 73
0
 40
0.0
  0
LTYPE
  5
16
100
AcDbSymbolTableRecord
100
AcDbLinetypeTableRecord
  2
CONTINUOUS
 70
0
  3
Solid line
 72
65
 73
0
 40
0.0
  0
LTYPE
  5
31
100
AcDbSymbolTableRecord
100
AcDbLinetypeTableRecord
  2
DOT
 70
0
  3
Dot . . . . . . . . . . . . . . . . . . . . . .
 72
65
 73
2
 40
6.3499999999999996
 49
0.0
 74
0
 49
-6.3499999999999996
 74
0
  0
LTYPE
  5
32
100
AcDbSymbolTableRecord
100
AcDbLinetypeTableRecord
  2
DOT2
 70
0
  3
Dot (.5x) .....................................
 72
65
 73
2
 40
3.1749999999999998
 49
0.0
 74
0
 49
-3.1749999999999998
 74
0
  0
LTYPE
  5
33
100
AcDbSymbolTableRecord
100
AcDbLinetypeTableRecord
  2
DOTX2
 70
0
  3
Dot (2x) .  .  .  .  .  .  .  .  .  .  .  .  .
 72
65
 73
2
 40
12.699999999999999
 49
0.0
 74
0
 49
-12.699999999999999
 74
0
  0
LTYPE
  5
34
100
AcDbSymbolTableRecord
100
AcDbLinetypeTableRecord
  2
DASHED
 70
0
  3
Dashed __ __ __ __ __ __ __ __ __ __ __ __ __ _
 72
65
 73
2
 40
19.050000000000001
 49
12.699999999999999
 74
0
 49
-6.3499999999999996
 74
0
  0
LTYPE
  5
35
100
AcDbSymbolTableRecord
100
AcDbLinetypeTableRecord
  2
DASHED2
 70
0
  3
Dashed (.5x) _ _ _ _ _ _ _ _ _ _ _ _ _ _ _ _ _
 72
65
 73
2
 40
9.5250000000000004
 49
6.3499999999999996
 74
0
 49
-3.1749999999999998
 74
0
  0
LTYPE
  5
36
100
AcDbSymbolTableRecord
100
AcDbLinetypeTableRecord
  2
DASHEDX2
 70
0
  3
Dashed (2x) ____  ____  ____  ____  ____  ___
 72
65
 73
2
 40
38.100000000000001
 49
25.399999999999999
 74
0
 49
-12.699999999999999
 74
0
  0
LTYPE
  5
37
100
AcDbSymbolTableRecord
100
AcDbLinetypeTableRecord
  2
DASHDOT
 70
0
  3
Dash dot __ . __ . __ . __ . __ . __ . __ . __
 72
65
 73
4
 40
25.399999999999999
 49
12.699999999999999
 74
0
 49
-6.3499999999999996
 74
0
 49
0.0
 74
0
 49
-6.3499999999999996
 74
0
  0
LTYPE
  5
38
100
AcDbSymbolTableRecord
100
AcDbLinetypeTableRecord
  2
DASHDOT2
 70
0
  3
Dash dot (.5x) _._._._._._._._._._._._._._._.
 72
65
 73
4
 40
12.699999999999999
 49
6.3499999999999996
 74
0
 49
-3.1749999999999998
 74
0
 49
0.0
 74
0
 49
-3.1749999999999998
 74
0
  0
LTYPE
  5
39
100
AcDbSymbolTableRecord
100
AcDbLinetypeTableRecord
  2
DASHDOTX2
 70
0
  3
Dash dot (2x) ____  .  ____  .  ____  .  ___
 72
65
 73
4
 40
50.799999999999997
 49
25.399999999999999
 74
0
 49
-12.699999999999999
 74
0
 49
0.0
 74
0
 49
-12.699999999999999
 74
0
  0
LTYPE
  5
3A
100
AcDbSymbolTableRecord
100
AcDbLinetypeTableRecord
  2
DIVIDE
 70
0
  3
Divide ____ . . ____ . . ____ . . ____ . . ____
 72
65
 73
6
 40
31.75
 49
12.699999999999999
 74
0
 49
-6.3499999999999996
 74
0
 49
0.0
 74
0
 49
-6.3499999999999996
 74
0
 49
0.0
 74
0
 49
-6.3499999999999996
 74
0
  0
LTYPE
  5
3B
100
AcDbSymbolTableRecord
100
AcDbLinetypeTableRecord
  2
DIVIDE2
 70
0
  3
Divide (.5x) __..__..__..__..__..__..__..__.._
 72
65
 73
6
 40
15.875
 49
6.3499999999999996
 74
0
 49
-3.1749999999999998
 74
0
 49
0.0
 74
0
 49
-3.1749999999999998
 74
0
 49
0.0
 74
0
 49
-3.1749999999999998
 74
0
  0
LTYPE
  5
3C
100
AcDbSymbolTableRecord
100
AcDbLinetypeTableRecord
  2
DIVIDEX2
 70
0
  3
Divide (2x) ________  .  .  ________  .  .  _
 72
65
 73
6
 40
63.5
 49
25.399999999999999
 74
0
 49
-12.699999999999999
 74
0
 49
0.0
 74
0
 49
-12.699999999999999
 74
0
 49
0.0
 74
0
 49
-12.699999999999999
 74
0
  0
LTYPE
  5
3D
100
AcDbSymbolTableRecord
100
AcDbLinetypeTableRecord
  2
CENTER
 70
0
  3
Center ____ _ ____ _ ____ _ ____ _ ____ _ ____
 72
65
 73
4
 40
50.799999999999997
 49
31.75
 74
0
 49
-6.3499999999999996
 74
0
 49
6.3499999999999996
 74
0
 49
-6.3499999999999996
 74
0
  0
LTYPE
  5
3E
100
AcDbSymbolTableRecord
100
AcDbLinetypeTableRecord
  2
CENTER2
 70
0
  3
Center (.5x) ___ _ ___ _ ___ _ ___ _ ___ _ ___
 72
65
 73
4
 40
28.574999999999999
 49
19.050000000000001
 74
0
 49
-3.1749999999999998
 74
0
 49
3.1749999999999998
 74
0
 49
-3.1749999999999998
 74
0
  0
LTYPE
  5
3F
100
AcDbSymbolTableRecord
100
AcDbLinetypeTableRecord
  2
CENTERX2
 70
0
  3
Center (2x) ________  __  ________  __  _____
 72
65
 73
4
 40
101.59999999999999
 49
63.5
 74
0
 49
-12.699999999999999
 74
0
 49
12.699999999999999
 74
0
 49
-12.699999999999999
 74
0
  0
LTYPE
  5
40
100
AcDbSymbolTableRecord
100
AcDbLinetypeTableRecord
  2
BORDER
 70
0
  3
Border __ __ . __ __ . __ __ . __ __ . __ __ .
 72
65
 73
6
 40
44.450000000000003
 49
12.699999999999999
 74
0
 49
-6.3499999999999996
 74
0
 49
12.699999999999999
 74
0
 49
-6.3499999999999996
 74
0
 49
0.0
 74
0
 49
-6.3499999999999996
 74
0
  0
LTYPE
  5
41
100
AcDbSymbolTableRecord
100
AcDbLinetypeTableRecord
  2
BORDER2
 70
0
  3
Border (.5x) __.__.__.__.__.__.__.__.__.__.__.
 72
65
 73
6
 40
22.225000000000001
 49
6.3499999999999996
 74
0
 49
-3.1749999999999998
 74
0
 49
6.3499999999999996
 74
0
 49
-3.1749999999999998
 74
0
 49
0.0
 74
0
 49
-3.1749999999999998
 74
0
  0
LTYPE
  5
42
100
AcDbSymbolTableRecord
100
AcDbLinetypeTableRecord
  2
BORDERX2
 70
0
  3
Border (2x) ____  ____  .  ____  ____  .  ___
 72
65
 73
6
 40
88.900000000000006
 49
25.399999999999999
 74
0
 49
-12.699999999999999
 74
0
 49
25.399999999999999
 74
0
 49
-12.699999999999999
 74
0
 49
0.0
 74
0
 49
-12.699999999999999
 74
0
  0
ENDTAB
  0
TABLE
  2
LAYER
  5
2
100
AcDbSymbolTable
 70
2
  0
LAYER
  5
10
100
AcDbSymbolTableRecord
100
AcDbLayerTableRecord
  2
0
 70
0
 62
7
  6
CONTINUOUS
390
F
  0
LAYER
  5
43
100
AcDbSymbolTableRecord
100
AcDbLayerTableRecord
  2
Layer_1
 70
0
 62
7
  6
CONTINUOUS
390
F
  0
ENDTAB
  0
TABLE
  2
STYLE
  5
3
100
AcDbSymbolTable
 70
1
  0
STYLE
  5
11
100
AcDbSymbolTableRecord
100
AcDbTextStyleTableRecord
  2
Standard
 70
0
 40
0.0
 41
0.75
 50
0.0
 71
0
 42
2.5
  3
txt
  4

  0
ENDTAB
  0
TABLE
  2
VIEW
  5
6
100
AcDbSymbolTable
 70
0
  0
ENDTAB
  0
TABLE
  2
UCS
  5
7
100
AcDbSymbolTable
 70
0
  0
ENDTAB
  0
TABLE
  2
APPID
  5
9
100
AcDbSymbolTable
 70
1
  0
APPID
  5
12
100
AcDbSymbolTableRecord
100
AcDbRegAppTableRecord
  2
ACAD
 70
0
  0
ENDTAB
  0
TABLE
  2
DIMSTYLE
  5
A
100
AcDbSymbolTable
 70
1
100
AcDbDimStyleTable
 71
0
  0
DIMSTYLE
105
27
100
AcDbSymbolTableRecord
100
AcDbDimStyleTableRecord
  2
Standard
 41
2.5
 42
0.625
 43
3.75
 44
1.25
 70
0
 73
0
 74
0
 77
1
 78
8
140
2.5
141
2.5
143
0.03937007874016
147
0.625
171
3
172
1
271
2
272
2
274
3
278
44
283
0
284
8
340
11
  0
ENDTAB
  0
TABLE
  2
BLOCK_RECORD
  5
1
100
AcDbSymbolTable
 70
1
  0
BLOCK_RECORD
  5
1F
100
AcDbSymbolTableRecord
100
AcDbBlockTableRecord
  2
*Model_Space
340
22
  0
BLOCK_RECORD
  5
1B
100
AcDbSymbolTableRecord
100
AcDbBlockTableRecord
  2
*Paper_Space
340
1E
  0
BLOCK_RECORD
  5
23
100
AcDbSymbolTableRecord
100
AcDbBlockTableRecord
  2
*Paper_Space0
340
26
  0
ENDTAB
  0
ENDSEC
  0
SECTION
  2
BLOCKS
  0
BLOCK
  5
20
100
AcDbEntity
  8
0
100
AcDbBlockBegin
  2
*Model_Space
 70
0
 10
0.0
 20
0.0
 30
0.0
  3
*Model_Space
  1

  0
ENDBLK
  5
21
100
AcDbEntity
  8
0
100
AcDbBlockEnd
  0
BLOCK
  5
1C
100
AcDbEntity
 67
1
  8
0
100
AcDbBlockBegin
  2
*Paper_Space
 70
0
 10
0.0
 20
0.0
 30
0.0
  3
*Paper_Space
  1

  0
ENDBLK
  5
1D
100
AcDbEntity
 67
1
  8
0
100
AcDbBlockEnd
  0
BLOCK
  5
24
100
AcDbEntity
  8
0
100
AcDbBlockBegin
  2
*Paper_Space0
 70
0
 10
0.0
 20
0.0
 30
0.0
  3
*Paper_Space0
  1

  0
ENDBLK
  5
25
100
AcDbEntity
  8
0
100
AcDbBlockEnd
  0
ENDSEC
  0
SECTION
  2
ENTITIES
  0
SPLINE
  5
44
  8
Layer_1
 62
7
370
-1
  6
ByLayer
100
AcDbEntity
100
AcDbSpline
 70
8
 71
3
 72
8
 73
4
 74
0
 40
0.0
 40
0.0
 40
0.0
 40
0.0
 40
1.0
 40
1.0
 40
1.0
 40
1.0
 10
121.532258
 20
-142.860097
 30
0.0
 10
114.509073
 20
-142.33073300000001
 30
0.0
 10
109.202815
 20
-141.14571000000001
 30
0.0
 10
107.10415500000001
 20
-139.63796600000001
 30
0.0
  0
SPLINE
  5
45
  8
Layer_1
 62
7
370
-1
  6
ByLayer
100
AcDbEntity
100
AcDbSpline
 70
8
 71
3
 72
8
 73
4
 74
0
 40
0.0
 40
0.0
 40
0.0
 40
0.0
 40
1.0
 40
1.0
 40
1.0
 40
1.0
 10
107.10415500000001
 20
-139.63796600000001
 30
0.0
 10
106.34644400000001
 20
-139.093616
 30
0.0
 10
105.541293
 20
-138.64824100000001
 30
0.0
 10
105.314922
 20
-138.64824100000001
 30
0.0
  0
SPLINE
  5
46
  8
Layer_1
 62
7
370
-1
  6
ByLayer
100
AcDbEntity
100
AcDbSpline
 70
8
 71
3
 72
8
 73
4
 74
0
 40
0.0
 40
0.0
 40
0.0
 40
0.0
 40
1.0
 40
1.0
 40
1.0
 40
1.0
 10
105.314922
 20
-138.64824100000001
 30
0.0
 10
105.08855200000001
 20
-138.64824100000001
 30
0.0
 10
103.21558400000001
 20
-139.02495099999999
 30
0.0
 10
101.152793
 20
-139.48539700000001
 30
0.0
  0
SPLINE
  5
47
  8
Layer_1
 62
7
370
-1
  6
ByLayer
100
AcDbEntity
100
AcDbSpline
 70
8
 71
3
 72
8
 73
4
 74
0
 40
0.0
 40
0.0
 40
0.0
 40
0.0
 40
1.0
 40
1.0
 40
1.0
 40
1.0
 10
101.152793
 20
-139.48539700000001
 30
0.0
 10
94.610786000000004
 20
-140.94564299999999
 30
0.0
 10
91.950879
 20
-141.251318
 30
0.0
 10
85.831147000000001
 20
-141.24606800000001
 30
0.0
  0
SPLINE
  5
48
  8
Layer_1
 62
7
370
-1
  6
ByLayer
100
AcDbEntity
100
AcDbSpline
 70
8
 71
3
 72
8
 73
4
 74
0
 40
0.0
 40
0.0
 40
0.0
 40
0.0
 40
1.0
 40
1.0
 40
1.0
 40
1.0
 10
85.831147000000001
 20
-141.24606800000001
 30
0.0
 10
74.646495999999999
 20
-141.23647299999999
 30
0.0
 10
60.058467
 20
-139.14252500000001
 30
0.0
 10
45.050035000000001
 20
-135.39238399999999
 30
0.0
  0
SPLINE
  5
49
  8
Layer_1
 62
7
370
-1
  6
ByLayer
100
AcDbEntity
100
AcDbSpline
 70
8
 71
3
 72
8
 73
4
 74
0
 40
0.0
 40
0.0
 40
0.0
 40
0.0
 40
1.0
 40
1.0
 40
1.0
 40
1.0
 10
45.050035000000001
 20
-135.39238399999999
 30
0.0
 10
33.911396000000003
 20
-132.609194
 30
0.0
 10
30.776187
 20
-131.36007799999999
 30
0.0
 10
22.597785999999999
 20
-126.446984
 30
0.0
  0
SPLINE
  5
4A
  8
Layer_1
 62
7
370
-1
  6
ByLayer
100
AcDbEntity
100
AcDbSpline
 70
8
 71
3
 72
8
 73
4
 74
0
 40
0.0
 40
0.0
 40
0.0
 40
0.0
 40
1.0
 40
1.0
 40
1.0
 40
1.0
 10
22.597785999999999
 20
-126.446984
 30
0.0
 10
15.212626
 20
-122.010451
 30
0.0
 10
15.431622000000001
 20
-122.11202299999999
 30
0.0
 10
14.397487
 20
-122.642854
 30
0.0
  0
SPLINE
  5
4B
  8
Layer_1
 62
7
370
-1
  6
ByLayer
100
AcDbEntity
100
AcDbSpline
 70
8
 71
3
 72
8
 73
4
 74
0
 40
0.0
 40
0.0
 40
0.0
 40
0.0
 40
1.0
 40
1.0
 40
1.0
 40
1.0
 10
14.397487
 20
-122.642854
 30
0.0
 10
13.949112
 20
-122.873007
 30
0.0
 10
12.625142
 20
-123.27305699999999
 30
0.0
 10
11.455337
 20
-123.53191099999999
 30
0.0
  0
SPLINE
  5
4C
  8
Layer_1
 62
7
370
-1
  6
ByLayer
100
AcDbEntity
100
AcDbSpline
 70
8
 71
3
 72
8
 73
4
 74
0
 40
0.0
 40
0.0
 40
0.0
 40
0.0
 40
1.0
 40
1.0
 40
1.0
 40
1.0
 10
11.455337
 20
-123.53191099999999
 30
0.0
 10
9.4794140000000002
 20
-123.96910099999999
 30
0.0
 10
9.1688600000000005
 20
-123.969722
 30
0.0
 10
7.0808920000000004
 20
-123.540942
 30
0.0
  0
SPLINE
  5
4D
  8
Layer_1
 62
7
370
-1
  6
ByLayer
100
AcDbEntity
100
AcDbSpline
 70
8
 71
3
 72
8
 73
4
 74
0
 40
0.0
 40
0.0
 40
0.0
 40
0.0
 40
1.0
 40
1.0
 40
1.0
 40
1.0
 10
7.0808920000000004
 20
-123.540942
 30
0.0
 10
5.8447529999999999
 20
-123.286998
 30
0.0
 10
4.0713679999999997
 20
-122.82587599999999
 30
0.0
 10
3.140034
 20
-122.51625
 30
0.0
  0
SPLINE
  5
4E
  8
Layer_1
 62
7
370
-1
  6
ByLayer
100
AcDbEntity
100
AcDbSpline
 70
8
 71
3
 72
8
 73
4
 74
0
 40
0.0
 40
0.0
 40
0.0
 40
0.0
 40
1.0
 40
1.0
 40
1.0
 40
1.0
 10
3.140034
 20
-122.51625
 30
0.0
 10
-2.6252409999999999
 20
-120.599424
 30
0.0
 10
-14.399419
 20
-113.23286
 30
0.0
 10
-21.131077000000001
 20
-107.330888
 30
0.0
  0
SPLINE
  5
4F
  8
Layer_1
 62
7
370
-1
  6
ByLayer
100
AcDbEntity
100
AcDbSpline
 70
8
 71
3
 72
8
 73
4
 74
0
 40
0.0
 40
0.0
 40
0.0
 40
0.0
 40
1.0
 40
1.0
 40
1.0
 40
1.0
 10
-21.131077000000001
 20
-107.330888
 30
0.0
 10
-22.838521
 20
-105.833896
 30
0.0
 10
-25.544186
 20
-103.503559
 30
0.0
 10
-27.143666
 20
-102.15239200000001
 30
0.0
  0
SPLINE
  5
50
  8
Layer_1
 62
7
370
-1
  6
ByLayer
100
AcDbEntity
100
AcDbSpline
 70
8
 71
3
 72
8
 73
4
 74
0
 40
0.0
 40
0.0
 40
0.0
 40
0.0
 40
1.0
 40
1.0
 40
1.0
 40
1.0
 10
-31.235887000000002
 20
-100.506783
 30
0.0
 10
-33.12959
 20
-101.803876
 30
0.0
 10
-34.537142000000003
 20
-102.422535
 30
0.0
 10
-36.709010999999997
 20
-102.912417
 30
0.0
  0
SPLINE
  5
51
  8
Layer_1
 62
7
370
-1
  6
ByLayer
100
AcDbEntity
100
AcDbSpline
 70
8
 71
3
 72
8
 73
4
 74
0
 40
0.0
 40
0.0
 40
0.0
 40
0.0
 40
1.0
 40
1.0
 40
1.0
 40
1.0
 10
-36.709010999999997
 20
-102.912417
 30
0.0
 10
-39.399805000000001
 20
-103.519364
 30
0.0
 10
-41.792299
 20
-103.48781099999999
 30
0.0
 10
-44.627882
 20
-102.80802300000001
 30
0.0
  0
SPLINE
  5
52
  8
Layer_1
 62
7
370
-1
  6
ByLayer
100
AcDbEntity
100
AcDbSpline
 70
8
 71
3
 72
8
 73
4
 74
0
 40
0.0
 40
0.0
 40
0.0
 40
0.0
 40
1.0
 40
1.0
 40
1.0
 40
1.0
 10
-44.627882
 20
-102.80802300000001
 30
0.0
 10
-47.437869999999997
 20
-102.13435800000001
 30
0.0
 10
-48.889823999999997
 20
-101.422989
 30
0.0
 10
-52.004378000000003
 20
-99.194081999999995
 30
0.0
  0
SPLINE
  5
53
  8
Layer_1
 62
7
370
-1
  6
ByLayer
100
AcDbEntity
100
AcDbSpline
 70
8
 71
3
 72
8
 73
4
 74
0
 40
0.0
 40
0.0
 40
0.0
 40
0.0
 40
1.0
 40
1.0
 40
1.0
 40
1.0
 10
-52.004378000000003
 20
-99.194081999999995
 30
0.0
 10
-56.898497999999996
 20
-95.691592
 30
0.0
 10
-61.964463000000002
 20
-90.666145
 30
0.0
 10
-73.521522000000004
 20
-77.849051000000003
 30
0.0
  0
SPLINE
  5
54
  8
Layer_1
 62
7
370
-1
  6
ByLayer
100
AcDbEntity
100
AcDbSpline
 70
8
 71
3
 72
8
 73
4
 74
0
 40
0.0
 40
0.0
 40
0.0
 40
0.0
 40
1.0
 40
1.0
 40
1.0
 40
1.0
 10
-73.521522000000004
 20
-77.849051000000003
 30
0.0
 10
-75.751221999999999
 20
-75.376248000000004
 30
0.0
 10
-77.702520000000007
 20
-73.319976999999994
 30
0.0
 10
-77.857742000000002
 20
-73.279534999999996
 30
0.0
  0
SPLINE
  5
55
  8
Layer_1
 62
7
370
-1
  6
ByLayer
100
AcDbEntity
100
AcDbSpline
 70
8
 71
3
 72
8
 73
4
 74
0
 40
0.0
 40
0.0
 40
0.0
 40
0.0
 40
1.0
 40
1.0
 40
1.0
 40
1.0
 10
-77.857742000000002
 20
-73.279534999999996
 30
0.0
 10
-78.012964999999994
 20
-73.239091999999999
 30
0.0
 10
-78.520965000000004
 20
-73.798625999999999
 30
0.0
 10
-78.986631000000003
 20
-74.522920999999997
 30
0.0
  0
SPLINE
  5
56
  8
Layer_1
 62
7
370
-1
  6
ByLayer
100
AcDbEntity
100
AcDbSpline
 70
8
 71
3
 72
8
 73
4
 74
0
 40
0.0
 40
0.0
 40
0.0
 40
0.0
 40
1.0
 40
1.0
 40
1.0
 40
1.0
 10
-78.986631000000003
 20
-74.522920999999997
 30
0.0
 10
-79.479741000000004
 20
-75.289917000000003
 30
0.0
 10
-80.410809
 20
-76.194777999999999
 30
0.0
 10
-81.216271000000006
 20
-76.689852000000002
 30
0.0
  0
SPLINE
  5
57
  8
Layer_1
 62
7
370
-1
  6
ByLayer
100
AcDbEntity
100
AcDbSpline
 70
8
 71
3
 72
8
 73
4
 74
0
 40
0.0
 40
0.0
 40
0.0
 40
0.0
 40
1.0
 40
1.0
 40
1.0
 40
1.0
 10
-81.216271000000006
 20
-76.689852000000002
 30
0.0
 10
-82.440946999999994
 20
-77.442537999999999
 30
0.0
 10
-82.844744000000006
 20
-77.538803999999999
 30
0.0
 10
-84.744049000000004
 20
-77.530788999999999
 30
0.0
  0
SPLINE
  5
58
  8
Layer_1
 62
7
370
-1
  6
ByLayer
100
AcDbEntity
100
AcDbSpline
 70
8
 71
3
 72
8
 73
4
 74
0
 40
0.0
 40
0.0
 40
0.0
 40
0.0
 40
1.0
 40
1.0
 40
1.0
 40
1.0
 10
-84.744049000000004
 20
-77.530788999999999
 30
0.0
 10
-86.234523999999993
 20
-77.52458
 30
0.0
 10
-87.233249000000001
 20
-77.360552999999996
 30
0.0
 10
-88.017741999999998
 20
-76.993324999999999
 30
0.0
  0
SPLINE
  5
59
  8
Layer_1
 62
7
370
-1
  6
ByLayer
100
AcDbEntity
100
AcDbSpline
 70
8
 71
3
 72
8
 73
4
 74
0
 40
0.0
 40
0.0
 40
0.0
 40
0.0
 40
1.0
 40
1.0
 40
1.0
 40
1.0
 10
-88.017741999999998
 20
-76.993324999999999
 30
0.0
 10
-90.145550999999998
 20
-75.997249999999994
 30
0.0
 10
-97.407420000000002
 20
-67.942515
 30
0.0
 10
-102.19667699999999
 20
-61.266266000000002
 30
0.0
  0
SPLINE
  5
5A
  8
Layer_1
 62
7
370
-1
  6
ByLayer
100
AcDbEntity
100
AcDbSpline
 70
8
 71
3
 72
8
 73
4
 74
0
 40
0.0
 40
0.0
 40
0.0
 40
0.0
 40
1.0
 40
1.0
 40
1.0
 40
1.0
 10
-102.19667699999999
 20
-61.266266000000002
 30
0.0
 10
-106.42703899999999
 20
-55.369120000000002
 30
0.0
 10
-107.84816600000001
 20
-52.068983000000003
 30
0.0
 10
-112.162181
 20
-38.124467000000003
 30
0.0
  0
LWPOLYLINE
  5
5B
  8
Layer_1
 62
7
370
-1
  6
ByLayer
100
AcDbEntity
100
AcDbPolyline
 90
3
 70
0
 10
-27.143666
 20
-102.15239200000001
 10
-30.05181
 20
-99.695732000000007
 10
-31.235887000000002
 20
-100.506783
  0
SPLINE
  5
5C
  8
Layer_1
 62
7
370
-1
  6
ByLayer
100
AcDbEntity
100
AcDbSpline
 70
8
 71
3
 72
8
 73
4
 74
0
 40
0.0
 40
0.0
 40
0.0
 40
0.0
 40
1.0
 40
1.0
 40
1.0
 40
1.0
 10
-115.930556
 20
-30.261164000000001
 30
0.0
 10
-117.699152
 20
-29.853437
 30
0.0
 10
-119.52370500000001
 20
-28.837889000000001
 30
0.0
 10
-120.34187799999999
 20
-27.805802
 30
0.0
  0
SPLINE
  5
5D
  8
Layer_1
 62
7
370
-1
  6
ByLayer
100
AcDbEntity
100
AcDbSpline
 70
8
 71
3
 72
8
 73
4
 74
0
 40
0.0
 40
0.0
 40
0.0
 40
0.0
 40
1.0
 40
1.0
 40
1.0
 40
1.0
 10
-120.34187799999999
 20
-27.805802
 30
0.0
 10
-121.194548
 20
-26.730197
 30
0.0
 10
-126.05051400000001
 20
-18.477342
 30
0.0
 10
-128.43737200000001
 20
-14.047271
 30
0.0
  0
SPLINE
  5
5E
  8
Layer_1
 62
7
370
-1
  6
ByLayer
100
AcDbEntity
100
AcDbSpline
 70
8
 71
3
 72
8
 73
4
 74
0
 40
0.0
 40
0.0
 40
0.0
 40
0.0
 40
1.0
 40
1.0
 40
1.0
 40
1.0
 10
-128.43737200000001
 20
-14.047271
 30
0.0
 10
-130.67744300000001
 20
-9.8896300000000004
 30
0.0
 10
-133.57497900000001
 20
-3.7740149999999999
 30
0.0
 10
-134.619258
 20
-0.99963
 30
0.0
  0
SPLINE
  5
5F
  8
Layer_1
 62
7
370
-1
  6
ByLayer
100
AcDbEntity
100
AcDbSpline
 70
8
 71
3
 72
8
 73
4
 74
0
 40
0.0
 40
0.0
 40
0.0
 40
0.0
 40
1.0
 40
1.0
 40
1.0
 40
1.0
 10
-134.619258
 20
-0.99963
 30
0.0
 10
-136.51153500000001
 20
4.027679
 30
0.0
 10
-137.88933
 20
11.515034999999999
 30
0.0
 10
-139.80057600000001
 20
27.157173
 30
0.0
  0
SPLINE
  5
60
  8
Layer_1
 62
7
370
-1
  6
ByLayer
100
AcDbEntity
100
AcDbSpline
 70
8
 71
3
 72
8
 73
4
 74
0
 40
0.0
 40
0.0
 40
0.0
 40
0.0
 40
1.0
 40
1.0
 40
1.0
 40
1.0
 10
-139.80057600000001
 20
27.157173
 30
0.0
 10
-140.42645099999999
 20
32.279507000000002
 30
0.0
 10
-140.99661900000001
 20
36.627958
 30
0.0
 10
-141.06761800000001
 20
36.820405999999998
 30
0.0
  0
SPLINE
  5
61
  8
Layer_1
 62
7
370
-1
  6
ByLayer
100
AcDbEntity
100
AcDbSpline
 70
8
 71
3
 72
8
 73
4
 74
0
 40
0.0
 40
0.0
 40
0.0
 40
0.0
 40
1.0
 40
1.0
 40
1.0
 40
1.0
 10
-141.06761800000001
 20
36.820405999999998
 30
0.0
 10
-141.15444600000001
 20
37.055751000000001
 30
0.0
 10
-142.60887600000001
 20
36.447420999999999
 30
0.0
 10
-145.51055500000001
 20
34.962085000000002
 30
0.0
  0
SPLINE
  5
62
  8
Layer_1
 62
7
370
-1
  6
ByLayer
100
AcDbEntity
100
AcDbSpline
 70
8
 71
3
 72
8
 73
4
 74
0
 40
0.0
 40
0.0
 40
0.0
 40
0.0
 40
1.0
 40
1.0
 40
1.0
 40
1.0
 10
-145.51055500000001
 20
34.962085000000002
 30
0.0
 10
-152.34557100000001
 20
31.463432999999998
 30
0.0
 10
-158.682188
 20
29.273980999999999
 30
0.0
 10
-161.97311300000001
 20
29.273980999999999
 30
0.0
  0
SPLINE
  5
63
  8
Layer_1
 62
7
370
-1
  6
ByLayer
100
AcDbEntity
100
AcDbSpline
 70
8
 71
3
 72
8
 73
4
 74
0
 40
0.0
 40
0.0
 40
0.0
 40
0.0
 40
1.0
 40
1.0
 40
1.0
 40
1.0
 10
-161.97311300000001
 20
29.273980999999999
 30
0.0
 10
-165.27781400000001
 20
29.273980999999999
 30
0.0
 10
-167.95622399999999
 20
31.260853999999998
 30
0.0
 10
-168.61403899999999
 20
34.200282999999999
 30
0.0
  0
SPLINE
  5
64
  8
Layer_1
 62
7
370
-1
  6
ByLayer
100
AcDbEntity
100
AcDbSpline
 70
8
 71
3
 72
8
 73
4
 74
0
 40
0.0
 40
0.0
 40
0.0
 40
0.0
 40
1.0
 40
1.0
 40
1.0
 40
1.0
 10
-168.61403899999999
 20
34.200282999999999
 30
0.0
 10
-169.15609799999999
 20
36.622455000000002
 30
0.0
 10
-168.716376
 20
38.175778000000001
 30
0.0
 10
-166.17404500000001
 20
42.819547
 30
0.0
  0
SPLINE
  5
65
  8
Layer_1
 62
7
370
-1
  6
ByLayer
100
AcDbEntity
100
AcDbSpline
 70
8
 71
3
 72
8
 73
4
 74
0
 40
0.0
 40
0.0
 40
0.0
 40
0.0
 40
1.0
 40
1.0
 40
1.0
 40
1.0
 10
-166.17404500000001
 20
42.819547
 30
0.0
 10
-163.3982
 20
47.889867000000002
 30
0.0
 10
-160.72019599999999
 20
53.865132000000003
 30
0.0
 10
-159.21678399999999
 20
58.342869999999998
 30
0.0
  0
LWPOLYLINE
  5
66
  8
Layer_1
 62
7
370
-1
  6
ByLayer
100
AcDbEntity
100
AcDbPolyline
 90
3
 70
0
 10
-112.162181
 20
-38.124467000000003
 10
-114.492261
 20
-30.592775
 10
-115.930556
 20
-30.261164000000001
  0
SPLINE
  5
67
  8
Layer_1
 62
7
370
-1
  6
ByLayer
100
AcDbEntity
100
AcDbSpline
 70
8
 71
3
 72
8
 73
4
 74
0
 40
0.0
 40
0.0
 40
0.0
 40
0.0
 40
1.0
 40
1.0
 40
1.0
 40
1.0
 10
-158.02910600000001
 20
66.527305999999996
 30
0.0
 10
-158.025521
 20
71.707834000000005
 30
0.0
 10
-158.097962
 20
72.329400000000007
 30
0.0
 10
-160.26530199999999
 20
85.718417000000002
 30
0.0
  0
SPLINE
  5
68
  8
Layer_1
 62
7
370
-1
  6
ByLayer
100
AcDbEntity
100
AcDbSpline
 70
8
 71
3
 72
8
 73
4
 74
0
 40
0.0
 40
0.0
 40
0.0
 40
0.0
 40
1.0
 40
1.0
 40
1.0
 40
1.0
 10
-160.26530199999999
 20
85.718417000000002
 30
0.0
 10
-162.84231800000001
 20
101.638262
 30
0.0
 10
-162.984894
 20
103.729614
 30
0.0
 10
-161.98728399999999
 20
110.977306
 30
0.0
  0
SPLINE
  5
69
  8
Layer_1
 62
7
370
-1
  6
ByLayer
100
AcDbEntity
100
AcDbSpline
 70
8
 71
3
 72
8
 73
4
 74
0
 40
0.0
 40
0.0
 40
0.0
 40
0.0
 40
1.0
 40
1.0
 40
1.0
 40
1.0
 10
-161.98728399999999
 20
110.977306
 30
0.0
 10
-161.752263
 20
112.68474999999999
 30
0.0
 10
-161.47118699999999
 20
115.15078
 30
0.0
 10
-161.36266900000001
 20
116.457362
 30
0.0
  0
SPLINE
  5
6A
  8
Layer_1
 62
7
370
-1
  6
ByLayer
100
AcDbEntity
100
AcDbSpline
 70
8
 71
3
 72
8
 73
4
 74
0
 40
0.0
 40
0.0
 40
0.0
 40
0.0
 40
1.0
 40
1.0
 40
1.0
 40
1.0
 10
-161.36266900000001
 20
116.457362
 30
0.0
 10
-161.17479399999999
 20
118.719418
 30
0.0
 10
-161.19109800000001
 20
118.822962
 30
0.0
 10
-161.70377199999999
 20
118.62353299999999
 30
0.0
  0
SPLINE
  5
6B
  8
Layer_1
 62
7
370
-1
  6
ByLayer
100
AcDbEntity
100
AcDbSpline
 70
8
 71
3
 72
8
 73
4
 74
0
 40
0.0
 40
0.0
 40
0.0
 40
0.0
 40
1.0
 40
1.0
 40
1.0
 40
1.0
 10
-161.70377199999999
 20
118.62353299999999
 30
0.0
 10
-164.525432
 20
117.525903
 30
0.0
 10
-167.52642
 20
117.87248
 30
0.0
 10
-169.44883300000001
 20
119.517994
 30
0.0
  0
SPLINE
  5
6C
  8
Layer_1
 62
7
370
-1
  6
ByLayer
100
AcDbEntity
100
AcDbSpline
 70
8
 71
3
 72
8
 73
4
 74
0
 40
0.0
 40
0.0
 40
0.0
 40
0.0
 40
1.0
 40
1.0
 40
1.0
 40
1.0
 10
-169.44883300000001
 20
119.517994
 30
0.0
 10
-170.758375
 20
120.638913
 30
0.0
 10
-171.207334
 20
121.424803
 30
0.0
 10
-171.67450500000001
 20
123.413967
 30
0.0
  0
SPLINE
  5
6D
  8
Layer_1
 62
7
370
-1
  6
ByLayer
100
AcDbEntity
100
AcDbSpline
 70
8
 71
3
 72
8
 73
4
 74
0
 40
0.0
 40
0.0
 40
0.0
 40
0.0
 40
1.0
 40
1.0
 40
1.0
 40
1.0
 10
-171.67450500000001
 20
123.413967
 30
0.0
 10
-171.99114700000001
 20
124.762182
 30
0.0
 10
-171.873153
 20
125.528819
 30
0.0
 10
-169.61122599999999
 20
136.819523
 30
0.0
  0
SPLINE
  5
6E
  8
Layer_1
 62
7
370
-1
  6
ByLayer
100
AcDbEntity
100
AcDbSpline
 70
8
 71
3
 72
8
 73
4
 74
0
 40
0.0
 40
0.0
 40
0.0
 40
0.0
 40
1.0
 40
1.0
 40
1.0
 40
1.0
 10
-169.61122599999999
 20
136.819523
 30
0.0
 10
-166.09605300000001
 20
154.36597800000001
 30
0.0
 10
-163.61763099999999
 20
164.509703
 30
0.0
 10
-161.26173299999999
 20
170.992446
 30
0.0
  0
SPLINE
  5
6F
  8
Layer_1
 62
7
370
-1
  6
ByLayer
100
AcDbEntity
100
AcDbSpline
 70
8
 71
3
 72
8
 73
4
 74
0
 40
0.0
 40
0.0
 40
0.0
 40
0.0
 40
1.0
 40
1.0
 40
1.0
 40
1.0
 10
-161.26173299999999
 20
170.992446
 30
0.0
 10
-159.84699499999999
 20
174.88539599999999
 30
0.0
 10
-157.650126
 20
177.87736100000001
 30
0.0
 10
-148.86651599999999
 20
187.87378200000001
 30
0.0
  0
SPLINE
  5
70
  8
Layer_1
 62
7
370
-1
  6
ByLayer
100
AcDbEntity
100
AcDbSpline
 70
8
 71
3
 72
8
 73
4
 74
0
 40
0.0
 40
0.0
 40
0.0
 40
0.0
 40
1.0
 40
1.0
 40
1.0
 40
1.0
 10
-148.86651599999999
 20
187.87378200000001
 30
0.0
 10
-146.211298
 20
190.895623
 30
0.0
 10
-144.038848
 20
193.45770200000001
 30
0.0
 10
-144.038848
 20
193.56728799999999
 30
0.0
  0
SPLINE
  5
71
  8
Layer_1
 62
7
370
-1
  6
ByLayer
100
AcDbEntity
100
AcDbSpline
 70
8
 71
3
 72
8
 73
4
 74
0
 40
0.0
 40
0.0
 40
0.0
 40
0.0
 40
1.0
 40
1.0
 40
1.0
 40
1.0
 10
-144.038848
 20
193.56728799999999
 30
0.0
 10
-144.038848
 20
193.676875
 30
0.0
 10
-145.340598
 20
194.77322100000001
 30
0.0
 10
-146.93162599999999
 20
196.00360800000001
 30
0.0
  0
SPLINE
  5
72
  8
Layer_1
 62
7
370
-1
  6
ByLayer
100
AcDbEntity
100
AcDbSpline
 70
8
 71
3
 72
8
 73
4
 74
0
 40
0.0
 40
0.0
 40
0.0
 40
0.0
 40
1.0
 40
1.0
 40
1.0
 40
1.0
 10
-146.93162599999999
 20
196.00360800000001
 30
0.0
 10
-151.755258
 20
199.733867
 30
0.0
 10
-153.98727400000001
 20
203.401906
 30
0.0
 10
-155.47118499999999
 20
210.037306
 30
0.0
  0
SPLINE
  5
73
  8
Layer_1
 62
7
370
-1
  6
ByLayer
100
AcDbEntity
100
AcDbSpline
 70
8
 71
3
 72
8
 73
4
 74
0
 40
0.0
 40
0.0
 40
0.0
 40
0.0
 40
1.0
 40
1.0
 40
1.0
 40
1.0
 10
-155.47118499999999
 20
210.037306
 30
0.0
 10
-156.08071699999999
 20
212.76287600000001
 30
0.0
 10
-156.20775399999999
 20
213.94734199999999
 30
0.0
 10
-156.12195800000001
 20
216.10508400000001
 30
0.0
  0
SPLINE
  5
74
  8
Layer_1
 62
7
370
-1
  6
ByLayer
100
AcDbEntity
100
AcDbSpline
 70
8
 71
3
 72
8
 73
4
 74
0
 40
0.0
 40
0.0
 40
0.0
 40
0.0
 40
1.0
 40
1.0
 40
1.0
 40
1.0
 10
-156.12195800000001
 20
216.10508400000001
 30
0.0
 10
-155.950401
 20
220.41970599999999
 30
0.0
 10
-154.60404500000001
 20
222.44389100000001
 30
0.0
 10
-151.32200700000001
 20
223.321596
 30
0.0
  0
SPLINE
  5
75
  8
Layer_1
 62
7
370
-1
  6
ByLayer
100
AcDbEntity
100
AcDbSpline
 70
8
 71
3
 72
8
 73
4
 74
0
 40
0.0
 40
0.0
 40
0.0
 40
0.0
 40
1.0
 40
1.0
 40
1.0
 40
1.0
 10
-151.32200700000001
 20
223.321596
 30
0.0
 10
-149.97233600000001
 20
223.682536
 30
0.0
 10
-149.489868
 20
223.66667799999999
 30
0.0
 10
-146.437737
 20
223.16105099999999
 30
0.0
  0
SPLINE
  5
76
  8
Layer_1
 62
7
370
-1
  6
ByLayer
100
AcDbEntity
100
AcDbSpline
 70
8
 71
3
 72
8
 73
4
 74
0
 40
0.0
 40
0.0
 40
0.0
 40
0.0
 40
1.0
 40
1.0
 40
1.0
 40
1.0
 10
-146.437737
 20
223.16105099999999
 30
0.0
 10
-139.227484
 20
221.966577
 30
0.0
 10
-132.65304399999999
 20
221.74386699999999
 30
0.0
 10
-125.811475
 20
222.462334
 30
0.0
  0
SPLINE
  5
77
  8
Layer_1
 62
7
370
-1
  6
ByLayer
100
AcDbEntity
100
AcDbSpline
 70
8
 71
3
 72
8
 73
4
 74
0
 40
0.0
 40
0.0
 40
0.0
 40
0.0
 40
1.0
 40
1.0
 40
1.0
 40
1.0
 10
-125.811475
 20
222.462334
 30
0.0
 10
-120.85945700000001
 20
222.98236800000001
 30
0.0
 10
-118.54279099999999
 20
223.44290699999999
 30
0.0
 10
-114.82884799999999
 20
224.645602
 30
0.0
  0
SPLINE
  5
78
  8
Layer_1
 62
7
370
-1
  6
ByLayer
100
AcDbEntity
100
AcDbSpline
 70
8
 71
3
 72
8
 73
4
 74
0
 40
0.0
 40
0.0
 40
0.0
 40
0.0
 40
1.0
 40
1.0
 40
1.0
 40
1.0
 10
-114.82884799999999
 20
224.645602
 30
0.0
 10
-111.596709
 20
225.69227100000001
 30
0.0
 10
-104.598922
 20
229.08928700000001
 30
0.0
 10
-104.80995900000001
 20
229.50917999999999
 30
0.0
  0
SPLINE
  5
79
  8
Layer_1
 62
7
370
-1
  6
ByLayer
100
AcDbEntity
100
AcDbSpline
 70
8
 71
3
 72
8
 73
4
 74
0
 40
0.0
 40
0.0
 40
0.0
 40
0.0
 40
1.0
 40
1.0
 40
1.0
 40
1.0
 10
-104.80995900000001
 20
229.50917999999999
 30
0.0
 10
-104.88757
 20
229.663601
 30
0.0
 10
-105.96707000000001
 20
230.00234699999999
 30
0.0
 10
-107.208848
 20
230.26194599999999
 30
0.0
  0
SPLINE
  5
7A
  8
Layer_1
 62
7
370
-1
  6
ByLayer
100
AcDbEntity
100
AcDbSpline
 70
8
 71
3
 72
8
 73
4
 74
0
 40
0.0
 40
0.0
 40
0.0
 40
0.0
 40
1.0
 40
1.0
 40
1.0
 40
1.0
 10
-107.208848
 20
230.26194599999999
 30
0.0
 10
-113.060412
 20
231.48524900000001
 30
0.0
 10
-114.892478
 20
232.873921
 30
0.0
 10
-115.670361
 20
236.67562699999999
 30
0.0
  0
SPLINE
  5
7B
  8
Layer_1
 62
7
370
-1
  6
ByLayer
100
AcDbEntity
100
AcDbSpline
 70
8
 71
3
 72
8
 73
4
 74
0
 40
0.0
 40
0.0
 40
0.0
 40
0.0
 40
1.0
 40
1.0
 40
1.0
 40
1.0
 10
-115.670361
 20
236.67562699999999
 30
0.0
 10
-116.011432
 20
238.34252699999999
 30
0.0
 10
-115.684049
 20
240.41577899999999
 30
0.0
 10
-114.81407299999999
 20
242.09809999999999
 30
0.0
  0
SPLINE
  5
7C
  8
Layer_1
 62
7
370
-1
  6
ByLayer
100
AcDbEntity
100
AcDbSpline
 70
8
 71
3
 72
8
 73
4
 74
0
 40
0.0
 40
0.0
 40
0.0
 40
0.0
 40
1.0
 40
1.0
 40
1.0
 40
1.0
 10
-114.81407299999999
 20
242.09809999999999
 30
0.0
 10
-113.159577
 20
245.29754399999999
 30
0.0
 10
-105.565403
 20
250.857
 30
0.0
 10
-96.982602
 20
255.151962
 30
0.0
  0
SPLINE
  5
7D
  8
Layer_1
 62
7
370
-1
  6
ByLayer
100
AcDbEntity
100
AcDbSpline
 70
8
 71
3
 72
8
 73
4
 74
0
 40
0.0
 40
0.0
 40
0.0
 40
0.0
 40
1.0
 40
1.0
 40
1.0
 40
1.0
 10
-96.982602
 20
255.151962
 30
0.0
 10
-89.036851999999996
 20
259.12813399999999
 30
0.0
 10
-80.297140999999996
 20
261.65804800000001
 30
0.0
 10
-72.418820999999994
 20
262.26252299999999
 30
0.0
  0
SPLINE
  5
7E
  8
Layer_1
 62
7
370
-1
  6
ByLayer
100
AcDbEntity
100
AcDbSpline
 70
8
 71
3
 72
8
 73
4
 74
0
 40
0.0
 40
0.0
 40
0.0
 40
0.0
 40
1.0
 40
1.0
 40
1.0
 40
1.0
 10
-72.418820999999994
 20
262.26252299999999
 30
0.0
 10
-70.979640000000003
 20
262.37294800000001
 30
0.0
 10
-69.754821000000007
 20
262.541945
 30
0.0
 10
-69.697001999999998
 20
262.63807800000001
 30
0.0
  0
SPLINE
  5
7F
  8
Layer_1
 62
7
370
-1
  6
ByLayer
100
AcDbEntity
100
AcDbSpline
 70
8
 71
3
 72
8
 73
4
 74
0
 40
0.0
 40
0.0
 40
0.0
 40
0.0
 40
1.0
 40
1.0
 40
1.0
 40
1.0
 10
-69.697001999999998
 20
262.63807800000001
 30
0.0
 10
-69.639183000000003
 20
262.73420900000002
 30
0.0
 10
-69.841768000000002
 20
263.76536199999998
 30
0.0
 10
-70.147188
 20
264.929528
 30
0.0
  0
SPLINE
  5
80
  8
Layer_1
 62
7
370
-1
  6
ByLayer
100
AcDbEntity
100
AcDbSpline
 70
8
 71
3
 72
8
 73
4
 74
0
 40
0.0
 40
0.0
 40
0.0
 40
0.0
 40
1.0
 40
1.0
 40
1.0
 40
1.0
 10
-70.147188
 20
264.929528
 30
0.0
 10
-71.226654999999994
 20
269.04411700000003
 30
0.0
 10
-70.264915000000002
 20
273.52007300000002
 30
0.0
 10
-67.378961000000004
 20
277.81290799999999
 30
0.0
  0
SPLINE
  5
81
  8
Layer_1
 62
7
370
-1
  6
ByLayer
100
AcDbEntity
100
AcDbSpline
 70
8
 71
3
 72
8
 73
4
 74
0
 40
0.0
 40
0.0
 40
0.0
 40
0.0
 40
1.0
 40
1.0
 40
1.0
 40
1.0
 10
-67.378961000000004
 20
277.81290799999999
 30
0.0
 10
-65.001497999999998
 20
281.34936699999997
 30
0.0
 10
-63.455722000000002
 20
282.846745
 30
0.0
 10
-61.619500000000002
 20
283.39204599999999
 30
0.0
  0
SPLINE
  5
82
  8
Layer_1
 62
7
370
-1
  6
ByLayer
100
AcDbEntity
100
AcDbSpline
 70
8
 71
3
 72
8
 73
4
 74
0
 40
0.0
 40
0.0
 40
0.0
 40
0.0
 40
1.0
 40
1.0
 40
1.0
 40
1.0
 10
-61.619500000000002
 20
283.39204599999999
 30
0.0
 10
-59.748375000000003
 20
283.94770799999998
 30
0.0
 10
-58.994796000000001
 20
283.95101
 30
0.0
 10
-57.236181999999999
 20
283.41123700000003
 30
0.0
  0
SPLINE
  5
83
  8
Layer_1
 62
7
370
-1
  6
ByLayer
100
AcDbEntity
100
AcDbSpline
 70
8
 71
3
 72
8
 73
4
 74
0
 40
0.0
 40
0.0
 40
0.0
 40
0.0
 40
1.0
 40
1.0
 40
1.0
 40
1.0
 10
-57.236181999999999
 20
283.41123700000003
 30
0.0
 10
-55.665235000000003
 20
282.92906900000003
 30
0.0
 10
-55.116529999999997
 20
282.515963
 30
0.0
 10
-53.775025999999997
 20
280.80542000000003
 30
0.0
  0
SPLINE
  5
84
  8
Layer_1
 62
7
370
-1
  6
ByLayer
100
AcDbEntity
100
AcDbSpline
 70
8
 71
3
 72
8
 73
4
 74
0
 40
0.0
 40
0.0
 40
0.0
 40
0.0
 40
1.0
 40
1.0
 40
1.0
 40
1.0
 10
-53.775025999999997
 20
280.80542000000003
 30
0.0
 10
-51.915252000000002
 20
278.434031
 30
0.0
 10
-42.669420000000002
 20
274.60947900000002
 30
0.0
 10
-34.254403000000003
 20
272.730684
 30
0.0
  0
SPLINE
  5
85
  8
Layer_1
 62
7
370
-1
  6
ByLayer
100
AcDbEntity
100
AcDbSpline
 70
8
 71
3
 72
8
 73
4
 74
0
 40
0.0
 40
0.0
 40
0.0
 40
0.0
 40
1.0
 40
1.0
 40
1.0
 40
1.0
 10
-34.254403000000003
 20
272.730684
 30
0.0
 10
-29.006910000000001
 20
271.55909200000002
 30
0.0
 10
-22.348438999999999
 20
270.8073
 30
0.0
 10
-22.026689000000001
 20
271.35008099999999
 30
0.0
  0
SPLINE
  5
86
  8
Layer_1
 62
7
370
-1
  6
ByLayer
100
AcDbEntity
100
AcDbSpline
 70
8
 71
3
 72
8
 73
4
 74
0
 40
0.0
 40
0.0
 40
0.0
 40
0.0
 40
1.0
 40
1.0
 40
1.0
 40
1.0
 10
-22.026689000000001
 20
271.35008099999999
 30
0.0
 10
-21.95768
 20
271.466498
 30
0.0
 10
-22.317222999999998
 20
272.831748
 30
0.0
 10
-22.825673999999999
 20
274.38396999999998
 30
0.0
  0
SPLINE
  5
87
  8
Layer_1
 62
7
370
-1
  6
ByLayer
100
AcDbEntity
100
AcDbSpline
 70
8
 71
3
 72
8
 73
4
 74
0
 40
0.0
 40
0.0
 40
0.0
 40
0.0
 40
1.0
 40
1.0
 40
1.0
 40
1.0
 10
-22.825673999999999
 20
274.38396999999998
 30
0.0
 10
-23.954706999999999
 20
277.83073300000001
 30
0.0
 10
-25.602758000000001
 20
284.867501
 30
0.0
 10
-26.262768999999999
 20
289.05952500000001
 30
0.0
  0
SPLINE
  5
88
  8
Layer_1
 62
7
370
-1
  6
ByLayer
100
AcDbEntity
100
AcDbSpline
 70
8
 71
3
 72
8
 73
4
 74
0
 40
0.0
 40
0.0
 40
0.0
 40
0.0
 40
1.0
 40
1.0
 40
1.0
 40
1.0
 10
-26.262768999999999
 20
289.05952500000001
 30
0.0
 10
-26.619872999999998
 20
291.32763799999998
 30
0.0
 10
-26.753502000000001
 20
293.912667
 30
0.0
 10
-26.758804999999999
 20
298.655081
 30
0.0
  0
SPLINE
  5
89
  8
Layer_1
 62
7
370
-1
  6
ByLayer
100
AcDbEntity
100
AcDbSpline
 70
8
 71
3
 72
8
 73
4
 74
0
 40
0.0
 40
0.0
 40
0.0
 40
0.0
 40
1.0
 40
1.0
 40
1.0
 40
1.0
 10
-26.758804999999999
 20
298.655081
 30
0.0
 10
-26.767102999999999
 20
306.07990699999999
 30
0.0
 10
-26.435627
 20
308.83386000000002
 30
0.0
 10
-24.635681000000002
 20
316.29397
 30
0.0
  0
SPLINE
  5
8A
  8
Layer_1
 62
7
370
-1
  6
ByLayer
100
AcDbEntity
100
AcDbSpline
 70
8
 71
3
 72
8
 73
4
 74
0
 40
0.0
 40
0.0
 40
0.0
 40
0.0
 40
1.0
 40
1.0
 40
1.0
 40
1.0
 10
-24.635681000000002
 20
316.29397
 30
0.0
 10
-23.125997999999999
 20
322.55104499999999
 30
0.0
 10
-21.899602000000002
 20
326.06564600000002
 30
0.0
 10
-19.465502999999998
 20
331.110636
 30
0.0
  0
SPLINE
  5
8B
  8
Layer_1
 62
7
370
-1
  6
ByLayer
100
AcDbEntity
100
AcDbSpline
 70
8
 71
3
 72
8
 73
4
 74
0
 40
0.0
 40
0.0
 40
0.0
 40
0.0
 40
1.0
 40
1.0
 40
1.0
 40
1.0
 10
-19.465502999999998
 20
331.110636
 30
0.0
 10
-15.677635
 20
338.96149400000002
 30
0.0
 10
-11.171175
 20
345.32300600000002
 30
0.0
 10
-5.0563339999999997
 20
351.45124700000002
 30
0.0
  0
SPLINE
  5
8C
  8
Layer_1
 62
7
370
-1
  6
ByLayer
100
AcDbEntity
100
AcDbSpline
 70
8
 71
3
 72
8
 73
4
 74
0
 40
0.0
 40
0.0
 40
0.0
 40
0.0
 40
1.0
 40
1.0
 40
1.0
 40
1.0
 10
-5.0563339999999997
 20
351.45124700000002
 30
0.0
 10
6.8912360000000001
 20
363.42499099999998
 30
0.0
 10
20.584692
 20
370.166901
 30
0.0
 10
38.558929999999997
 20
372.92502200000001
 30
0.0
  0
SPLINE
  5
8D
  8
Layer_1
 62
7
370
-1
  6
ByLayer
100
AcDbEntity
100
AcDbSpline
 70
8
 71
3
 72
8
 73
4
 74
0
 40
0.0
 40
0.0
 40
0.0
 40
0.0
 40
1.0
 40
1.0
 40
1.0
 40
1.0
 10
38.558929999999997
 20
372.92502200000001
 30
0.0
 10
43.058872999999998
 20
373.61553300000003
 30
0.0
 10
52.685654
 20
373.61553300000003
 30
0.0
 10
57.185597000000001
 20
372.92502200000001
 30
0.0
  0
SPLINE
  5
8E
  8
Layer_1
 62
7
370
-1
  6
ByLayer
100
AcDbEntity
100
AcDbSpline
 70
8
 71
3
 72
8
 73
4
 74
0
 40
0.0
 40
0.0
 40
0.0
 40
0.0
 40
1.0
 40
1.0
 40
1.0
 40
1.0
 10
57.185597000000001
 20
372.92502200000001
 30
0.0
 10
71.985937000000007
 20
370.65392900000001
 30
0.0
 10
83.182389000000001
 20
365.94948799999997
 30
0.0
 10
94.438929999999999
 20
357.27219300000002
 30
0.0
  0
SPLINE
  5
8F
  8
Layer_1
 62
7
370
-1
  6
ByLayer
100
AcDbEntity
100
AcDbSpline
 70
8
 71
3
 72
8
 73
4
 74
0
 40
0.0
 40
0.0
 40
0.0
 40
0.0
 40
1.0
 40
1.0
 40
1.0
 40
1.0
 10
94.438929999999999
 20
357.27219300000002
 30
0.0
 10
97.949771999999996
 20
354.56580400000001
 30
0.0
 10
104.39872200000001
 20
347.96785699999998
 30
0.0
 10
107.217868
 20
344.19800600000002
 30
0.0
  0
SPLINE
  5
90
  8
Layer_1
 62
7
370
-1
  6
ByLayer
100
AcDbEntity
100
AcDbSpline
 70
8
 71
3
 72
8
 73
4
 74
0
 40
0.0
 40
0.0
 40
0.0
 40
0.0
 40
1.0
 40
1.0
 40
1.0
 40
1.0
 10
107.217868
 20
344.19800600000002
 30
0.0
 10
111.665746
 20
338.25018699999998
 30
0.0
 10
114.946354
 20
332.48961700000001
 30
0.0
 10
117.443541
 20
326.24230599999999
 30
0.0
  0
SPLINE
  5
91
  8
Layer_1
 62
7
370
-1
  6
ByLayer
100
AcDbEntity
100
AcDbSpline
 70
8
 71
3
 72
8
 73
4
 74
0
 40
0.0
 40
0.0
 40
0.0
 40
0.0
 40
1.0
 40
1.0
 40
1.0
 40
1.0
 10
117.443541
 20
326.24230599999999
 30
0.0
 10
118.01746799999999
 20
324.80650000000003
 30
0.0
 10
118.589786
 20
323.63175000000001
 30
0.0
 10
118.71537499999999
 20
323.63175000000001
 30
0.0
  0
SPLINE
  5
92
  8
Layer_1
 62
7
370
-1
  6
ByLayer
100
AcDbEntity
100
AcDbSpline
 70
8
 71
3
 72
8
 73
4
 74
0
 40
0.0
 40
0.0
 40
0.0
 40
0.0
 40
1.0
 40
1.0
 40
1.0
 40
1.0
 10
118.71537499999999
 20
323.63175000000001
 30
0.0
 10
118.840936
 20
323.63175000000001
 30
0.0
 10
119.42174900000001
 20
324.48899999999998
 30
0.0
 10
120.006034
 20
325.53674999999998
 30
0.0
  0
SPLINE
  5
93
  8
Layer_1
 62
7
370
-1
  6
ByLayer
100
AcDbEntity
100
AcDbSpline
 70
8
 71
3
 72
8
 73
4
 74
0
 40
0.0
 40
0.0
 40
0.0
 40
0.0
 40
1.0
 40
1.0
 40
1.0
 40
1.0
 10
120.006034
 20
325.53674999999998
 30
0.0
 10
123.794585
 20
332.330333
 30
0.0
 10
130.11689899999999
 20
340.40338200000002
 30
0.0
 10
135.103455
 20
344.81482499999998
 30
0.0
  0
SPLINE
  5
94
  8
Layer_1
 62
7
370
-1
  6
ByLayer
100
AcDbEntity
100
AcDbSpline
 70
8
 71
3
 72
8
 73
4
 74
0
 40
0.0
 40
0.0
 40
0.0
 40
0.0
 40
1.0
 40
1.0
 40
1.0
 40
1.0
 10
135.103455
 20
344.81482499999998
 30
0.0
 10
144.862954
 20
353.44874299999998
 30
0.0
 10
154.10062300000001
 20
358.44642399999998
 30
0.0
 10
165.639533
 20
361.33520299999998
 30
0.0
  0
SPLINE
  5
95
  8
Layer_1
 62
7
370
-1
  6
ByLayer
100
AcDbEntity
100
AcDbSpline
 70
8
 71
3
 72
8
 73
4
 74
0
 40
0.0
 40
0.0
 40
0.0
 40
0.0
 40
1.0
 40
1.0
 40
1.0
 40
1.0
 10
165.639533
 20
361.33520299999998
 30
0.0
 10
173.432761
 20
363.28624200000002
 30
0.0
 10
175.388024
 20
363.52854400000001
 30
0.0
 10
183.33893
 20
363.52854400000001
 30
0.0
  0
SPLINE
  5
96
  8
Layer_1
 62
7
370
-1
  6
ByLayer
100
AcDbEntity
100
AcDbSpline
 70
8
 71
3
 72
8
 73
4
 74
0
 40
0.0
 40
0.0
 40
0.0
 40
0.0
 40
1.0
 40
1.0
 40
1.0
 40
1.0
 10
183.33893
 20
363.52854400000001
 30
0.0
 10
189.50509
 20
363.52854400000001
 30
0.0
 10
191.008996
 20
363.44124399999998
 30
0.0
 10
193.84166099999999
 20
362.918882
 30
0.0
  0
SPLINE
  5
97
  8
Layer_1
 62
7
370
-1
  6
ByLayer
100
AcDbEntity
100
AcDbSpline
 70
8
 71
3
 72
8
 73
4
 74
0
 40
0.0
 40
0.0
 40
0.0
 40
0.0
 40
1.0
 40
1.0
 40
1.0
 40
1.0
 10
193.84166099999999
 20
362.918882
 30
0.0
 10
198.31573
 20
362.09383000000003
 30
0.0
 10
204.383253
 20
360.55445800000001
 30
0.0
 10
207.46893
 20
359.46154899999999
 30
0.0
  0
SPLINE
  5
98
  8
Layer_1
 62
7
370
-1
  6
ByLayer
100
AcDbEntity
100
AcDbSpline
 70
8
 71
3
 72
8
 73
4
 74
0
 40
0.0
 40
0.0
 40
0.0
 40
0.0
 40
1.0
 40
1.0
 40
1.0
 40
1.0
 10
207.46893
 20
359.46154899999999
 30
0.0
 10
216.998502
 20
356.08629000000002
 30
0.0
 10
226.387922
 20
350.07291600000002
 30
0.0
 10
233.85955799999999
 20
342.55992099999997
 30
0.0
  0
SPLINE
  5
99
  8
Layer_1
 62
7
370
-1
  6
ByLayer
100
AcDbEntity
100
AcDbSpline
 70
8
 71
3
 72
8
 73
4
 74
0
 40
0.0
 40
0.0
 40
0.0
 40
0.0
 40
1.0
 40
1.0
 40
1.0
 40
1.0
 10
233.85955799999999
 20
342.55992099999997
 30
0.0
 10
243.76615100000001
 20
332.59848699999998
 30
0.0
 10
250.475166
 20
320.340709
 30
0.0
 10
253.742481
 20
306.232553
 30
0.0
  0
SPLINE
  5
9A
  8
Layer_1
 62
7
370
-1
  6
ByLayer
100
AcDbEntity
100
AcDbSpline
 70
8
 71
3
 72
8
 73
4
 74
0
 40
0.0
 40
0.0
 40
0.0
 40
0.0
 40
1.0
 40
1.0
 40
1.0
 40
1.0
 10
253.742481
 20
306.232553
 30
0.0
 10
255.39698000000001
 20
299.08851199999998
 30
0.0
 10
255.712279
 20
296.31705599999998
 30
0.0
 10
255.712279
 20
288.91841699999998
 30
0.0
  0
SPLINE
  5
9B
  8
Layer_1
 62
7
370
-1
  6
ByLayer
100
AcDbEntity
100
AcDbSpline
 70
8
 71
3
 72
8
 73
4
 74
0
 40
0.0
 40
0.0
 40
0.0
 40
0.0
 40
1.0
 40
1.0
 40
1.0
 40
1.0
 10
255.712279
 20
288.91841699999998
 30
0.0
 10
255.712279
 20
281.54070200000001
 30
0.0
 10
255.395343
 20
278.73923400000001
 30
0.0
 10
253.76466300000001
 20
271.70286199999998
 30
0.0
  0
SPLINE
  5
9C
  8
Layer_1
 62
7
370
-1
  6
ByLayer
100
AcDbEntity
100
AcDbSpline
 70
8
 71
3
 72
8
 73
4
 74
0
 40
0.0
 40
0.0
 40
0.0
 40
0.0
 40
1.0
 40
1.0
 40
1.0
 40
1.0
 10
253.76466300000001
 20
271.70286199999998
 30
0.0
 10
252.67074199999999
 20
266.98263300000002
 30
0.0
 10
251.22401400000001
 20
262.36669899999998
 30
0.0
 10
249.671933
 20
258.644453
 30
0.0
  0
SPLINE
  5
9D
  8
Layer_1
 62
7
370
-1
  6
ByLayer
100
AcDbEntity
100
AcDbSpline
 70
8
 71
3
 72
8
 73
4
 74
0
 40
0.0
 40
0.0
 40
0.0
 40
0.0
 40
1.0
 40
1.0
 40
1.0
 40
1.0
 10
249.671933
 20
258.644453
 30
0.0
 10
248.925681
 20
256.85476699999998
 30
0.0
 10
248.67281
 20
255.93361300000001
 30
0.0
 10
248.86387400000001
 20
255.70109299999999
 30
0.0
  0
SPLINE
  5
9E
  8
Layer_1
 62
7
370
-1
  6
ByLayer
100
AcDbEntity
100
AcDbSpline
 70
8
 71
3
 72
8
 73
4
 74
0
 40
0.0
 40
0.0
 40
0.0
 40
0.0
 40
1.0
 40
1.0
 40
1.0
 40
1.0
 10
248.86387400000001
 20
255.70109299999999
 30
0.0
 10
249.01686699999999
 20
255.51495600000001
 30
0.0
 10
250.37006600000001
 20
254.56509199999999
 30
0.0
 10
251.871037
 20
253.59028499999999
 30
0.0
  0
SPLINE
  5
9F
  8
Layer_1
 62
7
370
-1
  6
ByLayer
100
AcDbEntity
100
AcDbSpline
 70
8
 71
3
 72
8
 73
4
 74
0
 40
0.0
 40
0.0
 40
0.0
 40
0.0
 40
1.0
 40
1.0
 40
1.0
 40
1.0
 10
251.871037
 20
253.59028499999999
 30
0.0
 10
255.918837
 20
250.96141600000001
 30
0.0
 10
263.13380899999999
 20
247.427751
 30
0.0
 10
267.24341600000002
 20
246.061375
 30
0.0
  0
SPLINE
  5
A0
  8
Layer_1
 62
7
370
-1
  6
ByLayer
100
AcDbEntity
100
AcDbSpline
 70
8
 71
3
 72
8
 73
4
 74
0
 40
0.0
 40
0.0
 40
0.0
 40
0.0
 40
1.0
 40
1.0
 40
1.0
 40
1.0
 10
267.24341600000002
 20
246.061375
 30
0.0
 10
272.30478900000003
 20
244.37855500000001
 30
0.0
 10
275.54599899999999
 20
243.98418000000001
 30
0.0
 10
284.23336599999999
 20
243.994123
 30
0.0
  0
SPLINE
  5
A1
  8
Layer_1
 62
7
370
-1
  6
ByLayer
100
AcDbEntity
100
AcDbSpline
 70
8
 71
3
 72
8
 73
4
 74
0
 40
0.0
 40
0.0
 40
0.0
 40
0.0
 40
1.0
 40
1.0
 40
1.0
 40
1.0
 10
284.23336599999999
 20
243.994123
 30
0.0
 10
291.78676200000001
 20
244.002759
 30
0.0
 10
297.47125299999999
 20
244.42693600000001
 30
0.0
 10
305.82585
 20
245.605324
 30
0.0
  0
SPLINE
  5
A2
  8
Layer_1
 62
7
370
-1
  6
ByLayer
100
AcDbEntity
100
AcDbSpline
 70
8
 71
3
 72
8
 73
4
 74
0
 40
0.0
 40
0.0
 40
0.0
 40
0.0
 40
1.0
 40
1.0
 40
1.0
 40
1.0
 10
305.82585
 20
245.605324
 30
0.0
 10
309.947
 20
246.18659700000001
 30
0.0
 10
311.10580399999998
 20
246.26048
 30
0.0
 10
312.22168199999999
 20
246.01311000000001
 30
0.0
  0
SPLINE
  5
A3
  8
Layer_1
 62
7
370
-1
  6
ByLayer
100
AcDbEntity
100
AcDbSpline
 70
8
 71
3
 72
8
 73
4
 74
0
 40
0.0
 40
0.0
 40
0.0
 40
0.0
 40
1.0
 40
1.0
 40
1.0
 40
1.0
 10
312.22168199999999
 20
246.01311000000001
 30
0.0
 10
315.07032099999998
 20
245.381618
 30
0.0
 10
316.51137599999998
 20
243.79579699999999
 30
0.0
 10
317.42109099999999
 20
240.291438
 30
0.0
  0
SPLINE
  5
A4
  8
Layer_1
 62
7
370
-1
  6
ByLayer
100
AcDbEntity
100
AcDbSpline
 70
8
 71
3
 72
8
 73
4
 74
0
 40
0.0
 40
0.0
 40
0.0
 40
0.0
 40
1.0
 40
1.0
 40
1.0
 40
1.0
 10
317.42109099999999
 20
240.291438
 30
0.0
 10
318.276139
 20
236.99757399999999
 30
0.0
 10
318.366535
 20
235.140095
 30
0.0
 10
317.80909000000003
 20
232.31766999999999
 30
0.0
  0
SPLINE
  5
A5
  8
Layer_1
 62
7
370
-1
  6
ByLayer
100
AcDbEntity
100
AcDbSpline
 70
8
 71
3
 72
8
 73
4
 74
0
 40
0.0
 40
0.0
 40
0.0
 40
0.0
 40
1.0
 40
1.0
 40
1.0
 40
1.0
 10
317.80909000000003
 20
232.31766999999999
 30
0.0
 10
317.10652599999997
 20
228.76037700000001
 30
0.0
 10
316.47189300000002
 20
227.07466600000001
 30
0.0
 10
315.00385699999998
 20
224.86639299999999
 30
0.0
  0
SPLINE
  5
A6
  8
Layer_1
 62
7
370
-1
  6
ByLayer
100
AcDbEntity
100
AcDbSpline
 70
8
 71
3
 72
8
 73
4
 74
0
 40
0.0
 40
0.0
 40
0.0
 40
0.0
 40
1.0
 40
1.0
 40
1.0
 40
1.0
 10
315.00385699999998
 20
224.86639299999999
 30
0.0
 10
314.300814
 20
223.80887000000001
 30
0.0
 10
313.72558800000002
 20
222.82196099999999
 30
0.0
 10
313.72558800000002
 20
222.67326700000001
 30
0.0
  0
SPLINE
  5
A7
  8
Layer_1
 62
7
370
-1
  6
ByLayer
100
AcDbEntity
100
AcDbSpline
 70
8
 71
3
 72
8
 73
4
 74
0
 40
0.0
 40
0.0
 40
0.0
 40
0.0
 40
1.0
 40
1.0
 40
1.0
 40
1.0
 10
313.72558800000002
 20
222.67326700000001
 30
0.0
 10
313.72558800000002
 20
222.524573
 30
0.0
 10
315.85283800000002
 20
221.855884
 30
0.0
 10
318.45281
 20
221.187296
 30
0.0
  0
SPLINE
  5
A8
  8
Layer_1
 62
7
370
-1
  6
ByLayer
100
AcDbEntity
100
AcDbSpline
 70
8
 71
3
 72
8
 73
4
 74
0
 40
0.0
 40
0.0
 40
0.0
 40
0.0
 40
1.0
 40
1.0
 40
1.0
 40
1.0
 10
318.45281
 20
221.187296
 30
0.0
 10
324.64902799999999
 20
219.59392299999999
 30
0.0
 10
327.51626399999998
 20
218.62393700000001
 30
0.0
 10
329.43562900000001
 20
217.47183000000001
 30
0.0
  0
SPLINE
  5
A9
  8
Layer_1
 62
7
370
-1
  6
ByLayer
100
AcDbEntity
100
AcDbSpline
 70
8
 71
3
 72
8
 73
4
 74
0
 40
0.0
 40
0.0
 40
0.0
 40
0.0
 40
1.0
 40
1.0
 40
1.0
 40
1.0
 10
329.43562900000001
 20
217.47183000000001
 30
0.0
 10
334.39596699999998
 20
214.49435700000001
 30
0.0
 10
339.89901800000001
 20
207.032918
 30
0.0
 10
344.33826099999999
 20
197.26580200000001
 30
0.0
  0
SPLINE
  5
AA
  8
Layer_1
 62
7
370
-1
  6
ByLayer
100
AcDbEntity
100
AcDbSpline
 70
8
 71
3
 72
8
 73
4
 74
0
 40
0.0
 40
0.0
 40
0.0
 40
0.0
 40
1.0
 40
1.0
 40
1.0
 40
1.0
 10
344.33826099999999
 20
197.26580200000001
 30
0.0
 10
346.58734600000003
 20
192.31742800000001
 30
0.0
 10
346.930924
 20
190.93271300000001
 30
0.0
 10
346.46009199999997
 20
188.714133
 30
0.0
  0
SPLINE
  5
AB
  8
Layer_1
 62
7
370
-1
  6
ByLayer
100
AcDbEntity
100
AcDbSpline
 70
8
 71
3
 72
8
 73
4
 74
0
 40
0.0
 40
0.0
 40
0.0
 40
0.0
 40
1.0
 40
1.0
 40
1.0
 40
1.0
 10
346.46009199999997
 20
188.714133
 30
0.0
 10
346.02781199999998
 20
186.67713499999999
 30
0.0
 10
344.77068200000002
 20
185.09654900000001
 30
0.0
 10
342.86427099999997
 20
184.193119
 30
0.0
  0
SPLINE
  5
AC
  8
Layer_1
 62
7
370
-1
  6
ByLayer
100
AcDbEntity
100
AcDbSpline
 70
8
 71
3
 72
8
 73
4
 74
0
 40
0.0
 40
0.0
 40
0.0
 40
0.0
 40
1.0
 40
1.0
 40
1.0
 40
1.0
 10
342.86427099999997
 20
184.193119
 30
0.0
 10
342.127388
 20
183.84391400000001
 30
0.0
 10
341.48488099999997
 20
183.52857299999999
 30
0.0
 10
341.43648000000002
 20
183.49235899999999
 30
0.0
  0
SPLINE
  5
AD
  8
Layer_1
 62
7
370
-1
  6
ByLayer
100
AcDbEntity
100
AcDbSpline
 70
8
 71
3
 72
8
 73
4
 74
0
 40
0.0
 40
0.0
 40
0.0
 40
0.0
 40
1.0
 40
1.0
 40
1.0
 40
1.0
 10
341.43648000000002
 20
183.49235899999999
 30
0.0
 10
341.38810699999999
 20
183.45614699999999
 30
0.0
 10
341.97448000000003
 20
182.17494500000001
 30
0.0
 10
342.73958499999998
 20
180.64524700000001
 30
0.0
  0
SPLINE
  5
AE
  8
Layer_1
 62
7
370
-1
  6
ByLayer
100
AcDbEntity
100
AcDbSpline
 70
8
 71
3
 72
8
 73
4
 74
0
 40
0.0
 40
0.0
 40
0.0
 40
0.0
 40
1.0
 40
1.0
 40
1.0
 40
1.0
 10
342.73958499999998
 20
180.64524700000001
 30
0.0
 10
343.50468899999998
 20
179.11554599999999
 30
0.0
 10
344.736448
 20
176.21297300000001
 30
0.0
 10
345.47683000000001
 20
174.19508400000001
 30
0.0
  0
SPLINE
  5
AF
  8
Layer_1
 62
7
370
-1
  6
ByLayer
100
AcDbEntity
100
AcDbSpline
 70
8
 71
3
 72
8
 73
4
 74
0
 40
0.0
 40
0.0
 40
0.0
 40
0.0
 40
1.0
 40
1.0
 40
1.0
 40
1.0
 10
345.47683000000001
 20
174.19508400000001
 30
0.0
 10
347.19480099999998
 20
169.51283100000001
 30
0.0
 10
347.37660899999997
 20
169.168206
 30
0.0
 10
349.07736499999999
 20
167.36989199999999
 30
0.0
  0
SPLINE
  5
B0
  8
Layer_1
 62
7
370
-1
  6
ByLayer
100
AcDbEntity
100
AcDbSpline
 70
8
 71
3
 72
8
 73
4
 74
0
 40
0.0
 40
0.0
 40
0.0
 40
0.0
 40
1.0
 40
1.0
 40
1.0
 40
1.0
 10
349.07736499999999
 20
167.36989199999999
 30
0.0
 10
351.38407999999998
 20
164.930905
 30
0.0
 10
355.84107399999999
 20
162.37428499999999
 30
0.0
 10
365.59724199999999
 20
157.893835
 30
0.0
  0
SPLINE
  5
B1
  8
Layer_1
 62
7
370
-1
  6
ByLayer
100
AcDbEntity
100
AcDbSpline
 70
8
 71
3
 72
8
 73
4
 74
0
 40
0.0
 40
0.0
 40
0.0
 40
0.0
 40
1.0
 40
1.0
 40
1.0
 40
1.0
 10
365.59724199999999
 20
157.893835
 30
0.0
 10
368.211072
 20
156.693454
 30
0.0
 10
369.078058
 20
155.70417699999999
 30
0.0
 10
369.75059399999998
 20
153.15477899999999
 30
0.0
  0
SPLINE
  5
B2
  8
Layer_1
 62
7
370
-1
  6
ByLayer
100
AcDbEntity
100
AcDbSpline
 70
8
 71
3
 72
8
 73
4
 74
0
 40
0.0
 40
0.0
 40
0.0
 40
0.0
 40
1.0
 40
1.0
 40
1.0
 40
1.0
 10
369.75059399999998
 20
153.15477899999999
 30
0.0
 10
370.783725
 20
149.23831100000001
 30
0.0
 10
367.65867800000001
 20
144.401016
 30
0.0
 10
362.46937400000002
 20
141.884119
 30
0.0
  0
SPLINE
  5
B3
  8
Layer_1
 62
7
370
-1
  6
ByLayer
100
AcDbEntity
100
AcDbSpline
 70
8
 71
3
 72
8
 73
4
 74
0
 40
0.0
 40
0.0
 40
0.0
 40
0.0
 40
1.0
 40
1.0
 40
1.0
 40
1.0
 10
362.46937400000002
 20
141.884119
 30
0.0
 10
361.57131399999997
 20
141.44853699999999
 30
0.0
 10
359.69806399999999
 20
140.81085100000001
 30
0.0
 10
358.30659600000001
 20
140.46703299999999
 30
0.0
  0
SPLINE
  5
B4
  8
Layer_1
 62
7
370
-1
  6
ByLayer
100
AcDbEntity
100
AcDbSpline
 70
8
 71
3
 72
8
 73
4
 74
0
 40
0.0
 40
0.0
 40
0.0
 40
0.0
 40
1.0
 40
1.0
 40
1.0
 40
1.0
 10
358.30659600000001
 20
140.46703299999999
 30
0.0
 10
356.91515600000002
 20
140.12321900000001
 30
0.0
 10
355.77669900000001
 20
139.74159800000001
 30
0.0
 10
355.77669900000001
 20
139.61898400000001
 30
0.0
  0
SPLINE
  5
B5
  8
Layer_1
 62
7
370
-1
  6
ByLayer
100
AcDbEntity
100
AcDbSpline
 70
8
 71
3
 72
8
 73
4
 74
0
 40
0.0
 40
0.0
 40
0.0
 40
0.0
 40
1.0
 40
1.0
 40
1.0
 40
1.0
 10
355.77669900000001
 20
139.61898400000001
 30
0.0
 10
355.77669900000001
 20
139.49637200000001
 30
0.0
 10
356.46148299999999
 20
137.63733500000001
 30
0.0
 10
357.29844200000002
 20
135.48778999999999
 30
0.0
  0
SPLINE
  5
B6
  8
Layer_1
 62
7
370
-1
  6
ByLayer
100
AcDbEntity
100
AcDbSpline
 70
8
 71
3
 72
8
 73
4
 74
0
 40
0.0
 40
0.0
 40
0.0
 40
0.0
 40
1.0
 40
1.0
 40
1.0
 40
1.0
 10
357.29844200000002
 20
135.48778999999999
 30
0.0
 10
360.42950000000002
 20
127.44638399999999
 30
0.0
 10
361.76915200000002
 20
122.15804199999999
 30
0.0
 10
363.93636500000002
 20
109.283973
 30
0.0
  0
SPLINE
  5
B7
  8
Layer_1
 62
7
370
-1
  6
ByLayer
100
AcDbEntity
100
AcDbSpline
 70
8
 71
3
 72
8
 73
4
 74
0
 40
0.0
 40
0.0
 40
0.0
 40
0.0
 40
1.0
 40
1.0
 40
1.0
 40
1.0
 10
363.93636500000002
 20
109.283973
 30
0.0
 10
366.09367099999997
 20
96.468770000000006
 30
0.0
 10
366.50588499999998
 20
93.315331
 30
0.0
 10
366.19978700000001
 20
91.968227999999996
 30
0.0
  0
SPLINE
  5
B8
  8
Layer_1
 62
7
370
-1
  6
ByLayer
100
AcDbEntity
100
AcDbSpline
 70
8
 71
3
 72
8
 73
4
 74
0
 40
0.0
 40
0.0
 40
0.0
 40
0.0
 40
1.0
 40
1.0
 40
1.0
 40
1.0
 10
366.19978700000001
 20
91.968227999999996
 30
0.0
 10
365.56834300000003
 20
89.189072999999993
 30
0.0
 10
364.16710999999998
 20
87.675628000000003
 30
0.0
 10
361.44544300000001
 20
86.833054000000004
 30
0.0
  0
SPLINE
  5
B9
  8
Layer_1
 62
7
370
-1
  6
ByLayer
100
AcDbEntity
100
AcDbSpline
 70
8
 71
3
 72
8
 73
4
 74
0
 40
0.0
 40
0.0
 40
0.0
 40
0.0
 40
1.0
 40
1.0
 40
1.0
 40
1.0
 10
361.44544300000001
 20
86.833054000000004
 30
0.0
 10
359.862459
 20
86.342974999999996
 30
0.0
 10
359.42755399999999
 20
86.313539000000006
 30
0.0
 10
357.97961299999997
 20
86.598386000000005
 30
0.0
  0
SPLINE
  5
BA
  8
Layer_1
 62
7
370
-1
  6
ByLayer
100
AcDbEntity
100
AcDbSpline
 70
8
 71
3
 72
8
 73
4
 74
0
 40
0.0
 40
0.0
 40
0.0
 40
0.0
 40
1.0
 40
1.0
 40
1.0
 40
1.0
 10
357.97961299999997
 20
86.598386000000005
 30
0.0
 10
357.06896699999999
 20
86.777540999999999
 30
0.0
 10
356.25122800000003
 20
86.851455000000001
 30
0.0
 10
356.16241200000002
 20
86.762638999999993
 30
0.0
  0
SPLINE
  5
BB
  8
Layer_1
 62
7
370
-1
  6
ByLayer
100
AcDbEntity
100
AcDbSpline
 70
8
 71
3
 72
8
 73
4
 74
0
 40
0.0
 40
0.0
 40
0.0
 40
0.0
 40
1.0
 40
1.0
 40
1.0
 40
1.0
 10
356.16241200000002
 20
86.762638999999993
 30
0.0
 10
355.75017000000003
 20
86.350397000000001
 30
0.0
 10
358.89065499999998
 20
78.455935999999994
 30
0.0
 10
360.09503799999999
 20
76.876874999999998
 30
0.0
  0
SPLINE
  5
BC
  8
Layer_1
 62
7
370
-1
  6
ByLayer
100
AcDbEntity
100
AcDbSpline
 70
8
 71
3
 72
8
 73
4
 74
0
 40
0.0
 40
0.0
 40
0.0
 40
0.0
 40
1.0
 40
1.0
 40
1.0
 40
1.0
 10
360.09503799999999
 20
76.876874999999998
 30
0.0
 10
360.484984
 20
76.365656999999999
 30
0.0
 10
361.60964000000001
 20
75.518116000000006
 30
0.0
 10
362.59425700000003
 20
74.993465
 30
0.0
  0
SPLINE
  5
BD
  8
Layer_1
 62
7
370
-1
  6
ByLayer
100
AcDbEntity
100
AcDbSpline
 70
8
 71
3
 72
8
 73
4
 74
0
 40
0.0
 40
0.0
 40
0.0
 40
0.0
 40
1.0
 40
1.0
 40
1.0
 40
1.0
 10
362.59425700000003
 20
74.993465
 30
0.0
 10
363.57887399999998
 20
74.468841999999995
 30
0.0
 10
366.25417099999999
 20
72.790777000000006
 30
0.0
 10
368.53932400000002
 20
71.264433999999994
 30
0.0
  0
SPLINE
  5
BE
  8
Layer_1
 62
7
370
-1
  6
ByLayer
100
AcDbEntity
100
AcDbSpline
 70
8
 71
3
 72
8
 73
4
 74
0
 40
0.0
 40
0.0
 40
0.0
 40
0.0
 40
1.0
 40
1.0
 40
1.0
 40
1.0
 10
368.53932400000002
 20
71.264433999999994
 30
0.0
 10
373.00989399999997
 20
68.278409999999994
 30
0.0
 10
373.71906200000001
 20
67.490728000000004
 30
0.0
 10
374.364645
 20
64.794179
 30
0.0
  0
SPLINE
  5
BF
  8
Layer_1
 62
7
370
-1
  6
ByLayer
100
AcDbEntity
100
AcDbSpline
 70
8
 71
3
 72
8
 73
4
 74
0
 40
0.0
 40
0.0
 40
0.0
 40
0.0
 40
1.0
 40
1.0
 40
1.0
 40
1.0
 10
374.364645
 20
64.794179
 30
0.0
 10
375.15743600000002
 20
61.482697000000002
 30
0.0
 10
372.23962499999999
 20
55.49982
 30
0.0
 10
368.43921999999998
 20
52.644238999999999
 30
0.0
  0
SPLINE
  5
C0
  8
Layer_1
 62
7
370
-1
  6
ByLayer
100
AcDbEntity
100
AcDbSpline
 70
8
 71
3
 72
8
 73
4
 74
0
 40
0.0
 40
0.0
 40
0.0
 40
0.0
 40
1.0
 40
1.0
 40
1.0
 40
1.0
 10
368.43921999999998
 20
52.644238999999999
 30
0.0
 10
366.38537600000001
 20
51.101019999999998
 30
0.0
 10
365.13072899999997
 20
50.500140000000002
 30
0.0
 10
362.62315599999999
 20
49.858817999999999
 30
0.0
  0
SPLINE
  5
C1
  8
Layer_1
 62
7
370
-1
  6
ByLayer
100
AcDbEntity
100
AcDbSpline
 70
8
 71
3
 72
8
 73
4
 74
0
 40
0.0
 40
0.0
 40
0.0
 40
0.0
 40
1.0
 40
1.0
 40
1.0
 40
1.0
 10
362.62315599999999
 20
49.858817999999999
 30
0.0
 10
358.965867
 20
48.923448999999998
 30
0.0
 10
354.81434999999999
 20
49.283932
 30
0.0
 10
347.88015000000001
 20
51.138950000000001
 30
0.0
  0
SPLINE
  5
C2
  8
Layer_1
 62
7
370
-1
  6
ByLayer
100
AcDbEntity
100
AcDbSpline
 70
8
 71
3
 72
8
 73
4
 74
0
 40
0.0
 40
0.0
 40
0.0
 40
0.0
 40
1.0
 40
1.0
 40
1.0
 40
1.0
 10
347.88015000000001
 20
51.138950000000001
 30
0.0
 10
347.02956
 20
51.366506000000001
 30
0.0
 10
346.24625200000003
 20
51.461219999999997
 30
0.0
 10
346.13948799999997
 20
51.349432
 30
0.0
  0
SPLINE
  5
C3
  8
Layer_1
 62
7
370
-1
  6
ByLayer
100
AcDbEntity
100
AcDbSpline
 70
8
 71
3
 72
8
 73
4
 74
0
 40
0.0
 40
0.0
 40
0.0
 40
0.0
 40
1.0
 40
1.0
 40
1.0
 40
1.0
 10
346.13948799999997
 20
51.349432
 30
0.0
 10
345.92203599999999
 20
51.121763000000001
 30
0.0
 10
345.21269799999999
 20
44.243076000000002
 30
0.0
 10
344.76529099999999
 20
38.022869999999998
 30
0.0
  0
SPLINE
  5
C4
  8
Layer_1
 62
7
370
-1
  6
ByLayer
100
AcDbEntity
100
AcDbSpline
 70
8
 71
3
 72
8
 73
4
 74
0
 40
0.0
 40
0.0
 40
0.0
 40
0.0
 40
1.0
 40
1.0
 40
1.0
 40
1.0
 10
344.76529099999999
 20
38.022869999999998
 30
0.0
 10
344.32400899999999
 20
31.888036
 30
0.0
 10
343.71107799999999
 20
27.3825
 30
0.0
 10
342.62412799999998
 20
22.283477999999999
 30
0.0
  0
SPLINE
  5
C5
  8
Layer_1
 62
7
370
-1
  6
ByLayer
100
AcDbEntity
100
AcDbSpline
 70
8
 71
3
 72
8
 73
4
 74
0
 40
0.0
 40
0.0
 40
0.0
 40
0.0
 40
1.0
 40
1.0
 40
1.0
 40
1.0
 10
342.62412799999998
 20
22.283477999999999
 30
0.0
 10
339.88405999999998
 20
9.4292719999999992
 30
0.0
 10
336.86199699999997
 20
4.6849749999999997
 30
0.0
 10
327.413366
 20
-1.5957399999999999
 30
0.0
  0
SPLINE
  5
C6
  8
Layer_1
 62
7
370
-1
  6
ByLayer
100
AcDbEntity
100
AcDbSpline
 70
8
 71
3
 72
8
 73
4
 74
0
 40
0.0
 40
0.0
 40
0.0
 40
0.0
 40
1.0
 40
1.0
 40
1.0
 40
1.0
 10
327.413366
 20
-1.5957399999999999
 30
0.0
 10
321.06178599999998
 20
-5.8177839999999996
 30
0.0
 10
317.85582599999998
 20
-7.3057439999999998
 30
0.0
 10
315.59748400000001
 20
-7.0798249999999996
 30
0.0
  0
LWPOLYLINE
  5
C7
  8
Layer_1
 62
7
370
-1
  6
ByLayer
100
AcDbEntity
100
AcDbPolyline
 90
3
 70
0
 10
-159.21678399999999
 20
58.342869999999998
 10
-158.03232299999999
 20
61.870638999999997
 10
-158.02910600000001
 20
66.527305999999996
  0
SPLINE
  5
C8
  8
Layer_1
 62
7
370
-1
  6
ByLayer
100
AcDbEntity
100
AcDbSpline
 70
8
 71
3
 72
8
 73
4
 74
0
 40
0.0
 40
0.0
 40
0.0
 40
0.0
 40
1.0
 40
1.0
 40
1.0
 40
1.0
 10
313.24355300000002
 20
-11.224907999999999
 30
0.0
 10
311.38825200000002
 20
-16.561419999999998
 30
0.0
 10
310.402873
 20
-18.495629999999998
 30
0.0
 10
306.57359700000001
 20
-24.317253000000001
 30
0.0
  0
SPLINE
  5
C9
  8
Layer_1
 62
7
370
-1
  6
ByLayer
100
AcDbEntity
100
AcDbSpline
 70
8
 71
3
 72
8
 73
4
 74
0
 40
0.0
 40
0.0
 40
0.0
 40
0.0
 40
1.0
 40
1.0
 40
1.0
 40
1.0
 10
306.57359700000001
 20
-24.317253000000001
 30
0.0
 10
304.87775199999999
 20
-26.895465999999999
 30
0.0
 10
302.985255
 20
-30.069365000000001
 30
0.0
 10
302.36803500000002
 20
-31.370381999999999
 30
0.0
  0
SPLINE
  5
CA
  8
Layer_1
 62
7
370
-1
  6
ByLayer
100
AcDbEntity
100
AcDbSpline
 70
8
 71
3
 72
8
 73
4
 74
0
 40
0.0
 40
0.0
 40
0.0
 40
0.0
 40
1.0
 40
1.0
 40
1.0
 40
1.0
 10
302.36803500000002
 20
-31.370381999999999
 30
0.0
 10
300.47452099999998
 20
-35.361738000000003
 30
0.0
 10
298.84011600000002
 20
-42.754012000000003
 30
0.0
 10
295.80882300000002
 20
-61.037129999999998
 30
0.0
  0
SPLINE
  5
CB
  8
Layer_1
 62
7
370
-1
  6
ByLayer
100
AcDbEntity
100
AcDbSpline
 70
8
 71
3
 72
8
 73
4
 74
0
 40
0.0
 40
0.0
 40
0.0
 40
0.0
 40
1.0
 40
1.0
 40
1.0
 40
1.0
 10
295.80882300000002
 20
-61.037129999999998
 30
0.0
 10
294.97240099999999
 20
-66.081851999999998
 30
0.0
 10
294.14574399999998
 20
-70.860974999999996
 30
0.0
 10
293.97175399999998
 20
-71.657433999999995
 30
0.0
  0
SPLINE
  5
CC
  8
Layer_1
 62
7
370
-1
  6
ByLayer
100
AcDbEntity
100
AcDbSpline
 70
8
 71
3
 72
8
 73
4
 74
0
 40
0.0
 40
0.0
 40
0.0
 40
0.0
 40
1.0
 40
1.0
 40
1.0
 40
1.0
 10
293.97175399999998
 20
-71.657433999999995
 30
0.0
 10
293.299755
 20
-74.733911000000006
 30
0.0
 10
290.97740499999998
 20
-76.541092000000006
 30
0.0
 10
286.91447699999998
 20
-77.149225000000001
 30
0.0
  0
SPLINE
  5
CD
  8
Layer_1
 62
7
370
-1
  6
ByLayer
100
AcDbEntity
100
AcDbSpline
 70
8
 71
3
 72
8
 73
4
 74
0
 40
0.0
 40
0.0
 40
0.0
 40
0.0
 40
1.0
 40
1.0
 40
1.0
 40
1.0
 10
286.91447699999998
 20
-77.149225000000001
 30
0.0
 10
285.07763399999999
 20
-77.424137999999999
 30
0.0
 10
284.43989599999998
 20
-77.391626000000002
 30
0.0
 10
282.090619
 20
-76.903183999999996
 30
0.0
  0
SPLINE
  5
CE
  8
Layer_1
 62
7
370
-1
  6
ByLayer
100
AcDbEntity
100
AcDbSpline
 70
8
 71
3
 72
8
 73
4
 74
0
 40
0.0
 40
0.0
 40
0.0
 40
0.0
 40
1.0
 40
1.0
 40
1.0
 40
1.0
 10
282.090619
 20
-76.903183999999996
 30
0.0
 10
280.45110599999998
 20
-76.562315999999996
 30
0.0
 10
278.92309799999998
 20
-76.049772000000004
 30
0.0
 10
278.21630099999999
 20
-75.603577999999999
 30
0.0
  0
LWPOLYLINE
  5
CF
  8
Layer_1
 62
7
370
-1
  6
ByLayer
100
AcDbEntity
100
AcDbPolyline
 90
3
 70
0
 10
315.59748400000001
 20
-7.0798249999999996
 10
314.71531299999998
 20
-6.991574
 10
313.24355300000002
 20
-11.224907999999999
  0
SPLINE
  5
D0
  8
Layer_1
 62
7
370
-1
  6
ByLayer
100
AcDbEntity
100
AcDbSpline
 70
8
 71
3
 72
8
 73
4
 74
0
 40
0.0
 40
0.0
 40
0.0
 40
0.0
 40
1.0
 40
1.0
 40
1.0
 40
1.0
 10
276.65942200000001
 20
-75.501413999999997
 30
0.0
 10
276.44507399999998
 20
-75.850437999999997
 30
0.0
 10
275.80262299999998
 20
-76.990418000000005
 30
0.0
 10
275.23180100000002
 20
-78.034668999999994
 30
0.0
  0
SPLINE
  5
D1
  8
Layer_1
 62
7
370
-1
  6
ByLayer
100
AcDbEntity
100
AcDbSpline
 70
8
 71
3
 72
8
 73
4
 74
0
 40
0.0
 40
0.0
 40
0.0
 40
0.0
 40
1.0
 40
1.0
 40
1.0
 40
1.0
 10
275.23180100000002
 20
-78.034668999999994
 30
0.0
 10
273.792101
 20
-80.668451000000005
 30
0.0
 10
270.39442700000001
 20
-85.140291000000005
 30
0.0
 10
268.399991
 20
-87.026353999999998
 30
0.0
  0
SPLINE
  5
D2
  8
Layer_1
 62
7
370
-1
  6
ByLayer
100
AcDbEntity
100
AcDbSpline
 70
8
 71
3
 72
8
 73
4
 74
0
 40
0.0
 40
0.0
 40
0.0
 40
0.0
 40
1.0
 40
1.0
 40
1.0
 40
1.0
 10
268.399991
 20
-87.026353999999998
 30
0.0
 10
263.36740400000002
 20
-91.785466999999997
 30
0.0
 10
252.615003
 20
-98.501790999999997
 30
0.0
 10
239.60929999999999
 20
-105.01003300000001
 30
0.0
  0
SPLINE
  5
D3
  8
Layer_1
 62
7
370
-1
  6
ByLayer
100
AcDbEntity
100
AcDbSpline
 70
8
 71
3
 72
8
 73
4
 74
0
 40
0.0
 40
0.0
 40
0.0
 40
0.0
 40
1.0
 40
1.0
 40
1.0
 40
1.0
 10
239.60929999999999
 20
-105.01003300000001
 30
0.0
 10
233.00634400000001
 20
-108.314235
 30
0.0
 10
231.22998100000001
 20
-108.886045
 30
0.0
 10
229.01097999999999
 20
-108.421536
 30
0.0
  0
SPLINE
  5
D4
  8
Layer_1
 62
7
370
-1
  6
ByLayer
100
AcDbEntity
100
AcDbSpline
 70
8
 71
3
 72
8
 73
4
 74
0
 40
0.0
 40
0.0
 40
0.0
 40
0.0
 40
1.0
 40
1.0
 40
1.0
 40
1.0
 10
229.01097999999999
 20
-108.421536
 30
0.0
 10
227.336669
 20
-108.071072
 30
0.0
 10
226.14222000000001
 20
-107.43485800000001
 30
0.0
 10
225.124357
 20
-106.35140699999999
 30
0.0
  0
SPLINE
  5
D5
  8
Layer_1
 62
7
370
-1
  6
ByLayer
100
AcDbEntity
100
AcDbSpline
 70
8
 71
3
 72
8
 73
4
 74
0
 40
0.0
 40
0.0
 40
0.0
 40
0.0
 40
1.0
 40
1.0
 40
1.0
 40
1.0
 10
225.124357
 20
-106.35140699999999
 30
0.0
 10
224.75069500000001
 20
-105.953672
 30
0.0
 10
224.358745
 20
-105.628241
 30
0.0
 10
224.25336300000001
 20
-105.628241
 30
0.0
  0
SPLINE
  5
D6
  8
Layer_1
 62
7
370
-1
  6
ByLayer
100
AcDbEntity
100
AcDbSpline
 70
8
 71
3
 72
8
 73
4
 74
0
 40
0.0
 40
0.0
 40
0.0
 40
0.0
 40
1.0
 40
1.0
 40
1.0
 40
1.0
 10
224.25336300000001
 20
-105.628241
 30
0.0
 10
224.14798099999999
 20
-105.628241
 30
0.0
 10
223.45168200000001
 20
-106.548991
 30
0.0
 10
222.70602299999999
 20
-107.674352
 30
0.0
  0
SPLINE
  5
D7
  8
Layer_1
 62
7
370
-1
  6
ByLayer
100
AcDbEntity
100
AcDbSpline
 70
8
 71
3
 72
8
 73
4
 74
0
 40
0.0
 40
0.0
 40
0.0
 40
0.0
 40
1.0
 40
1.0
 40
1.0
 40
1.0
 10
222.70602299999999
 20
-107.674352
 30
0.0
 10
218.171728
 20
-114.51773300000001
 30
0.0
 10
213.653548
 20
-119.43717700000001
 30
0.0
 10
209.12046599999999
 20
-122.466409
 30
0.0
  0
SPLINE
  5
D8
  8
Layer_1
 62
7
370
-1
  6
ByLayer
100
AcDbEntity
100
AcDbSpline
 70
8
 71
3
 72
8
 73
4
 74
0
 40
0.0
 40
0.0
 40
0.0
 40
0.0
 40
1.0
 40
1.0
 40
1.0
 40
1.0
 10
209.12046599999999
 20
-122.466409
 30
0.0
 10
206.085194
 20
-124.49473999999999
 30
0.0
 10
203.20415700000001
 20
-125.666753
 30
0.0
 10
198.47572099999999
 20
-126.79677
 30
0.0
  0
SPLINE
  5
D9
  8
Layer_1
 62
7
370
-1
  6
ByLayer
100
AcDbEntity
100
AcDbSpline
 70
8
 71
3
 72
8
 73
4
 74
0
 40
0.0
 40
0.0
 40
0.0
 40
0.0
 40
1.0
 40
1.0
 40
1.0
 40
1.0
 10
198.47572099999999
 20
-126.79677
 30
0.0
 10
193.28946500000001
 20
-128.03620599999999
 30
0.0
 10
189.17091099999999
 20
-128.43529599999999
 30
0.0
 10
179.272503
 20
-128.65763100000001
 30
0.0
  0
LWPOLYLINE
  5
DA
  8
Layer_1
 62
7
370
-1
  6
ByLayer
100
AcDbEntity
100
AcDbPolyline
 90
3
 70
0
 10
278.21630099999999
 20
-75.603577999999999
 10
277.049171
 20
-74.866809000000003
 10
276.65942200000001
 20
-75.501413999999997
  0
SPLINE
  5
DB
  8
Layer_1
 62
7
370
-1
  6
ByLayer
100
AcDbEntity
100
AcDbSpline
 70
8
 71
3
 72
8
 73
4
 74
0
 40
0.0
 40
0.0
 40
0.0
 40
0.0
 40
1.0
 40
1.0
 40
1.0
 40
1.0
 10
167.187409
 20
-131.70797300000001
 30
0.0
 10
160.888632
 20
-137.532814
 30
0.0
 10
156.68419800000001
 20
-139.76615200000001
 30
0.0
 10
148.90781899999999
 20
-141.41782900000001
 30
0.0
  0
SPLINE
  5
DC
  8
Layer_1
 62
7
370
-1
  6
ByLayer
100
AcDbEntity
100
AcDbSpline
 70
8
 71
3
 72
8
 73
4
 74
0
 40
0.0
 40
0.0
 40
0.0
 40
0.0
 40
1.0
 40
1.0
 40
1.0
 40
1.0
 10
148.90781899999999
 20
-141.41782900000001
 30
0.0
 10
141.83454
 20
-142.92018200000001
 30
0.0
 10
130.35396600000001
 20
-143.525013
 30
0.0
 10
121.532263
 20
-142.860097
 30
0.0
  0
LWPOLYLINE
  5
DD
  8
Layer_1
 62
7
370
-1
  6
ByLayer
100
AcDbEntity
100
AcDbPolyline
 90
3
 70
0
 10
179.272503
 20
-128.65763100000001
 10
170.26718700000001
 20
-128.85990000000001
 10
167.187409
 20
-131.70797300000001
  0
LWPOLYLINE
  5
DE
  8
Layer_1
 62
7
370
-1
  6
ByLayer
100
AcDbEntity
100
AcDbPolyline
 90
2
 70
0
 10
121.532263
 20
-142.860097
 10
121.532258
 20
-142.860097
  0
SPLINE
  5
DF
  8
Layer_1
 62
7
370
-1
  6
ByLayer
100
AcDbEntity
100
AcDbSpline
 70
8
 71
3
 72
8
 73
4
 74
0
 40
0.0
 40
0.0
 40
0.0
 40
0.0
 40
1.0
 40
1.0
 40
1.0
 40
1.0
 10
101.353369
 20
-57.480848000000002
 30
0.0
 10
100.577258
 20
-57.424543999999997
 30
0.0
 10
97.656257999999994
 20
-57.243414000000001
 30
0.0
 10
94.862257999999997
 20
-57.078313999999999
 30
0.0
  0
SPLINE
  5
E0
  8
Layer_1
 62
7
370
-1
  6
ByLayer
100
AcDbEntity
100
AcDbSpline
 70
8
 71
3
 72
8
 73
4
 74
0
 40
0.0
 40
0.0
 40
0.0
 40
0.0
 40
1.0
 40
1.0
 40
1.0
 40
1.0
 10
94.862257999999997
 20
-57.078313999999999
 30
0.0
 10
62.659641000000001
 20
-55.175458999999996
 30
0.0
 10
38.696313000000004
 20
-50.046154999999999
 30
0.0
 10
20.627645999999999
 20
-41.188468999999998
 30
0.0
  0
SPLINE
  5
E1
  8
Layer_1
 62
7
370
-1
  6
ByLayer
100
AcDbEntity
100
AcDbSpline
 70
8
 71
3
 72
8
 73
4
 74
0
 40
0.0
 40
0.0
 40
0.0
 40
0.0
 40
1.0
 40
1.0
 40
1.0
 40
1.0
 10
20.627645999999999
 20
-41.188468999999998
 30
0.0
 10
11.142604
 20
-36.538660999999998
 30
0.0
 10
4.0435970000000001
 20
-31.536441
 30
0.0
 10
-3.454297
 20
-24.219377999999999
 30
0.0
  0
SPLINE
  5
E2
  8
Layer_1
 62
7
370
-1
  6
ByLayer
100
AcDbEntity
100
AcDbSpline
 70
8
 71
3
 72
8
 73
4
 74
0
 40
0.0
 40
0.0
 40
0.0
 40
0.0
 40
1.0
 40
1.0
 40
1.0
 40
1.0
 10
-3.454297
 20
-24.219377999999999
 30
0.0
 10
-16.772743999999999
 20
-11.222142
 30
0.0
 10
-29.982126000000001
 20
6.8399390000000002
 30
0.0
 10
-42.162922000000002
 20
28.709537000000001
 30
0.0
  0
SPLINE
  5
E3
  8
Layer_1
 62
7
370
-1
  6
ByLayer
100
AcDbEntity
100
AcDbSpline
 70
8
 71
3
 72
8
 73
4
 74
0
 40
0.0
 40
0.0
 40
0.0
 40
0.0
 40
1.0
 40
1.0
 40
1.0
 40
1.0
 10
-42.162922000000002
 20
28.709537000000001
 30
0.0
 10
-47.428136000000002
 20
38.162796
 30
0.0
 10
-53.809764999999999
 20
51.546365999999999
 30
0.0
 10
-56.120767000000001
 20
57.981991999999998
 30
0.0
  0
SPLINE
  5
E4
  8
Layer_1
 62
7
370
-1
  6
ByLayer
100
AcDbEntity
100
AcDbSpline
 70
8
 71
3
 72
8
 73
4
 74
0
 40
0.0
 40
0.0
 40
0.0
 40
0.0
 40
1.0
 40
1.0
 40
1.0
 40
1.0
 10
-56.120767000000001
 20
57.981991999999998
 30
0.0
 10
-57.471851999999998
 20
61.744430000000001
 30
0.0
 10
-65.605673999999993
 20
88.464467999999997
 30
0.0
 10
-69.847395000000006
 20
103.07465999999999
 30
0.0
  0
SPLINE
  5
E5
  8
Layer_1
 62
7
370
-1
  6
ByLayer
100
AcDbEntity
100
AcDbSpline
 70
8
 71
3
 72
8
 73
4
 74
0
 40
0.0
 40
0.0
 40
0.0
 40
0.0
 40
1.0
 40
1.0
 40
1.0
 40
1.0
 10
-69.847395000000006
 20
103.07465999999999
 30
0.0
 10
-71.241394999999997
 20
107.876164
 30
0.0
 10
-71.440796000000006
 20
108.25259200000001
 30
0.0
 10
-81.817646999999994
 20
125.671691
 30
0.0
  0
SPLINE
  5
E6
  8
Layer_1
 62
7
370
-1
  6
ByLayer
100
AcDbEntity
100
AcDbSpline
 70
8
 71
3
 72
8
 73
4
 74
0
 40
0.0
 40
0.0
 40
0.0
 40
0.0
 40
1.0
 40
1.0
 40
1.0
 40
1.0
 10
-90.603639999999999
 20
136.98039800000001
 30
0.0
 10
-103.588718
 20
144.173653
 30
0.0
 10
-113.642933
 20
153.01422099999999
 30
0.0
 10
-120.012559
 20
162.83936499999999
 30
0.0
  0
SPLINE
  5
E7
  8
Layer_1
 62
7
370
-1
  6
ByLayer
100
AcDbEntity
100
AcDbSpline
 70
8
 71
3
 72
8
 73
4
 74
0
 40
0.0
 40
0.0
 40
0.0
 40
0.0
 40
1.0
 40
1.0
 40
1.0
 40
1.0
 10
-120.012559
 20
162.83936499999999
 30
0.0
 10
-120.690485
 20
163.88506599999999
 30
0.0
 10
-121.33584500000001
 20
164.74063899999999
 30
0.0
 10
-121.44669399999999
 20
164.74063899999999
 30
0.0
  0
SPLINE
  5
E8
  8
Layer_1
 62
7
370
-1
  6
ByLayer
100
AcDbEntity
100
AcDbSpline
 70
8
 71
3
 72
8
 73
4
 74
0
 40
0.0
 40
0.0
 40
0.0
 40
0.0
 40
1.0
 40
1.0
 40
1.0
 40
1.0
 10
-121.44669399999999
 20
164.74063899999999
 30
0.0
 10
-121.557542
 20
164.74063899999999
 30
0.0
 10
-122.054104
 20
164.114284
 30
0.0
 10
-122.55016000000001
 20
163.348736
 30
0.0
  0
SPLINE
  5
E9
  8
Layer_1
 62
7
370
-1
  6
ByLayer
100
AcDbEntity
100
AcDbSpline
 70
8
 71
3
 72
8
 73
4
 74
0
 40
0.0
 40
0.0
 40
0.0
 40
0.0
 40
1.0
 40
1.0
 40
1.0
 40
1.0
 10
-122.55016000000001
 20
163.348736
 30
0.0
 10
-124.27237599999999
 20
160.69090600000001
 30
0.0
 10
-127.997277
 20
157.975775
 30
0.0
 10
-129.92774199999999
 20
157.97111899999999
 30
0.0
  0
SPLINE
  5
EA
  8
Layer_1
 62
7
370
-1
  6
ByLayer
100
AcDbEntity
100
AcDbSpline
 70
8
 71
3
 72
8
 73
4
 74
0
 40
0.0
 40
0.0
 40
0.0
 40
0.0
 40
1.0
 40
1.0
 40
1.0
 40
1.0
 10
-129.92774199999999
 20
157.97111899999999
 30
0.0
 10
-130.86485300000001
 20
157.968861
 30
0.0
 10
-132.37086099999999
 20
158.91079500000001
 30
0.0
 10
-132.603858
 20
159.64490000000001
 30
0.0
  0
SPLINE
  5
EB
  8
Layer_1
 62
7
370
-1
  6
ByLayer
100
AcDbEntity
100
AcDbSpline
 70
8
 71
3
 72
8
 73
4
 74
0
 40
0.0
 40
0.0
 40
0.0
 40
0.0
 40
1.0
 40
1.0
 40
1.0
 40
1.0
 10
-132.603858
 20
159.64490000000001
 30
0.0
 10
-132.94779399999999
 20
160.72854599999999
 30
0.0
 10
-129.90257399999999
 20
170.74508399999999
 30
0.0
 10
-128.20734100000001
 20
174.106212
 30
0.0
  0
SPLINE
  5
EC
  8
Layer_1
 62
7
370
-1
  6
ByLayer
100
AcDbEntity
100
AcDbSpline
 70
8
 71
3
 72
8
 73
4
 74
0
 40
0.0
 40
0.0
 40
0.0
 40
0.0
 40
1.0
 40
1.0
 40
1.0
 40
1.0
 10
-128.20734100000001
 20
174.106212
 30
0.0
 10
-126.72942500000001
 20
177.03646900000001
 30
0.0
 10
-124.63341699999999
 20
177.93365900000001
 30
0.0
 10
-118.63428999999999
 20
178.203926
 30
0.0
  0
SPLINE
  5
ED
  8
Layer_1
 62
7
370
-1
  6
ByLayer
100
AcDbEntity
100
AcDbSpline
 70
8
 71
3
 72
8
 73
4
 74
0
 40
0.0
 40
0.0
 40
0.0
 40
0.0
 40
1.0
 40
1.0
 40
1.0
 40
1.0
 10
-118.63428999999999
 20
178.203926
 30
0.0
 10
-114.25529
 20
178.401205
 30
0.0
 10
-114.21705799999999
 20
178.37511699999999
 30
0.0
 10
-114.663988
 20
175.49459300000001
 30
0.0
  0
SPLINE
  5
EE
  8
Layer_1
 62
7
370
-1
  6
ByLayer
100
AcDbEntity
100
AcDbSpline
 70
8
 71
3
 72
8
 73
4
 74
0
 40
0.0
 40
0.0
 40
0.0
 40
0.0
 40
1.0
 40
1.0
 40
1.0
 40
1.0
 10
-114.663988
 20
175.49459300000001
 30
0.0
 10
-115.592922
 20
169.50746000000001
 30
0.0
 10
-114.315409
 20
164.68564799999999
 30
0.0
 10
-110.877742
 20
161.203878
 30
0.0
  0
SPLINE
  5
EF
  8
Layer_1
 62
7
370
-1
  6
ByLayer
100
AcDbEntity
100
AcDbSpline
 70
8
 71
3
 72
8
 73
4
 74
0
 40
0.0
 40
0.0
 40
0.0
 40
0.0
 40
1.0
 40
1.0
 40
1.0
 40
1.0
 10
-110.877742
 20
161.203878
 30
0.0
 10
-106.996481
 20
157.27282500000001
 30
0.0
 10
-96.987368000000004
 20
150.230009
 30
0.0
 10
-91.404409000000001
 20
147.50165100000001
 30
0.0
  0
SPLINE
  5
F0
  8
Layer_1
 62
7
370
-1
  6
ByLayer
100
AcDbEntity
100
AcDbSpline
 70
8
 71
3
 72
8
 73
4
 74
0
 40
0.0
 40
0.0
 40
0.0
 40
0.0
 40
1.0
 40
1.0
 40
1.0
 40
1.0
 10
-91.404409000000001
 20
147.50165100000001
 30
0.0
 10
-81.405770000000004
 20
142.61538200000001
 30
0.0
 10
-73.511356000000006
 20
141.78740999999999
 30
0.0
 10
-62.194409
 20
144.43808300000001
 30
0.0
  0
SPLINE
  5
F1
  8
Layer_1
 62
7
370
-1
  6
ByLayer
100
AcDbEntity
100
AcDbSpline
 70
8
 71
3
 72
8
 73
4
 74
0
 40
0.0
 40
0.0
 40
0.0
 40
0.0
 40
1.0
 40
1.0
 40
1.0
 40
1.0
 10
-62.194409
 20
144.43808300000001
 30
0.0
 10
-53.684728999999997
 20
146.43123600000001
 30
0.0
 10
-40.935158999999999
 20
150.992906
 30
0.0
 10
-28.717234000000001
 20
156.41589099999999
 30
0.0
  0
SPLINE
  5
F2
  8
Layer_1
 62
7
370
-1
  6
ByLayer
100
AcDbEntity
100
AcDbSpline
 70
8
 71
3
 72
8
 73
4
 74
0
 40
0.0
 40
0.0
 40
0.0
 40
0.0
 40
1.0
 40
1.0
 40
1.0
 40
1.0
 10
-28.717234000000001
 20
156.41589099999999
 30
0.0
 10
-24.380396999999999
 20
158.34081599999999
 30
0.0
 10
-23.622131
 20
158.53587400000001
 30
0.0
 10
-23.339476999999999
 20
157.79928799999999
 30
0.0
  0
SPLINE
  5
F3
  8
Layer_1
 62
7
370
-1
  6
ByLayer
100
AcDbEntity
100
AcDbSpline
 70
8
 71
3
 72
8
 73
4
 74
0
 40
0.0
 40
0.0
 40
0.0
 40
0.0
 40
1.0
 40
1.0
 40
1.0
 40
1.0
 10
-23.339476999999999
 20
157.79928799999999
 30
0.0
 10
-22.977084000000001
 20
156.854907
 30
0.0
 10
-28.738804999999999
 20
144.45183900000001
 30
0.0
 10
-30.861606999999999
 20
141.606641
 30
0.0
  0
SPLINE
  5
F4
  8
Layer_1
 62
7
370
-1
  6
ByLayer
100
AcDbEntity
100
AcDbSpline
 70
8
 71
3
 72
8
 73
4
 74
0
 40
0.0
 40
0.0
 40
0.0
 40
0.0
 40
1.0
 40
1.0
 40
1.0
 40
1.0
 10
-30.861606999999999
 20
141.606641
 30
0.0
 10
-31.485870999999999
 20
140.769937
 30
0.0
 10
-31.996631000000001
 20
139.91465700000001
 30
0.0
 10
-31.996631000000001
 20
139.70601500000001
 30
0.0
  0
SPLINE
  5
F5
  8
Layer_1
 62
7
370
-1
  6
ByLayer
100
AcDbEntity
100
AcDbSpline
 70
8
 71
3
 72
8
 73
4
 74
0
 40
0.0
 40
0.0
 40
0.0
 40
0.0
 40
1.0
 40
1.0
 40
1.0
 40
1.0
 10
-31.996631000000001
 20
139.70601500000001
 30
0.0
 10
-31.996631000000001
 20
138.19482600000001
 30
0.0
 10
-20.77233
 20
137.77412000000001
 30
0.0
 10
-14.239755000000001
 20
139.04045600000001
 30
0.0
  0
SPLINE
  5
F6
  8
Layer_1
 62
7
370
-1
  6
ByLayer
100
AcDbEntity
100
AcDbSpline
 70
8
 71
3
 72
8
 73
4
 74
0
 40
0.0
 40
0.0
 40
0.0
 40
0.0
 40
1.0
 40
1.0
 40
1.0
 40
1.0
 10
-14.239755000000001
 20
139.04045600000001
 30
0.0
 10
-7.8246630000000001
 20
140.28402399999999
 30
0.0
 10
-1.9588749999999999
 20
143.14420699999999
 30
0.0
 10
8.9261769999999991
 20
150.336263
 30
0.0
  0
SPLINE
  5
F7
  8
Layer_1
 62
7
370
-1
  6
ByLayer
100
AcDbEntity
100
AcDbSpline
 70
8
 71
3
 72
8
 73
4
 74
0
 40
0.0
 40
0.0
 40
0.0
 40
0.0
 40
1.0
 40
1.0
 40
1.0
 40
1.0
 10
8.9261769999999991
 20
150.336263
 30
0.0
 10
10.835528999999999
 20
151.597824
 30
0.0
 10
12.600744000000001
 20
152.59091900000001
 30
0.0
 10
12.848879999999999
 20
152.543136
 30
0.0
  0
SPLINE
  5
F8
  8
Layer_1
 62
7
370
-1
  6
ByLayer
100
AcDbEntity
100
AcDbSpline
 70
8
 71
3
 72
8
 73
4
 74
0
 40
0.0
 40
0.0
 40
0.0
 40
0.0
 40
1.0
 40
1.0
 40
1.0
 40
1.0
 10
12.848879999999999
 20
152.543136
 30
0.0
 10
13.610868
 20
152.39640900000001
 30
0.0
 10
14.088157000000001
 20
150.402974
 30
0.0
 10
14.117934
 20
147.242862
 30
0.0
  0
SPLINE
  5
F9
  8
Layer_1
 62
7
370
-1
  6
ByLayer
100
AcDbEntity
100
AcDbSpline
 70
8
 71
3
 72
8
 73
4
 74
0
 40
0.0
 40
0.0
 40
0.0
 40
0.0
 40
1.0
 40
1.0
 40
1.0
 40
1.0
 10
14.117934
 20
147.242862
 30
0.0
 10
14.145225
 20
144.34687500000001
 30
0.0
 10
14.118781
 20
144.21821
 30
0.0
 10
12.954233
 20
141.581456
 30
0.0
  0
SPLINE
  5
FA
  8
Layer_1
 62
7
370
-1
  6
ByLayer
100
AcDbEntity
100
AcDbSpline
 70
8
 71
3
 72
8
 73
4
 74
0
 40
0.0
 40
0.0
 40
0.0
 40
0.0
 40
1.0
 40
1.0
 40
1.0
 40
1.0
 10
12.954233
 20
141.581456
 30
0.0
 10
11.431488999999999
 20
138.133645
 30
0.0
 10
10.909955999999999
 20
136.02591100000001
 30
0.0
 10
11.482837
 20
135.63489200000001
 30
0.0
  0
SPLINE
  5
FB
  8
Layer_1
 62
7
370
-1
  6
ByLayer
100
AcDbEntity
100
AcDbSpline
 70
8
 71
3
 72
8
 73
4
 74
0
 40
0.0
 40
0.0
 40
0.0
 40
0.0
 40
1.0
 40
1.0
 40
1.0
 40
1.0
 10
11.482837
 20
135.63489200000001
 30
0.0
 10
11.73761
 20
135.46099799999999
 30
0.0
 10
15.201439000000001
 20
135.40613999999999
 30
0.0
 10
20.778922999999999
 20
135.48766800000001
 30
0.0
  0
SPLINE
  5
FC
  8
Layer_1
 62
7
370
-1
  6
ByLayer
100
AcDbEntity
100
AcDbSpline
 70
8
 71
3
 72
8
 73
4
 74
0
 40
0.0
 40
0.0
 40
0.0
 40
0.0
 40
1.0
 40
1.0
 40
1.0
 40
1.0
 10
20.778922999999999
 20
135.48766800000001
 30
0.0
 10
30.324549000000001
 20
135.627196
 30
0.0
 10
33.956425000000003
 20
136.00353100000001
 30
0.0
 10
40.141226000000003
 20
137.49398600000001
 30
0.0
  0
SPLINE
  5
FD
  8
Layer_1
 62
7
370
-1
  6
ByLayer
100
AcDbEntity
100
AcDbSpline
 70
8
 71
3
 72
8
 73
4
 74
0
 40
0.0
 40
0.0
 40
0.0
 40
0.0
 40
1.0
 40
1.0
 40
1.0
 40
1.0
 10
40.141226000000003
 20
137.49398600000001
 30
0.0
 10
48.794125000000001
 20
139.57922199999999
 30
0.0
 10
60.674877000000002
 20
146.05761000000001
 30
0.0
 10
76.111661999999995
 20
157.10810599999999
 30
0.0
  0
SPLINE
  5
FE
  8
Layer_1
 62
7
370
-1
  6
ByLayer
100
AcDbEntity
100
AcDbSpline
 70
8
 71
3
 72
8
 73
4
 74
0
 40
0.0
 40
0.0
 40
0.0
 40
0.0
 40
1.0
 40
1.0
 40
1.0
 40
1.0
 10
76.111661999999995
 20
157.10810599999999
 30
0.0
 10
77.855969999999999
 20
158.356775
 30
0.0
 10
79.513717999999997
 20
159.37841700000001
 30
0.0
 10
79.795541999999998
 20
159.37841700000001
 30
0.0
  0
SPLINE
  5
FF
  8
Layer_1
 62
7
370
-1
  6
ByLayer
100
AcDbEntity
100
AcDbSpline
 70
8
 71
3
 72
8
 73
4
 74
0
 40
0.0
 40
0.0
 40
0.0
 40
0.0
 40
1.0
 40
1.0
 40
1.0
 40
1.0
 10
79.795541999999998
 20
159.37841700000001
 30
0.0
 10
80.570233999999999
 20
159.37841700000001
 30
0.0
 10
80.892548000000005
 20
158.490004
 30
0.0
 10
80.889499999999998
 20
156.36308099999999
 30
0.0
  0
SPLINE
  5
100
  8
Layer_1
 62
7
370
-1
  6
ByLayer
100
AcDbEntity
100
AcDbSpline
 70
8
 71
3
 72
8
 73
4
 74
0
 40
0.0
 40
0.0
 40
0.0
 40
0.0
 40
1.0
 40
1.0
 40
1.0
 40
1.0
 10
80.889499999999998
 20
156.36308099999999
 30
0.0
 10
80.884618000000003
 20
152.96216000000001
 30
0.0
 10
79.580129999999997
 20
150.849334
 30
0.0
 10
75.144632999999999
 20
147.05842100000001
 30
0.0
  0
SPLINE
  5
101
  8
Layer_1
 62
7
370
-1
  6
ByLayer
100
AcDbEntity
100
AcDbSpline
 70
8
 71
3
 72
8
 73
4
 74
0
 40
0.0
 40
0.0
 40
0.0
 40
0.0
 40
1.0
 40
1.0
 40
1.0
 40
1.0
 10
75.144632999999999
 20
147.05842100000001
 30
0.0
 10
71.196262000000004
 20
143.683842
 30
0.0
 10
69.038923999999994
 20
141.555689
 30
0.0
 10
69.038923999999994
 20
141.03531000000001
 30
0.0
  0
SPLINE
  5
102
  8
Layer_1
 62
7
370
-1
  6
ByLayer
100
AcDbEntity
100
AcDbSpline
 70
8
 71
3
 72
8
 73
4
 74
0
 40
0.0
 40
0.0
 40
0.0
 40
0.0
 40
1.0
 40
1.0
 40
1.0
 40
1.0
 10
69.038923999999994
 20
141.03531000000001
 30
0.0
 10
69.038923999999994
 20
140.491468
 30
0.0
 10
71.043902000000003
 20
139.162218
 30
0.0
 10
72.564069000000003
 20
138.698228
 30
0.0
  0
SPLINE
  5
103
  8
Layer_1
 62
7
370
-1
  6
ByLayer
100
AcDbEntity
100
AcDbSpline
 70
8
 71
3
 72
8
 73
4
 74
0
 40
0.0
 40
0.0
 40
0.0
 40
0.0
 40
1.0
 40
1.0
 40
1.0
 40
1.0
 10
72.564069000000003
 20
138.698228
 30
0.0
 10
74.508291999999997
 20
138.104805
 30
0.0
 10
79.779387999999997
 20
138.33214100000001
 30
0.0
 10
82.891828000000004
 20
139.14365100000001
 30
0.0
  0
SPLINE
  5
104
  8
Layer_1
 62
7
370
-1
  6
ByLayer
100
AcDbEntity
100
AcDbSpline
 70
8
 71
3
 72
8
 73
4
 74
0
 40
0.0
 40
0.0
 40
0.0
 40
0.0
 40
1.0
 40
1.0
 40
1.0
 40
1.0
 10
82.891828000000004
 20
139.14365100000001
 30
0.0
 10
90.234656999999999
 20
141.05815100000001
 30
0.0
 10
98.868178999999998
 20
145.846892
 30
0.0
 10
113.14619399999999
 20
155.92479
 30
0.0
  0
SPLINE
  5
105
  8
Layer_1
 62
7
370
-1
  6
ByLayer
100
AcDbEntity
100
AcDbSpline
 70
8
 71
3
 72
8
 73
4
 74
0
 40
0.0
 40
0.0
 40
0.0
 40
0.0
 40
1.0
 40
1.0
 40
1.0
 40
1.0
 10
113.14619399999999
 20
155.92479
 30
0.0
 10
117.852221
 20
159.24646100000001
 30
0.0
 10
118.041507
 20
159.289063
 30
0.0
 10
119.412289
 20
157.33505500000001
 30
0.0
  0
SPLINE
  5
106
  8
Layer_1
 62
7
370
-1
  6
ByLayer
100
AcDbEntity
100
AcDbSpline
 70
8
 71
3
 72
8
 73
4
 74
0
 40
0.0
 40
0.0
 40
0.0
 40
0.0
 40
1.0
 40
1.0
 40
1.0
 40
1.0
 10
119.412289
 20
157.33505500000001
 30
0.0
 10
120.822356
 20
155.32499999999999
 30
0.0
 10
124.992161
 20
150.59554299999999
 30
0.0
 10
127.027548
 20
148.69770299999999
 30
0.0
  0
SPLINE
  5
107
  8
Layer_1
 62
7
370
-1
  6
ByLayer
100
AcDbEntity
100
AcDbSpline
 70
8
 71
3
 72
8
 73
4
 74
0
 40
0.0
 40
0.0
 40
0.0
 40
0.0
 40
1.0
 40
1.0
 40
1.0
 40
1.0
 10
127.027548
 20
148.69770299999999
 30
0.0
 10
130.90547900000001
 20
145.081827
 30
0.0
 10
133.78598
 20
143.21787
 30
0.0
 10
138.888924
 20
141.02226899999999
 30
0.0
  0
SPLINE
  5
108
  8
Layer_1
 62
7
370
-1
  6
ByLayer
100
AcDbEntity
100
AcDbSpline
 70
8
 71
3
 72
8
 73
4
 74
0
 40
0.0
 40
0.0
 40
0.0
 40
0.0
 40
1.0
 40
1.0
 40
1.0
 40
1.0
 10
138.888924
 20
141.02226899999999
 30
0.0
 10
151.50375
 20
135.594594
 30
0.0
 10
160.85334900000001
 20
132.722432
 30
0.0
 10
162.88848100000001
 20
133.64970400000001
 30
0.0
  0
SPLINE
  5
109
  8
Layer_1
 62
7
370
-1
  6
ByLayer
100
AcDbEntity
100
AcDbSpline
 70
8
 71
3
 72
8
 73
4
 74
0
 40
0.0
 40
0.0
 40
0.0
 40
0.0
 40
1.0
 40
1.0
 40
1.0
 40
1.0
 10
162.88848100000001
 20
133.64970400000001
 30
0.0
 10
164.46314000000001
 20
134.367164
 30
0.0
 10
163.47564499999999
 20
138.50228100000001
 30
0.0
 10
159.86830800000001
 20
146.296683
 30
0.0
  0
SPLINE
  5
10A
  8
Layer_1
 62
7
370
-1
  6
ByLayer
100
AcDbEntity
100
AcDbSpline
 70
8
 71
3
 72
8
 73
4
 74
0
 40
0.0
 40
0.0
 40
0.0
 40
0.0
 40
1.0
 40
1.0
 40
1.0
 40
1.0
 10
159.86830800000001
 20
146.296683
 30
0.0
 10
158.21033700000001
 20
149.87906799999999
 30
0.0
 10
157.926309
 20
150.69762
 30
0.0
 10
158.21897300000001
 20
151.050231
 30
0.0
  0
SPLINE
  5
10B
  8
Layer_1
 62
7
370
-1
  6
ByLayer
100
AcDbEntity
100
AcDbSpline
 70
8
 71
3
 72
8
 73
4
 74
0
 40
0.0
 40
0.0
 40
0.0
 40
0.0
 40
1.0
 40
1.0
 40
1.0
 40
1.0
 10
158.21897300000001
 20
151.050231
 30
0.0
 10
158.41339600000001
 20
151.28451200000001
 30
0.0
 10
158.66256999999999
 20
151.47619499999999
 30
0.0
 10
158.77266499999999
 20
151.47619499999999
 30
0.0
  0
SPLINE
  5
10C
  8
Layer_1
 62
7
370
-1
  6
ByLayer
100
AcDbEntity
100
AcDbSpline
 70
8
 71
3
 72
8
 73
4
 74
0
 40
0.0
 40
0.0
 40
0.0
 40
0.0
 40
1.0
 40
1.0
 40
1.0
 40
1.0
 10
158.77266499999999
 20
151.47619499999999
 30
0.0
 10
158.88275999999999
 20
151.47619499999999
 30
0.0
 10
160.48645999999999
 20
150.251102
 30
0.0
 10
162.33642599999999
 20
148.75376600000001
 30
0.0
  0
SPLINE
  5
10D
  8
Layer_1
 62
7
370
-1
  6
ByLayer
100
AcDbEntity
100
AcDbSpline
 70
8
 71
3
 72
8
 73
4
 74
0
 40
0.0
 40
0.0
 40
0.0
 40
0.0
 40
1.0
 40
1.0
 40
1.0
 40
1.0
 10
162.33642599999999
 20
148.75376600000001
 30
0.0
 10
169.84048899999999
 20
142.680138
 30
0.0
 10
179.573713
 20
135.68221
 30
0.0
 10
186.02003500000001
 20
131.725908
 30
0.0
  0
SPLINE
  5
10E
  8
Layer_1
 62
7
370
-1
  6
ByLayer
100
AcDbEntity
100
AcDbSpline
 70
8
 71
3
 72
8
 73
4
 74
0
 40
0.0
 40
0.0
 40
0.0
 40
0.0
 40
1.0
 40
1.0
 40
1.0
 40
1.0
 10
186.02003500000001
 20
131.725908
 30
0.0
 10
193.09323000000001
 20
127.384879
 30
0.0
 10
209.34970999999999
 20
120.192694
 30
0.0
 10
217.62892400000001
 20
117.74153200000001
 30
0.0
  0
SPLINE
  5
10F
  8
Layer_1
 62
7
370
-1
  6
ByLayer
100
AcDbEntity
100
AcDbSpline
 70
8
 71
3
 72
8
 73
4
 74
0
 40
0.0
 40
0.0
 40
0.0
 40
0.0
 40
1.0
 40
1.0
 40
1.0
 40
1.0
 10
217.62892400000001
 20
117.74153200000001
 30
0.0
 10
219.16161700000001
 20
117.287755
 30
0.0
 10
221.18486799999999
 20
116.93034900000001
 30
0.0
 10
222.73074
 20
116.84029200000001
 30
0.0
  0
SPLINE
  5
110
  8
Layer_1
 62
7
370
-1
  6
ByLayer
100
AcDbEntity
100
AcDbSpline
 70
8
 71
3
 72
8
 73
4
 74
0
 40
0.0
 40
0.0
 40
0.0
 40
0.0
 40
1.0
 40
1.0
 40
1.0
 40
1.0
 10
222.73074
 20
116.84029200000001
 30
0.0
 10
225.28973400000001
 20
116.69121699999999
 30
0.0
 10
225.29329000000001
 20
116.691953
 30
0.0
 10
225.936643
 20
117.503066
 30
0.0
  0
SPLINE
  5
111
  8
Layer_1
 62
7
370
-1
  6
ByLayer
100
AcDbEntity
100
AcDbSpline
 70
8
 71
3
 72
8
 73
4
 74
0
 40
0.0
 40
0.0
 40
0.0
 40
0.0
 40
1.0
 40
1.0
 40
1.0
 40
1.0
 10
225.936643
 20
117.503066
 30
0.0
 10
226.50323299999999
 20
118.217401
 30
0.0
 10
226.56125800000001
 20
118.52778600000001
 30
0.0
 10
226.41893300000001
 20
120.083243
 30
0.0
  0
SPLINE
  5
112
  8
Layer_1
 62
7
370
-1
  6
ByLayer
100
AcDbEntity
100
AcDbSpline
 70
8
 71
3
 72
8
 73
4
 74
0
 40
0.0
 40
0.0
 40
0.0
 40
0.0
 40
1.0
 40
1.0
 40
1.0
 40
1.0
 10
226.41893300000001
 20
120.083243
 30
0.0
 10
226.19623100000001
 20
122.517045
 30
0.0
 10
224.60520399999999
 20
127.111914
 30
0.0
 10
222.36963700000001
 20
131.77753200000001
 30
0.0
  0
SPLINE
  5
113
  8
Layer_1
 62
7
370
-1
  6
ByLayer
100
AcDbEntity
100
AcDbSpline
 70
8
 71
3
 72
8
 73
4
 74
0
 40
0.0
 40
0.0
 40
0.0
 40
0.0
 40
1.0
 40
1.0
 40
1.0
 40
1.0
 10
222.36963700000001
 20
131.77753200000001
 30
0.0
 10
220.643001
 20
135.38098500000001
 30
0.0
 10
220.52954800000001
 20
135.72998699999999
 30
0.0
 10
220.94856300000001
 20
136.14900800000001
 30
0.0
  0
SPLINE
  5
114
  8
Layer_1
 62
7
370
-1
  6
ByLayer
100
AcDbEntity
100
AcDbSpline
 70
8
 71
3
 72
8
 73
4
 74
0
 40
0.0
 40
0.0
 40
0.0
 40
0.0
 40
1.0
 40
1.0
 40
1.0
 40
1.0
 10
220.94856300000001
 20
136.14900800000001
 30
0.0
 10
221.36757900000001
 20
136.56803199999999
 30
0.0
 10
221.61347900000001
 20
136.40714
 30
0.0
 10
224.02848299999999
 20
134.133747
 30
0.0
  0
SPLINE
  5
115
  8
Layer_1
 62
7
370
-1
  6
ByLayer
100
AcDbEntity
100
AcDbSpline
 70
8
 71
3
 72
8
 73
4
 74
0
 40
0.0
 40
0.0
 40
0.0
 40
0.0
 40
1.0
 40
1.0
 40
1.0
 40
1.0
 10
224.02848299999999
 20
134.133747
 30
0.0
 10
229.09705299999999
 20
129.36241000000001
 30
0.0
 10
234.859861
 20
126.09127100000001
 30
0.0
 10
242.942621
 20
123.397514
 30
0.0
  0
SPLINE
  5
116
  8
Layer_1
 62
7
370
-1
  6
ByLayer
100
AcDbEntity
100
AcDbSpline
 70
8
 71
3
 72
8
 73
4
 74
0
 40
0.0
 40
0.0
 40
0.0
 40
0.0
 40
1.0
 40
1.0
 40
1.0
 40
1.0
 10
242.942621
 20
123.397514
 30
0.0
 10
253.428079
 20
119.903013
 30
0.0
 10
259.22331500000001
 20
118.894732
 30
0.0
 10
268.711141
 20
118.914185
 30
0.0
  0
SPLINE
  5
117
  8
Layer_1
 62
7
370
-1
  6
ByLayer
100
AcDbEntity
100
AcDbSpline
 70
8
 71
3
 72
8
 73
4
 74
0
 40
0.0
 40
0.0
 40
0.0
 40
0.0
 40
1.0
 40
1.0
 40
1.0
 40
1.0
 10
268.711141
 20
118.914185
 30
0.0
 10
275.15176300000002
 20
118.927393
 30
0.0
 10
279.30217900000002
 20
119.27584400000001
 30
0.0
 10
285.49199199999998
 20
120.32303
 30
0.0
  0
SPLINE
  5
118
  8
Layer_1
 62
7
370
-1
  6
ByLayer
100
AcDbEntity
100
AcDbSpline
 70
8
 71
3
 72
8
 73
4
 74
0
 40
0.0
 40
0.0
 40
0.0
 40
0.0
 40
1.0
 40
1.0
 40
1.0
 40
1.0
 10
285.49199199999998
 20
120.32303
 30
0.0
 10
295.79251099999999
 20
122.065668
 30
0.0
 10
306.44453700000003
 20
127.48586899999999
 30
0.0
 10
314.24098199999997
 20
134.95175399999999
 30
0.0
  0
SPLINE
  5
119
  8
Layer_1
 62
7
370
-1
  6
ByLayer
100
AcDbEntity
100
AcDbSpline
 70
8
 71
3
 72
8
 73
4
 74
0
 40
0.0
 40
0.0
 40
0.0
 40
0.0
 40
1.0
 40
1.0
 40
1.0
 40
1.0
 10
314.24098199999997
 20
134.95175399999999
 30
0.0
 10
316.84561100000002
 20
137.44592599999999
 30
0.0
 10
316.79263800000001
 20
137.24633
 30
0.0
 10
315.59325000000001
 20
140.04619500000001
 30
0.0
  0
SPLINE
  5
11A
  8
Layer_1
 62
7
370
-1
  6
ByLayer
100
AcDbEntity
100
AcDbSpline
 70
8
 71
3
 72
8
 73
4
 74
0
 40
0.0
 40
0.0
 40
0.0
 40
0.0
 40
1.0
 40
1.0
 40
1.0
 40
1.0
 10
315.59325000000001
 20
140.04619500000001
 30
0.0
 10
313.711703
 20
144.438535
 30
0.0
 10
315.321752
 20
147.52508399999999
 30
0.0
 10
319.49449299999998
 20
147.52508399999999
 30
0.0
  0
SPLINE
  5
11B
  8
Layer_1
 62
7
370
-1
  6
ByLayer
100
AcDbEntity
100
AcDbSpline
 70
8
 71
3
 72
8
 73
4
 74
0
 40
0.0
 40
0.0
 40
0.0
 40
0.0
 40
1.0
 40
1.0
 40
1.0
 40
1.0
 10
319.49449299999998
 20
147.52508399999999
 30
0.0
 10
324.514972
 20
147.52508399999999
 30
0.0
 10
326.863202
 20
142.44119800000001
 30
0.0
 10
327.18552799999998
 20
130.87397300000001
 30
0.0
  0
SPLINE
  5
11C
  8
Layer_1
 62
7
370
-1
  6
ByLayer
100
AcDbEntity
100
AcDbSpline
 70
8
 71
3
 72
8
 73
4
 74
0
 40
0.0
 40
0.0
 40
0.0
 40
0.0
 40
1.0
 40
1.0
 40
1.0
 40
1.0
 10
327.18552799999998
 20
130.87397300000001
 30
0.0
 10
327.33191699999998
 20
125.62006700000001
 30
0.0
 10
327.14598899999999
 20
124.100639
 30
0.0
 10
326.35672599999998
 20
124.100639
 30
0.0
  0
SPLINE
  5
11D
  8
Layer_1
 62
7
370
-1
  6
ByLayer
100
AcDbEntity
100
AcDbSpline
 70
8
 71
3
 72
8
 73
4
 74
0
 40
0.0
 40
0.0
 40
0.0
 40
0.0
 40
1.0
 40
1.0
 40
1.0
 40
1.0
 10
326.35672599999998
 20
124.100639
 30
0.0
 10
326.15595300000001
 20
124.100639
 30
0.0
 10
324.72644100000002
 20
125.370639
 30
0.0
 10
323.18003299999998
 20
126.92286199999999
 30
0.0
  0
SPLINE
  5
11E
  8
Layer_1
 62
7
370
-1
  6
ByLayer
100
AcDbEntity
100
AcDbSpline
 70
8
 71
3
 72
8
 73
4
 74
0
 40
0.0
 40
0.0
 40
0.0
 40
0.0
 40
1.0
 40
1.0
 40
1.0
 40
1.0
 10
323.18003299999998
 20
126.92286199999999
 30
0.0
 10
321.633624
 20
128.47508400000001
 30
0.0
 10
320.22880700000002
 20
129.74508399999999
 30
0.0
 10
320.05817500000001
 20
129.74508399999999
 30
0.0
  0
SPLINE
  5
11F
  8
Layer_1
 62
7
370
-1
  6
ByLayer
100
AcDbEntity
100
AcDbSpline
 70
8
 71
3
 72
8
 73
4
 74
0
 40
0.0
 40
0.0
 40
0.0
 40
0.0
 40
1.0
 40
1.0
 40
1.0
 40
1.0
 10
320.05817500000001
 20
129.74508399999999
 30
0.0
 10
319.88754399999999
 20
129.74508399999999
 30
0.0
 10
319.31590199999999
 20
129.143473
 30
0.0
 10
318.78783600000003
 20
128.40816899999999
 30
0.0
  0
SPLINE
  5
120
  8
Layer_1
 62
7
370
-1
  6
ByLayer
100
AcDbEntity
100
AcDbSpline
 70
8
 71
3
 72
8
 73
4
 74
0
 40
0.0
 40
0.0
 40
0.0
 40
0.0
 40
1.0
 40
1.0
 40
1.0
 40
1.0
 10
318.78783600000003
 20
128.40816899999999
 30
0.0
 10
317.28198300000003
 20
126.311297
 30
0.0
 10
312.147402
 20
121.132836
 30
0.0
 10
309.88832600000001
 20
119.432613
 30
0.0
  0
SPLINE
  5
121
  8
Layer_1
 62
7
370
-1
  6
ByLayer
100
AcDbEntity
100
AcDbSpline
 70
8
 71
3
 72
8
 73
4
 74
0
 40
0.0
 40
0.0
 40
0.0
 40
0.0
 40
1.0
 40
1.0
 40
1.0
 40
1.0
 10
309.88832600000001
 20
119.432613
 30
0.0
 10
305.82757099999998
 20
116.376395
 30
0.0
 10
301.83251799999999
 20
114.686666
 30
0.0
 10
293.970033
 20
112.699849
 30
0.0
  0
SPLINE
  5
122
  8
Layer_1
 62
7
370
-1
  6
ByLayer
100
AcDbEntity
100
AcDbSpline
 70
8
 71
3
 72
8
 73
4
 74
0
 40
0.0
 40
0.0
 40
0.0
 40
0.0
 40
1.0
 40
1.0
 40
1.0
 40
1.0
 10
293.970033
 20
112.699849
 30
0.0
 10
291.71931000000001
 20
112.13111499999999
 30
0.0
 10
287.97280999999998
 20
111.320375
 30
0.0
 10
285.64447699999999
 20
110.89819900000001
 30
0.0
  0
LWPOLYLINE
  5
123
  8
Layer_1
 62
7
370
-1
  6
ByLayer
100
AcDbEntity
100
AcDbPolyline
 90
3
 70
0
 10
-81.817646999999994
 20
125.671691
 10
-87.545092999999994
 20
135.28607700000001
 10
-90.603639999999999
 20
136.98039800000001
  0
SPLINE
  5
124
  8
Layer_1
 62
7
370
-1
  6
ByLayer
100
AcDbEntity
100
AcDbSpline
 70
8
 71
3
 72
8
 73
4
 74
0
 40
0.0
 40
0.0
 40
0.0
 40
0.0
 40
1.0
 40
1.0
 40
1.0
 40
1.0
 10
277.83030500000001
 20
103.075084
 30
0.0
 10
267.23418700000002
 20
82.196820000000002
 30
0.0
 10
265.75113800000003
 20
78.756474999999995
 30
0.0
 10
258.97306900000001
 20
59.330638999999998
 30
0.0
  0
SPLINE
  5
125
  8
Layer_1
 62
7
370
-1
  6
ByLayer
100
AcDbEntity
100
AcDbSpline
 70
8
 71
3
 72
8
 73
4
 74
0
 40
0.0
 40
0.0
 40
0.0
 40
0.0
 40
1.0
 40
1.0
 40
1.0
 40
1.0
 10
258.97306900000001
 20
59.330638999999998
 30
0.0
 10
252.88161299999999
 20
41.872579000000002
 30
0.0
 10
250.99888000000001
 20
37.296402
 30
0.0
 10
246.83954499999999
 20
29.838425999999998
 30
0.0
  0
SPLINE
  5
126
  8
Layer_1
 62
7
370
-1
  6
ByLayer
100
AcDbEntity
100
AcDbSpline
 70
8
 71
3
 72
8
 73
4
 74
0
 40
0.0
 40
0.0
 40
0.0
 40
0.0
 40
1.0
 40
1.0
 40
1.0
 40
1.0
 10
246.83954499999999
 20
29.838425999999998
 30
0.0
 10
230.39519000000001
 20
0.352666
 30
0.0
 10
215.037701
 20
-20.155096
 30
0.0
 10
202.17804799999999
 20
-29.800774000000001
 30
0.0
  0
SPLINE
  5
127
  8
Layer_1
 62
7
370
-1
  6
ByLayer
100
AcDbEntity
100
AcDbSpline
 70
8
 71
3
 72
8
 73
4
 74
0
 40
0.0
 40
0.0
 40
0.0
 40
0.0
 40
1.0
 40
1.0
 40
1.0
 40
1.0
 10
202.17804799999999
 20
-29.800774000000001
 30
0.0
 10
186.758724
 20
-41.366354000000001
 30
0.0
 10
167.76412400000001
 20
-49.972326000000002
 30
0.0
 10
148.52421699999999
 20
-54.109929000000001
 30
0.0
  0
SPLINE
  5
128
  8
Layer_1
 62
7
370
-1
  6
ByLayer
100
AcDbEntity
100
AcDbSpline
 70
8
 71
3
 72
8
 73
4
 74
0
 40
0.0
 40
0.0
 40
0.0
 40
0.0
 40
1.0
 40
1.0
 40
1.0
 40
1.0
 10
148.52421699999999
 20
-54.109929000000001
 30
0.0
 10
136.45348799999999
 20
-56.705781000000002
 30
0.0
 10
129.512204
 20
-57.397309999999997
 30
0.0
 10
114.476702
 20
-57.501817000000003
 30
0.0
  0
SPLINE
  5
129
  8
Layer_1
 62
7
370
-1
  6
ByLayer
100
AcDbEntity
100
AcDbSpline
 70
8
 71
3
 72
8
 73
4
 74
0
 40
0.0
 40
0.0
 40
0.0
 40
0.0
 40
1.0
 40
1.0
 40
1.0
 40
1.0
 10
114.476702
 20
-57.501817000000003
 30
0.0
 10
108.03498
 20
-57.546605999999997
 30
0.0
 10
102.12948
 20
-57.537179000000002
 30
0.0
 10
101.353369
 20
-57.480932000000003
 30
0.0
  0
LWPOLYLINE
  5
12A
  8
Layer_1
 62
7
370
-1
  6
ByLayer
100
AcDbEntity
100
AcDbPolyline
 90
3
 70
0
 10
285.64447699999999
 20
110.89819900000001
 10
281.41114099999999
 20
110.130639
 10
277.83030500000001
 20
103.075084
  0
LWPOLYLINE
  5
12B
  8
Layer_1
 62
7
370
-1
  6
ByLayer
100
AcDbEntity
100
AcDbPolyline
 90
2
 70
0
 10
101.353369
 20
-57.480932000000003
 10
101.353369
 20
-57.480848000000002
  0
CIRCLE
  5
12C
100
AcDbEntity
100
AcDbCircle
  8
Layer_1
 62
256
370
-1
  6
ByLayer
 10
64.41987499999999
 20
279.90424199999995
 30
0.0
 40
26.733685347362734
  0
CIRCLE
  5
12D
100
AcDbEntity
100
AcDbCircle
  8
Layer_1
 62
256
370
-1
  6
ByLayer
 10
163.77467300000001
 20
300.28728949999999
 30
0.0
 40
26.470295074757804
  0
CIRCLE
  5
12E
100
AcDbEntity
100
AcDbCircle
  8
Layer_1
 62
256
370
-1
  6
ByLayer
 10
47.873768499999983
 20
298.98366499999997
 30
0.0
 40
60.0
  0
CIRCLE
  5
12F
100
AcDbEntity
100
AcDbCircle
  8
Layer_1
 62
256
370
-1
  6
ByLayer
 10
183.20317550000004
 20
289.22387099999997
 30
0.0
 40
60.0
  0
ENDSEC
  0
SECTION
  2
OBJECTS
  0
DICTIONARY
  5
C
100
AcDbDictionary
280
0
281
1
  3
ACAD_GROUP
350
D
  3
ACAD_LAYOUT
350
1A
  3
ACAD_MLINESTYLE
350
17
  3
ACAD_PLOTSETTINGS
350
19
  3
ACAD_PLOTSTYLENAME
350
E
  3
AcDbVariableDictionary
350
130
  0
DICTIONARY
  5
D
100
AcDbDictionary
280
0
281
1
  0
ACDBDICTIONARYWDFLT
  5
E
100
AcDbDictionary
281
1
  3
Normal
350
F
100
AcDbDictionaryWithDefault
340
F
  0
ACDBPLACEHOLDER
  5
F
  0
DICTIONARY
  5
17
100
AcDbDictionary
280
0
281
1
  3
Standard
350
18
  0
MLINESTYLE
  5
18
100
AcDbMlineStyle
  2
STANDARD
 70
0
  3

 62
256
 51
90.0
 52
90.0
 71
2
 49
0.5
 62
256
  6
BYLAYER
 49
-0.5
 62
256
  6
BYLAYER
  0
DICTIONARY
  5
19
100
AcDbDictionary
280
0
281
1
  0
DICTIONARY
  5
1A
100
AcDbDictionary
281
1
  3
Layout1
350
1E
  3
Layout2
350
26
  3
Model
350
22
  0
LAYOUT
  5
1E
100
AcDbPlotSettings
  1

  2
C:\Program Files\AutoCAD 2002\plotters\DWF ePlot (optimized for plotting).pc3
  4

  6

 40
0.0
 41
0.0
 42
0.0
 43
0.0
 44
0.0
 45
0.0
 46
0.0
 47
0.0
 48
0.0
 49
0.0
140
0.0
141
0.0
142
1.0
143
1.0
 70
688
 72
0
 73
0
 74
5
  7

 75
16
147
1.0
148
0.0
149
0.0
100
AcDbLayout
  1
Layout1
 70
1
 71
1
 10
0.0
 20
0.0
 11
420.0
 21
297.0
 12
0.0
 22
0.0
 32
0.0
 14
100000000000000000000.0
 24
100000000000000000000.0
 34
100000000000000000000.0
 15
-100000000000000000000.0
 25
-100000000000000000000.0
 35
-100000000000000000000.0
146
0.0
 13
0.0
 23
0.0
 33
0.0
 16
1.0
 26
0.0
 36
0.0
 17
0.0
 27
1.0
 37
0.0
 76
0
330
1B
  0
LAYOUT
  5
22
100
AcDbPlotSettings
  1

  2
C:\Program Files\AutoCAD 2002\plotters\DWF ePlot (optimized for plotting).pc3
  4

  6

 40
0.0
 41
0.0
 42
0.0
 43
0.0
 44
0.0
 45
0.0
 46
0.0
 47
0.0
 48
0.0
 49
0.0
140
0.0
141
0.0
142
1.0
143
1.0
 70
1712
 72
0
 73
0
 74
0
  7

 75
0
147
1.0
148
0.0
149
0.0
100
AcDbLayout
  1
Model
 70
1
 71
0
 10
0.0
 20
0.0
 11
12.0
 21
9.0
 12
0.0
 22
0.0
 32
0.0
 14
0.0
 24
0.0
 34
0.0
 15
0.0
 25
0.0
 35
0.0
146
0.0
 13
0.0
 23
0.0
 33
0.0
 16
1.0
 26
0.0
 36
0.0
 17
0.0
 27
1.0
 37
0.0
 76
0
330
1F
  0
LAYOUT
  5
26
100
AcDbPlotSettings
  1

  2
C:\Program Files\AutoCAD 2002\plotters\DWF ePlot (optimized for plotting).pc3
  4

  6

 40
0.0
 41
0.0
 42
0.0
 43
0.0
 44
0.0
 45
0.0
 46
0.0
 47
0.0
 48
0.0
 49
0.0
140
0.0
141
0.0
142
1.0
143
1.0
 70
688
 72
0
 73
0
 74
5
  7

 75
16
147
1.0
148
0.0
149
0.0
100
AcDbLayout
  1
Layout2
 70
1
 71
2
 10
0.0
 20
0.0
 11
12.0
 21
9.0
 12
0.0
 22
0.0
 32
0.0
 14
0.0
 24
0.0
 34
0.0
 15
0.0
 25
0.0
 35
0.0
146
0.0
 13
0.0
 23
0.0
 33
0.0
 16
1.0
 26
0.0
 36
0.0
 17
0.0
 27
1.0
 37
0.0
 76
0
330
23
  0
DICTIONARY
  5
130
100
AcDbDictionary
281
1
  3
DIMASSOC
350
132
  3
HIDETEXT
350
131
  0
DICTIONARYVAR
  5
131
100
DictionaryVariables
280
0
  1
2
  0
DICTIONARYVAR
  5
132
100
DictionaryVariables
280
0
  1
1
  0
ENDSEC
  0
EOF
