M48
; DRILL file {KiCad 9.0.8+dfsg-1} date 2026-08-13T10:05:01+0200
; FORMAT={-:-/ absolute / metric / decimal}
; #@! TF.CreationDate,2026-08-13T10:05:01+02:00
; #@! TF.GenerationSoftware,Kicad,Pcbnew,9.0.8+dfsg-1
; #@! TF.FileFunction,Plated,1,2,PTH
FMAT,2
METRIC
; #@! TA.AperFunction,Plated,PTH,ComponentDrill
T1C0.800
; #@! TA.AperFunction,Plated,PTH,ComponentDrill
T2C1.000
%
G90
G05
T1
X21.5Y-52.04
X21.5Y-54.04
X34.5Y-76.5
X36.5Y-76.5
X51.5Y-52.0
X51.5Y-54.0
T2
X22.2Y-76.5
X26.36Y-19.01
X26.36Y-21.55
X26.36Y-24.09
X26.36Y-26.63
X26.36Y-29.17
X26.36Y-31.71
X26.36Y-34.25
X26.36Y-36.79
X26.96Y-68.5
X27.2Y-76.5
X28.9Y-19.01
X28.9Y-21.55
X28.9Y-24.09
X28.9Y-26.63
X28.9Y-29.17
X28.9Y-31.71
X28.9Y-34.25
X28.9Y-36.79
X29.5Y-68.5
X30.32Y-44.47
X30.32Y-59.71
X32.04Y-68.5
X32.86Y-44.47
X32.86Y-59.71
X35.4Y-44.47
X35.4Y-59.71
X37.94Y-44.47
X37.94Y-59.71
X40.48Y-44.47
X40.48Y-59.71
X42.42Y-76.5
X43.02Y-44.47
X43.02Y-59.71
X44.14Y-19.01
X44.14Y-21.55
X44.14Y-24.09
X44.14Y-26.63
X44.14Y-29.17
X44.14Y-31.71
X44.14Y-34.25
X44.14Y-36.79
X44.96Y-76.5
X46.68Y-19.01
X46.68Y-21.55
X46.68Y-24.09
X46.68Y-26.63
X46.68Y-29.17
X46.68Y-31.71
X46.68Y-34.25
X46.68Y-36.79
X47.5Y-76.5
X53.0Y-68.5
X53.0Y-72.5
M30
