%TF.GenerationSoftware,KiCad,Pcbnew,9.0.8+dfsg-1*%
%TF.CreationDate,2026-08-28T12:02:37+02:00*%
%TF.ProjectId,hsd-antweight-2s-v4,6873642d-616e-4747-9765-696768742d32,rev?*%
%TF.SameCoordinates,Original*%
%TF.FileFunction,Soldermask,Bot*%
%TF.FilePolarity,Negative*%
%FSLAX46Y46*%
G04 Gerber Fmt 4.6, Leading zero omitted, Abs format (unit mm)*
G04 Created by KiCad (PCBNEW 9.0.8+dfsg-1) date 2026-08-28 12:02:37*
%MOMM*%
%LPD*%
G01*
G04 APERTURE LIST*
%ADD10R,2.000000X2.000000*%
%ADD11C,2.000000*%
%ADD12R,1.800000X1.800000*%
%ADD13C,1.800000*%
G04 APERTURE END LIST*
D10*
%TO.C,U1*%
X47600400Y-35500000D03*
X50140400Y-35500000D03*
D11*
X47600400Y-38040000D03*
X50140400Y-38040000D03*
X47600400Y-40580000D03*
X50140400Y-40580000D03*
X47600400Y-43120000D03*
X50140400Y-43120000D03*
X47600400Y-45660000D03*
X50140400Y-45660000D03*
X47600400Y-48200000D03*
X50140400Y-48200000D03*
X47600400Y-50740000D03*
X50140400Y-50740000D03*
X47600400Y-53280000D03*
X50140400Y-53280000D03*
X65380400Y-53280000D03*
X67920400Y-53280000D03*
X65380400Y-50740000D03*
X67920400Y-50740000D03*
X65380400Y-48200000D03*
X67920400Y-48200000D03*
X65380400Y-45660000D03*
X67920400Y-45660000D03*
X65380400Y-43120000D03*
X67920400Y-43120000D03*
X65380400Y-40580000D03*
X67920400Y-40580000D03*
X65380400Y-38040000D03*
X67920400Y-38040000D03*
X65380400Y-35500000D03*
X67920400Y-35500000D03*
%TD*%
D10*
%TO.C,SW1*%
X81000000Y-45500000D03*
D11*
X81000000Y-42960000D03*
%TD*%
D10*
%TO.C,U3*%
X60090000Y-83300000D03*
D11*
X57550000Y-83300000D03*
X55010000Y-83300000D03*
%TD*%
D10*
%TO.C,J10*%
X41000000Y-71080000D03*
D11*
X41000000Y-68540000D03*
X41000000Y-66000000D03*
%TD*%
D12*
%TO.C,J6*%
X45000000Y-77000000D03*
D13*
X43000000Y-77000000D03*
%TD*%
D12*
%TO.C,J4*%
X77000000Y-66000000D03*
D13*
X77000000Y-68000000D03*
%TD*%
D10*
%TO.C,U2*%
X51080000Y-61880000D03*
D11*
X51080000Y-77120000D03*
X53620000Y-61880000D03*
X53620000Y-77120000D03*
X56160000Y-61880000D03*
X56160000Y-77120000D03*
X58700000Y-61880000D03*
X58700000Y-77120000D03*
X61240000Y-61880000D03*
X61240000Y-77120000D03*
X63780000Y-61880000D03*
X63780000Y-77120000D03*
%TD*%
D12*
%TO.C,J4_ALT*%
X82000000Y-66000000D03*
D13*
X82000000Y-68540000D03*
%TD*%
D10*
%TO.C,JP1*%
X36500000Y-46420000D03*
D11*
X36500000Y-48960000D03*
X36500000Y-51500000D03*
%TD*%
D12*
%TO.C,J5*%
X71500000Y-77000000D03*
D13*
X69500000Y-77000000D03*
%TD*%
D10*
%TO.C,C1_C2*%
X33000000Y-39500000D03*
D11*
X37000000Y-39500000D03*
%TD*%
M02*
