%TF.GenerationSoftware,KiCad,Pcbnew,9.0.8+dfsg-1*%
%TF.CreationDate,2026-08-27T11:03:26+02:00*%
%TF.ProjectId,hsd-antweight-2s-v4,6873642d-616e-4747-9765-696768742d32,rev?*%
%TF.SameCoordinates,Original*%
%TF.FileFunction,Legend,Top*%
%TF.FilePolarity,Positive*%
%FSLAX46Y46*%
G04 Gerber Fmt 4.6, Leading zero omitted, Abs format (unit mm)*
G04 Created by KiCad (PCBNEW 9.0.8+dfsg-1) date 2026-08-27 11:03:26*
%MOMM*%
%LPD*%
G01*
G04 APERTURE LIST*
%ADD10C,0.000000*%
%ADD11C,0.100000*%
%ADD12C,0.150000*%
%ADD13C,0.120000*%
%ADD14C,0.300000*%
%ADD15C,0.250000*%
G04 APERTURE END LIST*
D10*
G36*
X27971329Y-31891882D02*
G01*
X27987453Y-31893108D01*
X28003341Y-31895128D01*
X28018976Y-31897920D01*
X28034336Y-31901465D01*
X28049402Y-31905744D01*
X28064154Y-31910736D01*
X28078572Y-31916421D01*
X28092636Y-31922780D01*
X28106326Y-31929792D01*
X28119622Y-31937437D01*
X28132504Y-31945696D01*
X28144952Y-31954548D01*
X28156947Y-31963974D01*
X28168467Y-31973954D01*
X28179494Y-31984467D01*
X28190007Y-31995494D01*
X28199987Y-32007014D01*
X28209412Y-32019008D01*
X28218265Y-32031457D01*
X28226524Y-32044339D01*
X28234169Y-32057635D01*
X28241181Y-32071324D01*
X28247539Y-32085388D01*
X28253225Y-32099806D01*
X28258217Y-32114558D01*
X28262495Y-32129624D01*
X28266041Y-32144985D01*
X28268833Y-32160619D01*
X28270852Y-32176508D01*
X28272079Y-32192631D01*
X28272492Y-32208969D01*
X28272492Y-32448629D01*
X28312905Y-32462484D01*
X28352989Y-32477195D01*
X28392737Y-32492755D01*
X28432140Y-32509156D01*
X28471193Y-32526388D01*
X28509886Y-32544446D01*
X28548214Y-32563319D01*
X28586168Y-32583001D01*
X28623742Y-32603482D01*
X28660927Y-32624757D01*
X28697717Y-32646815D01*
X28734104Y-32669649D01*
X28770081Y-32693252D01*
X28805641Y-32717615D01*
X28840775Y-32742730D01*
X28875477Y-32768589D01*
X29271214Y-32372852D01*
X29283059Y-32361592D01*
X29295326Y-32351058D01*
X29307987Y-32341251D01*
X29321015Y-32332170D01*
X29334382Y-32323815D01*
X29348058Y-32316187D01*
X29362016Y-32309286D01*
X29376228Y-32303111D01*
X29390666Y-32297663D01*
X29405300Y-32292940D01*
X29420104Y-32288945D01*
X29435049Y-32285676D01*
X29450106Y-32283133D01*
X29465248Y-32281317D01*
X29480447Y-32280227D01*
X29495674Y-32279864D01*
X29510900Y-32280227D01*
X29526099Y-32281317D01*
X29541241Y-32283133D01*
X29556298Y-32285676D01*
X29571243Y-32288945D01*
X29586047Y-32292940D01*
X29600681Y-32297663D01*
X29615119Y-32303111D01*
X29629331Y-32309286D01*
X29643289Y-32316187D01*
X29656965Y-32323815D01*
X29670332Y-32332170D01*
X29683360Y-32341251D01*
X29696021Y-32351058D01*
X29708288Y-32361592D01*
X29720133Y-32372852D01*
X30187837Y-32840556D01*
X30199097Y-32852400D01*
X30209631Y-32864667D01*
X30219438Y-32877329D01*
X30228519Y-32890357D01*
X30236873Y-32903723D01*
X30244501Y-32917400D01*
X30251403Y-32931358D01*
X30257578Y-32945570D01*
X30263026Y-32960007D01*
X30267748Y-32974642D01*
X30271744Y-32989446D01*
X30275013Y-33004390D01*
X30277555Y-33019448D01*
X30279372Y-33034590D01*
X30280461Y-33049788D01*
X30280825Y-33065015D01*
X30280461Y-33080242D01*
X30279372Y-33095440D01*
X30277555Y-33110582D01*
X30275013Y-33125640D01*
X30271744Y-33140584D01*
X30267748Y-33155388D01*
X30263026Y-33170023D01*
X30257578Y-33184460D01*
X30251403Y-33198672D01*
X30244501Y-33212631D01*
X30236873Y-33226307D01*
X30228519Y-33239673D01*
X30219438Y-33252701D01*
X30209631Y-33265363D01*
X30199097Y-33277630D01*
X30187837Y-33289474D01*
X29792100Y-33685212D01*
X29817959Y-33719914D01*
X29843074Y-33755048D01*
X29867437Y-33790607D01*
X29891039Y-33826584D01*
X29913874Y-33862971D01*
X29935932Y-33899761D01*
X29957206Y-33936947D01*
X29977688Y-33974520D01*
X29997370Y-34012475D01*
X30016243Y-34050802D01*
X30034300Y-34089496D01*
X30051533Y-34128548D01*
X30067934Y-34167952D01*
X30083494Y-34207699D01*
X30098205Y-34247784D01*
X30112060Y-34288197D01*
X30597465Y-34288197D01*
X30613802Y-34288610D01*
X30629925Y-34289836D01*
X30645814Y-34291856D01*
X30661449Y-34294648D01*
X30676809Y-34298193D01*
X30691875Y-34302472D01*
X30706627Y-34307464D01*
X30721045Y-34313149D01*
X30735109Y-34319508D01*
X30748799Y-34326520D01*
X30762095Y-34334165D01*
X30774977Y-34342424D01*
X30787425Y-34351276D01*
X30799420Y-34360702D01*
X30810940Y-34370682D01*
X30821967Y-34381195D01*
X30832480Y-34392221D01*
X30842460Y-34403742D01*
X30851885Y-34415736D01*
X30860738Y-34428184D01*
X30868997Y-34441067D01*
X30876642Y-34454362D01*
X30883654Y-34468052D01*
X30890012Y-34482116D01*
X30895698Y-34496534D01*
X30900690Y-34511286D01*
X30904968Y-34526352D01*
X30908514Y-34541713D01*
X30911306Y-34557347D01*
X30913325Y-34573236D01*
X30914551Y-34589359D01*
X30914965Y-34605697D01*
X30914965Y-35267155D01*
X30914551Y-35283493D01*
X30913325Y-35299616D01*
X30911306Y-35315505D01*
X30908514Y-35331139D01*
X30904968Y-35346500D01*
X30900690Y-35361566D01*
X30895698Y-35376318D01*
X30890012Y-35390736D01*
X30883654Y-35404800D01*
X30876642Y-35418490D01*
X30868997Y-35431786D01*
X30860738Y-35444668D01*
X30851885Y-35457116D01*
X30842460Y-35469110D01*
X30832480Y-35480631D01*
X30821967Y-35491658D01*
X30810940Y-35502171D01*
X30799420Y-35512150D01*
X30787425Y-35521576D01*
X30774977Y-35530429D01*
X30762095Y-35538687D01*
X30748799Y-35546333D01*
X30735109Y-35553345D01*
X30721045Y-35559703D01*
X30706627Y-35565388D01*
X30691875Y-35570380D01*
X30676809Y-35574659D01*
X30661449Y-35578205D01*
X30645814Y-35580997D01*
X30629925Y-35583016D01*
X30613802Y-35584242D01*
X30597465Y-35584656D01*
X30340845Y-35584656D01*
X30326990Y-35625069D01*
X30312278Y-35665153D01*
X30296718Y-35704901D01*
X30280318Y-35744304D01*
X30263085Y-35783356D01*
X30245028Y-35822050D01*
X30226155Y-35860378D01*
X30206473Y-35898332D01*
X30185991Y-35935906D01*
X30164717Y-35973091D01*
X30142659Y-36009881D01*
X30119824Y-36046268D01*
X30096222Y-36082245D01*
X30071859Y-36117804D01*
X30046744Y-36152938D01*
X30020885Y-36187641D01*
X30416622Y-36583378D01*
X30427882Y-36595222D01*
X30438416Y-36607489D01*
X30448223Y-36620151D01*
X30457304Y-36633179D01*
X30465658Y-36646545D01*
X30473286Y-36660222D01*
X30480188Y-36674180D01*
X30486363Y-36688392D01*
X30491811Y-36702829D01*
X30496533Y-36717464D01*
X30500529Y-36732268D01*
X30503798Y-36747213D01*
X30506340Y-36762270D01*
X30508157Y-36777412D01*
X30509246Y-36792611D01*
X30509610Y-36807837D01*
X30509246Y-36823064D01*
X30508157Y-36838262D01*
X30506340Y-36853404D01*
X30503798Y-36868462D01*
X30500529Y-36883407D01*
X30496533Y-36898210D01*
X30491811Y-36912845D01*
X30486363Y-36927282D01*
X30480188Y-36941494D01*
X30473286Y-36955453D01*
X30465658Y-36969129D01*
X30457304Y-36982495D01*
X30448223Y-36995523D01*
X30438416Y-37008185D01*
X30427882Y-37020452D01*
X30416622Y-37032296D01*
X29948918Y-37500000D01*
X29937074Y-37511260D01*
X29924807Y-37521794D01*
X29912145Y-37531602D01*
X29899117Y-37540682D01*
X29885751Y-37549037D01*
X29872074Y-37556665D01*
X29858116Y-37563566D01*
X29843904Y-37569741D01*
X29829467Y-37575190D01*
X29814832Y-37579912D01*
X29800028Y-37583907D01*
X29785083Y-37587177D01*
X29770026Y-37589719D01*
X29754884Y-37591535D01*
X29739685Y-37592625D01*
X29724459Y-37592988D01*
X29709232Y-37592625D01*
X29694034Y-37591535D01*
X29678892Y-37589719D01*
X29663834Y-37587177D01*
X29648889Y-37583907D01*
X29634086Y-37579912D01*
X29619451Y-37575190D01*
X29605014Y-37569741D01*
X29590802Y-37563566D01*
X29576843Y-37556665D01*
X29563167Y-37549037D01*
X29549801Y-37540682D01*
X29536773Y-37531602D01*
X29524111Y-37521794D01*
X29511844Y-37511260D01*
X29500000Y-37500000D01*
X29104262Y-37104263D01*
X29069560Y-37130122D01*
X29034426Y-37155237D01*
X28998866Y-37179600D01*
X28962890Y-37203203D01*
X28926503Y-37226037D01*
X28889713Y-37248096D01*
X28852527Y-37269370D01*
X28814954Y-37289852D01*
X28776999Y-37309534D01*
X28738672Y-37328407D01*
X28699978Y-37346464D01*
X28660926Y-37363697D01*
X28621522Y-37380097D01*
X28581775Y-37395657D01*
X28541690Y-37410368D01*
X28501277Y-37424224D01*
X28501277Y-37923969D01*
X28500864Y-37940306D01*
X28499638Y-37956429D01*
X28497619Y-37972318D01*
X28494826Y-37987953D01*
X28491281Y-38003313D01*
X28487002Y-38018379D01*
X28482010Y-38033131D01*
X28476325Y-38047549D01*
X28469966Y-38061613D01*
X28462954Y-38075303D01*
X28455309Y-38088599D01*
X28447050Y-38101481D01*
X28438198Y-38113929D01*
X28428772Y-38125924D01*
X28418792Y-38137444D01*
X28408279Y-38148471D01*
X28397252Y-38158984D01*
X28385732Y-38168964D01*
X28373738Y-38178389D01*
X28361289Y-38187242D01*
X28348407Y-38195501D01*
X28335111Y-38203146D01*
X28321421Y-38210158D01*
X28307358Y-38216516D01*
X28292940Y-38222202D01*
X28278188Y-38227194D01*
X28263121Y-38231472D01*
X28247761Y-38235018D01*
X28232126Y-38237810D01*
X28216238Y-38239829D01*
X28200114Y-38241055D01*
X28183777Y-38241469D01*
X27522319Y-38241469D01*
X27505981Y-38241055D01*
X27489858Y-38239829D01*
X27473969Y-38237810D01*
X27458334Y-38235018D01*
X27442974Y-38231472D01*
X27427908Y-38227194D01*
X27413156Y-38222202D01*
X27398738Y-38216516D01*
X27384674Y-38210158D01*
X27370984Y-38203146D01*
X27357688Y-38195501D01*
X27344806Y-38187242D01*
X27332358Y-38178389D01*
X27320364Y-38168964D01*
X27308843Y-38158984D01*
X27297816Y-38148471D01*
X27287303Y-38137444D01*
X27277324Y-38125924D01*
X27267898Y-38113929D01*
X27259046Y-38101481D01*
X27250787Y-38088599D01*
X27243141Y-38075303D01*
X27236129Y-38061613D01*
X27229771Y-38047549D01*
X27224086Y-38033131D01*
X27219094Y-38018379D01*
X27214815Y-38003313D01*
X27211270Y-37987953D01*
X27208477Y-37972318D01*
X27206458Y-37956429D01*
X27205232Y-37940306D01*
X27204819Y-37923969D01*
X27204819Y-37744184D01*
X27164405Y-37730329D01*
X27124321Y-37715617D01*
X27084574Y-37700057D01*
X27045170Y-37683657D01*
X27006117Y-37666424D01*
X26967424Y-37648367D01*
X26929096Y-37629494D01*
X26891142Y-37609812D01*
X26853568Y-37589330D01*
X26816383Y-37568056D01*
X26779593Y-37545998D01*
X26743206Y-37523163D01*
X26707229Y-37499561D01*
X26671670Y-37475198D01*
X26636535Y-37450083D01*
X26601833Y-37424224D01*
X26206096Y-37819961D01*
X26194252Y-37831221D01*
X26181985Y-37841755D01*
X26169323Y-37851562D01*
X26156295Y-37860643D01*
X26142929Y-37868998D01*
X26129252Y-37876625D01*
X26115294Y-37883527D01*
X26101082Y-37889702D01*
X26086645Y-37895150D01*
X26072010Y-37899872D01*
X26057206Y-37903868D01*
X26042261Y-37907137D01*
X26027204Y-37909680D01*
X26012062Y-37911496D01*
X25996863Y-37912586D01*
X25981637Y-37912949D01*
X25966410Y-37912586D01*
X25951212Y-37911496D01*
X25936070Y-37909680D01*
X25921012Y-37907137D01*
X25906067Y-37903868D01*
X25891263Y-37899872D01*
X25876629Y-37895150D01*
X25862191Y-37889702D01*
X25847979Y-37883527D01*
X25834021Y-37876625D01*
X25820345Y-37868998D01*
X25806979Y-37860643D01*
X25793950Y-37851562D01*
X25781289Y-37841755D01*
X25769022Y-37831221D01*
X25757177Y-37819961D01*
X25289473Y-37352257D01*
X25278213Y-37340413D01*
X25267679Y-37328146D01*
X25257872Y-37315484D01*
X25248791Y-37302456D01*
X25240437Y-37289090D01*
X25232809Y-37275413D01*
X25225908Y-37261455D01*
X25219733Y-37247243D01*
X25214284Y-37232806D01*
X25209562Y-37218171D01*
X25205567Y-37203367D01*
X25202297Y-37188422D01*
X25199755Y-37173365D01*
X25197939Y-37158223D01*
X25196849Y-37143024D01*
X25196486Y-37127798D01*
X25196849Y-37112571D01*
X25197939Y-37097373D01*
X25199755Y-37082231D01*
X25202297Y-37067173D01*
X25205567Y-37052228D01*
X25209562Y-37037424D01*
X25214284Y-37022790D01*
X25219733Y-37008352D01*
X25225908Y-36994140D01*
X25232809Y-36980182D01*
X25240437Y-36966506D01*
X25248791Y-36953140D01*
X25257872Y-36940111D01*
X25267679Y-36927450D01*
X25278213Y-36915183D01*
X25289473Y-36903338D01*
X25685211Y-36507601D01*
X25659352Y-36472899D01*
X25634237Y-36437765D01*
X25609874Y-36402206D01*
X25586271Y-36366229D01*
X25563437Y-36329842D01*
X25541378Y-36293052D01*
X25520104Y-36255866D01*
X25499622Y-36218293D01*
X25479940Y-36180338D01*
X25461067Y-36142011D01*
X25443010Y-36103317D01*
X25425777Y-36064264D01*
X25409377Y-36024861D01*
X25393817Y-35985113D01*
X25379105Y-35945029D01*
X25365250Y-35904616D01*
X24882465Y-35904616D01*
X24866127Y-35904202D01*
X24850004Y-35902976D01*
X24834115Y-35900957D01*
X24818481Y-35898165D01*
X24803120Y-35894619D01*
X24788054Y-35890340D01*
X24773302Y-35885349D01*
X24758884Y-35879663D01*
X24744820Y-35873305D01*
X24731131Y-35866293D01*
X24717835Y-35858648D01*
X24704953Y-35850389D01*
X24692504Y-35841536D01*
X24680510Y-35832111D01*
X24668990Y-35822131D01*
X24657963Y-35811618D01*
X24647450Y-35800591D01*
X24637470Y-35789071D01*
X24628044Y-35777076D01*
X24619192Y-35764628D01*
X24610933Y-35751746D01*
X24603288Y-35738450D01*
X24596276Y-35724760D01*
X24589917Y-35710696D01*
X24584232Y-35696278D01*
X24579240Y-35681526D01*
X24574961Y-35666460D01*
X24571416Y-35651100D01*
X24568624Y-35635465D01*
X24566604Y-35619576D01*
X24565378Y-35603453D01*
X24564965Y-35587116D01*
X24564965Y-35066469D01*
X26417048Y-35066469D01*
X26418770Y-35134545D01*
X26423878Y-35201728D01*
X26432291Y-35267935D01*
X26443925Y-35333081D01*
X26458698Y-35397084D01*
X26476524Y-35459861D01*
X26497323Y-35521329D01*
X26521010Y-35581405D01*
X26547503Y-35640005D01*
X26576718Y-35697047D01*
X26608573Y-35752446D01*
X26642983Y-35806121D01*
X26679867Y-35857988D01*
X26719140Y-35907964D01*
X26760720Y-35955966D01*
X26804524Y-36001910D01*
X26850468Y-36045713D01*
X26898470Y-36087294D01*
X26948445Y-36126567D01*
X27000312Y-36163450D01*
X27053987Y-36197861D01*
X27109387Y-36229715D01*
X27166428Y-36258930D01*
X27225029Y-36285423D01*
X27285104Y-36309110D01*
X27346572Y-36329909D01*
X27409349Y-36347736D01*
X27473353Y-36362508D01*
X27538499Y-36374142D01*
X27604705Y-36382555D01*
X27671888Y-36387664D01*
X27739965Y-36389385D01*
X27808041Y-36387664D01*
X27875224Y-36382555D01*
X27941431Y-36374142D01*
X28006577Y-36362508D01*
X28070580Y-36347736D01*
X28133357Y-36329909D01*
X28194825Y-36309110D01*
X28254901Y-36285423D01*
X28313501Y-36258930D01*
X28370543Y-36229715D01*
X28425942Y-36197861D01*
X28479617Y-36163450D01*
X28531484Y-36126567D01*
X28581460Y-36087294D01*
X28629462Y-36045713D01*
X28675406Y-36001910D01*
X28719209Y-35955966D01*
X28760790Y-35907964D01*
X28800063Y-35857988D01*
X28836946Y-35806121D01*
X28871357Y-35752446D01*
X28903211Y-35697047D01*
X28932426Y-35640005D01*
X28958919Y-35581405D01*
X28982606Y-35521329D01*
X29003405Y-35459861D01*
X29021232Y-35397084D01*
X29036004Y-35333081D01*
X29047638Y-35267935D01*
X29056051Y-35201728D01*
X29061160Y-35134545D01*
X29062881Y-35066469D01*
X29061160Y-34998392D01*
X29056051Y-34931209D01*
X29047638Y-34865003D01*
X29036004Y-34799857D01*
X29021232Y-34735853D01*
X29003405Y-34673076D01*
X28982606Y-34611608D01*
X28958919Y-34551533D01*
X28932426Y-34492932D01*
X28903211Y-34435891D01*
X28871357Y-34380491D01*
X28836946Y-34326816D01*
X28800063Y-34274949D01*
X28760790Y-34224974D01*
X28719209Y-34176972D01*
X28675406Y-34131028D01*
X28629462Y-34087224D01*
X28581460Y-34045644D01*
X28531484Y-34006371D01*
X28479617Y-33969487D01*
X28425942Y-33935077D01*
X28370543Y-33903222D01*
X28313501Y-33874007D01*
X28254901Y-33847514D01*
X28194825Y-33823827D01*
X28133357Y-33803028D01*
X28070580Y-33785202D01*
X28006577Y-33770429D01*
X27941431Y-33758795D01*
X27875224Y-33750382D01*
X27808041Y-33745274D01*
X27739965Y-33743552D01*
X27671888Y-33745274D01*
X27604705Y-33750382D01*
X27538499Y-33758795D01*
X27473353Y-33770429D01*
X27409349Y-33785202D01*
X27346572Y-33803028D01*
X27285104Y-33823827D01*
X27225029Y-33847514D01*
X27166428Y-33874007D01*
X27109387Y-33903222D01*
X27053987Y-33935077D01*
X27000312Y-33969487D01*
X26948445Y-34006371D01*
X26898470Y-34045644D01*
X26850468Y-34087224D01*
X26804524Y-34131028D01*
X26760720Y-34176972D01*
X26719140Y-34224974D01*
X26679867Y-34274949D01*
X26642983Y-34326816D01*
X26608573Y-34380491D01*
X26576718Y-34435891D01*
X26547503Y-34492932D01*
X26521010Y-34551533D01*
X26497323Y-34611608D01*
X26476524Y-34673076D01*
X26458698Y-34735853D01*
X26443925Y-34799857D01*
X26432291Y-34865003D01*
X26423878Y-34931209D01*
X26418770Y-34998392D01*
X26417048Y-35066469D01*
X24564965Y-35066469D01*
X24564965Y-34925658D01*
X24565378Y-34909320D01*
X24566604Y-34893197D01*
X24568624Y-34877308D01*
X24571416Y-34861674D01*
X24574961Y-34846313D01*
X24579240Y-34831247D01*
X24584232Y-34816495D01*
X24589917Y-34802077D01*
X24596276Y-34788013D01*
X24603288Y-34774323D01*
X24610933Y-34761027D01*
X24619192Y-34748145D01*
X24628044Y-34735697D01*
X24637470Y-34723703D01*
X24647450Y-34712182D01*
X24657963Y-34701155D01*
X24668990Y-34690642D01*
X24680510Y-34680663D01*
X24692504Y-34671237D01*
X24704953Y-34662385D01*
X24717835Y-34654126D01*
X24731131Y-34646480D01*
X24744820Y-34639469D01*
X24758884Y-34633110D01*
X24773302Y-34627425D01*
X24788054Y-34622433D01*
X24803120Y-34618154D01*
X24818481Y-34614609D01*
X24834115Y-34611816D01*
X24850004Y-34609797D01*
X24866127Y-34608571D01*
X24882465Y-34608158D01*
X25186021Y-34608158D01*
X25199877Y-34567744D01*
X25214588Y-34527660D01*
X25230148Y-34487913D01*
X25246549Y-34448509D01*
X25263781Y-34409457D01*
X25281838Y-34370763D01*
X25300712Y-34332435D01*
X25320393Y-34294481D01*
X25340875Y-34256907D01*
X25362149Y-34219722D01*
X25384208Y-34182932D01*
X25407042Y-34146545D01*
X25430645Y-34110568D01*
X25455008Y-34075009D01*
X25480123Y-34039874D01*
X25505982Y-34005172D01*
X25110245Y-33609435D01*
X25098984Y-33597591D01*
X25088451Y-33585324D01*
X25078643Y-33572662D01*
X25069563Y-33559634D01*
X25061208Y-33546268D01*
X25053580Y-33532591D01*
X25046679Y-33518633D01*
X25040504Y-33504421D01*
X25035055Y-33489984D01*
X25030333Y-33475349D01*
X25026338Y-33460545D01*
X25023069Y-33445600D01*
X25020526Y-33430543D01*
X25018710Y-33415401D01*
X25017620Y-33400202D01*
X25017257Y-33384976D01*
X25017620Y-33369749D01*
X25018710Y-33354551D01*
X25020526Y-33339409D01*
X25023069Y-33324351D01*
X25026338Y-33309406D01*
X25030333Y-33294603D01*
X25035055Y-33279968D01*
X25040504Y-33265530D01*
X25046679Y-33251318D01*
X25053580Y-33237360D01*
X25061208Y-33223684D01*
X25069563Y-33210318D01*
X25078643Y-33197289D01*
X25088451Y-33184628D01*
X25098984Y-33172361D01*
X25110245Y-33160516D01*
X25577949Y-32692813D01*
X25589793Y-32681552D01*
X25602060Y-32671019D01*
X25614722Y-32661211D01*
X25627750Y-32652130D01*
X25641116Y-32643776D01*
X25654793Y-32636148D01*
X25668751Y-32629247D01*
X25682963Y-32623072D01*
X25697400Y-32617623D01*
X25712035Y-32612901D01*
X25726839Y-32608906D01*
X25741783Y-32605636D01*
X25756841Y-32603094D01*
X25771983Y-32601278D01*
X25787181Y-32600188D01*
X25802408Y-32599825D01*
X25817635Y-32600188D01*
X25832833Y-32601278D01*
X25847975Y-32603094D01*
X25863033Y-32605636D01*
X25877977Y-32608906D01*
X25892781Y-32612901D01*
X25907416Y-32617623D01*
X25921853Y-32623072D01*
X25936065Y-32629247D01*
X25950023Y-32636148D01*
X25963700Y-32643776D01*
X25977066Y-32652130D01*
X25990094Y-32661211D01*
X26002756Y-32671019D01*
X26015023Y-32681552D01*
X26026867Y-32692813D01*
X26422605Y-33088550D01*
X26457307Y-33062691D01*
X26492441Y-33037576D01*
X26528000Y-33013213D01*
X26563977Y-32989610D01*
X26600364Y-32966776D01*
X26637154Y-32944717D01*
X26674340Y-32923443D01*
X26711913Y-32902961D01*
X26749867Y-32883279D01*
X26788195Y-32864406D01*
X26826889Y-32846349D01*
X26865941Y-32829116D01*
X26905345Y-32812716D01*
X26945092Y-32797156D01*
X26985177Y-32782444D01*
X27025590Y-32768589D01*
X27025590Y-32208969D01*
X27026003Y-32192631D01*
X27027229Y-32176508D01*
X27029248Y-32160619D01*
X27032041Y-32144985D01*
X27035586Y-32129624D01*
X27039865Y-32114558D01*
X27044857Y-32099806D01*
X27050542Y-32085388D01*
X27056901Y-32071324D01*
X27063913Y-32057635D01*
X27071558Y-32044339D01*
X27079817Y-32031457D01*
X27088669Y-32019008D01*
X27098095Y-32007014D01*
X27108074Y-31995494D01*
X27118588Y-31984467D01*
X27129614Y-31973954D01*
X27141135Y-31963974D01*
X27153129Y-31954548D01*
X27165577Y-31945696D01*
X27178459Y-31937437D01*
X27191755Y-31929792D01*
X27205445Y-31922780D01*
X27219509Y-31916421D01*
X27233927Y-31910736D01*
X27248679Y-31905744D01*
X27263745Y-31901465D01*
X27279106Y-31897920D01*
X27294740Y-31895128D01*
X27310629Y-31893108D01*
X27326752Y-31891882D01*
X27343090Y-31891469D01*
X27954992Y-31891469D01*
X27971329Y-31891882D01*
G37*
G36*
X89971329Y-32391882D02*
G01*
X89987453Y-32393108D01*
X90003341Y-32395128D01*
X90018976Y-32397920D01*
X90034336Y-32401465D01*
X90049402Y-32405744D01*
X90064154Y-32410736D01*
X90078572Y-32416421D01*
X90092636Y-32422780D01*
X90106326Y-32429792D01*
X90119622Y-32437437D01*
X90132504Y-32445696D01*
X90144952Y-32454548D01*
X90156947Y-32463974D01*
X90168467Y-32473954D01*
X90179494Y-32484467D01*
X90190007Y-32495494D01*
X90199987Y-32507014D01*
X90209412Y-32519008D01*
X90218265Y-32531457D01*
X90226524Y-32544339D01*
X90234169Y-32557635D01*
X90241181Y-32571324D01*
X90247539Y-32585388D01*
X90253225Y-32599806D01*
X90258217Y-32614558D01*
X90262495Y-32629624D01*
X90266041Y-32644985D01*
X90268833Y-32660619D01*
X90270852Y-32676508D01*
X90272079Y-32692631D01*
X90272492Y-32708969D01*
X90272492Y-32948629D01*
X90312905Y-32962484D01*
X90352989Y-32977195D01*
X90392737Y-32992755D01*
X90432140Y-33009156D01*
X90471193Y-33026388D01*
X90509886Y-33044446D01*
X90548214Y-33063319D01*
X90586168Y-33083001D01*
X90623742Y-33103482D01*
X90660927Y-33124757D01*
X90697717Y-33146815D01*
X90734104Y-33169649D01*
X90770081Y-33193252D01*
X90805641Y-33217615D01*
X90840775Y-33242730D01*
X90875477Y-33268589D01*
X91271214Y-32872852D01*
X91283059Y-32861592D01*
X91295326Y-32851058D01*
X91307987Y-32841251D01*
X91321015Y-32832170D01*
X91334382Y-32823815D01*
X91348058Y-32816187D01*
X91362016Y-32809286D01*
X91376228Y-32803111D01*
X91390666Y-32797663D01*
X91405300Y-32792940D01*
X91420104Y-32788945D01*
X91435049Y-32785676D01*
X91450106Y-32783133D01*
X91465248Y-32781317D01*
X91480447Y-32780227D01*
X91495674Y-32779864D01*
X91510900Y-32780227D01*
X91526099Y-32781317D01*
X91541241Y-32783133D01*
X91556298Y-32785676D01*
X91571243Y-32788945D01*
X91586047Y-32792940D01*
X91600681Y-32797663D01*
X91615119Y-32803111D01*
X91629331Y-32809286D01*
X91643289Y-32816187D01*
X91656965Y-32823815D01*
X91670332Y-32832170D01*
X91683360Y-32841251D01*
X91696021Y-32851058D01*
X91708288Y-32861592D01*
X91720133Y-32872852D01*
X92187837Y-33340556D01*
X92199097Y-33352400D01*
X92209631Y-33364667D01*
X92219438Y-33377329D01*
X92228519Y-33390357D01*
X92236873Y-33403723D01*
X92244501Y-33417400D01*
X92251403Y-33431358D01*
X92257578Y-33445570D01*
X92263026Y-33460007D01*
X92267748Y-33474642D01*
X92271744Y-33489446D01*
X92275013Y-33504390D01*
X92277555Y-33519448D01*
X92279372Y-33534590D01*
X92280461Y-33549788D01*
X92280825Y-33565015D01*
X92280461Y-33580242D01*
X92279372Y-33595440D01*
X92277555Y-33610582D01*
X92275013Y-33625640D01*
X92271744Y-33640584D01*
X92267748Y-33655388D01*
X92263026Y-33670023D01*
X92257578Y-33684460D01*
X92251403Y-33698672D01*
X92244501Y-33712631D01*
X92236873Y-33726307D01*
X92228519Y-33739673D01*
X92219438Y-33752701D01*
X92209631Y-33765363D01*
X92199097Y-33777630D01*
X92187837Y-33789474D01*
X91792100Y-34185212D01*
X91817959Y-34219914D01*
X91843074Y-34255048D01*
X91867437Y-34290607D01*
X91891039Y-34326584D01*
X91913874Y-34362971D01*
X91935932Y-34399761D01*
X91957206Y-34436947D01*
X91977688Y-34474520D01*
X91997370Y-34512475D01*
X92016243Y-34550802D01*
X92034300Y-34589496D01*
X92051533Y-34628548D01*
X92067934Y-34667952D01*
X92083494Y-34707699D01*
X92098205Y-34747784D01*
X92112060Y-34788197D01*
X92597465Y-34788197D01*
X92613802Y-34788610D01*
X92629925Y-34789836D01*
X92645814Y-34791856D01*
X92661449Y-34794648D01*
X92676809Y-34798193D01*
X92691875Y-34802472D01*
X92706627Y-34807464D01*
X92721045Y-34813149D01*
X92735109Y-34819508D01*
X92748799Y-34826520D01*
X92762095Y-34834165D01*
X92774977Y-34842424D01*
X92787425Y-34851276D01*
X92799420Y-34860702D01*
X92810940Y-34870682D01*
X92821967Y-34881195D01*
X92832480Y-34892221D01*
X92842460Y-34903742D01*
X92851885Y-34915736D01*
X92860738Y-34928184D01*
X92868997Y-34941067D01*
X92876642Y-34954362D01*
X92883654Y-34968052D01*
X92890012Y-34982116D01*
X92895698Y-34996534D01*
X92900690Y-35011286D01*
X92904968Y-35026352D01*
X92908514Y-35041713D01*
X92911306Y-35057347D01*
X92913325Y-35073236D01*
X92914551Y-35089359D01*
X92914965Y-35105697D01*
X92914965Y-35767155D01*
X92914551Y-35783493D01*
X92913325Y-35799616D01*
X92911306Y-35815505D01*
X92908514Y-35831139D01*
X92904968Y-35846500D01*
X92900690Y-35861566D01*
X92895698Y-35876318D01*
X92890012Y-35890736D01*
X92883654Y-35904800D01*
X92876642Y-35918490D01*
X92868997Y-35931786D01*
X92860738Y-35944668D01*
X92851885Y-35957116D01*
X92842460Y-35969110D01*
X92832480Y-35980631D01*
X92821967Y-35991658D01*
X92810940Y-36002171D01*
X92799420Y-36012150D01*
X92787425Y-36021576D01*
X92774977Y-36030429D01*
X92762095Y-36038687D01*
X92748799Y-36046333D01*
X92735109Y-36053345D01*
X92721045Y-36059703D01*
X92706627Y-36065388D01*
X92691875Y-36070380D01*
X92676809Y-36074659D01*
X92661449Y-36078205D01*
X92645814Y-36080997D01*
X92629925Y-36083016D01*
X92613802Y-36084242D01*
X92597465Y-36084656D01*
X92340845Y-36084656D01*
X92326990Y-36125069D01*
X92312278Y-36165153D01*
X92296718Y-36204901D01*
X92280318Y-36244304D01*
X92263085Y-36283356D01*
X92245028Y-36322050D01*
X92226155Y-36360378D01*
X92206473Y-36398332D01*
X92185991Y-36435906D01*
X92164717Y-36473091D01*
X92142659Y-36509881D01*
X92119824Y-36546268D01*
X92096222Y-36582245D01*
X92071859Y-36617804D01*
X92046744Y-36652938D01*
X92020885Y-36687641D01*
X92416622Y-37083378D01*
X92427882Y-37095222D01*
X92438416Y-37107489D01*
X92448223Y-37120151D01*
X92457304Y-37133179D01*
X92465658Y-37146545D01*
X92473286Y-37160222D01*
X92480188Y-37174180D01*
X92486363Y-37188392D01*
X92491811Y-37202829D01*
X92496533Y-37217464D01*
X92500529Y-37232268D01*
X92503798Y-37247213D01*
X92506340Y-37262270D01*
X92508157Y-37277412D01*
X92509246Y-37292611D01*
X92509610Y-37307837D01*
X92509246Y-37323064D01*
X92508157Y-37338262D01*
X92506340Y-37353404D01*
X92503798Y-37368462D01*
X92500529Y-37383407D01*
X92496533Y-37398210D01*
X92491811Y-37412845D01*
X92486363Y-37427282D01*
X92480188Y-37441494D01*
X92473286Y-37455453D01*
X92465658Y-37469129D01*
X92457304Y-37482495D01*
X92448223Y-37495523D01*
X92438416Y-37508185D01*
X92427882Y-37520452D01*
X92416622Y-37532296D01*
X91948918Y-38000000D01*
X91937074Y-38011260D01*
X91924807Y-38021794D01*
X91912145Y-38031602D01*
X91899117Y-38040682D01*
X91885751Y-38049037D01*
X91872074Y-38056665D01*
X91858116Y-38063566D01*
X91843904Y-38069741D01*
X91829467Y-38075190D01*
X91814832Y-38079912D01*
X91800028Y-38083907D01*
X91785083Y-38087177D01*
X91770026Y-38089719D01*
X91754884Y-38091535D01*
X91739685Y-38092625D01*
X91724459Y-38092988D01*
X91709232Y-38092625D01*
X91694034Y-38091535D01*
X91678892Y-38089719D01*
X91663834Y-38087177D01*
X91648889Y-38083907D01*
X91634086Y-38079912D01*
X91619451Y-38075190D01*
X91605014Y-38069741D01*
X91590802Y-38063566D01*
X91576843Y-38056665D01*
X91563167Y-38049037D01*
X91549801Y-38040682D01*
X91536773Y-38031602D01*
X91524111Y-38021794D01*
X91511844Y-38011260D01*
X91500000Y-38000000D01*
X91104262Y-37604263D01*
X91069560Y-37630122D01*
X91034426Y-37655237D01*
X90998866Y-37679600D01*
X90962890Y-37703203D01*
X90926503Y-37726037D01*
X90889713Y-37748096D01*
X90852527Y-37769370D01*
X90814954Y-37789852D01*
X90776999Y-37809534D01*
X90738672Y-37828407D01*
X90699978Y-37846464D01*
X90660926Y-37863697D01*
X90621522Y-37880097D01*
X90581775Y-37895657D01*
X90541690Y-37910368D01*
X90501277Y-37924224D01*
X90501277Y-38423969D01*
X90500864Y-38440306D01*
X90499638Y-38456429D01*
X90497619Y-38472318D01*
X90494826Y-38487953D01*
X90491281Y-38503313D01*
X90487002Y-38518379D01*
X90482010Y-38533131D01*
X90476325Y-38547549D01*
X90469966Y-38561613D01*
X90462954Y-38575303D01*
X90455309Y-38588599D01*
X90447050Y-38601481D01*
X90438198Y-38613929D01*
X90428772Y-38625924D01*
X90418792Y-38637444D01*
X90408279Y-38648471D01*
X90397252Y-38658984D01*
X90385732Y-38668964D01*
X90373738Y-38678389D01*
X90361289Y-38687242D01*
X90348407Y-38695501D01*
X90335111Y-38703146D01*
X90321421Y-38710158D01*
X90307358Y-38716516D01*
X90292940Y-38722202D01*
X90278188Y-38727194D01*
X90263121Y-38731472D01*
X90247761Y-38735018D01*
X90232126Y-38737810D01*
X90216238Y-38739829D01*
X90200114Y-38741055D01*
X90183777Y-38741469D01*
X89522319Y-38741469D01*
X89505981Y-38741055D01*
X89489858Y-38739829D01*
X89473969Y-38737810D01*
X89458334Y-38735018D01*
X89442974Y-38731472D01*
X89427908Y-38727194D01*
X89413156Y-38722202D01*
X89398738Y-38716516D01*
X89384674Y-38710158D01*
X89370984Y-38703146D01*
X89357688Y-38695501D01*
X89344806Y-38687242D01*
X89332358Y-38678389D01*
X89320364Y-38668964D01*
X89308843Y-38658984D01*
X89297816Y-38648471D01*
X89287303Y-38637444D01*
X89277324Y-38625924D01*
X89267898Y-38613929D01*
X89259046Y-38601481D01*
X89250787Y-38588599D01*
X89243141Y-38575303D01*
X89236129Y-38561613D01*
X89229771Y-38547549D01*
X89224086Y-38533131D01*
X89219094Y-38518379D01*
X89214815Y-38503313D01*
X89211270Y-38487953D01*
X89208477Y-38472318D01*
X89206458Y-38456429D01*
X89205232Y-38440306D01*
X89204819Y-38423969D01*
X89204819Y-38244184D01*
X89164405Y-38230329D01*
X89124321Y-38215617D01*
X89084574Y-38200057D01*
X89045170Y-38183657D01*
X89006117Y-38166424D01*
X88967424Y-38148367D01*
X88929096Y-38129494D01*
X88891142Y-38109812D01*
X88853568Y-38089330D01*
X88816383Y-38068056D01*
X88779593Y-38045998D01*
X88743206Y-38023163D01*
X88707229Y-37999561D01*
X88671670Y-37975198D01*
X88636535Y-37950083D01*
X88601833Y-37924224D01*
X88206096Y-38319961D01*
X88194252Y-38331221D01*
X88181985Y-38341755D01*
X88169323Y-38351562D01*
X88156295Y-38360643D01*
X88142929Y-38368998D01*
X88129252Y-38376625D01*
X88115294Y-38383527D01*
X88101082Y-38389702D01*
X88086645Y-38395150D01*
X88072010Y-38399872D01*
X88057206Y-38403868D01*
X88042261Y-38407137D01*
X88027204Y-38409680D01*
X88012062Y-38411496D01*
X87996863Y-38412586D01*
X87981637Y-38412949D01*
X87966410Y-38412586D01*
X87951212Y-38411496D01*
X87936070Y-38409680D01*
X87921012Y-38407137D01*
X87906067Y-38403868D01*
X87891263Y-38399872D01*
X87876629Y-38395150D01*
X87862191Y-38389702D01*
X87847979Y-38383527D01*
X87834021Y-38376625D01*
X87820345Y-38368998D01*
X87806979Y-38360643D01*
X87793950Y-38351562D01*
X87781289Y-38341755D01*
X87769022Y-38331221D01*
X87757177Y-38319961D01*
X87289473Y-37852257D01*
X87278213Y-37840413D01*
X87267679Y-37828146D01*
X87257872Y-37815484D01*
X87248791Y-37802456D01*
X87240437Y-37789090D01*
X87232809Y-37775413D01*
X87225908Y-37761455D01*
X87219733Y-37747243D01*
X87214284Y-37732806D01*
X87209562Y-37718171D01*
X87205567Y-37703367D01*
X87202297Y-37688422D01*
X87199755Y-37673365D01*
X87197939Y-37658223D01*
X87196849Y-37643024D01*
X87196486Y-37627798D01*
X87196849Y-37612571D01*
X87197939Y-37597373D01*
X87199755Y-37582231D01*
X87202297Y-37567173D01*
X87205567Y-37552228D01*
X87209562Y-37537424D01*
X87214284Y-37522790D01*
X87219733Y-37508352D01*
X87225908Y-37494140D01*
X87232809Y-37480182D01*
X87240437Y-37466506D01*
X87248791Y-37453140D01*
X87257872Y-37440111D01*
X87267679Y-37427450D01*
X87278213Y-37415183D01*
X87289473Y-37403338D01*
X87685211Y-37007601D01*
X87659352Y-36972899D01*
X87634237Y-36937765D01*
X87609874Y-36902206D01*
X87586271Y-36866229D01*
X87563437Y-36829842D01*
X87541378Y-36793052D01*
X87520104Y-36755866D01*
X87499622Y-36718293D01*
X87479940Y-36680338D01*
X87461067Y-36642011D01*
X87443010Y-36603317D01*
X87425777Y-36564264D01*
X87409377Y-36524861D01*
X87393817Y-36485113D01*
X87379105Y-36445029D01*
X87365250Y-36404616D01*
X86882465Y-36404616D01*
X86866127Y-36404202D01*
X86850004Y-36402976D01*
X86834115Y-36400957D01*
X86818481Y-36398165D01*
X86803120Y-36394619D01*
X86788054Y-36390340D01*
X86773302Y-36385349D01*
X86758884Y-36379663D01*
X86744820Y-36373305D01*
X86731131Y-36366293D01*
X86717835Y-36358648D01*
X86704953Y-36350389D01*
X86692504Y-36341536D01*
X86680510Y-36332111D01*
X86668990Y-36322131D01*
X86657963Y-36311618D01*
X86647450Y-36300591D01*
X86637470Y-36289071D01*
X86628044Y-36277076D01*
X86619192Y-36264628D01*
X86610933Y-36251746D01*
X86603288Y-36238450D01*
X86596276Y-36224760D01*
X86589917Y-36210696D01*
X86584232Y-36196278D01*
X86579240Y-36181526D01*
X86574961Y-36166460D01*
X86571416Y-36151100D01*
X86568624Y-36135465D01*
X86566604Y-36119576D01*
X86565378Y-36103453D01*
X86564965Y-36087116D01*
X86564965Y-35566469D01*
X88417048Y-35566469D01*
X88418770Y-35634545D01*
X88423878Y-35701728D01*
X88432291Y-35767935D01*
X88443925Y-35833081D01*
X88458698Y-35897084D01*
X88476524Y-35959861D01*
X88497323Y-36021329D01*
X88521010Y-36081405D01*
X88547503Y-36140005D01*
X88576718Y-36197047D01*
X88608573Y-36252446D01*
X88642983Y-36306121D01*
X88679867Y-36357988D01*
X88719140Y-36407964D01*
X88760720Y-36455966D01*
X88804524Y-36501910D01*
X88850468Y-36545713D01*
X88898470Y-36587294D01*
X88948445Y-36626567D01*
X89000312Y-36663450D01*
X89053987Y-36697861D01*
X89109387Y-36729715D01*
X89166428Y-36758930D01*
X89225029Y-36785423D01*
X89285104Y-36809110D01*
X89346572Y-36829909D01*
X89409349Y-36847736D01*
X89473353Y-36862508D01*
X89538499Y-36874142D01*
X89604705Y-36882555D01*
X89671888Y-36887664D01*
X89739965Y-36889385D01*
X89808041Y-36887664D01*
X89875224Y-36882555D01*
X89941431Y-36874142D01*
X90006577Y-36862508D01*
X90070580Y-36847736D01*
X90133357Y-36829909D01*
X90194825Y-36809110D01*
X90254901Y-36785423D01*
X90313501Y-36758930D01*
X90370543Y-36729715D01*
X90425942Y-36697861D01*
X90479617Y-36663450D01*
X90531484Y-36626567D01*
X90581460Y-36587294D01*
X90629462Y-36545713D01*
X90675406Y-36501910D01*
X90719209Y-36455966D01*
X90760790Y-36407964D01*
X90800063Y-36357988D01*
X90836946Y-36306121D01*
X90871357Y-36252446D01*
X90903211Y-36197047D01*
X90932426Y-36140005D01*
X90958919Y-36081405D01*
X90982606Y-36021329D01*
X91003405Y-35959861D01*
X91021232Y-35897084D01*
X91036004Y-35833081D01*
X91047638Y-35767935D01*
X91056051Y-35701728D01*
X91061160Y-35634545D01*
X91062881Y-35566469D01*
X91061160Y-35498392D01*
X91056051Y-35431209D01*
X91047638Y-35365003D01*
X91036004Y-35299857D01*
X91021232Y-35235853D01*
X91003405Y-35173076D01*
X90982606Y-35111608D01*
X90958919Y-35051533D01*
X90932426Y-34992932D01*
X90903211Y-34935891D01*
X90871357Y-34880491D01*
X90836946Y-34826816D01*
X90800063Y-34774949D01*
X90760790Y-34724974D01*
X90719209Y-34676972D01*
X90675406Y-34631028D01*
X90629462Y-34587224D01*
X90581460Y-34545644D01*
X90531484Y-34506371D01*
X90479617Y-34469487D01*
X90425942Y-34435077D01*
X90370543Y-34403222D01*
X90313501Y-34374007D01*
X90254901Y-34347514D01*
X90194825Y-34323827D01*
X90133357Y-34303028D01*
X90070580Y-34285202D01*
X90006577Y-34270429D01*
X89941431Y-34258795D01*
X89875224Y-34250382D01*
X89808041Y-34245274D01*
X89739965Y-34243552D01*
X89671888Y-34245274D01*
X89604705Y-34250382D01*
X89538499Y-34258795D01*
X89473353Y-34270429D01*
X89409349Y-34285202D01*
X89346572Y-34303028D01*
X89285104Y-34323827D01*
X89225029Y-34347514D01*
X89166428Y-34374007D01*
X89109387Y-34403222D01*
X89053987Y-34435077D01*
X89000312Y-34469487D01*
X88948445Y-34506371D01*
X88898470Y-34545644D01*
X88850468Y-34587224D01*
X88804524Y-34631028D01*
X88760720Y-34676972D01*
X88719140Y-34724974D01*
X88679867Y-34774949D01*
X88642983Y-34826816D01*
X88608573Y-34880491D01*
X88576718Y-34935891D01*
X88547503Y-34992932D01*
X88521010Y-35051533D01*
X88497323Y-35111608D01*
X88476524Y-35173076D01*
X88458698Y-35235853D01*
X88443925Y-35299857D01*
X88432291Y-35365003D01*
X88423878Y-35431209D01*
X88418770Y-35498392D01*
X88417048Y-35566469D01*
X86564965Y-35566469D01*
X86564965Y-35425658D01*
X86565378Y-35409320D01*
X86566604Y-35393197D01*
X86568624Y-35377308D01*
X86571416Y-35361674D01*
X86574961Y-35346313D01*
X86579240Y-35331247D01*
X86584232Y-35316495D01*
X86589917Y-35302077D01*
X86596276Y-35288013D01*
X86603288Y-35274323D01*
X86610933Y-35261027D01*
X86619192Y-35248145D01*
X86628044Y-35235697D01*
X86637470Y-35223703D01*
X86647450Y-35212182D01*
X86657963Y-35201155D01*
X86668990Y-35190642D01*
X86680510Y-35180663D01*
X86692504Y-35171237D01*
X86704953Y-35162385D01*
X86717835Y-35154126D01*
X86731131Y-35146480D01*
X86744820Y-35139469D01*
X86758884Y-35133110D01*
X86773302Y-35127425D01*
X86788054Y-35122433D01*
X86803120Y-35118154D01*
X86818481Y-35114609D01*
X86834115Y-35111816D01*
X86850004Y-35109797D01*
X86866127Y-35108571D01*
X86882465Y-35108158D01*
X87186021Y-35108158D01*
X87199877Y-35067744D01*
X87214588Y-35027660D01*
X87230148Y-34987913D01*
X87246549Y-34948509D01*
X87263781Y-34909457D01*
X87281838Y-34870763D01*
X87300712Y-34832435D01*
X87320393Y-34794481D01*
X87340875Y-34756907D01*
X87362149Y-34719722D01*
X87384208Y-34682932D01*
X87407042Y-34646545D01*
X87430645Y-34610568D01*
X87455008Y-34575009D01*
X87480123Y-34539874D01*
X87505982Y-34505172D01*
X87110245Y-34109435D01*
X87098984Y-34097591D01*
X87088451Y-34085324D01*
X87078643Y-34072662D01*
X87069563Y-34059634D01*
X87061208Y-34046268D01*
X87053580Y-34032591D01*
X87046679Y-34018633D01*
X87040504Y-34004421D01*
X87035055Y-33989984D01*
X87030333Y-33975349D01*
X87026338Y-33960545D01*
X87023069Y-33945600D01*
X87020526Y-33930543D01*
X87018710Y-33915401D01*
X87017620Y-33900202D01*
X87017257Y-33884976D01*
X87017620Y-33869749D01*
X87018710Y-33854551D01*
X87020526Y-33839409D01*
X87023069Y-33824351D01*
X87026338Y-33809406D01*
X87030333Y-33794603D01*
X87035055Y-33779968D01*
X87040504Y-33765530D01*
X87046679Y-33751318D01*
X87053580Y-33737360D01*
X87061208Y-33723684D01*
X87069563Y-33710318D01*
X87078643Y-33697289D01*
X87088451Y-33684628D01*
X87098984Y-33672361D01*
X87110245Y-33660516D01*
X87577949Y-33192813D01*
X87589793Y-33181552D01*
X87602060Y-33171019D01*
X87614722Y-33161211D01*
X87627750Y-33152130D01*
X87641116Y-33143776D01*
X87654793Y-33136148D01*
X87668751Y-33129247D01*
X87682963Y-33123072D01*
X87697400Y-33117623D01*
X87712035Y-33112901D01*
X87726839Y-33108906D01*
X87741783Y-33105636D01*
X87756841Y-33103094D01*
X87771983Y-33101278D01*
X87787181Y-33100188D01*
X87802408Y-33099825D01*
X87817635Y-33100188D01*
X87832833Y-33101278D01*
X87847975Y-33103094D01*
X87863033Y-33105636D01*
X87877977Y-33108906D01*
X87892781Y-33112901D01*
X87907416Y-33117623D01*
X87921853Y-33123072D01*
X87936065Y-33129247D01*
X87950023Y-33136148D01*
X87963700Y-33143776D01*
X87977066Y-33152130D01*
X87990094Y-33161211D01*
X88002756Y-33171019D01*
X88015023Y-33181552D01*
X88026867Y-33192813D01*
X88422605Y-33588550D01*
X88457307Y-33562691D01*
X88492441Y-33537576D01*
X88528000Y-33513213D01*
X88563977Y-33489610D01*
X88600364Y-33466776D01*
X88637154Y-33444717D01*
X88674340Y-33423443D01*
X88711913Y-33402961D01*
X88749867Y-33383279D01*
X88788195Y-33364406D01*
X88826889Y-33346349D01*
X88865941Y-33329116D01*
X88905345Y-33312716D01*
X88945092Y-33297156D01*
X88985177Y-33282444D01*
X89025590Y-33268589D01*
X89025590Y-32708969D01*
X89026003Y-32692631D01*
X89027229Y-32676508D01*
X89029248Y-32660619D01*
X89032041Y-32644985D01*
X89035586Y-32629624D01*
X89039865Y-32614558D01*
X89044857Y-32599806D01*
X89050542Y-32585388D01*
X89056901Y-32571324D01*
X89063913Y-32557635D01*
X89071558Y-32544339D01*
X89079817Y-32531457D01*
X89088669Y-32519008D01*
X89098095Y-32507014D01*
X89108074Y-32495494D01*
X89118588Y-32484467D01*
X89129614Y-32473954D01*
X89141135Y-32463974D01*
X89153129Y-32454548D01*
X89165577Y-32445696D01*
X89178459Y-32437437D01*
X89191755Y-32429792D01*
X89205445Y-32422780D01*
X89219509Y-32416421D01*
X89233927Y-32410736D01*
X89248679Y-32405744D01*
X89263745Y-32401465D01*
X89279106Y-32397920D01*
X89294740Y-32395128D01*
X89310629Y-32393108D01*
X89326752Y-32391882D01*
X89343090Y-32391469D01*
X89954992Y-32391469D01*
X89971329Y-32391882D01*
G37*
D11*
X31000000Y-84700000D02*
X31000000Y-29400000D01*
D12*
X53750000Y-82100000D02*
X61250000Y-82100000D01*
X61250000Y-84500000D01*
X53750000Y-84500000D01*
X53750000Y-82100000D01*
D11*
X86500000Y-84700000D02*
X86500000Y-46700000D01*
X86500000Y-39000000D02*
X86500000Y-29400000D01*
D13*
X41080951Y-35101950D02*
X41004761Y-35063855D01*
X41004761Y-35063855D02*
X40890475Y-35063855D01*
X40890475Y-35063855D02*
X40776189Y-35101950D01*
X40776189Y-35101950D02*
X40699999Y-35178140D01*
X40699999Y-35178140D02*
X40661904Y-35254331D01*
X40661904Y-35254331D02*
X40623808Y-35406712D01*
X40623808Y-35406712D02*
X40623808Y-35520998D01*
X40623808Y-35520998D02*
X40661904Y-35673379D01*
X40661904Y-35673379D02*
X40699999Y-35749569D01*
X40699999Y-35749569D02*
X40776189Y-35825760D01*
X40776189Y-35825760D02*
X40890475Y-35863855D01*
X40890475Y-35863855D02*
X40966666Y-35863855D01*
X40966666Y-35863855D02*
X41080951Y-35825760D01*
X41080951Y-35825760D02*
X41119047Y-35787664D01*
X41119047Y-35787664D02*
X41119047Y-35520998D01*
X41119047Y-35520998D02*
X40966666Y-35520998D01*
X41842856Y-35063855D02*
X41461904Y-35063855D01*
X41461904Y-35063855D02*
X41423808Y-35444807D01*
X41423808Y-35444807D02*
X41461904Y-35406712D01*
X41461904Y-35406712D02*
X41538094Y-35368617D01*
X41538094Y-35368617D02*
X41728570Y-35368617D01*
X41728570Y-35368617D02*
X41804761Y-35406712D01*
X41804761Y-35406712D02*
X41842856Y-35444807D01*
X41842856Y-35444807D02*
X41880951Y-35520998D01*
X41880951Y-35520998D02*
X41880951Y-35711474D01*
X41880951Y-35711474D02*
X41842856Y-35787664D01*
X41842856Y-35787664D02*
X41804761Y-35825760D01*
X41804761Y-35825760D02*
X41728570Y-35863855D01*
X41728570Y-35863855D02*
X41538094Y-35863855D01*
X41538094Y-35863855D02*
X41461904Y-35825760D01*
X41461904Y-35825760D02*
X41423808Y-35787664D01*
X42795237Y-35025760D02*
X42109523Y-36054331D01*
X43023808Y-35825760D02*
X43138094Y-35863855D01*
X43138094Y-35863855D02*
X43328570Y-35863855D01*
X43328570Y-35863855D02*
X43404761Y-35825760D01*
X43404761Y-35825760D02*
X43442856Y-35787664D01*
X43442856Y-35787664D02*
X43480951Y-35711474D01*
X43480951Y-35711474D02*
X43480951Y-35635283D01*
X43480951Y-35635283D02*
X43442856Y-35559093D01*
X43442856Y-35559093D02*
X43404761Y-35520998D01*
X43404761Y-35520998D02*
X43328570Y-35482902D01*
X43328570Y-35482902D02*
X43176189Y-35444807D01*
X43176189Y-35444807D02*
X43099999Y-35406712D01*
X43099999Y-35406712D02*
X43061904Y-35368617D01*
X43061904Y-35368617D02*
X43023808Y-35292426D01*
X43023808Y-35292426D02*
X43023808Y-35216236D01*
X43023808Y-35216236D02*
X43061904Y-35140045D01*
X43061904Y-35140045D02*
X43099999Y-35101950D01*
X43099999Y-35101950D02*
X43176189Y-35063855D01*
X43176189Y-35063855D02*
X43366666Y-35063855D01*
X43366666Y-35063855D02*
X43480951Y-35101950D01*
X44204761Y-35863855D02*
X43823809Y-35863855D01*
X43823809Y-35863855D02*
X43823809Y-35063855D01*
X44471428Y-35444807D02*
X44738094Y-35444807D01*
X44852380Y-35863855D02*
X44471428Y-35863855D01*
X44471428Y-35863855D02*
X44471428Y-35063855D01*
X44471428Y-35063855D02*
X44852380Y-35063855D01*
X45195238Y-35444807D02*
X45461904Y-35444807D01*
X45576190Y-35863855D02*
X45195238Y-35863855D01*
X45195238Y-35863855D02*
X45195238Y-35063855D01*
X45195238Y-35063855D02*
X45576190Y-35063855D01*
X45919048Y-35863855D02*
X45919048Y-35063855D01*
X45919048Y-35063855D02*
X46223810Y-35063855D01*
X46223810Y-35063855D02*
X46300000Y-35101950D01*
X46300000Y-35101950D02*
X46338095Y-35140045D01*
X46338095Y-35140045D02*
X46376191Y-35216236D01*
X46376191Y-35216236D02*
X46376191Y-35330521D01*
X46376191Y-35330521D02*
X46338095Y-35406712D01*
X46338095Y-35406712D02*
X46300000Y-35444807D01*
X46300000Y-35444807D02*
X46223810Y-35482902D01*
X46223810Y-35482902D02*
X45919048Y-35482902D01*
X43390476Y-68101950D02*
X43314286Y-68063855D01*
X43314286Y-68063855D02*
X43200000Y-68063855D01*
X43200000Y-68063855D02*
X43085714Y-68101950D01*
X43085714Y-68101950D02*
X43009524Y-68178140D01*
X43009524Y-68178140D02*
X42971429Y-68254331D01*
X42971429Y-68254331D02*
X42933333Y-68406712D01*
X42933333Y-68406712D02*
X42933333Y-68520998D01*
X42933333Y-68520998D02*
X42971429Y-68673379D01*
X42971429Y-68673379D02*
X43009524Y-68749569D01*
X43009524Y-68749569D02*
X43085714Y-68825760D01*
X43085714Y-68825760D02*
X43200000Y-68863855D01*
X43200000Y-68863855D02*
X43276191Y-68863855D01*
X43276191Y-68863855D02*
X43390476Y-68825760D01*
X43390476Y-68825760D02*
X43428572Y-68787664D01*
X43428572Y-68787664D02*
X43428572Y-68520998D01*
X43428572Y-68520998D02*
X43276191Y-68520998D01*
X43771429Y-68863855D02*
X43771429Y-68063855D01*
X43771429Y-68063855D02*
X44228572Y-68863855D01*
X44228572Y-68863855D02*
X44228572Y-68063855D01*
X44609524Y-68863855D02*
X44609524Y-68063855D01*
X44609524Y-68063855D02*
X44800000Y-68063855D01*
X44800000Y-68063855D02*
X44914286Y-68101950D01*
X44914286Y-68101950D02*
X44990476Y-68178140D01*
X44990476Y-68178140D02*
X45028571Y-68254331D01*
X45028571Y-68254331D02*
X45066667Y-68406712D01*
X45066667Y-68406712D02*
X45066667Y-68520998D01*
X45066667Y-68520998D02*
X45028571Y-68673379D01*
X45028571Y-68673379D02*
X44990476Y-68749569D01*
X44990476Y-68749569D02*
X44914286Y-68825760D01*
X44914286Y-68825760D02*
X44800000Y-68863855D01*
X44800000Y-68863855D02*
X44609524Y-68863855D01*
X42315238Y-38175283D02*
X42696191Y-38175283D01*
X42239048Y-38403855D02*
X42505715Y-37603855D01*
X42505715Y-37603855D02*
X42772381Y-38403855D01*
X43000952Y-37680045D02*
X43039048Y-37641950D01*
X43039048Y-37641950D02*
X43115238Y-37603855D01*
X43115238Y-37603855D02*
X43305714Y-37603855D01*
X43305714Y-37603855D02*
X43381905Y-37641950D01*
X43381905Y-37641950D02*
X43420000Y-37680045D01*
X43420000Y-37680045D02*
X43458095Y-37756236D01*
X43458095Y-37756236D02*
X43458095Y-37832426D01*
X43458095Y-37832426D02*
X43420000Y-37946712D01*
X43420000Y-37946712D02*
X42962857Y-38403855D01*
X42962857Y-38403855D02*
X43458095Y-38403855D01*
X44372381Y-37565760D02*
X43686667Y-38594331D01*
X44600952Y-38175283D02*
X44981905Y-38175283D01*
X44524762Y-38403855D02*
X44791429Y-37603855D01*
X44791429Y-37603855D02*
X45058095Y-38403855D01*
X45324762Y-38403855D02*
X45324762Y-37603855D01*
X45667618Y-37680045D02*
X45705714Y-37641950D01*
X45705714Y-37641950D02*
X45781904Y-37603855D01*
X45781904Y-37603855D02*
X45972380Y-37603855D01*
X45972380Y-37603855D02*
X46048571Y-37641950D01*
X46048571Y-37641950D02*
X46086666Y-37680045D01*
X46086666Y-37680045D02*
X46124761Y-37756236D01*
X46124761Y-37756236D02*
X46124761Y-37832426D01*
X46124761Y-37832426D02*
X46086666Y-37946712D01*
X46086666Y-37946712D02*
X45629523Y-38403855D01*
X45629523Y-38403855D02*
X46124761Y-38403855D01*
X42315238Y-40715283D02*
X42696191Y-40715283D01*
X42239048Y-40943855D02*
X42505715Y-40143855D01*
X42505715Y-40143855D02*
X42772381Y-40943855D01*
X43458095Y-40943855D02*
X43000952Y-40943855D01*
X43229524Y-40943855D02*
X43229524Y-40143855D01*
X43229524Y-40143855D02*
X43153333Y-40258140D01*
X43153333Y-40258140D02*
X43077143Y-40334331D01*
X43077143Y-40334331D02*
X43000952Y-40372426D01*
X44372381Y-40105760D02*
X43686667Y-41134331D01*
X44600952Y-40715283D02*
X44981905Y-40715283D01*
X44524762Y-40943855D02*
X44791429Y-40143855D01*
X44791429Y-40143855D02*
X45058095Y-40943855D01*
X45324762Y-40943855D02*
X45324762Y-40143855D01*
X46124761Y-40943855D02*
X45667618Y-40943855D01*
X45896190Y-40943855D02*
X45896190Y-40143855D01*
X45896190Y-40143855D02*
X45819999Y-40258140D01*
X45819999Y-40258140D02*
X45743809Y-40334331D01*
X45743809Y-40334331D02*
X45667618Y-40372426D01*
X42505714Y-45604807D02*
X42620000Y-45642902D01*
X42620000Y-45642902D02*
X42658095Y-45680998D01*
X42658095Y-45680998D02*
X42696191Y-45757188D01*
X42696191Y-45757188D02*
X42696191Y-45871474D01*
X42696191Y-45871474D02*
X42658095Y-45947664D01*
X42658095Y-45947664D02*
X42620000Y-45985760D01*
X42620000Y-45985760D02*
X42543810Y-46023855D01*
X42543810Y-46023855D02*
X42239048Y-46023855D01*
X42239048Y-46023855D02*
X42239048Y-45223855D01*
X42239048Y-45223855D02*
X42505714Y-45223855D01*
X42505714Y-45223855D02*
X42581905Y-45261950D01*
X42581905Y-45261950D02*
X42620000Y-45300045D01*
X42620000Y-45300045D02*
X42658095Y-45376236D01*
X42658095Y-45376236D02*
X42658095Y-45452426D01*
X42658095Y-45452426D02*
X42620000Y-45528617D01*
X42620000Y-45528617D02*
X42581905Y-45566712D01*
X42581905Y-45566712D02*
X42505714Y-45604807D01*
X42505714Y-45604807D02*
X42239048Y-45604807D01*
X43458095Y-46023855D02*
X43000952Y-46023855D01*
X43229524Y-46023855D02*
X43229524Y-45223855D01*
X43229524Y-45223855D02*
X43153333Y-45338140D01*
X43153333Y-45338140D02*
X43077143Y-45414331D01*
X43077143Y-45414331D02*
X43000952Y-45452426D01*
X44372381Y-45185760D02*
X43686667Y-46214331D01*
X44905714Y-45604807D02*
X45020000Y-45642902D01*
X45020000Y-45642902D02*
X45058095Y-45680998D01*
X45058095Y-45680998D02*
X45096191Y-45757188D01*
X45096191Y-45757188D02*
X45096191Y-45871474D01*
X45096191Y-45871474D02*
X45058095Y-45947664D01*
X45058095Y-45947664D02*
X45020000Y-45985760D01*
X45020000Y-45985760D02*
X44943810Y-46023855D01*
X44943810Y-46023855D02*
X44639048Y-46023855D01*
X44639048Y-46023855D02*
X44639048Y-45223855D01*
X44639048Y-45223855D02*
X44905714Y-45223855D01*
X44905714Y-45223855D02*
X44981905Y-45261950D01*
X44981905Y-45261950D02*
X45020000Y-45300045D01*
X45020000Y-45300045D02*
X45058095Y-45376236D01*
X45058095Y-45376236D02*
X45058095Y-45452426D01*
X45058095Y-45452426D02*
X45020000Y-45528617D01*
X45020000Y-45528617D02*
X44981905Y-45566712D01*
X44981905Y-45566712D02*
X44905714Y-45604807D01*
X44905714Y-45604807D02*
X44639048Y-45604807D01*
X45439048Y-46023855D02*
X45439048Y-45223855D01*
X46239047Y-46023855D02*
X45781904Y-46023855D01*
X46010476Y-46023855D02*
X46010476Y-45223855D01*
X46010476Y-45223855D02*
X45934285Y-45338140D01*
X45934285Y-45338140D02*
X45858095Y-45414331D01*
X45858095Y-45414331D02*
X45781904Y-45452426D01*
X42505714Y-48144807D02*
X42620000Y-48182902D01*
X42620000Y-48182902D02*
X42658095Y-48220998D01*
X42658095Y-48220998D02*
X42696191Y-48297188D01*
X42696191Y-48297188D02*
X42696191Y-48411474D01*
X42696191Y-48411474D02*
X42658095Y-48487664D01*
X42658095Y-48487664D02*
X42620000Y-48525760D01*
X42620000Y-48525760D02*
X42543810Y-48563855D01*
X42543810Y-48563855D02*
X42239048Y-48563855D01*
X42239048Y-48563855D02*
X42239048Y-47763855D01*
X42239048Y-47763855D02*
X42505714Y-47763855D01*
X42505714Y-47763855D02*
X42581905Y-47801950D01*
X42581905Y-47801950D02*
X42620000Y-47840045D01*
X42620000Y-47840045D02*
X42658095Y-47916236D01*
X42658095Y-47916236D02*
X42658095Y-47992426D01*
X42658095Y-47992426D02*
X42620000Y-48068617D01*
X42620000Y-48068617D02*
X42581905Y-48106712D01*
X42581905Y-48106712D02*
X42505714Y-48144807D01*
X42505714Y-48144807D02*
X42239048Y-48144807D01*
X43000952Y-47840045D02*
X43039048Y-47801950D01*
X43039048Y-47801950D02*
X43115238Y-47763855D01*
X43115238Y-47763855D02*
X43305714Y-47763855D01*
X43305714Y-47763855D02*
X43381905Y-47801950D01*
X43381905Y-47801950D02*
X43420000Y-47840045D01*
X43420000Y-47840045D02*
X43458095Y-47916236D01*
X43458095Y-47916236D02*
X43458095Y-47992426D01*
X43458095Y-47992426D02*
X43420000Y-48106712D01*
X43420000Y-48106712D02*
X42962857Y-48563855D01*
X42962857Y-48563855D02*
X43458095Y-48563855D01*
X44372381Y-47725760D02*
X43686667Y-48754331D01*
X44905714Y-48144807D02*
X45020000Y-48182902D01*
X45020000Y-48182902D02*
X45058095Y-48220998D01*
X45058095Y-48220998D02*
X45096191Y-48297188D01*
X45096191Y-48297188D02*
X45096191Y-48411474D01*
X45096191Y-48411474D02*
X45058095Y-48487664D01*
X45058095Y-48487664D02*
X45020000Y-48525760D01*
X45020000Y-48525760D02*
X44943810Y-48563855D01*
X44943810Y-48563855D02*
X44639048Y-48563855D01*
X44639048Y-48563855D02*
X44639048Y-47763855D01*
X44639048Y-47763855D02*
X44905714Y-47763855D01*
X44905714Y-47763855D02*
X44981905Y-47801950D01*
X44981905Y-47801950D02*
X45020000Y-47840045D01*
X45020000Y-47840045D02*
X45058095Y-47916236D01*
X45058095Y-47916236D02*
X45058095Y-47992426D01*
X45058095Y-47992426D02*
X45020000Y-48068617D01*
X45020000Y-48068617D02*
X44981905Y-48106712D01*
X44981905Y-48106712D02*
X44905714Y-48144807D01*
X44905714Y-48144807D02*
X44639048Y-48144807D01*
X45439048Y-48563855D02*
X45439048Y-47763855D01*
X45781904Y-47840045D02*
X45820000Y-47801950D01*
X45820000Y-47801950D02*
X45896190Y-47763855D01*
X45896190Y-47763855D02*
X46086666Y-47763855D01*
X46086666Y-47763855D02*
X46162857Y-47801950D01*
X46162857Y-47801950D02*
X46200952Y-47840045D01*
X46200952Y-47840045D02*
X46239047Y-47916236D01*
X46239047Y-47916236D02*
X46239047Y-47992426D01*
X46239047Y-47992426D02*
X46200952Y-48106712D01*
X46200952Y-48106712D02*
X45743809Y-48563855D01*
X45743809Y-48563855D02*
X46239047Y-48563855D01*
X42900000Y-66063855D02*
X43166667Y-66863855D01*
X43166667Y-66863855D02*
X43433333Y-66063855D01*
X44080952Y-66863855D02*
X43700000Y-66863855D01*
X43700000Y-66863855D02*
X43700000Y-66063855D01*
X44347619Y-66863855D02*
X44347619Y-66063855D01*
X44728571Y-66863855D02*
X44728571Y-66063855D01*
X44728571Y-66063855D02*
X45033333Y-66063855D01*
X45033333Y-66063855D02*
X45109523Y-66101950D01*
X45109523Y-66101950D02*
X45147618Y-66140045D01*
X45147618Y-66140045D02*
X45185714Y-66216236D01*
X45185714Y-66216236D02*
X45185714Y-66330521D01*
X45185714Y-66330521D02*
X45147618Y-66406712D01*
X45147618Y-66406712D02*
X45109523Y-66444807D01*
X45109523Y-66444807D02*
X45033333Y-66482902D01*
X45033333Y-66482902D02*
X44728571Y-66482902D01*
X45680952Y-66063855D02*
X45833333Y-66063855D01*
X45833333Y-66063855D02*
X45909523Y-66101950D01*
X45909523Y-66101950D02*
X45985714Y-66178140D01*
X45985714Y-66178140D02*
X46023809Y-66330521D01*
X46023809Y-66330521D02*
X46023809Y-66597188D01*
X46023809Y-66597188D02*
X45985714Y-66749569D01*
X45985714Y-66749569D02*
X45909523Y-66825760D01*
X45909523Y-66825760D02*
X45833333Y-66863855D01*
X45833333Y-66863855D02*
X45680952Y-66863855D01*
X45680952Y-66863855D02*
X45604761Y-66825760D01*
X45604761Y-66825760D02*
X45528571Y-66749569D01*
X45528571Y-66749569D02*
X45490475Y-66597188D01*
X45490475Y-66597188D02*
X45490475Y-66330521D01*
X45490475Y-66330521D02*
X45528571Y-66178140D01*
X45528571Y-66178140D02*
X45604761Y-66101950D01*
X45604761Y-66101950D02*
X45680952Y-66063855D01*
X42790476Y-70563855D02*
X43285714Y-70563855D01*
X43285714Y-70563855D02*
X43019048Y-70868617D01*
X43019048Y-70868617D02*
X43133333Y-70868617D01*
X43133333Y-70868617D02*
X43209524Y-70906712D01*
X43209524Y-70906712D02*
X43247619Y-70944807D01*
X43247619Y-70944807D02*
X43285714Y-71020998D01*
X43285714Y-71020998D02*
X43285714Y-71211474D01*
X43285714Y-71211474D02*
X43247619Y-71287664D01*
X43247619Y-71287664D02*
X43209524Y-71325760D01*
X43209524Y-71325760D02*
X43133333Y-71363855D01*
X43133333Y-71363855D02*
X42904762Y-71363855D01*
X42904762Y-71363855D02*
X42828571Y-71325760D01*
X42828571Y-71325760D02*
X42790476Y-71287664D01*
X43514286Y-70563855D02*
X43780953Y-71363855D01*
X43780953Y-71363855D02*
X44047619Y-70563855D01*
X44238095Y-70563855D02*
X44733333Y-70563855D01*
X44733333Y-70563855D02*
X44466667Y-70868617D01*
X44466667Y-70868617D02*
X44580952Y-70868617D01*
X44580952Y-70868617D02*
X44657143Y-70906712D01*
X44657143Y-70906712D02*
X44695238Y-70944807D01*
X44695238Y-70944807D02*
X44733333Y-71020998D01*
X44733333Y-71020998D02*
X44733333Y-71211474D01*
X44733333Y-71211474D02*
X44695238Y-71287664D01*
X44695238Y-71287664D02*
X44657143Y-71325760D01*
X44657143Y-71325760D02*
X44580952Y-71363855D01*
X44580952Y-71363855D02*
X44352381Y-71363855D01*
X44352381Y-71363855D02*
X44276190Y-71325760D01*
X44276190Y-71325760D02*
X44238095Y-71287664D01*
X45076191Y-71059093D02*
X45685715Y-71059093D01*
X46447619Y-70563855D02*
X46066667Y-70563855D01*
X46066667Y-70563855D02*
X46028571Y-70944807D01*
X46028571Y-70944807D02*
X46066667Y-70906712D01*
X46066667Y-70906712D02*
X46142857Y-70868617D01*
X46142857Y-70868617D02*
X46333333Y-70868617D01*
X46333333Y-70868617D02*
X46409524Y-70906712D01*
X46409524Y-70906712D02*
X46447619Y-70944807D01*
X46447619Y-70944807D02*
X46485714Y-71020998D01*
X46485714Y-71020998D02*
X46485714Y-71211474D01*
X46485714Y-71211474D02*
X46447619Y-71287664D01*
X46447619Y-71287664D02*
X46409524Y-71325760D01*
X46409524Y-71325760D02*
X46333333Y-71363855D01*
X46333333Y-71363855D02*
X46142857Y-71363855D01*
X46142857Y-71363855D02*
X46066667Y-71325760D01*
X46066667Y-71325760D02*
X46028571Y-71287664D01*
X46714286Y-70563855D02*
X46980953Y-71363855D01*
X46980953Y-71363855D02*
X47247619Y-70563855D01*
X45328571Y-42721950D02*
X45252381Y-42683855D01*
X45252381Y-42683855D02*
X45138095Y-42683855D01*
X45138095Y-42683855D02*
X45023809Y-42721950D01*
X45023809Y-42721950D02*
X44947619Y-42798140D01*
X44947619Y-42798140D02*
X44909524Y-42874331D01*
X44909524Y-42874331D02*
X44871428Y-43026712D01*
X44871428Y-43026712D02*
X44871428Y-43140998D01*
X44871428Y-43140998D02*
X44909524Y-43293379D01*
X44909524Y-43293379D02*
X44947619Y-43369569D01*
X44947619Y-43369569D02*
X45023809Y-43445760D01*
X45023809Y-43445760D02*
X45138095Y-43483855D01*
X45138095Y-43483855D02*
X45214286Y-43483855D01*
X45214286Y-43483855D02*
X45328571Y-43445760D01*
X45328571Y-43445760D02*
X45366667Y-43407664D01*
X45366667Y-43407664D02*
X45366667Y-43140998D01*
X45366667Y-43140998D02*
X45214286Y-43140998D01*
X45823809Y-43026712D02*
X45747619Y-42988617D01*
X45747619Y-42988617D02*
X45709524Y-42950521D01*
X45709524Y-42950521D02*
X45671428Y-42874331D01*
X45671428Y-42874331D02*
X45671428Y-42836236D01*
X45671428Y-42836236D02*
X45709524Y-42760045D01*
X45709524Y-42760045D02*
X45747619Y-42721950D01*
X45747619Y-42721950D02*
X45823809Y-42683855D01*
X45823809Y-42683855D02*
X45976190Y-42683855D01*
X45976190Y-42683855D02*
X46052381Y-42721950D01*
X46052381Y-42721950D02*
X46090476Y-42760045D01*
X46090476Y-42760045D02*
X46128571Y-42836236D01*
X46128571Y-42836236D02*
X46128571Y-42874331D01*
X46128571Y-42874331D02*
X46090476Y-42950521D01*
X46090476Y-42950521D02*
X46052381Y-42988617D01*
X46052381Y-42988617D02*
X45976190Y-43026712D01*
X45976190Y-43026712D02*
X45823809Y-43026712D01*
X45823809Y-43026712D02*
X45747619Y-43064807D01*
X45747619Y-43064807D02*
X45709524Y-43102902D01*
X45709524Y-43102902D02*
X45671428Y-43179093D01*
X45671428Y-43179093D02*
X45671428Y-43331474D01*
X45671428Y-43331474D02*
X45709524Y-43407664D01*
X45709524Y-43407664D02*
X45747619Y-43445760D01*
X45747619Y-43445760D02*
X45823809Y-43483855D01*
X45823809Y-43483855D02*
X45976190Y-43483855D01*
X45976190Y-43483855D02*
X46052381Y-43445760D01*
X46052381Y-43445760D02*
X46090476Y-43407664D01*
X46090476Y-43407664D02*
X46128571Y-43331474D01*
X46128571Y-43331474D02*
X46128571Y-43179093D01*
X46128571Y-43179093D02*
X46090476Y-43102902D01*
X46090476Y-43102902D02*
X46052381Y-43064807D01*
X46052381Y-43064807D02*
X45976190Y-43026712D01*
X44890475Y-50380045D02*
X44928571Y-50341950D01*
X44928571Y-50341950D02*
X45004761Y-50303855D01*
X45004761Y-50303855D02*
X45195237Y-50303855D01*
X45195237Y-50303855D02*
X45271428Y-50341950D01*
X45271428Y-50341950D02*
X45309523Y-50380045D01*
X45309523Y-50380045D02*
X45347618Y-50456236D01*
X45347618Y-50456236D02*
X45347618Y-50532426D01*
X45347618Y-50532426D02*
X45309523Y-50646712D01*
X45309523Y-50646712D02*
X44852380Y-51103855D01*
X44852380Y-51103855D02*
X45347618Y-51103855D01*
X45842857Y-50303855D02*
X45919047Y-50303855D01*
X45919047Y-50303855D02*
X45995238Y-50341950D01*
X45995238Y-50341950D02*
X46033333Y-50380045D01*
X46033333Y-50380045D02*
X46071428Y-50456236D01*
X46071428Y-50456236D02*
X46109523Y-50608617D01*
X46109523Y-50608617D02*
X46109523Y-50799093D01*
X46109523Y-50799093D02*
X46071428Y-50951474D01*
X46071428Y-50951474D02*
X46033333Y-51027664D01*
X46033333Y-51027664D02*
X45995238Y-51065760D01*
X45995238Y-51065760D02*
X45919047Y-51103855D01*
X45919047Y-51103855D02*
X45842857Y-51103855D01*
X45842857Y-51103855D02*
X45766666Y-51065760D01*
X45766666Y-51065760D02*
X45728571Y-51027664D01*
X45728571Y-51027664D02*
X45690476Y-50951474D01*
X45690476Y-50951474D02*
X45652380Y-50799093D01*
X45652380Y-50799093D02*
X45652380Y-50608617D01*
X45652380Y-50608617D02*
X45690476Y-50456236D01*
X45690476Y-50456236D02*
X45728571Y-50380045D01*
X45728571Y-50380045D02*
X45766666Y-50341950D01*
X45766666Y-50341950D02*
X45842857Y-50303855D01*
X44890475Y-52920045D02*
X44928571Y-52881950D01*
X44928571Y-52881950D02*
X45004761Y-52843855D01*
X45004761Y-52843855D02*
X45195237Y-52843855D01*
X45195237Y-52843855D02*
X45271428Y-52881950D01*
X45271428Y-52881950D02*
X45309523Y-52920045D01*
X45309523Y-52920045D02*
X45347618Y-52996236D01*
X45347618Y-52996236D02*
X45347618Y-53072426D01*
X45347618Y-53072426D02*
X45309523Y-53186712D01*
X45309523Y-53186712D02*
X44852380Y-53643855D01*
X44852380Y-53643855D02*
X45347618Y-53643855D01*
X46109523Y-53643855D02*
X45652380Y-53643855D01*
X45880952Y-53643855D02*
X45880952Y-52843855D01*
X45880952Y-52843855D02*
X45804761Y-52958140D01*
X45804761Y-52958140D02*
X45728571Y-53034331D01*
X45728571Y-53034331D02*
X45652380Y-53072426D01*
X69847619Y-35063855D02*
X69466667Y-35063855D01*
X69466667Y-35063855D02*
X69428571Y-35444807D01*
X69428571Y-35444807D02*
X69466667Y-35406712D01*
X69466667Y-35406712D02*
X69542857Y-35368617D01*
X69542857Y-35368617D02*
X69733333Y-35368617D01*
X69733333Y-35368617D02*
X69809524Y-35406712D01*
X69809524Y-35406712D02*
X69847619Y-35444807D01*
X69847619Y-35444807D02*
X69885714Y-35520998D01*
X69885714Y-35520998D02*
X69885714Y-35711474D01*
X69885714Y-35711474D02*
X69847619Y-35787664D01*
X69847619Y-35787664D02*
X69809524Y-35825760D01*
X69809524Y-35825760D02*
X69733333Y-35863855D01*
X69733333Y-35863855D02*
X69542857Y-35863855D01*
X69542857Y-35863855D02*
X69466667Y-35825760D01*
X69466667Y-35825760D02*
X69428571Y-35787664D01*
X70114286Y-35063855D02*
X70380953Y-35863855D01*
X70380953Y-35863855D02*
X70647619Y-35063855D01*
X69009523Y-40063855D02*
X69504761Y-40063855D01*
X69504761Y-40063855D02*
X69238095Y-40368617D01*
X69238095Y-40368617D02*
X69352380Y-40368617D01*
X69352380Y-40368617D02*
X69428571Y-40406712D01*
X69428571Y-40406712D02*
X69466666Y-40444807D01*
X69466666Y-40444807D02*
X69504761Y-40520998D01*
X69504761Y-40520998D02*
X69504761Y-40711474D01*
X69504761Y-40711474D02*
X69466666Y-40787664D01*
X69466666Y-40787664D02*
X69428571Y-40825760D01*
X69428571Y-40825760D02*
X69352380Y-40863855D01*
X69352380Y-40863855D02*
X69123809Y-40863855D01*
X69123809Y-40863855D02*
X69047618Y-40825760D01*
X69047618Y-40825760D02*
X69009523Y-40787664D01*
X69733333Y-40063855D02*
X70000000Y-40863855D01*
X70000000Y-40863855D02*
X70266666Y-40063855D01*
X70457142Y-40063855D02*
X70952380Y-40063855D01*
X70952380Y-40063855D02*
X70685714Y-40368617D01*
X70685714Y-40368617D02*
X70799999Y-40368617D01*
X70799999Y-40368617D02*
X70876190Y-40406712D01*
X70876190Y-40406712D02*
X70914285Y-40444807D01*
X70914285Y-40444807D02*
X70952380Y-40520998D01*
X70952380Y-40520998D02*
X70952380Y-40711474D01*
X70952380Y-40711474D02*
X70914285Y-40787664D01*
X70914285Y-40787664D02*
X70876190Y-40825760D01*
X70876190Y-40825760D02*
X70799999Y-40863855D01*
X70799999Y-40863855D02*
X70571428Y-40863855D01*
X70571428Y-40863855D02*
X70495237Y-40825760D01*
X70495237Y-40825760D02*
X70457142Y-40787664D01*
X69828571Y-42721950D02*
X69752381Y-42683855D01*
X69752381Y-42683855D02*
X69638095Y-42683855D01*
X69638095Y-42683855D02*
X69523809Y-42721950D01*
X69523809Y-42721950D02*
X69447619Y-42798140D01*
X69447619Y-42798140D02*
X69409524Y-42874331D01*
X69409524Y-42874331D02*
X69371428Y-43026712D01*
X69371428Y-43026712D02*
X69371428Y-43140998D01*
X69371428Y-43140998D02*
X69409524Y-43293379D01*
X69409524Y-43293379D02*
X69447619Y-43369569D01*
X69447619Y-43369569D02*
X69523809Y-43445760D01*
X69523809Y-43445760D02*
X69638095Y-43483855D01*
X69638095Y-43483855D02*
X69714286Y-43483855D01*
X69714286Y-43483855D02*
X69828571Y-43445760D01*
X69828571Y-43445760D02*
X69866667Y-43407664D01*
X69866667Y-43407664D02*
X69866667Y-43140998D01*
X69866667Y-43140998D02*
X69714286Y-43140998D01*
X70552381Y-42950521D02*
X70552381Y-43483855D01*
X70361905Y-42645760D02*
X70171428Y-43217188D01*
X70171428Y-43217188D02*
X70666667Y-43217188D01*
X69828571Y-45261950D02*
X69752381Y-45223855D01*
X69752381Y-45223855D02*
X69638095Y-45223855D01*
X69638095Y-45223855D02*
X69523809Y-45261950D01*
X69523809Y-45261950D02*
X69447619Y-45338140D01*
X69447619Y-45338140D02*
X69409524Y-45414331D01*
X69409524Y-45414331D02*
X69371428Y-45566712D01*
X69371428Y-45566712D02*
X69371428Y-45680998D01*
X69371428Y-45680998D02*
X69409524Y-45833379D01*
X69409524Y-45833379D02*
X69447619Y-45909569D01*
X69447619Y-45909569D02*
X69523809Y-45985760D01*
X69523809Y-45985760D02*
X69638095Y-46023855D01*
X69638095Y-46023855D02*
X69714286Y-46023855D01*
X69714286Y-46023855D02*
X69828571Y-45985760D01*
X69828571Y-45985760D02*
X69866667Y-45947664D01*
X69866667Y-45947664D02*
X69866667Y-45680998D01*
X69866667Y-45680998D02*
X69714286Y-45680998D01*
X70133333Y-45223855D02*
X70628571Y-45223855D01*
X70628571Y-45223855D02*
X70361905Y-45528617D01*
X70361905Y-45528617D02*
X70476190Y-45528617D01*
X70476190Y-45528617D02*
X70552381Y-45566712D01*
X70552381Y-45566712D02*
X70590476Y-45604807D01*
X70590476Y-45604807D02*
X70628571Y-45680998D01*
X70628571Y-45680998D02*
X70628571Y-45871474D01*
X70628571Y-45871474D02*
X70590476Y-45947664D01*
X70590476Y-45947664D02*
X70552381Y-45985760D01*
X70552381Y-45985760D02*
X70476190Y-46023855D01*
X70476190Y-46023855D02*
X70247619Y-46023855D01*
X70247619Y-46023855D02*
X70171428Y-45985760D01*
X70171428Y-45985760D02*
X70133333Y-45947664D01*
X69828571Y-47801950D02*
X69752381Y-47763855D01*
X69752381Y-47763855D02*
X69638095Y-47763855D01*
X69638095Y-47763855D02*
X69523809Y-47801950D01*
X69523809Y-47801950D02*
X69447619Y-47878140D01*
X69447619Y-47878140D02*
X69409524Y-47954331D01*
X69409524Y-47954331D02*
X69371428Y-48106712D01*
X69371428Y-48106712D02*
X69371428Y-48220998D01*
X69371428Y-48220998D02*
X69409524Y-48373379D01*
X69409524Y-48373379D02*
X69447619Y-48449569D01*
X69447619Y-48449569D02*
X69523809Y-48525760D01*
X69523809Y-48525760D02*
X69638095Y-48563855D01*
X69638095Y-48563855D02*
X69714286Y-48563855D01*
X69714286Y-48563855D02*
X69828571Y-48525760D01*
X69828571Y-48525760D02*
X69866667Y-48487664D01*
X69866667Y-48487664D02*
X69866667Y-48220998D01*
X69866667Y-48220998D02*
X69714286Y-48220998D01*
X70171428Y-47840045D02*
X70209524Y-47801950D01*
X70209524Y-47801950D02*
X70285714Y-47763855D01*
X70285714Y-47763855D02*
X70476190Y-47763855D01*
X70476190Y-47763855D02*
X70552381Y-47801950D01*
X70552381Y-47801950D02*
X70590476Y-47840045D01*
X70590476Y-47840045D02*
X70628571Y-47916236D01*
X70628571Y-47916236D02*
X70628571Y-47992426D01*
X70628571Y-47992426D02*
X70590476Y-48106712D01*
X70590476Y-48106712D02*
X70133333Y-48563855D01*
X70133333Y-48563855D02*
X70628571Y-48563855D01*
X69828571Y-50341950D02*
X69752381Y-50303855D01*
X69752381Y-50303855D02*
X69638095Y-50303855D01*
X69638095Y-50303855D02*
X69523809Y-50341950D01*
X69523809Y-50341950D02*
X69447619Y-50418140D01*
X69447619Y-50418140D02*
X69409524Y-50494331D01*
X69409524Y-50494331D02*
X69371428Y-50646712D01*
X69371428Y-50646712D02*
X69371428Y-50760998D01*
X69371428Y-50760998D02*
X69409524Y-50913379D01*
X69409524Y-50913379D02*
X69447619Y-50989569D01*
X69447619Y-50989569D02*
X69523809Y-51065760D01*
X69523809Y-51065760D02*
X69638095Y-51103855D01*
X69638095Y-51103855D02*
X69714286Y-51103855D01*
X69714286Y-51103855D02*
X69828571Y-51065760D01*
X69828571Y-51065760D02*
X69866667Y-51027664D01*
X69866667Y-51027664D02*
X69866667Y-50760998D01*
X69866667Y-50760998D02*
X69714286Y-50760998D01*
X70628571Y-51103855D02*
X70171428Y-51103855D01*
X70400000Y-51103855D02*
X70400000Y-50303855D01*
X70400000Y-50303855D02*
X70323809Y-50418140D01*
X70323809Y-50418140D02*
X70247619Y-50494331D01*
X70247619Y-50494331D02*
X70171428Y-50532426D01*
X69828571Y-52881950D02*
X69752381Y-52843855D01*
X69752381Y-52843855D02*
X69638095Y-52843855D01*
X69638095Y-52843855D02*
X69523809Y-52881950D01*
X69523809Y-52881950D02*
X69447619Y-52958140D01*
X69447619Y-52958140D02*
X69409524Y-53034331D01*
X69409524Y-53034331D02*
X69371428Y-53186712D01*
X69371428Y-53186712D02*
X69371428Y-53300998D01*
X69371428Y-53300998D02*
X69409524Y-53453379D01*
X69409524Y-53453379D02*
X69447619Y-53529569D01*
X69447619Y-53529569D02*
X69523809Y-53605760D01*
X69523809Y-53605760D02*
X69638095Y-53643855D01*
X69638095Y-53643855D02*
X69714286Y-53643855D01*
X69714286Y-53643855D02*
X69828571Y-53605760D01*
X69828571Y-53605760D02*
X69866667Y-53567664D01*
X69866667Y-53567664D02*
X69866667Y-53300998D01*
X69866667Y-53300998D02*
X69714286Y-53300998D01*
X70361905Y-52843855D02*
X70438095Y-52843855D01*
X70438095Y-52843855D02*
X70514286Y-52881950D01*
X70514286Y-52881950D02*
X70552381Y-52920045D01*
X70552381Y-52920045D02*
X70590476Y-52996236D01*
X70590476Y-52996236D02*
X70628571Y-53148617D01*
X70628571Y-53148617D02*
X70628571Y-53339093D01*
X70628571Y-53339093D02*
X70590476Y-53491474D01*
X70590476Y-53491474D02*
X70552381Y-53567664D01*
X70552381Y-53567664D02*
X70514286Y-53605760D01*
X70514286Y-53605760D02*
X70438095Y-53643855D01*
X70438095Y-53643855D02*
X70361905Y-53643855D01*
X70361905Y-53643855D02*
X70285714Y-53605760D01*
X70285714Y-53605760D02*
X70247619Y-53567664D01*
X70247619Y-53567664D02*
X70209524Y-53491474D01*
X70209524Y-53491474D02*
X70171428Y-53339093D01*
X70171428Y-53339093D02*
X70171428Y-53148617D01*
X70171428Y-53148617D02*
X70209524Y-52996236D01*
X70209524Y-52996236D02*
X70247619Y-52920045D01*
X70247619Y-52920045D02*
X70285714Y-52881950D01*
X70285714Y-52881950D02*
X70361905Y-52843855D01*
X69810476Y-37641950D02*
X69734286Y-37603855D01*
X69734286Y-37603855D02*
X69620000Y-37603855D01*
X69620000Y-37603855D02*
X69505714Y-37641950D01*
X69505714Y-37641950D02*
X69429524Y-37718140D01*
X69429524Y-37718140D02*
X69391429Y-37794331D01*
X69391429Y-37794331D02*
X69353333Y-37946712D01*
X69353333Y-37946712D02*
X69353333Y-38060998D01*
X69353333Y-38060998D02*
X69391429Y-38213379D01*
X69391429Y-38213379D02*
X69429524Y-38289569D01*
X69429524Y-38289569D02*
X69505714Y-38365760D01*
X69505714Y-38365760D02*
X69620000Y-38403855D01*
X69620000Y-38403855D02*
X69696191Y-38403855D01*
X69696191Y-38403855D02*
X69810476Y-38365760D01*
X69810476Y-38365760D02*
X69848572Y-38327664D01*
X69848572Y-38327664D02*
X69848572Y-38060998D01*
X69848572Y-38060998D02*
X69696191Y-38060998D01*
X70191429Y-38403855D02*
X70191429Y-37603855D01*
X70191429Y-37603855D02*
X70648572Y-38403855D01*
X70648572Y-38403855D02*
X70648572Y-37603855D01*
X71029524Y-38403855D02*
X71029524Y-37603855D01*
X71029524Y-37603855D02*
X71220000Y-37603855D01*
X71220000Y-37603855D02*
X71334286Y-37641950D01*
X71334286Y-37641950D02*
X71410476Y-37718140D01*
X71410476Y-37718140D02*
X71448571Y-37794331D01*
X71448571Y-37794331D02*
X71486667Y-37946712D01*
X71486667Y-37946712D02*
X71486667Y-38060998D01*
X71486667Y-38060998D02*
X71448571Y-38213379D01*
X71448571Y-38213379D02*
X71410476Y-38289569D01*
X71410476Y-38289569D02*
X71334286Y-38365760D01*
X71334286Y-38365760D02*
X71220000Y-38403855D01*
X71220000Y-38403855D02*
X71029524Y-38403855D01*
X38864716Y-66447618D02*
X38864716Y-66828571D01*
X38636144Y-66371428D02*
X39436144Y-66638095D01*
X39436144Y-66638095D02*
X38636144Y-66904761D01*
X39436144Y-67171428D02*
X38788525Y-67171428D01*
X38788525Y-67171428D02*
X38712335Y-67209523D01*
X38712335Y-67209523D02*
X38674240Y-67247618D01*
X38674240Y-67247618D02*
X38636144Y-67323809D01*
X38636144Y-67323809D02*
X38636144Y-67476190D01*
X38636144Y-67476190D02*
X38674240Y-67552380D01*
X38674240Y-67552380D02*
X38712335Y-67590475D01*
X38712335Y-67590475D02*
X38788525Y-67628571D01*
X38788525Y-67628571D02*
X39436144Y-67628571D01*
X39436144Y-67933332D02*
X38636144Y-68466666D01*
X39436144Y-68466666D02*
X38636144Y-67933332D01*
X38636144Y-69380952D02*
X39436144Y-69380952D01*
X39436144Y-69380952D02*
X39436144Y-69685714D01*
X39436144Y-69685714D02*
X39398049Y-69761904D01*
X39398049Y-69761904D02*
X39359954Y-69799999D01*
X39359954Y-69799999D02*
X39283763Y-69838095D01*
X39283763Y-69838095D02*
X39169478Y-69838095D01*
X39169478Y-69838095D02*
X39093287Y-69799999D01*
X39093287Y-69799999D02*
X39055192Y-69761904D01*
X39055192Y-69761904D02*
X39017097Y-69685714D01*
X39017097Y-69685714D02*
X39017097Y-69380952D01*
X39436144Y-70104761D02*
X38636144Y-70295237D01*
X38636144Y-70295237D02*
X39207573Y-70447618D01*
X39207573Y-70447618D02*
X38636144Y-70599999D01*
X38636144Y-70599999D02*
X39436144Y-70790476D01*
X38636144Y-71552381D02*
X39017097Y-71285714D01*
X38636144Y-71095238D02*
X39436144Y-71095238D01*
X39436144Y-71095238D02*
X39436144Y-71400000D01*
X39436144Y-71400000D02*
X39398049Y-71476190D01*
X39398049Y-71476190D02*
X39359954Y-71514285D01*
X39359954Y-71514285D02*
X39283763Y-71552381D01*
X39283763Y-71552381D02*
X39169478Y-71552381D01*
X39169478Y-71552381D02*
X39093287Y-71514285D01*
X39093287Y-71514285D02*
X39055192Y-71476190D01*
X39055192Y-71476190D02*
X39017097Y-71400000D01*
X39017097Y-71400000D02*
X39017097Y-71095238D01*
X78936144Y-42480953D02*
X78936144Y-42633334D01*
X78936144Y-42633334D02*
X78898049Y-42709524D01*
X78898049Y-42709524D02*
X78821859Y-42785715D01*
X78821859Y-42785715D02*
X78669478Y-42823810D01*
X78669478Y-42823810D02*
X78402811Y-42823810D01*
X78402811Y-42823810D02*
X78250430Y-42785715D01*
X78250430Y-42785715D02*
X78174240Y-42709524D01*
X78174240Y-42709524D02*
X78136144Y-42633334D01*
X78136144Y-42633334D02*
X78136144Y-42480953D01*
X78136144Y-42480953D02*
X78174240Y-42404762D01*
X78174240Y-42404762D02*
X78250430Y-42328572D01*
X78250430Y-42328572D02*
X78402811Y-42290476D01*
X78402811Y-42290476D02*
X78669478Y-42290476D01*
X78669478Y-42290476D02*
X78821859Y-42328572D01*
X78821859Y-42328572D02*
X78898049Y-42404762D01*
X78898049Y-42404762D02*
X78936144Y-42480953D01*
X78136144Y-43166667D02*
X78936144Y-43166667D01*
X78936144Y-43166667D02*
X78136144Y-43623810D01*
X78136144Y-43623810D02*
X78936144Y-43623810D01*
X78974240Y-44576190D02*
X77945668Y-43890476D01*
X78936144Y-44995238D02*
X78936144Y-45147619D01*
X78936144Y-45147619D02*
X78898049Y-45223809D01*
X78898049Y-45223809D02*
X78821859Y-45300000D01*
X78821859Y-45300000D02*
X78669478Y-45338095D01*
X78669478Y-45338095D02*
X78402811Y-45338095D01*
X78402811Y-45338095D02*
X78250430Y-45300000D01*
X78250430Y-45300000D02*
X78174240Y-45223809D01*
X78174240Y-45223809D02*
X78136144Y-45147619D01*
X78136144Y-45147619D02*
X78136144Y-44995238D01*
X78136144Y-44995238D02*
X78174240Y-44919047D01*
X78174240Y-44919047D02*
X78250430Y-44842857D01*
X78250430Y-44842857D02*
X78402811Y-44804761D01*
X78402811Y-44804761D02*
X78669478Y-44804761D01*
X78669478Y-44804761D02*
X78821859Y-44842857D01*
X78821859Y-44842857D02*
X78898049Y-44919047D01*
X78898049Y-44919047D02*
X78936144Y-44995238D01*
X78555192Y-45947618D02*
X78555192Y-45680952D01*
X78136144Y-45680952D02*
X78936144Y-45680952D01*
X78936144Y-45680952D02*
X78936144Y-46061904D01*
X78555192Y-46633332D02*
X78555192Y-46366666D01*
X78136144Y-46366666D02*
X78936144Y-46366666D01*
X78936144Y-46366666D02*
X78936144Y-46747618D01*
D11*
X38256265Y-45967657D02*
X38303884Y-45920038D01*
X38303884Y-45920038D02*
X38399122Y-45872419D01*
X38399122Y-45872419D02*
X38637217Y-45872419D01*
X38637217Y-45872419D02*
X38732455Y-45920038D01*
X38732455Y-45920038D02*
X38780074Y-45967657D01*
X38780074Y-45967657D02*
X38827693Y-46062895D01*
X38827693Y-46062895D02*
X38827693Y-46158133D01*
X38827693Y-46158133D02*
X38780074Y-46300990D01*
X38780074Y-46300990D02*
X38208646Y-46872419D01*
X38208646Y-46872419D02*
X38827693Y-46872419D01*
X39208646Y-46824800D02*
X39351503Y-46872419D01*
X39351503Y-46872419D02*
X39589598Y-46872419D01*
X39589598Y-46872419D02*
X39684836Y-46824800D01*
X39684836Y-46824800D02*
X39732455Y-46777180D01*
X39732455Y-46777180D02*
X39780074Y-46681942D01*
X39780074Y-46681942D02*
X39780074Y-46586704D01*
X39780074Y-46586704D02*
X39732455Y-46491466D01*
X39732455Y-46491466D02*
X39684836Y-46443847D01*
X39684836Y-46443847D02*
X39589598Y-46396228D01*
X39589598Y-46396228D02*
X39399122Y-46348609D01*
X39399122Y-46348609D02*
X39303884Y-46300990D01*
X39303884Y-46300990D02*
X39256265Y-46253371D01*
X39256265Y-46253371D02*
X39208646Y-46158133D01*
X39208646Y-46158133D02*
X39208646Y-46062895D01*
X39208646Y-46062895D02*
X39256265Y-45967657D01*
X39256265Y-45967657D02*
X39303884Y-45920038D01*
X39303884Y-45920038D02*
X39399122Y-45872419D01*
X39399122Y-45872419D02*
X39637217Y-45872419D01*
X39637217Y-45872419D02*
X39780074Y-45920038D01*
X38780074Y-48372419D02*
X38303884Y-48372419D01*
X38303884Y-48372419D02*
X38256265Y-48848609D01*
X38256265Y-48848609D02*
X38303884Y-48800990D01*
X38303884Y-48800990D02*
X38399122Y-48753371D01*
X38399122Y-48753371D02*
X38637217Y-48753371D01*
X38637217Y-48753371D02*
X38732455Y-48800990D01*
X38732455Y-48800990D02*
X38780074Y-48848609D01*
X38780074Y-48848609D02*
X38827693Y-48943847D01*
X38827693Y-48943847D02*
X38827693Y-49181942D01*
X38827693Y-49181942D02*
X38780074Y-49277180D01*
X38780074Y-49277180D02*
X38732455Y-49324800D01*
X38732455Y-49324800D02*
X38637217Y-49372419D01*
X38637217Y-49372419D02*
X38399122Y-49372419D01*
X38399122Y-49372419D02*
X38303884Y-49324800D01*
X38303884Y-49324800D02*
X38256265Y-49277180D01*
X39113408Y-48372419D02*
X39446741Y-49372419D01*
X39446741Y-49372419D02*
X39780074Y-48372419D01*
X38827693Y-51872419D02*
X38256265Y-51872419D01*
X38541979Y-51872419D02*
X38541979Y-50872419D01*
X38541979Y-50872419D02*
X38446741Y-51015276D01*
X38446741Y-51015276D02*
X38351503Y-51110514D01*
X38351503Y-51110514D02*
X38256265Y-51158133D01*
X39208646Y-51824800D02*
X39351503Y-51872419D01*
X39351503Y-51872419D02*
X39589598Y-51872419D01*
X39589598Y-51872419D02*
X39684836Y-51824800D01*
X39684836Y-51824800D02*
X39732455Y-51777180D01*
X39732455Y-51777180D02*
X39780074Y-51681942D01*
X39780074Y-51681942D02*
X39780074Y-51586704D01*
X39780074Y-51586704D02*
X39732455Y-51491466D01*
X39732455Y-51491466D02*
X39684836Y-51443847D01*
X39684836Y-51443847D02*
X39589598Y-51396228D01*
X39589598Y-51396228D02*
X39399122Y-51348609D01*
X39399122Y-51348609D02*
X39303884Y-51300990D01*
X39303884Y-51300990D02*
X39256265Y-51253371D01*
X39256265Y-51253371D02*
X39208646Y-51158133D01*
X39208646Y-51158133D02*
X39208646Y-51062895D01*
X39208646Y-51062895D02*
X39256265Y-50967657D01*
X39256265Y-50967657D02*
X39303884Y-50920038D01*
X39303884Y-50920038D02*
X39399122Y-50872419D01*
X39399122Y-50872419D02*
X39637217Y-50872419D01*
X39637217Y-50872419D02*
X39780074Y-50920038D01*
X46756265Y-80586704D02*
X47232455Y-80586704D01*
X46661027Y-80872419D02*
X46994360Y-79872419D01*
X46994360Y-79872419D02*
X47327693Y-80872419D01*
X47661027Y-80205752D02*
X47661027Y-80872419D01*
X47661027Y-80300990D02*
X47708646Y-80253371D01*
X47708646Y-80253371D02*
X47803884Y-80205752D01*
X47803884Y-80205752D02*
X47946741Y-80205752D01*
X47946741Y-80205752D02*
X48041979Y-80253371D01*
X48041979Y-80253371D02*
X48089598Y-80348609D01*
X48089598Y-80348609D02*
X48089598Y-80872419D01*
X48422932Y-80205752D02*
X48803884Y-80205752D01*
X48565789Y-79872419D02*
X48565789Y-80729561D01*
X48565789Y-80729561D02*
X48613408Y-80824800D01*
X48613408Y-80824800D02*
X48708646Y-80872419D01*
X48708646Y-80872419D02*
X48803884Y-80872419D01*
X49137218Y-80491466D02*
X49899123Y-80491466D01*
X50280075Y-80205752D02*
X50470551Y-80872419D01*
X50470551Y-80872419D02*
X50661027Y-80396228D01*
X50661027Y-80396228D02*
X50851503Y-80872419D01*
X50851503Y-80872419D02*
X51041979Y-80205752D01*
X51803884Y-80824800D02*
X51708646Y-80872419D01*
X51708646Y-80872419D02*
X51518170Y-80872419D01*
X51518170Y-80872419D02*
X51422932Y-80824800D01*
X51422932Y-80824800D02*
X51375313Y-80729561D01*
X51375313Y-80729561D02*
X51375313Y-80348609D01*
X51375313Y-80348609D02*
X51422932Y-80253371D01*
X51422932Y-80253371D02*
X51518170Y-80205752D01*
X51518170Y-80205752D02*
X51708646Y-80205752D01*
X51708646Y-80205752D02*
X51803884Y-80253371D01*
X51803884Y-80253371D02*
X51851503Y-80348609D01*
X51851503Y-80348609D02*
X51851503Y-80443847D01*
X51851503Y-80443847D02*
X51375313Y-80539085D01*
X52280075Y-80872419D02*
X52280075Y-80205752D01*
X52280075Y-79872419D02*
X52232456Y-79920038D01*
X52232456Y-79920038D02*
X52280075Y-79967657D01*
X52280075Y-79967657D02*
X52327694Y-79920038D01*
X52327694Y-79920038D02*
X52280075Y-79872419D01*
X52280075Y-79872419D02*
X52280075Y-79967657D01*
X53184836Y-80205752D02*
X53184836Y-81015276D01*
X53184836Y-81015276D02*
X53137217Y-81110514D01*
X53137217Y-81110514D02*
X53089598Y-81158133D01*
X53089598Y-81158133D02*
X52994360Y-81205752D01*
X52994360Y-81205752D02*
X52851503Y-81205752D01*
X52851503Y-81205752D02*
X52756265Y-81158133D01*
X53184836Y-80824800D02*
X53089598Y-80872419D01*
X53089598Y-80872419D02*
X52899122Y-80872419D01*
X52899122Y-80872419D02*
X52803884Y-80824800D01*
X52803884Y-80824800D02*
X52756265Y-80777180D01*
X52756265Y-80777180D02*
X52708646Y-80681942D01*
X52708646Y-80681942D02*
X52708646Y-80396228D01*
X52708646Y-80396228D02*
X52756265Y-80300990D01*
X52756265Y-80300990D02*
X52803884Y-80253371D01*
X52803884Y-80253371D02*
X52899122Y-80205752D01*
X52899122Y-80205752D02*
X53089598Y-80205752D01*
X53089598Y-80205752D02*
X53184836Y-80253371D01*
X53661027Y-80872419D02*
X53661027Y-79872419D01*
X54089598Y-80872419D02*
X54089598Y-80348609D01*
X54089598Y-80348609D02*
X54041979Y-80253371D01*
X54041979Y-80253371D02*
X53946741Y-80205752D01*
X53946741Y-80205752D02*
X53803884Y-80205752D01*
X53803884Y-80205752D02*
X53708646Y-80253371D01*
X53708646Y-80253371D02*
X53661027Y-80300990D01*
X54422932Y-80205752D02*
X54803884Y-80205752D01*
X54565789Y-79872419D02*
X54565789Y-80729561D01*
X54565789Y-80729561D02*
X54613408Y-80824800D01*
X54613408Y-80824800D02*
X54708646Y-80872419D01*
X54708646Y-80872419D02*
X54803884Y-80872419D01*
X55899123Y-80872419D02*
X55899123Y-80205752D01*
X55899123Y-80396228D02*
X55946742Y-80300990D01*
X55946742Y-80300990D02*
X55994361Y-80253371D01*
X55994361Y-80253371D02*
X56089599Y-80205752D01*
X56089599Y-80205752D02*
X56184837Y-80205752D01*
X56661028Y-80872419D02*
X56565790Y-80824800D01*
X56565790Y-80824800D02*
X56518171Y-80777180D01*
X56518171Y-80777180D02*
X56470552Y-80681942D01*
X56470552Y-80681942D02*
X56470552Y-80396228D01*
X56470552Y-80396228D02*
X56518171Y-80300990D01*
X56518171Y-80300990D02*
X56565790Y-80253371D01*
X56565790Y-80253371D02*
X56661028Y-80205752D01*
X56661028Y-80205752D02*
X56803885Y-80205752D01*
X56803885Y-80205752D02*
X56899123Y-80253371D01*
X56899123Y-80253371D02*
X56946742Y-80300990D01*
X56946742Y-80300990D02*
X56994361Y-80396228D01*
X56994361Y-80396228D02*
X56994361Y-80681942D01*
X56994361Y-80681942D02*
X56946742Y-80777180D01*
X56946742Y-80777180D02*
X56899123Y-80824800D01*
X56899123Y-80824800D02*
X56803885Y-80872419D01*
X56803885Y-80872419D02*
X56661028Y-80872419D01*
X57422933Y-80872419D02*
X57422933Y-79872419D01*
X57422933Y-80253371D02*
X57518171Y-80205752D01*
X57518171Y-80205752D02*
X57708647Y-80205752D01*
X57708647Y-80205752D02*
X57803885Y-80253371D01*
X57803885Y-80253371D02*
X57851504Y-80300990D01*
X57851504Y-80300990D02*
X57899123Y-80396228D01*
X57899123Y-80396228D02*
X57899123Y-80681942D01*
X57899123Y-80681942D02*
X57851504Y-80777180D01*
X57851504Y-80777180D02*
X57803885Y-80824800D01*
X57803885Y-80824800D02*
X57708647Y-80872419D01*
X57708647Y-80872419D02*
X57518171Y-80872419D01*
X57518171Y-80872419D02*
X57422933Y-80824800D01*
X58470552Y-80872419D02*
X58375314Y-80824800D01*
X58375314Y-80824800D02*
X58327695Y-80777180D01*
X58327695Y-80777180D02*
X58280076Y-80681942D01*
X58280076Y-80681942D02*
X58280076Y-80396228D01*
X58280076Y-80396228D02*
X58327695Y-80300990D01*
X58327695Y-80300990D02*
X58375314Y-80253371D01*
X58375314Y-80253371D02*
X58470552Y-80205752D01*
X58470552Y-80205752D02*
X58613409Y-80205752D01*
X58613409Y-80205752D02*
X58708647Y-80253371D01*
X58708647Y-80253371D02*
X58756266Y-80300990D01*
X58756266Y-80300990D02*
X58803885Y-80396228D01*
X58803885Y-80396228D02*
X58803885Y-80681942D01*
X58803885Y-80681942D02*
X58756266Y-80777180D01*
X58756266Y-80777180D02*
X58708647Y-80824800D01*
X58708647Y-80824800D02*
X58613409Y-80872419D01*
X58613409Y-80872419D02*
X58470552Y-80872419D01*
X59089600Y-80205752D02*
X59470552Y-80205752D01*
X59232457Y-79872419D02*
X59232457Y-80729561D01*
X59232457Y-80729561D02*
X59280076Y-80824800D01*
X59280076Y-80824800D02*
X59375314Y-80872419D01*
X59375314Y-80872419D02*
X59470552Y-80872419D01*
X60994362Y-80824800D02*
X60899124Y-80872419D01*
X60899124Y-80872419D02*
X60708648Y-80872419D01*
X60708648Y-80872419D02*
X60613410Y-80824800D01*
X60613410Y-80824800D02*
X60565791Y-80777180D01*
X60565791Y-80777180D02*
X60518172Y-80681942D01*
X60518172Y-80681942D02*
X60518172Y-80396228D01*
X60518172Y-80396228D02*
X60565791Y-80300990D01*
X60565791Y-80300990D02*
X60613410Y-80253371D01*
X60613410Y-80253371D02*
X60708648Y-80205752D01*
X60708648Y-80205752D02*
X60899124Y-80205752D01*
X60899124Y-80205752D02*
X60994362Y-80253371D01*
X61565791Y-80872419D02*
X61470553Y-80824800D01*
X61470553Y-80824800D02*
X61422934Y-80777180D01*
X61422934Y-80777180D02*
X61375315Y-80681942D01*
X61375315Y-80681942D02*
X61375315Y-80396228D01*
X61375315Y-80396228D02*
X61422934Y-80300990D01*
X61422934Y-80300990D02*
X61470553Y-80253371D01*
X61470553Y-80253371D02*
X61565791Y-80205752D01*
X61565791Y-80205752D02*
X61708648Y-80205752D01*
X61708648Y-80205752D02*
X61803886Y-80253371D01*
X61803886Y-80253371D02*
X61851505Y-80300990D01*
X61851505Y-80300990D02*
X61899124Y-80396228D01*
X61899124Y-80396228D02*
X61899124Y-80681942D01*
X61899124Y-80681942D02*
X61851505Y-80777180D01*
X61851505Y-80777180D02*
X61803886Y-80824800D01*
X61803886Y-80824800D02*
X61708648Y-80872419D01*
X61708648Y-80872419D02*
X61565791Y-80872419D01*
X62327696Y-80205752D02*
X62327696Y-80872419D01*
X62327696Y-80300990D02*
X62375315Y-80253371D01*
X62375315Y-80253371D02*
X62470553Y-80205752D01*
X62470553Y-80205752D02*
X62613410Y-80205752D01*
X62613410Y-80205752D02*
X62708648Y-80253371D01*
X62708648Y-80253371D02*
X62756267Y-80348609D01*
X62756267Y-80348609D02*
X62756267Y-80872419D01*
X63089601Y-80205752D02*
X63470553Y-80205752D01*
X63232458Y-79872419D02*
X63232458Y-80729561D01*
X63232458Y-80729561D02*
X63280077Y-80824800D01*
X63280077Y-80824800D02*
X63375315Y-80872419D01*
X63375315Y-80872419D02*
X63470553Y-80872419D01*
X63803887Y-80872419D02*
X63803887Y-80205752D01*
X63803887Y-80396228D02*
X63851506Y-80300990D01*
X63851506Y-80300990D02*
X63899125Y-80253371D01*
X63899125Y-80253371D02*
X63994363Y-80205752D01*
X63994363Y-80205752D02*
X64089601Y-80205752D01*
X64565792Y-80872419D02*
X64470554Y-80824800D01*
X64470554Y-80824800D02*
X64422935Y-80777180D01*
X64422935Y-80777180D02*
X64375316Y-80681942D01*
X64375316Y-80681942D02*
X64375316Y-80396228D01*
X64375316Y-80396228D02*
X64422935Y-80300990D01*
X64422935Y-80300990D02*
X64470554Y-80253371D01*
X64470554Y-80253371D02*
X64565792Y-80205752D01*
X64565792Y-80205752D02*
X64708649Y-80205752D01*
X64708649Y-80205752D02*
X64803887Y-80253371D01*
X64803887Y-80253371D02*
X64851506Y-80300990D01*
X64851506Y-80300990D02*
X64899125Y-80396228D01*
X64899125Y-80396228D02*
X64899125Y-80681942D01*
X64899125Y-80681942D02*
X64851506Y-80777180D01*
X64851506Y-80777180D02*
X64803887Y-80824800D01*
X64803887Y-80824800D02*
X64708649Y-80872419D01*
X64708649Y-80872419D02*
X64565792Y-80872419D01*
X65470554Y-80872419D02*
X65375316Y-80824800D01*
X65375316Y-80824800D02*
X65327697Y-80729561D01*
X65327697Y-80729561D02*
X65327697Y-79872419D01*
X65994364Y-80872419D02*
X65899126Y-80824800D01*
X65899126Y-80824800D02*
X65851507Y-80729561D01*
X65851507Y-80729561D02*
X65851507Y-79872419D01*
X66756269Y-80824800D02*
X66661031Y-80872419D01*
X66661031Y-80872419D02*
X66470555Y-80872419D01*
X66470555Y-80872419D02*
X66375317Y-80824800D01*
X66375317Y-80824800D02*
X66327698Y-80729561D01*
X66327698Y-80729561D02*
X66327698Y-80348609D01*
X66327698Y-80348609D02*
X66375317Y-80253371D01*
X66375317Y-80253371D02*
X66470555Y-80205752D01*
X66470555Y-80205752D02*
X66661031Y-80205752D01*
X66661031Y-80205752D02*
X66756269Y-80253371D01*
X66756269Y-80253371D02*
X66803888Y-80348609D01*
X66803888Y-80348609D02*
X66803888Y-80443847D01*
X66803888Y-80443847D02*
X66327698Y-80539085D01*
X67232460Y-80872419D02*
X67232460Y-80205752D01*
X67232460Y-80396228D02*
X67280079Y-80300990D01*
X67280079Y-80300990D02*
X67327698Y-80253371D01*
X67327698Y-80253371D02*
X67422936Y-80205752D01*
X67422936Y-80205752D02*
X67518174Y-80205752D01*
X68518175Y-80205752D02*
X68756270Y-80872419D01*
X68756270Y-80872419D02*
X68994365Y-80205752D01*
X69803889Y-80205752D02*
X69803889Y-80872419D01*
X69565794Y-79824800D02*
X69327699Y-80539085D01*
X69327699Y-80539085D02*
X69946746Y-80539085D01*
X52958598Y-40875976D02*
X52958598Y-39875976D01*
X52958598Y-40352166D02*
X53530026Y-40352166D01*
X53530026Y-40875976D02*
X53530026Y-39875976D01*
X53958598Y-40590261D02*
X54434788Y-40590261D01*
X53863360Y-40875976D02*
X54196693Y-39875976D01*
X54196693Y-39875976D02*
X54530026Y-40875976D01*
X55434788Y-40780737D02*
X55387169Y-40828357D01*
X55387169Y-40828357D02*
X55244312Y-40875976D01*
X55244312Y-40875976D02*
X55149074Y-40875976D01*
X55149074Y-40875976D02*
X55006217Y-40828357D01*
X55006217Y-40828357D02*
X54910979Y-40733118D01*
X54910979Y-40733118D02*
X54863360Y-40637880D01*
X54863360Y-40637880D02*
X54815741Y-40447404D01*
X54815741Y-40447404D02*
X54815741Y-40304547D01*
X54815741Y-40304547D02*
X54863360Y-40114071D01*
X54863360Y-40114071D02*
X54910979Y-40018833D01*
X54910979Y-40018833D02*
X55006217Y-39923595D01*
X55006217Y-39923595D02*
X55149074Y-39875976D01*
X55149074Y-39875976D02*
X55244312Y-39875976D01*
X55244312Y-39875976D02*
X55387169Y-39923595D01*
X55387169Y-39923595D02*
X55434788Y-39971214D01*
X55863360Y-40875976D02*
X55863360Y-39875976D01*
X56434788Y-40875976D02*
X56006217Y-40304547D01*
X56434788Y-39875976D02*
X55863360Y-40447404D01*
X56863360Y-40352166D02*
X57196693Y-40352166D01*
X57339550Y-40875976D02*
X56863360Y-40875976D01*
X56863360Y-40875976D02*
X56863360Y-39875976D01*
X56863360Y-39875976D02*
X57339550Y-39875976D01*
X58339550Y-40875976D02*
X58006217Y-40399785D01*
X57768122Y-40875976D02*
X57768122Y-39875976D01*
X57768122Y-39875976D02*
X58149074Y-39875976D01*
X58149074Y-39875976D02*
X58244312Y-39923595D01*
X58244312Y-39923595D02*
X58291931Y-39971214D01*
X58291931Y-39971214D02*
X58339550Y-40066452D01*
X58339550Y-40066452D02*
X58339550Y-40209309D01*
X58339550Y-40209309D02*
X58291931Y-40304547D01*
X58291931Y-40304547D02*
X58244312Y-40352166D01*
X58244312Y-40352166D02*
X58149074Y-40399785D01*
X58149074Y-40399785D02*
X57768122Y-40399785D01*
X58720503Y-40828357D02*
X58863360Y-40875976D01*
X58863360Y-40875976D02*
X59101455Y-40875976D01*
X59101455Y-40875976D02*
X59196693Y-40828357D01*
X59196693Y-40828357D02*
X59244312Y-40780737D01*
X59244312Y-40780737D02*
X59291931Y-40685499D01*
X59291931Y-40685499D02*
X59291931Y-40590261D01*
X59291931Y-40590261D02*
X59244312Y-40495023D01*
X59244312Y-40495023D02*
X59196693Y-40447404D01*
X59196693Y-40447404D02*
X59101455Y-40399785D01*
X59101455Y-40399785D02*
X58910979Y-40352166D01*
X58910979Y-40352166D02*
X58815741Y-40304547D01*
X58815741Y-40304547D02*
X58768122Y-40256928D01*
X58768122Y-40256928D02*
X58720503Y-40161690D01*
X58720503Y-40161690D02*
X58720503Y-40066452D01*
X58720503Y-40066452D02*
X58768122Y-39971214D01*
X58768122Y-39971214D02*
X58815741Y-39923595D01*
X58815741Y-39923595D02*
X58910979Y-39875976D01*
X58910979Y-39875976D02*
X59149074Y-39875976D01*
X59149074Y-39875976D02*
X59291931Y-39923595D01*
X59720503Y-40875976D02*
X59720503Y-39875976D01*
X59720503Y-39875976D02*
X60101455Y-39875976D01*
X60101455Y-39875976D02*
X60196693Y-39923595D01*
X60196693Y-39923595D02*
X60244312Y-39971214D01*
X60244312Y-39971214D02*
X60291931Y-40066452D01*
X60291931Y-40066452D02*
X60291931Y-40209309D01*
X60291931Y-40209309D02*
X60244312Y-40304547D01*
X60244312Y-40304547D02*
X60196693Y-40352166D01*
X60196693Y-40352166D02*
X60101455Y-40399785D01*
X60101455Y-40399785D02*
X59720503Y-40399785D01*
X60672884Y-40590261D02*
X61149074Y-40590261D01*
X60577646Y-40875976D02*
X60910979Y-39875976D01*
X60910979Y-39875976D02*
X61244312Y-40875976D01*
X62149074Y-40780737D02*
X62101455Y-40828357D01*
X62101455Y-40828357D02*
X61958598Y-40875976D01*
X61958598Y-40875976D02*
X61863360Y-40875976D01*
X61863360Y-40875976D02*
X61720503Y-40828357D01*
X61720503Y-40828357D02*
X61625265Y-40733118D01*
X61625265Y-40733118D02*
X61577646Y-40637880D01*
X61577646Y-40637880D02*
X61530027Y-40447404D01*
X61530027Y-40447404D02*
X61530027Y-40304547D01*
X61530027Y-40304547D02*
X61577646Y-40114071D01*
X61577646Y-40114071D02*
X61625265Y-40018833D01*
X61625265Y-40018833D02*
X61720503Y-39923595D01*
X61720503Y-39923595D02*
X61863360Y-39875976D01*
X61863360Y-39875976D02*
X61958598Y-39875976D01*
X61958598Y-39875976D02*
X62101455Y-39923595D01*
X62101455Y-39923595D02*
X62149074Y-39971214D01*
X62577646Y-40352166D02*
X62910979Y-40352166D01*
X63053836Y-40875976D02*
X62577646Y-40875976D01*
X62577646Y-40875976D02*
X62577646Y-39875976D01*
X62577646Y-39875976D02*
X63053836Y-39875976D01*
X54571641Y-42211577D02*
X54571641Y-41211577D01*
X54571641Y-41211577D02*
X54809736Y-41211577D01*
X54809736Y-41211577D02*
X54952593Y-41259196D01*
X54952593Y-41259196D02*
X55047831Y-41354434D01*
X55047831Y-41354434D02*
X55095450Y-41449672D01*
X55095450Y-41449672D02*
X55143069Y-41640148D01*
X55143069Y-41640148D02*
X55143069Y-41783005D01*
X55143069Y-41783005D02*
X55095450Y-41973481D01*
X55095450Y-41973481D02*
X55047831Y-42068719D01*
X55047831Y-42068719D02*
X54952593Y-42163958D01*
X54952593Y-42163958D02*
X54809736Y-42211577D01*
X54809736Y-42211577D02*
X54571641Y-42211577D01*
X56143069Y-42211577D02*
X55809736Y-41735386D01*
X55571641Y-42211577D02*
X55571641Y-41211577D01*
X55571641Y-41211577D02*
X55952593Y-41211577D01*
X55952593Y-41211577D02*
X56047831Y-41259196D01*
X56047831Y-41259196D02*
X56095450Y-41306815D01*
X56095450Y-41306815D02*
X56143069Y-41402053D01*
X56143069Y-41402053D02*
X56143069Y-41544910D01*
X56143069Y-41544910D02*
X56095450Y-41640148D01*
X56095450Y-41640148D02*
X56047831Y-41687767D01*
X56047831Y-41687767D02*
X55952593Y-41735386D01*
X55952593Y-41735386D02*
X55571641Y-41735386D01*
X56571641Y-41687767D02*
X56904974Y-41687767D01*
X57047831Y-42211577D02*
X56571641Y-42211577D01*
X56571641Y-42211577D02*
X56571641Y-41211577D01*
X56571641Y-41211577D02*
X57047831Y-41211577D01*
X57476403Y-42211577D02*
X57476403Y-41211577D01*
X57476403Y-41211577D02*
X58047831Y-42211577D01*
X58047831Y-42211577D02*
X58047831Y-41211577D01*
X58381165Y-41211577D02*
X58952593Y-41211577D01*
X58666879Y-42211577D02*
X58666879Y-41211577D01*
X59285927Y-42211577D02*
X59285927Y-41211577D01*
X59285927Y-41687767D02*
X59857355Y-41687767D01*
X59857355Y-42211577D02*
X59857355Y-41211577D01*
X60333546Y-41687767D02*
X60666879Y-41687767D01*
X60809736Y-42211577D02*
X60333546Y-42211577D01*
X60333546Y-42211577D02*
X60333546Y-41211577D01*
X60333546Y-41211577D02*
X60809736Y-41211577D01*
G36*
X40593300Y-58655973D02*
G01*
X41199267Y-60320000D01*
X40009804Y-60320000D01*
X39523517Y-58991318D01*
X38149162Y-58991318D01*
X38149162Y-60320000D01*
X37093789Y-60320000D01*
X37093789Y-56349588D01*
X38149162Y-56349588D01*
X38149162Y-57936434D01*
X39730390Y-57936434D01*
X39831792Y-57916781D01*
X39916748Y-57857787D01*
X39974253Y-57771298D01*
X39993440Y-57668988D01*
X39974152Y-57566948D01*
X39916503Y-57481653D01*
X39831426Y-57423810D01*
X39729658Y-57404473D01*
X38641311Y-57404473D01*
X38641311Y-56349588D01*
X39721598Y-56349588D01*
X39990210Y-56375755D01*
X40239790Y-56453179D01*
X40475331Y-56583328D01*
X40681016Y-56756551D01*
X40841688Y-56961474D01*
X40960642Y-57202240D01*
X41030396Y-57461459D01*
X41045352Y-57721131D01*
X41005826Y-57986503D01*
X40915311Y-58238741D01*
X40778783Y-58460404D01*
X40593300Y-58655973D01*
G37*
G36*
X43660009Y-56367277D02*
G01*
X43915781Y-56419983D01*
X44164863Y-56508101D01*
X44401273Y-56627242D01*
X44611003Y-56768388D01*
X44796475Y-56931863D01*
X44959166Y-57118045D01*
X45099415Y-57328115D01*
X45217550Y-57564452D01*
X45304975Y-57813319D01*
X45357284Y-58068937D01*
X45374842Y-58333572D01*
X45353667Y-58630684D01*
X45291065Y-58911659D01*
X45187083Y-59179721D01*
X45039986Y-59437550D01*
X44857670Y-59671685D01*
X44649519Y-59869808D01*
X44413720Y-60034550D01*
X44147278Y-60167103D01*
X43864712Y-60260442D01*
X43581318Y-60309458D01*
X43294144Y-60315418D01*
X43000069Y-60277745D01*
X42714403Y-60198618D01*
X42451780Y-60082102D01*
X42209136Y-59927521D01*
X41984263Y-59732595D01*
X41789490Y-59507904D01*
X41635360Y-59265049D01*
X41519590Y-59001748D01*
X41441556Y-58714836D01*
X41405124Y-58419543D01*
X41407316Y-58333565D01*
X42465830Y-58333565D01*
X42484392Y-58510496D01*
X42539427Y-58686015D01*
X42626453Y-58848207D01*
X42739687Y-58985818D01*
X42881123Y-59101472D01*
X43041934Y-59188050D01*
X43212218Y-59239621D01*
X43395254Y-59257055D01*
X43581260Y-59239747D01*
X43749862Y-59189133D01*
X43904770Y-59105177D01*
X44048604Y-58985212D01*
X44168147Y-58840839D01*
X44251811Y-58685570D01*
X44302234Y-58516806D01*
X44319469Y-58330886D01*
X44302028Y-58147841D01*
X44250394Y-57977223D01*
X44163642Y-57815778D01*
X44047784Y-57673676D01*
X43910104Y-57560993D01*
X43747941Y-57475547D01*
X43572563Y-57422377D01*
X43395050Y-57405203D01*
X43212072Y-57423768D01*
X43035968Y-57476390D01*
X42878371Y-57560512D01*
X42736287Y-57677780D01*
X42619015Y-57819842D01*
X42535256Y-57976883D01*
X42483251Y-58151856D01*
X42465830Y-58333565D01*
X41407316Y-58333565D01*
X41412451Y-58132107D01*
X41462870Y-57849368D01*
X41557571Y-57568360D01*
X41691445Y-57303627D01*
X41857371Y-57069381D01*
X42056590Y-56862679D01*
X42291765Y-56681758D01*
X42550354Y-56535771D01*
X42818632Y-56432620D01*
X43099219Y-56370562D01*
X43395254Y-56349588D01*
X43660009Y-56367277D01*
G37*
G36*
X48458683Y-56116758D02*
G01*
X48699598Y-56188693D01*
X48920930Y-56307970D01*
X49126413Y-56478304D01*
X49297020Y-56683344D01*
X49416521Y-56904503D01*
X49488622Y-57145548D01*
X49513293Y-57411800D01*
X49496065Y-57627443D01*
X49445121Y-57830304D01*
X49360204Y-58023239D01*
X49239253Y-58208520D01*
X49360334Y-58393376D01*
X49445235Y-58585412D01*
X49496106Y-58786878D01*
X49513293Y-59000600D01*
X49488653Y-59266199D01*
X49416600Y-59506972D01*
X49297104Y-59728197D01*
X49126413Y-59933607D01*
X48921034Y-60104051D01*
X48699782Y-60223401D01*
X48458916Y-60295381D01*
X48193161Y-60320000D01*
X45566085Y-60320000D01*
X45566085Y-59265359D01*
X46621458Y-59265359D01*
X48195847Y-59265359D01*
X48296825Y-59245827D01*
X48381472Y-59187201D01*
X48438793Y-59101204D01*
X48457920Y-58999378D01*
X48438735Y-58897595D01*
X48381472Y-58812777D01*
X48296921Y-58755107D01*
X48195847Y-58735840D01*
X46621458Y-58735840D01*
X46621458Y-59265359D01*
X45566085Y-59265359D01*
X45566085Y-56349588D01*
X46621458Y-56349588D01*
X46621458Y-57678269D01*
X48195847Y-57678269D01*
X48296806Y-57658684D01*
X48381472Y-57599867D01*
X48438779Y-57513599D01*
X48457920Y-57411311D01*
X48438739Y-57309233D01*
X48381472Y-57223977D01*
X48296902Y-57166116D01*
X48195847Y-57146796D01*
X47115561Y-57146796D01*
X47115561Y-56092156D01*
X48192916Y-56092156D01*
X48458683Y-56116758D01*
G37*
G36*
X51975989Y-56367277D02*
G01*
X52231762Y-56419983D01*
X52480844Y-56508101D01*
X52717254Y-56627242D01*
X52926983Y-56768388D01*
X53112456Y-56931863D01*
X53275147Y-57118045D01*
X53415395Y-57328115D01*
X53533531Y-57564452D01*
X53620956Y-57813319D01*
X53673264Y-58068937D01*
X53690823Y-58333572D01*
X53669647Y-58630684D01*
X53607046Y-58911659D01*
X53503063Y-59179721D01*
X53355966Y-59437550D01*
X53173650Y-59671685D01*
X52965499Y-59869808D01*
X52729700Y-60034550D01*
X52463258Y-60167103D01*
X52180693Y-60260442D01*
X51897299Y-60309458D01*
X51610125Y-60315418D01*
X51316050Y-60277745D01*
X51030383Y-60198618D01*
X50767760Y-60082102D01*
X50525117Y-59927521D01*
X50300244Y-59732595D01*
X50105471Y-59507904D01*
X49951340Y-59265049D01*
X49835571Y-59001748D01*
X49757536Y-58714836D01*
X49721105Y-58419543D01*
X49723296Y-58333565D01*
X50781811Y-58333565D01*
X50800373Y-58510496D01*
X50855408Y-58686015D01*
X50942433Y-58848207D01*
X51055667Y-58985818D01*
X51197103Y-59101472D01*
X51357914Y-59188050D01*
X51528198Y-59239621D01*
X51711235Y-59257055D01*
X51897241Y-59239747D01*
X52065843Y-59189133D01*
X52220750Y-59105177D01*
X52364584Y-58985212D01*
X52484128Y-58840839D01*
X52567791Y-58685570D01*
X52618215Y-58516806D01*
X52635450Y-58330886D01*
X52618008Y-58147841D01*
X52566374Y-57977223D01*
X52479623Y-57815778D01*
X52363765Y-57673676D01*
X52226084Y-57560993D01*
X52063921Y-57475547D01*
X51888543Y-57422377D01*
X51711030Y-57405203D01*
X51528053Y-57423768D01*
X51351949Y-57476390D01*
X51194352Y-57560512D01*
X51052267Y-57677780D01*
X50934996Y-57819842D01*
X50851237Y-57976883D01*
X50799232Y-58151856D01*
X50781811Y-58333565D01*
X49723296Y-58333565D01*
X49728431Y-58132107D01*
X49778850Y-57849368D01*
X49873551Y-57568360D01*
X50007425Y-57303627D01*
X50173352Y-57069381D01*
X50372570Y-56862679D01*
X50607745Y-56681758D01*
X50866335Y-56535771D01*
X51134613Y-56432620D01*
X51415199Y-56370562D01*
X51711235Y-56349588D01*
X51975989Y-56367277D01*
G37*
G36*
X57814131Y-56349588D02*
G01*
X56291032Y-57553461D01*
X57814131Y-60320000D01*
X56561653Y-60320000D01*
X55446196Y-58221221D01*
X54937438Y-58626175D01*
X54937438Y-60320000D01*
X53882065Y-60320000D01*
X53882065Y-56349588D01*
X54937438Y-56349588D01*
X54937438Y-57329246D01*
X56255373Y-56349588D01*
X57814131Y-56349588D01*
G37*
G36*
X58012700Y-56349588D02*
G01*
X61936217Y-56349588D01*
X61936217Y-57404473D01*
X60498115Y-57404473D01*
X60498115Y-60320000D01*
X59442742Y-60320000D01*
X59442742Y-57404473D01*
X58012700Y-57404473D01*
X58012700Y-56349588D01*
G37*
G36*
X64395249Y-56367277D02*
G01*
X64651022Y-56419983D01*
X64900104Y-56508101D01*
X65136514Y-56627242D01*
X65346244Y-56768388D01*
X65531716Y-56931863D01*
X65694407Y-57118045D01*
X65834655Y-57328115D01*
X65952791Y-57564452D01*
X66040216Y-57813319D01*
X66092524Y-58068937D01*
X66110083Y-58333572D01*
X66088908Y-58630684D01*
X66026306Y-58911659D01*
X65922324Y-59179721D01*
X65775226Y-59437550D01*
X65592910Y-59671685D01*
X65384760Y-59869808D01*
X65148961Y-60034550D01*
X64882519Y-60167103D01*
X64599953Y-60260442D01*
X64316559Y-60309458D01*
X64029385Y-60315418D01*
X63735310Y-60277745D01*
X63449644Y-60198618D01*
X63187020Y-60082102D01*
X62944377Y-59927521D01*
X62719504Y-59732595D01*
X62524731Y-59507904D01*
X62370601Y-59265049D01*
X62254831Y-59001748D01*
X62176796Y-58714836D01*
X62140365Y-58419543D01*
X62142557Y-58333565D01*
X63201071Y-58333565D01*
X63219633Y-58510496D01*
X63274668Y-58686015D01*
X63361693Y-58848207D01*
X63474927Y-58985818D01*
X63616364Y-59101472D01*
X63777175Y-59188050D01*
X63947458Y-59239621D01*
X64130495Y-59257055D01*
X64316501Y-59239747D01*
X64485103Y-59189133D01*
X64640010Y-59105177D01*
X64783845Y-58985212D01*
X64903388Y-58840839D01*
X64987051Y-58685570D01*
X65037475Y-58516806D01*
X65054710Y-58330886D01*
X65037269Y-58147841D01*
X64985635Y-57977223D01*
X64898883Y-57815778D01*
X64783025Y-57673676D01*
X64645344Y-57560993D01*
X64483182Y-57475547D01*
X64307804Y-57422377D01*
X64130291Y-57405203D01*
X63947313Y-57423768D01*
X63771209Y-57476390D01*
X63613612Y-57560512D01*
X63471528Y-57677780D01*
X63354256Y-57819842D01*
X63270497Y-57976883D01*
X63218492Y-58151856D01*
X63201071Y-58333565D01*
X62142557Y-58333565D01*
X62147692Y-58132107D01*
X62198111Y-57849368D01*
X62292812Y-57568360D01*
X62426686Y-57303627D01*
X62592612Y-57069381D01*
X62791831Y-56862679D01*
X63027006Y-56681758D01*
X63285595Y-56535771D01*
X63553873Y-56432620D01*
X63834460Y-56370562D01*
X64130495Y-56349588D01*
X64395249Y-56367277D01*
G37*
G36*
X69193924Y-56116758D02*
G01*
X69434839Y-56188693D01*
X69656171Y-56307970D01*
X69861653Y-56478304D01*
X70032260Y-56683344D01*
X70151761Y-56904503D01*
X70223863Y-57145548D01*
X70248534Y-57411800D01*
X70231305Y-57627443D01*
X70180362Y-57830304D01*
X70095444Y-58023239D01*
X69974494Y-58208520D01*
X70095575Y-58393376D01*
X70180476Y-58585412D01*
X70231347Y-58786878D01*
X70248534Y-59000600D01*
X70223894Y-59266199D01*
X70151841Y-59506972D01*
X70032345Y-59728197D01*
X69861653Y-59933607D01*
X69656275Y-60104051D01*
X69435022Y-60223401D01*
X69194157Y-60295381D01*
X68928401Y-60320000D01*
X66301325Y-60320000D01*
X66301325Y-59265359D01*
X67356699Y-59265359D01*
X68931088Y-59265359D01*
X69032066Y-59245827D01*
X69116713Y-59187201D01*
X69174034Y-59101204D01*
X69193161Y-58999378D01*
X69173975Y-58897595D01*
X69116713Y-58812777D01*
X69032161Y-58755107D01*
X68931088Y-58735840D01*
X67356699Y-58735840D01*
X67356699Y-59265359D01*
X66301325Y-59265359D01*
X66301325Y-56349588D01*
X67356699Y-56349588D01*
X67356699Y-57678269D01*
X68931088Y-57678269D01*
X69032047Y-57658684D01*
X69116713Y-57599867D01*
X69174020Y-57513599D01*
X69193161Y-57411311D01*
X69173980Y-57309233D01*
X69116713Y-57223977D01*
X69032142Y-57166116D01*
X68931088Y-57146796D01*
X67850802Y-57146796D01*
X67850802Y-56092156D01*
X68928157Y-56092156D01*
X69193924Y-56116758D01*
G37*
G36*
X71502965Y-58866266D02*
G01*
X71502965Y-59265359D01*
X74230425Y-59265359D01*
X74230425Y-60320000D01*
X70447592Y-60320000D01*
X70447592Y-57811381D01*
X73865771Y-57811381D01*
X73865771Y-58866266D01*
X71502965Y-58866266D01*
G37*
G36*
X74230425Y-57404473D02*
G01*
X70447592Y-57404473D01*
X70447592Y-56349588D01*
X74230425Y-56349588D01*
X74230425Y-57404473D01*
G37*
G36*
X77925331Y-58655973D02*
G01*
X78531297Y-60320000D01*
X77341835Y-60320000D01*
X76855547Y-58991318D01*
X75481193Y-58991318D01*
X75481193Y-60320000D01*
X74425819Y-60320000D01*
X74425819Y-56349588D01*
X75481193Y-56349588D01*
X75481193Y-57936434D01*
X77062421Y-57936434D01*
X77163823Y-57916781D01*
X77248778Y-57857787D01*
X77306284Y-57771298D01*
X77325471Y-57668988D01*
X77306183Y-57566948D01*
X77248534Y-57481653D01*
X77163457Y-57423810D01*
X77061688Y-57404473D01*
X75973342Y-57404473D01*
X75973342Y-56349588D01*
X77053628Y-56349588D01*
X77322240Y-56375755D01*
X77571821Y-56453179D01*
X77807362Y-56583328D01*
X78013047Y-56756551D01*
X78173719Y-56961474D01*
X78292672Y-57202240D01*
X78362426Y-57461459D01*
X78377383Y-57721131D01*
X78337857Y-57986503D01*
X78247341Y-58238741D01*
X78110813Y-58460404D01*
X77925331Y-58655973D01*
G37*
D14*
G36*
X89294107Y-54493078D02*
G01*
X89563186Y-54564434D01*
X89799220Y-54678087D01*
X89965032Y-54797276D01*
X90108957Y-54939523D01*
X90233116Y-55105450D01*
X90338874Y-55296755D01*
X90420604Y-55504838D01*
X90480885Y-55740161D01*
X90518702Y-56007000D01*
X90531948Y-56310362D01*
X90518590Y-56622853D01*
X90480589Y-56895744D01*
X90420277Y-57134486D01*
X90338874Y-57343754D01*
X90232808Y-57535981D01*
X90108214Y-57701168D01*
X89963695Y-57841212D01*
X89797021Y-57956803D01*
X89560030Y-58065784D01*
X89290205Y-58134271D01*
X88982227Y-58158304D01*
X88677096Y-58134261D01*
X88410094Y-58065770D01*
X88175860Y-57956803D01*
X88011357Y-57841467D01*
X87868181Y-57701561D01*
X87744235Y-57536308D01*
X87638220Y-57343754D01*
X87556867Y-57134565D01*
X87496488Y-56895032D01*
X87458379Y-56620308D01*
X87444963Y-56304745D01*
X87776889Y-56304745D01*
X87791538Y-56577963D01*
X87832740Y-56808052D01*
X87897759Y-57002290D01*
X87985826Y-57166450D01*
X88098190Y-57304431D01*
X88262640Y-57437912D01*
X88460948Y-57538458D01*
X88699623Y-57603135D01*
X88986441Y-57626343D01*
X89273112Y-57603393D01*
X89512610Y-57539336D01*
X89712439Y-57439613D01*
X89878904Y-57307117D01*
X89992905Y-57169844D01*
X90082117Y-57006336D01*
X90147917Y-56812721D01*
X90189598Y-56583186D01*
X90204419Y-56310362D01*
X90189499Y-56034790D01*
X90147642Y-55804202D01*
X90081743Y-55610868D01*
X89992609Y-55448691D01*
X89878904Y-55313607D01*
X89712707Y-55183611D01*
X89512974Y-55085611D01*
X89273383Y-55022591D01*
X88986441Y-55000000D01*
X88699215Y-55022677D01*
X88460402Y-55085822D01*
X88262241Y-55183823D01*
X88098190Y-55313607D01*
X87985983Y-55448442D01*
X87897986Y-55610011D01*
X87832923Y-55802328D01*
X87791608Y-56031383D01*
X87776889Y-56304745D01*
X87444963Y-56304745D01*
X87458048Y-56004328D01*
X87495454Y-55739281D01*
X87555160Y-55504794D01*
X87636205Y-55296755D01*
X87740948Y-55105556D01*
X87864402Y-54939666D01*
X88007971Y-54797379D01*
X88173845Y-54678087D01*
X88409760Y-54564442D01*
X88678774Y-54493082D01*
X88986441Y-54468039D01*
X89294107Y-54493078D01*
G37*
G36*
X88196742Y-52206350D02*
G01*
X88210953Y-51935586D01*
X88250245Y-51715903D01*
X88311102Y-51537999D01*
X88392198Y-51394487D01*
X88495408Y-51282209D01*
X88629762Y-51196755D01*
X88802815Y-51140603D01*
X89024176Y-51119958D01*
X90490000Y-51119958D01*
X90490000Y-51606978D01*
X89049455Y-51606978D01*
X88871114Y-51628983D01*
X88738170Y-51688231D01*
X88639875Y-51779022D01*
X88569254Y-51902160D01*
X88524144Y-52064775D01*
X88507602Y-52279134D01*
X88523325Y-52528700D01*
X88565839Y-52718470D01*
X88630791Y-52861736D01*
X88717712Y-52967899D01*
X88864904Y-53067222D01*
X89061863Y-53133451D01*
X89322397Y-53158164D01*
X90490000Y-53158164D01*
X90490000Y-53651046D01*
X88238874Y-53651046D01*
X88238874Y-53253419D01*
X88545338Y-53180635D01*
X88545338Y-53152791D01*
X88437751Y-53043157D01*
X88350756Y-52909686D01*
X88282838Y-52749546D01*
X88218329Y-52485307D01*
X88196742Y-52206350D01*
G37*
G36*
X90490000Y-49699685D02*
G01*
X90490000Y-50192568D01*
X87298051Y-50192568D01*
X87298051Y-49699685D01*
X90490000Y-49699685D01*
G37*
G36*
X87394588Y-48498499D02*
G01*
X87408681Y-48393287D01*
X87451374Y-48299930D01*
X87520207Y-48236765D01*
X87629794Y-48212979D01*
X87736094Y-48236435D01*
X87806198Y-48299930D01*
X87850464Y-48393484D01*
X87865000Y-48498499D01*
X87850031Y-48612951D01*
X87806198Y-48705861D01*
X87736306Y-48767109D01*
X87629794Y-48789881D01*
X87519985Y-48766785D01*
X87451374Y-48705861D01*
X87409101Y-48613159D01*
X87394588Y-48498499D01*
G37*
G36*
X88238874Y-48257676D02*
G01*
X90490000Y-48257676D01*
X90490000Y-48750558D01*
X88238874Y-48750558D01*
X88238874Y-48257676D01*
G37*
G36*
X88196742Y-45863852D02*
G01*
X88210953Y-45593087D01*
X88250245Y-45373405D01*
X88311102Y-45195501D01*
X88392198Y-45051988D01*
X88495408Y-44939711D01*
X88629762Y-44854256D01*
X88802815Y-44798105D01*
X89024176Y-44777459D01*
X90490000Y-44777459D01*
X90490000Y-45264480D01*
X89049455Y-45264480D01*
X88871114Y-45286484D01*
X88738170Y-45345732D01*
X88639875Y-45436524D01*
X88569254Y-45559661D01*
X88524144Y-45722276D01*
X88507602Y-45936636D01*
X88523325Y-46186201D01*
X88565839Y-46375972D01*
X88630791Y-46519237D01*
X88717712Y-46625401D01*
X88864904Y-46724724D01*
X89061863Y-46790953D01*
X89322397Y-46815666D01*
X90490000Y-46815666D01*
X90490000Y-47308548D01*
X88238874Y-47308548D01*
X88238874Y-46910921D01*
X88545338Y-46838136D01*
X88545338Y-46810293D01*
X88437751Y-46700659D01*
X88350756Y-46567188D01*
X88282838Y-46407048D01*
X88218329Y-46142809D01*
X88196742Y-45863852D01*
G37*
G36*
X89435786Y-43508618D02*
G01*
X89627982Y-43485416D01*
X89785127Y-43432051D01*
X89913358Y-43352495D01*
X90017573Y-43248255D01*
X90102630Y-43115558D01*
X90164457Y-42958621D01*
X90203289Y-42772607D01*
X90217058Y-42550942D01*
X90206468Y-42273793D01*
X90177124Y-42044138D01*
X90129122Y-41822781D01*
X90061536Y-41587648D01*
X90385036Y-41587648D01*
X90451286Y-41818385D01*
X90496228Y-42041207D01*
X90522301Y-42275801D01*
X90531948Y-42573412D01*
X90516767Y-42852734D01*
X90472948Y-43102225D01*
X90401889Y-43326657D01*
X90301404Y-43527914D01*
X90172967Y-43696905D01*
X90013360Y-43836147D01*
X89836143Y-43934002D01*
X89627457Y-43996065D01*
X89381198Y-44018108D01*
X89137133Y-43998197D01*
X88927458Y-43941905D01*
X88747021Y-43853000D01*
X88581350Y-43725267D01*
X88446768Y-43570784D01*
X88339624Y-43388206D01*
X88261256Y-43181042D01*
X88213316Y-42950379D01*
X88197101Y-42696510D01*
X88499176Y-42696510D01*
X88519302Y-42921554D01*
X88576210Y-43103982D01*
X88669352Y-43253628D01*
X88791033Y-43367074D01*
X88945859Y-43449463D01*
X89141779Y-43497383D01*
X89141779Y-41968422D01*
X88955408Y-41992833D01*
X88802901Y-42053786D01*
X88677779Y-42147697D01*
X88601925Y-42243333D01*
X88546781Y-42362848D01*
X88511783Y-42511387D01*
X88499176Y-42696510D01*
X88197101Y-42696510D01*
X88196742Y-42690893D01*
X88211662Y-42437930D01*
X88254257Y-42218666D01*
X88322772Y-42027285D01*
X88417738Y-41857522D01*
X88535194Y-41716330D01*
X88677779Y-41601814D01*
X88833996Y-41521260D01*
X89011245Y-41470926D01*
X89213220Y-41453314D01*
X89435786Y-41453314D01*
X89435786Y-43508618D01*
G37*
G36*
X87491125Y-70584891D02*
G01*
X90490000Y-71604117D01*
X90490000Y-72567166D01*
X88915000Y-73110362D01*
X88776514Y-73152372D01*
X88574830Y-73208304D01*
X88366919Y-73261549D01*
X88213595Y-73295254D01*
X88366919Y-73326029D01*
X88572815Y-73379274D01*
X88774316Y-73435205D01*
X88919213Y-73479902D01*
X90490000Y-74017480D01*
X90490000Y-74980774D01*
X87491125Y-76000000D01*
X87491125Y-75165666D01*
X89129139Y-74655931D01*
X89372955Y-74583391D01*
X89666962Y-74510607D01*
X89914624Y-74460048D01*
X89664764Y-74409734D01*
X89383396Y-74339637D01*
X89171271Y-74275157D01*
X87491125Y-73692882D01*
X87491125Y-72892009D01*
X89171271Y-72309490D01*
X89381198Y-72245254D01*
X89666962Y-72175401D01*
X89914624Y-72124842D01*
X89664764Y-72074528D01*
X89372955Y-71998813D01*
X89129139Y-71928715D01*
X87491125Y-71419225D01*
X87491125Y-70584891D01*
G37*
G36*
X90490000Y-68317096D02*
G01*
X90179139Y-68479518D01*
X90179139Y-68501744D01*
X90343044Y-68710041D01*
X90448051Y-68916224D01*
X90491807Y-69066298D01*
X90521082Y-69262315D01*
X90531948Y-69515352D01*
X90511038Y-69778892D01*
X90451277Y-70001926D01*
X90353529Y-70193126D01*
X90258043Y-70305481D01*
X90138676Y-70388843D01*
X89990155Y-70442411D01*
X89805448Y-70461793D01*
X89626981Y-70438326D01*
X89481790Y-70372563D01*
X89362874Y-70267437D01*
X89265793Y-70120341D01*
X89194908Y-69948131D01*
X89137359Y-69727169D01*
X89095894Y-69446975D01*
X89074551Y-69095498D01*
X89061912Y-68563293D01*
X89427360Y-68563293D01*
X89435786Y-68888136D01*
X89455076Y-69155820D01*
X89493574Y-69334283D01*
X89544963Y-69448185D01*
X89618914Y-69535094D01*
X89705770Y-69586970D01*
X89809661Y-69604989D01*
X89900764Y-69590862D01*
X89966464Y-69552817D01*
X90013360Y-69493126D01*
X90057942Y-69369060D01*
X90074176Y-69201744D01*
X90060324Y-69028591D01*
X90020399Y-68879123D01*
X89954558Y-68748185D01*
X89866147Y-68647427D01*
X89755672Y-68585416D01*
X89616404Y-68563293D01*
X89427360Y-68563293D01*
X89061912Y-68563293D01*
X88961161Y-68563293D01*
X88844588Y-68579337D01*
X88758985Y-68622515D01*
X88696646Y-68689323D01*
X88651601Y-68779581D01*
X88622949Y-68894005D01*
X88612566Y-69039323D01*
X88624675Y-69260715D01*
X88660926Y-69476273D01*
X88780544Y-69901744D01*
X88356477Y-70176273D01*
X88271249Y-69920033D01*
X88205169Y-69630390D01*
X88164399Y-69326373D01*
X88150580Y-69005861D01*
X88165175Y-68693743D01*
X88205539Y-68438693D01*
X88267824Y-68230928D01*
X88350066Y-68062351D01*
X88458123Y-67923814D01*
X88591927Y-67822372D01*
X88757020Y-67757812D01*
X88961161Y-67734577D01*
X90490000Y-67734577D01*
X90490000Y-68317096D01*
G37*
G36*
X90490000Y-66045394D02*
G01*
X90490000Y-66879972D01*
X87298051Y-66879972D01*
X87298051Y-66045394D01*
X90490000Y-66045394D01*
G37*
G36*
X90490000Y-64337648D02*
G01*
X90490000Y-65172226D01*
X87298051Y-65172226D01*
X87298051Y-64337648D01*
X90490000Y-64337648D01*
G37*
G36*
X87298051Y-63044382D02*
G01*
X87314907Y-62869223D01*
X87363080Y-62725157D01*
X87414713Y-62654213D01*
X87491900Y-62608246D01*
X87604515Y-62590823D01*
X87714430Y-62608030D01*
X87791313Y-62653840D01*
X87844117Y-62725157D01*
X87893822Y-62869405D01*
X87911161Y-63044382D01*
X87893628Y-63223836D01*
X87844117Y-63366538D01*
X87791506Y-63436125D01*
X87714655Y-63481031D01*
X87604515Y-63497941D01*
X87491668Y-63480817D01*
X87414516Y-63435757D01*
X87363080Y-63366538D01*
X87315097Y-63224028D01*
X87298051Y-63044382D01*
G37*
G36*
X88196742Y-62629902D02*
G01*
X90490000Y-62629902D01*
X90490000Y-63464480D01*
X88196742Y-63464480D01*
X88196742Y-62629902D01*
G37*
G36*
X89498801Y-61095812D02*
G01*
X89669073Y-61065317D01*
X89805273Y-60994477D01*
X89914624Y-60885764D01*
X89996400Y-60741483D01*
X90047442Y-60561134D01*
X90065750Y-60334263D01*
X90054244Y-60045277D01*
X90021786Y-59796685D01*
X89966779Y-59556149D01*
X89885132Y-59298185D01*
X90368183Y-59298185D01*
X90441050Y-59528004D01*
X90492015Y-59771528D01*
X90521087Y-60033641D01*
X90531948Y-60373342D01*
X90516909Y-60675596D01*
X90473645Y-60944655D01*
X90403904Y-61185450D01*
X90303939Y-61403638D01*
X90175436Y-61587400D01*
X90015558Y-61739881D01*
X89835808Y-61847878D01*
X89619880Y-61916746D01*
X89360132Y-61941381D01*
X89093853Y-61918953D01*
X88873082Y-61856513D01*
X88690235Y-61759420D01*
X88524839Y-61619854D01*
X88392399Y-61451620D01*
X88289249Y-61252616D01*
X88215909Y-61029666D01*
X88170560Y-60779464D01*
X88154794Y-60496685D01*
X88155128Y-60491067D01*
X88599926Y-60491067D01*
X88613472Y-60645190D01*
X88652557Y-60776987D01*
X88717529Y-60891625D01*
X88803566Y-60978314D01*
X88922196Y-61042145D01*
X89082978Y-61078960D01*
X89082978Y-59908548D01*
X88946581Y-59928524D01*
X88832538Y-59977754D01*
X88736580Y-60054361D01*
X88662962Y-60160299D01*
X88616786Y-60301944D01*
X88599926Y-60491067D01*
X88155128Y-60491067D01*
X88173421Y-60182920D01*
X88226143Y-59916508D01*
X88310224Y-59689083D01*
X88425720Y-59494312D01*
X88569043Y-59338030D01*
X88741066Y-59223239D01*
X88947613Y-59150490D01*
X89196367Y-59124528D01*
X89498801Y-59124528D01*
X89498801Y-61095812D01*
G37*
D15*
G36*
X27010000Y-40706727D02*
G01*
X29647822Y-40706727D01*
X29647822Y-41084228D01*
X28580969Y-41084228D01*
X28580969Y-41920125D01*
X29647822Y-41920125D01*
X29647822Y-42297627D01*
X27010000Y-42297627D01*
X27010000Y-41920125D01*
X28194089Y-41920125D01*
X28194089Y-41084228D01*
X27010000Y-41084228D01*
X27010000Y-40706727D01*
G37*
G36*
X29647822Y-43311180D02*
G01*
X29647822Y-43701040D01*
X27010000Y-44487221D01*
X27010000Y-44103540D01*
X27607906Y-43924339D01*
X27607906Y-43808055D01*
X27994787Y-43808055D01*
X29102306Y-43506110D01*
X27994787Y-43194755D01*
X27994787Y-43808055D01*
X27607906Y-43808055D01*
X27607906Y-43078471D01*
X27010000Y-42908680D01*
X27010000Y-42531318D01*
X29647822Y-43311180D01*
G37*
G36*
X26963105Y-45542906D02*
G01*
X26976475Y-45387837D01*
X27014276Y-45255076D01*
X27074113Y-45141108D01*
X27158060Y-45036496D01*
X27259208Y-44947028D01*
X27378562Y-44871324D01*
X27583109Y-44782235D01*
X27818565Y-44719087D01*
X28068957Y-44682784D01*
X28332575Y-44670495D01*
X28577123Y-44681315D01*
X28803969Y-44712934D01*
X29015478Y-44764590D01*
X29212646Y-44839531D01*
X29378671Y-44934969D01*
X29517213Y-45051789D01*
X29597598Y-45151161D01*
X29656547Y-45264444D01*
X29693479Y-45394045D01*
X29706441Y-45542906D01*
X29690111Y-45736757D01*
X29645103Y-45893646D01*
X29575837Y-46020155D01*
X29484424Y-46121658D01*
X29365466Y-46206716D01*
X29223367Y-46271504D01*
X29054010Y-46316398D01*
X28851713Y-46339901D01*
X28851713Y-45965629D01*
X28999187Y-45942390D01*
X29113141Y-45902126D01*
X29200491Y-45846115D01*
X29263051Y-45773507D01*
X29304203Y-45674603D01*
X29319560Y-45541221D01*
X29301753Y-45414955D01*
X29252001Y-45314123D01*
X29172114Y-45233035D01*
X29058892Y-45168494D01*
X28878928Y-45110327D01*
X28642305Y-45071441D01*
X28334773Y-45056985D01*
X28012672Y-45071813D01*
X27773909Y-45111020D01*
X27600212Y-45168494D01*
X27492170Y-45232526D01*
X27415372Y-45313350D01*
X27367262Y-45414337D01*
X27349986Y-45541221D01*
X27367533Y-45662200D01*
X27416040Y-45755948D01*
X27493417Y-45828841D01*
X27595396Y-45885643D01*
X27715949Y-45927213D01*
X27858682Y-45953130D01*
X27858682Y-46361950D01*
X27682251Y-46337966D01*
X27525125Y-46292901D01*
X27384057Y-46226847D01*
X27259912Y-46142571D01*
X27156407Y-46044245D01*
X27072465Y-45930379D01*
X27011949Y-45807804D01*
X26975459Y-45679125D01*
X26963105Y-45542906D01*
G37*
G36*
X27010000Y-46728778D02*
G01*
X29647822Y-46728778D01*
X29647822Y-47106280D01*
X28519603Y-47106280D01*
X29647822Y-47819994D01*
X29647822Y-48266592D01*
X28478571Y-47518189D01*
X27010000Y-48357738D01*
X27010000Y-47882911D01*
X28347412Y-47106280D01*
X27010000Y-47106280D01*
X27010000Y-46728778D01*
G37*
G36*
X27010000Y-48652240D02*
G01*
X29647822Y-48652240D01*
X29647822Y-49969002D01*
X29249218Y-49969002D01*
X29249218Y-49020753D01*
X28557522Y-49020753D01*
X28557522Y-49915073D01*
X28182365Y-49915073D01*
X28182365Y-49020753D01*
X27408604Y-49020753D01*
X27408604Y-49995966D01*
X27010000Y-49995966D01*
X27010000Y-48652240D01*
G37*
G36*
X29659546Y-51140830D02*
G01*
X29646363Y-51336118D01*
X29610409Y-51492078D01*
X29556081Y-51615514D01*
X29486256Y-51712279D01*
X29390103Y-51794379D01*
X29271531Y-51853363D01*
X29125900Y-51890430D01*
X28946051Y-51903698D01*
X28794060Y-51887413D01*
X28667615Y-51840360D01*
X28559356Y-51769555D01*
X28467580Y-51682084D01*
X28391989Y-51585065D01*
X28331475Y-51485890D01*
X28295959Y-51580512D01*
X28249410Y-51662984D01*
X28180335Y-51730798D01*
X28073372Y-51780111D01*
X27976542Y-51805028D01*
X27843845Y-51827439D01*
X27546540Y-51862268D01*
X27247404Y-51898642D01*
X27113121Y-51923323D01*
X27015861Y-51950886D01*
X27015861Y-51558357D01*
X27199996Y-51521476D01*
X27346139Y-51503445D01*
X27647840Y-51473672D01*
X27815250Y-51442802D01*
X27933075Y-51405529D01*
X28012922Y-51363848D01*
X28070766Y-51307548D01*
X28109162Y-51225941D01*
X28122988Y-51115972D01*
X28510628Y-51115972D01*
X28520752Y-51206419D01*
X28551844Y-51299246D01*
X28604084Y-51385219D01*
X28675491Y-51454432D01*
X28766967Y-51501407D01*
X28877541Y-51517208D01*
X28999830Y-51502497D01*
X29093879Y-51460751D01*
X29167015Y-51397303D01*
X29219726Y-51316660D01*
X29250616Y-51227400D01*
X29260942Y-51134791D01*
X29260942Y-50771193D01*
X28510628Y-50771193D01*
X28510628Y-51115972D01*
X28122988Y-51115972D01*
X28123747Y-51109933D01*
X28123747Y-50771193D01*
X27015861Y-50771193D01*
X27015861Y-50393691D01*
X29659546Y-50393691D01*
X29659546Y-51140830D01*
G37*
G36*
X26963105Y-52993510D02*
G01*
X26974369Y-52856147D01*
X27007445Y-52727678D01*
X27061840Y-52606739D01*
X27139323Y-52494568D01*
X27236450Y-52400000D01*
X27354199Y-52321085D01*
X27489472Y-52262826D01*
X27648155Y-52226571D01*
X27835785Y-52213789D01*
X27835785Y-52609267D01*
X27678474Y-52622547D01*
X27561994Y-52658559D01*
X27476198Y-52715018D01*
X27414570Y-52790166D01*
X27375670Y-52882824D01*
X27361709Y-52997582D01*
X27370119Y-53089855D01*
X27396331Y-53188721D01*
X27443109Y-53281782D01*
X27510819Y-53357670D01*
X27569357Y-53395737D01*
X27640945Y-53418969D01*
X27729539Y-53427187D01*
X27815894Y-53419653D01*
X27885386Y-53398474D01*
X27941847Y-53364130D01*
X28010477Y-53293643D01*
X28068426Y-53198692D01*
X28154338Y-52971882D01*
X28238053Y-52723023D01*
X28293830Y-52602698D01*
X28364815Y-52494528D01*
X28457195Y-52400833D01*
X28573093Y-52329090D01*
X28662411Y-52296327D01*
X28771954Y-52275298D01*
X28906301Y-52267718D01*
X29031935Y-52275367D01*
X29144181Y-52297498D01*
X29245371Y-52333584D01*
X29380316Y-52410169D01*
X29492484Y-52509274D01*
X29580139Y-52624213D01*
X29643609Y-52750830D01*
X29682221Y-52882440D01*
X29694717Y-53008115D01*
X29674414Y-53194918D01*
X29615033Y-53365675D01*
X29550900Y-53470678D01*
X29468088Y-53558885D01*
X29365905Y-53632370D01*
X29246631Y-53686699D01*
X29103689Y-53720704D01*
X28931214Y-53732784D01*
X28931214Y-53346294D01*
X29054940Y-53333860D01*
X29149981Y-53299199D01*
X29223389Y-53242509D01*
X29276544Y-53170418D01*
X29308587Y-53091506D01*
X29319560Y-53003902D01*
X29309369Y-52916937D01*
X29278527Y-52831021D01*
X29226636Y-52752959D01*
X29155429Y-52691143D01*
X29064885Y-52650391D01*
X28950631Y-52636231D01*
X28838654Y-52652499D01*
X28753893Y-52699569D01*
X28688814Y-52770363D01*
X28632993Y-52867395D01*
X28544883Y-53096873D01*
X28452742Y-53345451D01*
X28393402Y-53465107D01*
X28319569Y-53573525D01*
X28224528Y-53667879D01*
X28104330Y-53741351D01*
X28012090Y-53775426D01*
X27902063Y-53797003D01*
X27770389Y-53804689D01*
X27631141Y-53795954D01*
X27509965Y-53770944D01*
X27403658Y-53730537D01*
X27264335Y-53644863D01*
X27151599Y-53534764D01*
X27066753Y-53408482D01*
X27008168Y-53271159D01*
X26974168Y-53129498D01*
X26963105Y-52993510D01*
G37*
G36*
X29647822Y-54845908D02*
G01*
X29627437Y-55043045D01*
X29567772Y-55224112D01*
X29502684Y-55335822D01*
X29417544Y-55430172D01*
X29311683Y-55509345D01*
X29187041Y-55567715D01*
X29032633Y-55604726D01*
X28840722Y-55618046D01*
X28689708Y-55609933D01*
X28563373Y-55587199D01*
X28457505Y-55551477D01*
X28319279Y-55473613D01*
X28213689Y-55374383D01*
X28136556Y-55257954D01*
X28082531Y-55124541D01*
X28051892Y-54984649D01*
X28041681Y-54843100D01*
X28041681Y-54766981D01*
X28440286Y-54766981D01*
X28451026Y-54905286D01*
X28480397Y-55015828D01*
X28525099Y-55103615D01*
X28595580Y-55173165D01*
X28697047Y-55215864D01*
X28840722Y-55231556D01*
X28982529Y-55216494D01*
X29084921Y-55175288D01*
X29158176Y-55108250D01*
X29205737Y-55023093D01*
X29237449Y-54911541D01*
X29249218Y-54766981D01*
X29249218Y-54539469D01*
X28440286Y-54539469D01*
X28440286Y-54766981D01*
X28041681Y-54766981D01*
X28041681Y-54539469D01*
X27010000Y-54539469D01*
X27010000Y-54161967D01*
X29647822Y-54161967D01*
X29647822Y-54845908D01*
G37*
G36*
X29647822Y-56582164D02*
G01*
X29647822Y-56972024D01*
X27010000Y-57758205D01*
X27010000Y-57374524D01*
X27607906Y-57195323D01*
X27607906Y-57079039D01*
X27994787Y-57079039D01*
X29102306Y-56777094D01*
X27994787Y-56465739D01*
X27994787Y-57079039D01*
X27607906Y-57079039D01*
X27607906Y-56349455D01*
X27010000Y-56179664D01*
X27010000Y-55802302D01*
X29647822Y-56582164D01*
G37*
G36*
X26963105Y-58813890D02*
G01*
X26976475Y-58658821D01*
X27014276Y-58526060D01*
X27074113Y-58412092D01*
X27158060Y-58307480D01*
X27259208Y-58218011D01*
X27378562Y-58142308D01*
X27583109Y-58053219D01*
X27818565Y-57990071D01*
X28068957Y-57953768D01*
X28332575Y-57941479D01*
X28577123Y-57952299D01*
X28803969Y-57983918D01*
X29015478Y-58035573D01*
X29212646Y-58110515D01*
X29378671Y-58205953D01*
X29517213Y-58322773D01*
X29597598Y-58422145D01*
X29656547Y-58535428D01*
X29693479Y-58665029D01*
X29706441Y-58813890D01*
X29690111Y-59007741D01*
X29645103Y-59164630D01*
X29575837Y-59291139D01*
X29484424Y-59392642D01*
X29365466Y-59477700D01*
X29223367Y-59542488D01*
X29054010Y-59587382D01*
X28851713Y-59610885D01*
X28851713Y-59236613D01*
X28999187Y-59213374D01*
X29113141Y-59173110D01*
X29200491Y-59117099D01*
X29263051Y-59044490D01*
X29304203Y-58945587D01*
X29319560Y-58812205D01*
X29301753Y-58685939D01*
X29252001Y-58585107D01*
X29172114Y-58504019D01*
X29058892Y-58439478D01*
X28878928Y-58381311D01*
X28642305Y-58342425D01*
X28334773Y-58327969D01*
X28012672Y-58342797D01*
X27773909Y-58382004D01*
X27600212Y-58439478D01*
X27492170Y-58503510D01*
X27415372Y-58584334D01*
X27367262Y-58685321D01*
X27349986Y-58812205D01*
X27367533Y-58933184D01*
X27416040Y-59026932D01*
X27493417Y-59099825D01*
X27595396Y-59156627D01*
X27715949Y-59198197D01*
X27858682Y-59224114D01*
X27858682Y-59632934D01*
X27682251Y-59608950D01*
X27525125Y-59563885D01*
X27384057Y-59497831D01*
X27259912Y-59413554D01*
X27156407Y-59315229D01*
X27072465Y-59201363D01*
X27011949Y-59078788D01*
X26975459Y-58950109D01*
X26963105Y-58813890D01*
G37*
G36*
X27010000Y-59999762D02*
G01*
X29647822Y-59999762D01*
X29647822Y-61316524D01*
X29249218Y-61316524D01*
X29249218Y-60368276D01*
X28557522Y-60368276D01*
X28557522Y-61262595D01*
X28182365Y-61262595D01*
X28182365Y-60368276D01*
X27408604Y-60368276D01*
X27408604Y-61343489D01*
X27010000Y-61343489D01*
X27010000Y-59999762D01*
G37*
G36*
X29647822Y-63995270D02*
G01*
X29627990Y-64218637D01*
X29572062Y-64408474D01*
X29483691Y-64570230D01*
X29358388Y-64715942D01*
X29205388Y-64834481D01*
X29022255Y-64928491D01*
X28818334Y-64995329D01*
X28589477Y-65036704D01*
X28330926Y-65051095D01*
X28064665Y-65035861D01*
X27832042Y-64992279D01*
X27627506Y-64922172D01*
X27444339Y-64824371D01*
X27292656Y-64703678D01*
X27169918Y-64557731D01*
X27083414Y-64396280D01*
X27029109Y-64210317D01*
X27010150Y-63996955D01*
X27408604Y-63996955D01*
X27425181Y-64162824D01*
X27471328Y-64298682D01*
X27543585Y-64410085D01*
X27641245Y-64501274D01*
X27763212Y-64572856D01*
X27914355Y-64626489D01*
X28100944Y-64661085D01*
X28330926Y-64673593D01*
X28560972Y-64661061D01*
X28747163Y-64626431D01*
X28897580Y-64572801D01*
X29018592Y-64501274D01*
X29115320Y-64410188D01*
X29186967Y-64298827D01*
X29232761Y-64162935D01*
X29249218Y-63996955D01*
X29249218Y-63756803D01*
X27408604Y-63756803D01*
X27408604Y-63996955D01*
X27010150Y-63996955D01*
X27010000Y-63995270D01*
X27010000Y-63379302D01*
X29647822Y-63379302D01*
X29647822Y-63995270D01*
G37*
G36*
X29659546Y-66160006D02*
G01*
X29646363Y-66355294D01*
X29610409Y-66511255D01*
X29556081Y-66634690D01*
X29486256Y-66731455D01*
X29390103Y-66813555D01*
X29271531Y-66872539D01*
X29125900Y-66909607D01*
X28946051Y-66922875D01*
X28794060Y-66906589D01*
X28667615Y-66859536D01*
X28559356Y-66788732D01*
X28467580Y-66701261D01*
X28391989Y-66604241D01*
X28331475Y-66505067D01*
X28295959Y-66599688D01*
X28249410Y-66682161D01*
X28180335Y-66749975D01*
X28073372Y-66799288D01*
X27976542Y-66824205D01*
X27843845Y-66846616D01*
X27546540Y-66881445D01*
X27247404Y-66917819D01*
X27113121Y-66942499D01*
X27015861Y-66970062D01*
X27015861Y-66577534D01*
X27199996Y-66540652D01*
X27346139Y-66522622D01*
X27647840Y-66492848D01*
X27815250Y-66461979D01*
X27933075Y-66424706D01*
X28012922Y-66383025D01*
X28070766Y-66326725D01*
X28109162Y-66245118D01*
X28122988Y-66135149D01*
X28510628Y-66135149D01*
X28520752Y-66225596D01*
X28551844Y-66318422D01*
X28604084Y-66404395D01*
X28675491Y-66473608D01*
X28766967Y-66520583D01*
X28877541Y-66536385D01*
X28999830Y-66521673D01*
X29093879Y-66479928D01*
X29167015Y-66416479D01*
X29219726Y-66335837D01*
X29250616Y-66246576D01*
X29260942Y-66153968D01*
X29260942Y-65790369D01*
X28510628Y-65790369D01*
X28510628Y-66135149D01*
X28122988Y-66135149D01*
X28123747Y-66129110D01*
X28123747Y-65790369D01*
X27015861Y-65790369D01*
X27015861Y-65412868D01*
X29659546Y-65412868D01*
X29659546Y-66160006D01*
G37*
G36*
X27010000Y-67286894D02*
G01*
X29647822Y-67286894D01*
X29647822Y-68603656D01*
X29249218Y-68603656D01*
X29249218Y-67655408D01*
X28557522Y-67655408D01*
X28557522Y-68549727D01*
X28182365Y-68549727D01*
X28182365Y-67655408D01*
X27408604Y-67655408D01*
X27408604Y-68630621D01*
X27010000Y-68630621D01*
X27010000Y-67286894D01*
G37*
G36*
X27010000Y-69028346D02*
G01*
X29647822Y-69028346D01*
X29647822Y-69564825D01*
X27526939Y-70376566D01*
X29647822Y-70376566D01*
X29647822Y-70745080D01*
X27010000Y-70745080D01*
X27010000Y-70199612D01*
X29130882Y-69387871D01*
X27010000Y-69387871D01*
X27010000Y-69028346D01*
G37*
G36*
X27015861Y-71632658D02*
G01*
X29260942Y-71632658D01*
X29260942Y-71021465D01*
X29659546Y-71021465D01*
X29659546Y-72630341D01*
X29260942Y-72630341D01*
X29260942Y-72019148D01*
X27015861Y-72019148D01*
X27015861Y-71632658D01*
G37*
G36*
X27010000Y-72913468D02*
G01*
X29647822Y-72913468D01*
X29647822Y-73290969D01*
X28580969Y-73290969D01*
X28580969Y-74126866D01*
X29647822Y-74126866D01*
X29647822Y-74504368D01*
X27010000Y-74504368D01*
X27010000Y-74126866D01*
X28194089Y-74126866D01*
X28194089Y-73290969D01*
X27010000Y-73290969D01*
X27010000Y-72913468D01*
G37*
G36*
X27010000Y-74913328D02*
G01*
X29647822Y-74913328D01*
X29647822Y-76230090D01*
X29249218Y-76230090D01*
X29249218Y-75281842D01*
X28557522Y-75281842D01*
X28557522Y-76176161D01*
X28182365Y-76176161D01*
X28182365Y-75281842D01*
X27408604Y-75281842D01*
X27408604Y-76257055D01*
X27010000Y-76257055D01*
X27010000Y-74913328D01*
G37*
M02*
