%TF.GenerationSoftware,KiCad,Pcbnew,9.0.8+dfsg-1*%
%TF.CreationDate,2026-08-28T12:02:37+02:00*%
%TF.ProjectId,hsd-antweight-2s-v4,6873642d-616e-4747-9765-696768742d32,rev?*%
%TF.SameCoordinates,Original*%
%TF.FileFunction,Profile,NP*%
%FSLAX46Y46*%
G04 Gerber Fmt 4.6, Leading zero omitted, Abs format (unit mm)*
G04 Created by KiCad (PCBNEW 9.0.8+dfsg-1) date 2026-08-28 12:02:37*
%MOMM*%
%LPD*%
G01*
G04 APERTURE LIST*
%TA.AperFunction,Profile*%
%ADD10C,0.150000*%
%TD*%
%TA.AperFunction,Profile*%
%ADD11C,0.250000*%
%TD*%
G04 APERTURE END LIST*
D10*
X19500000Y-37898130D02*
X19500000Y-42000000D01*
X19500000Y-37898130D02*
G75*
G02*
X20171269Y-36403319I1999990J0D01*
G01*
X21500000Y-44000000D02*
G75*
G02*
X19500000Y-42000000I0J2000000D01*
G01*
X21500000Y-44000000D02*
X24500000Y-44000000D01*
X24451483Y-40442662D02*
G75*
G02*
X22451483Y-40442662I-1000000J0D01*
G01*
X22451483Y-40442662D02*
G75*
G02*
X24451483Y-40442662I1000000J0D01*
G01*
X24500000Y-44000000D02*
G75*
G02*
X25500000Y-45000000I0J-1000000D01*
G01*
X25500000Y-45000000D02*
X25500000Y-83000000D01*
X27500000Y-85000000D02*
G75*
G02*
X25500000Y-83000000I0J2000000D01*
G01*
X27500000Y-85000000D02*
X89500000Y-85000000D01*
X27931672Y-29505180D02*
X20171267Y-36403317D01*
X27931672Y-29505180D02*
G75*
G02*
X29260400Y-28999999I1328728J-1494820D01*
G01*
X29641573Y-81858427D02*
G75*
G02*
X27641573Y-81858427I-1000000J0D01*
G01*
X27641573Y-81858427D02*
G75*
G02*
X29641573Y-81858427I1000000J0D01*
G01*
D11*
X83150000Y-39350000D02*
X86500000Y-39350000D01*
X83150000Y-46350000D02*
X83150000Y-39350000D01*
D10*
X85650000Y-35400000D02*
G75*
G02*
X83650000Y-35400000I-1000000J0D01*
G01*
X83650000Y-35400000D02*
G75*
G02*
X85650000Y-35400000I1000000J0D01*
G01*
X85650000Y-50300000D02*
G75*
G02*
X83650000Y-50300000I-1000000J0D01*
G01*
X83650000Y-50300000D02*
G75*
G02*
X85650000Y-50300000I1000000J0D01*
G01*
D11*
X86500000Y-39350000D02*
X86500000Y-46350000D01*
X86500000Y-46350000D02*
X83150000Y-46350000D01*
D10*
X87739600Y-29000000D02*
X29260400Y-29000000D01*
X87739600Y-29000000D02*
G75*
G02*
X89068327Y-29505181I0J-2000000D01*
G01*
X89358427Y-81858427D02*
G75*
G02*
X87358427Y-81858427I-1000000J0D01*
G01*
X87358427Y-81858427D02*
G75*
G02*
X89358427Y-81858427I1000000J0D01*
G01*
X91500000Y-45000000D02*
G75*
G02*
X92500000Y-44000000I1000000J0D01*
G01*
X91500000Y-83000000D02*
G75*
G02*
X89500000Y-85000000I-2000000J0D01*
G01*
X91500000Y-83000000D02*
X91500000Y-45000000D01*
X92500000Y-44000000D02*
X95500000Y-44000000D01*
X94548517Y-40442662D02*
G75*
G02*
X92548517Y-40442662I-1000000J0D01*
G01*
X92548517Y-40442662D02*
G75*
G02*
X94548517Y-40442662I1000000J0D01*
G01*
X96828650Y-36403244D02*
X89068328Y-29505180D01*
X96828650Y-36403244D02*
G75*
G02*
X97499967Y-37889954I-1328850J-1494956D01*
G01*
X97500000Y-42000000D02*
G75*
G02*
X95500000Y-44000000I-2000000J0D01*
G01*
X97500000Y-42000000D02*
X97500000Y-37889954D01*
M02*
