%TF.GenerationSoftware,KiCad,Pcbnew,9.0.8+dfsg-1*%
%TF.CreationDate,2026-08-20T11:33:50+02:00*%
%TF.ProjectId,hsd-antweight-2s-v3,6873642d-616e-4747-9765-696768742d32,rev?*%
%TF.SameCoordinates,Original*%
%TF.FileFunction,Legend,Top*%
%TF.FilePolarity,Positive*%
%FSLAX46Y46*%
G04 Gerber Fmt 4.6, Leading zero omitted, Abs format (unit mm)*
G04 Created by KiCad (PCBNEW 9.0.8+dfsg-1) date 2026-08-20 11:33:50*
%MOMM*%
%LPD*%
G01*
G04 APERTURE LIST*
%ADD10C,0.150000*%
%ADD11C,0.120000*%
%ADD12C,0.100000*%
%ADD13C,0.250000*%
G04 APERTURE END LIST*
D10*
X53750000Y-82100000D02*
X61250000Y-82100000D01*
X61250000Y-84500000D01*
X53750000Y-84500000D01*
X53750000Y-82100000D01*
D11*
X43390476Y-68101950D02*
X43314286Y-68063855D01*
X43314286Y-68063855D02*
X43200000Y-68063855D01*
X43200000Y-68063855D02*
X43085714Y-68101950D01*
X43085714Y-68101950D02*
X43009524Y-68178140D01*
X43009524Y-68178140D02*
X42971429Y-68254331D01*
X42971429Y-68254331D02*
X42933333Y-68406712D01*
X42933333Y-68406712D02*
X42933333Y-68520998D01*
X42933333Y-68520998D02*
X42971429Y-68673379D01*
X42971429Y-68673379D02*
X43009524Y-68749569D01*
X43009524Y-68749569D02*
X43085714Y-68825760D01*
X43085714Y-68825760D02*
X43200000Y-68863855D01*
X43200000Y-68863855D02*
X43276191Y-68863855D01*
X43276191Y-68863855D02*
X43390476Y-68825760D01*
X43390476Y-68825760D02*
X43428572Y-68787664D01*
X43428572Y-68787664D02*
X43428572Y-68520998D01*
X43428572Y-68520998D02*
X43276191Y-68520998D01*
X43771429Y-68863855D02*
X43771429Y-68063855D01*
X43771429Y-68063855D02*
X44228572Y-68863855D01*
X44228572Y-68863855D02*
X44228572Y-68063855D01*
X44609524Y-68863855D02*
X44609524Y-68063855D01*
X44609524Y-68063855D02*
X44800000Y-68063855D01*
X44800000Y-68063855D02*
X44914286Y-68101950D01*
X44914286Y-68101950D02*
X44990476Y-68178140D01*
X44990476Y-68178140D02*
X45028571Y-68254331D01*
X45028571Y-68254331D02*
X45066667Y-68406712D01*
X45066667Y-68406712D02*
X45066667Y-68520998D01*
X45066667Y-68520998D02*
X45028571Y-68673379D01*
X45028571Y-68673379D02*
X44990476Y-68749569D01*
X44990476Y-68749569D02*
X44914286Y-68825760D01*
X44914286Y-68825760D02*
X44800000Y-68863855D01*
X44800000Y-68863855D02*
X44609524Y-68863855D01*
X43009523Y-70563855D02*
X43504761Y-70563855D01*
X43504761Y-70563855D02*
X43238095Y-70868617D01*
X43238095Y-70868617D02*
X43352380Y-70868617D01*
X43352380Y-70868617D02*
X43428571Y-70906712D01*
X43428571Y-70906712D02*
X43466666Y-70944807D01*
X43466666Y-70944807D02*
X43504761Y-71020998D01*
X43504761Y-71020998D02*
X43504761Y-71211474D01*
X43504761Y-71211474D02*
X43466666Y-71287664D01*
X43466666Y-71287664D02*
X43428571Y-71325760D01*
X43428571Y-71325760D02*
X43352380Y-71363855D01*
X43352380Y-71363855D02*
X43123809Y-71363855D01*
X43123809Y-71363855D02*
X43047618Y-71325760D01*
X43047618Y-71325760D02*
X43009523Y-71287664D01*
X43733333Y-70563855D02*
X44000000Y-71363855D01*
X44000000Y-71363855D02*
X44266666Y-70563855D01*
X44457142Y-70563855D02*
X44952380Y-70563855D01*
X44952380Y-70563855D02*
X44685714Y-70868617D01*
X44685714Y-70868617D02*
X44799999Y-70868617D01*
X44799999Y-70868617D02*
X44876190Y-70906712D01*
X44876190Y-70906712D02*
X44914285Y-70944807D01*
X44914285Y-70944807D02*
X44952380Y-71020998D01*
X44952380Y-71020998D02*
X44952380Y-71211474D01*
X44952380Y-71211474D02*
X44914285Y-71287664D01*
X44914285Y-71287664D02*
X44876190Y-71325760D01*
X44876190Y-71325760D02*
X44799999Y-71363855D01*
X44799999Y-71363855D02*
X44571428Y-71363855D01*
X44571428Y-71363855D02*
X44495237Y-71325760D01*
X44495237Y-71325760D02*
X44457142Y-71287664D01*
X42315238Y-38175283D02*
X42696191Y-38175283D01*
X42239048Y-38403855D02*
X42505715Y-37603855D01*
X42505715Y-37603855D02*
X42772381Y-38403855D01*
X43000952Y-37680045D02*
X43039048Y-37641950D01*
X43039048Y-37641950D02*
X43115238Y-37603855D01*
X43115238Y-37603855D02*
X43305714Y-37603855D01*
X43305714Y-37603855D02*
X43381905Y-37641950D01*
X43381905Y-37641950D02*
X43420000Y-37680045D01*
X43420000Y-37680045D02*
X43458095Y-37756236D01*
X43458095Y-37756236D02*
X43458095Y-37832426D01*
X43458095Y-37832426D02*
X43420000Y-37946712D01*
X43420000Y-37946712D02*
X42962857Y-38403855D01*
X42962857Y-38403855D02*
X43458095Y-38403855D01*
X44372381Y-37565760D02*
X43686667Y-38594331D01*
X44600952Y-38175283D02*
X44981905Y-38175283D01*
X44524762Y-38403855D02*
X44791429Y-37603855D01*
X44791429Y-37603855D02*
X45058095Y-38403855D01*
X45324762Y-38403855D02*
X45324762Y-37603855D01*
X45667618Y-37680045D02*
X45705714Y-37641950D01*
X45705714Y-37641950D02*
X45781904Y-37603855D01*
X45781904Y-37603855D02*
X45972380Y-37603855D01*
X45972380Y-37603855D02*
X46048571Y-37641950D01*
X46048571Y-37641950D02*
X46086666Y-37680045D01*
X46086666Y-37680045D02*
X46124761Y-37756236D01*
X46124761Y-37756236D02*
X46124761Y-37832426D01*
X46124761Y-37832426D02*
X46086666Y-37946712D01*
X46086666Y-37946712D02*
X45629523Y-38403855D01*
X45629523Y-38403855D02*
X46124761Y-38403855D01*
X42315238Y-40715283D02*
X42696191Y-40715283D01*
X42239048Y-40943855D02*
X42505715Y-40143855D01*
X42505715Y-40143855D02*
X42772381Y-40943855D01*
X43458095Y-40943855D02*
X43000952Y-40943855D01*
X43229524Y-40943855D02*
X43229524Y-40143855D01*
X43229524Y-40143855D02*
X43153333Y-40258140D01*
X43153333Y-40258140D02*
X43077143Y-40334331D01*
X43077143Y-40334331D02*
X43000952Y-40372426D01*
X44372381Y-40105760D02*
X43686667Y-41134331D01*
X44600952Y-40715283D02*
X44981905Y-40715283D01*
X44524762Y-40943855D02*
X44791429Y-40143855D01*
X44791429Y-40143855D02*
X45058095Y-40943855D01*
X45324762Y-40943855D02*
X45324762Y-40143855D01*
X46124761Y-40943855D02*
X45667618Y-40943855D01*
X45896190Y-40943855D02*
X45896190Y-40143855D01*
X45896190Y-40143855D02*
X45819999Y-40258140D01*
X45819999Y-40258140D02*
X45743809Y-40334331D01*
X45743809Y-40334331D02*
X45667618Y-40372426D01*
X42505714Y-45604807D02*
X42620000Y-45642902D01*
X42620000Y-45642902D02*
X42658095Y-45680998D01*
X42658095Y-45680998D02*
X42696191Y-45757188D01*
X42696191Y-45757188D02*
X42696191Y-45871474D01*
X42696191Y-45871474D02*
X42658095Y-45947664D01*
X42658095Y-45947664D02*
X42620000Y-45985760D01*
X42620000Y-45985760D02*
X42543810Y-46023855D01*
X42543810Y-46023855D02*
X42239048Y-46023855D01*
X42239048Y-46023855D02*
X42239048Y-45223855D01*
X42239048Y-45223855D02*
X42505714Y-45223855D01*
X42505714Y-45223855D02*
X42581905Y-45261950D01*
X42581905Y-45261950D02*
X42620000Y-45300045D01*
X42620000Y-45300045D02*
X42658095Y-45376236D01*
X42658095Y-45376236D02*
X42658095Y-45452426D01*
X42658095Y-45452426D02*
X42620000Y-45528617D01*
X42620000Y-45528617D02*
X42581905Y-45566712D01*
X42581905Y-45566712D02*
X42505714Y-45604807D01*
X42505714Y-45604807D02*
X42239048Y-45604807D01*
X43458095Y-46023855D02*
X43000952Y-46023855D01*
X43229524Y-46023855D02*
X43229524Y-45223855D01*
X43229524Y-45223855D02*
X43153333Y-45338140D01*
X43153333Y-45338140D02*
X43077143Y-45414331D01*
X43077143Y-45414331D02*
X43000952Y-45452426D01*
X44372381Y-45185760D02*
X43686667Y-46214331D01*
X44905714Y-45604807D02*
X45020000Y-45642902D01*
X45020000Y-45642902D02*
X45058095Y-45680998D01*
X45058095Y-45680998D02*
X45096191Y-45757188D01*
X45096191Y-45757188D02*
X45096191Y-45871474D01*
X45096191Y-45871474D02*
X45058095Y-45947664D01*
X45058095Y-45947664D02*
X45020000Y-45985760D01*
X45020000Y-45985760D02*
X44943810Y-46023855D01*
X44943810Y-46023855D02*
X44639048Y-46023855D01*
X44639048Y-46023855D02*
X44639048Y-45223855D01*
X44639048Y-45223855D02*
X44905714Y-45223855D01*
X44905714Y-45223855D02*
X44981905Y-45261950D01*
X44981905Y-45261950D02*
X45020000Y-45300045D01*
X45020000Y-45300045D02*
X45058095Y-45376236D01*
X45058095Y-45376236D02*
X45058095Y-45452426D01*
X45058095Y-45452426D02*
X45020000Y-45528617D01*
X45020000Y-45528617D02*
X44981905Y-45566712D01*
X44981905Y-45566712D02*
X44905714Y-45604807D01*
X44905714Y-45604807D02*
X44639048Y-45604807D01*
X45439048Y-46023855D02*
X45439048Y-45223855D01*
X46239047Y-46023855D02*
X45781904Y-46023855D01*
X46010476Y-46023855D02*
X46010476Y-45223855D01*
X46010476Y-45223855D02*
X45934285Y-45338140D01*
X45934285Y-45338140D02*
X45858095Y-45414331D01*
X45858095Y-45414331D02*
X45781904Y-45452426D01*
X42505714Y-48144807D02*
X42620000Y-48182902D01*
X42620000Y-48182902D02*
X42658095Y-48220998D01*
X42658095Y-48220998D02*
X42696191Y-48297188D01*
X42696191Y-48297188D02*
X42696191Y-48411474D01*
X42696191Y-48411474D02*
X42658095Y-48487664D01*
X42658095Y-48487664D02*
X42620000Y-48525760D01*
X42620000Y-48525760D02*
X42543810Y-48563855D01*
X42543810Y-48563855D02*
X42239048Y-48563855D01*
X42239048Y-48563855D02*
X42239048Y-47763855D01*
X42239048Y-47763855D02*
X42505714Y-47763855D01*
X42505714Y-47763855D02*
X42581905Y-47801950D01*
X42581905Y-47801950D02*
X42620000Y-47840045D01*
X42620000Y-47840045D02*
X42658095Y-47916236D01*
X42658095Y-47916236D02*
X42658095Y-47992426D01*
X42658095Y-47992426D02*
X42620000Y-48068617D01*
X42620000Y-48068617D02*
X42581905Y-48106712D01*
X42581905Y-48106712D02*
X42505714Y-48144807D01*
X42505714Y-48144807D02*
X42239048Y-48144807D01*
X43000952Y-47840045D02*
X43039048Y-47801950D01*
X43039048Y-47801950D02*
X43115238Y-47763855D01*
X43115238Y-47763855D02*
X43305714Y-47763855D01*
X43305714Y-47763855D02*
X43381905Y-47801950D01*
X43381905Y-47801950D02*
X43420000Y-47840045D01*
X43420000Y-47840045D02*
X43458095Y-47916236D01*
X43458095Y-47916236D02*
X43458095Y-47992426D01*
X43458095Y-47992426D02*
X43420000Y-48106712D01*
X43420000Y-48106712D02*
X42962857Y-48563855D01*
X42962857Y-48563855D02*
X43458095Y-48563855D01*
X44372381Y-47725760D02*
X43686667Y-48754331D01*
X44905714Y-48144807D02*
X45020000Y-48182902D01*
X45020000Y-48182902D02*
X45058095Y-48220998D01*
X45058095Y-48220998D02*
X45096191Y-48297188D01*
X45096191Y-48297188D02*
X45096191Y-48411474D01*
X45096191Y-48411474D02*
X45058095Y-48487664D01*
X45058095Y-48487664D02*
X45020000Y-48525760D01*
X45020000Y-48525760D02*
X44943810Y-48563855D01*
X44943810Y-48563855D02*
X44639048Y-48563855D01*
X44639048Y-48563855D02*
X44639048Y-47763855D01*
X44639048Y-47763855D02*
X44905714Y-47763855D01*
X44905714Y-47763855D02*
X44981905Y-47801950D01*
X44981905Y-47801950D02*
X45020000Y-47840045D01*
X45020000Y-47840045D02*
X45058095Y-47916236D01*
X45058095Y-47916236D02*
X45058095Y-47992426D01*
X45058095Y-47992426D02*
X45020000Y-48068617D01*
X45020000Y-48068617D02*
X44981905Y-48106712D01*
X44981905Y-48106712D02*
X44905714Y-48144807D01*
X44905714Y-48144807D02*
X44639048Y-48144807D01*
X45439048Y-48563855D02*
X45439048Y-47763855D01*
X45781904Y-47840045D02*
X45820000Y-47801950D01*
X45820000Y-47801950D02*
X45896190Y-47763855D01*
X45896190Y-47763855D02*
X46086666Y-47763855D01*
X46086666Y-47763855D02*
X46162857Y-47801950D01*
X46162857Y-47801950D02*
X46200952Y-47840045D01*
X46200952Y-47840045D02*
X46239047Y-47916236D01*
X46239047Y-47916236D02*
X46239047Y-47992426D01*
X46239047Y-47992426D02*
X46200952Y-48106712D01*
X46200952Y-48106712D02*
X45743809Y-48563855D01*
X45743809Y-48563855D02*
X46239047Y-48563855D01*
X42900000Y-66063855D02*
X43166667Y-66863855D01*
X43166667Y-66863855D02*
X43433333Y-66063855D01*
X44080952Y-66863855D02*
X43700000Y-66863855D01*
X43700000Y-66863855D02*
X43700000Y-66063855D01*
X44347619Y-66863855D02*
X44347619Y-66063855D01*
X44728571Y-66863855D02*
X44728571Y-66063855D01*
X44728571Y-66063855D02*
X45033333Y-66063855D01*
X45033333Y-66063855D02*
X45109523Y-66101950D01*
X45109523Y-66101950D02*
X45147618Y-66140045D01*
X45147618Y-66140045D02*
X45185714Y-66216236D01*
X45185714Y-66216236D02*
X45185714Y-66330521D01*
X45185714Y-66330521D02*
X45147618Y-66406712D01*
X45147618Y-66406712D02*
X45109523Y-66444807D01*
X45109523Y-66444807D02*
X45033333Y-66482902D01*
X45033333Y-66482902D02*
X44728571Y-66482902D01*
X45680952Y-66063855D02*
X45833333Y-66063855D01*
X45833333Y-66063855D02*
X45909523Y-66101950D01*
X45909523Y-66101950D02*
X45985714Y-66178140D01*
X45985714Y-66178140D02*
X46023809Y-66330521D01*
X46023809Y-66330521D02*
X46023809Y-66597188D01*
X46023809Y-66597188D02*
X45985714Y-66749569D01*
X45985714Y-66749569D02*
X45909523Y-66825760D01*
X45909523Y-66825760D02*
X45833333Y-66863855D01*
X45833333Y-66863855D02*
X45680952Y-66863855D01*
X45680952Y-66863855D02*
X45604761Y-66825760D01*
X45604761Y-66825760D02*
X45528571Y-66749569D01*
X45528571Y-66749569D02*
X45490475Y-66597188D01*
X45490475Y-66597188D02*
X45490475Y-66330521D01*
X45490475Y-66330521D02*
X45528571Y-66178140D01*
X45528571Y-66178140D02*
X45604761Y-66101950D01*
X45604761Y-66101950D02*
X45680952Y-66063855D01*
X45328571Y-35101950D02*
X45252381Y-35063855D01*
X45252381Y-35063855D02*
X45138095Y-35063855D01*
X45138095Y-35063855D02*
X45023809Y-35101950D01*
X45023809Y-35101950D02*
X44947619Y-35178140D01*
X44947619Y-35178140D02*
X44909524Y-35254331D01*
X44909524Y-35254331D02*
X44871428Y-35406712D01*
X44871428Y-35406712D02*
X44871428Y-35520998D01*
X44871428Y-35520998D02*
X44909524Y-35673379D01*
X44909524Y-35673379D02*
X44947619Y-35749569D01*
X44947619Y-35749569D02*
X45023809Y-35825760D01*
X45023809Y-35825760D02*
X45138095Y-35863855D01*
X45138095Y-35863855D02*
X45214286Y-35863855D01*
X45214286Y-35863855D02*
X45328571Y-35825760D01*
X45328571Y-35825760D02*
X45366667Y-35787664D01*
X45366667Y-35787664D02*
X45366667Y-35520998D01*
X45366667Y-35520998D02*
X45214286Y-35520998D01*
X46090476Y-35063855D02*
X45709524Y-35063855D01*
X45709524Y-35063855D02*
X45671428Y-35444807D01*
X45671428Y-35444807D02*
X45709524Y-35406712D01*
X45709524Y-35406712D02*
X45785714Y-35368617D01*
X45785714Y-35368617D02*
X45976190Y-35368617D01*
X45976190Y-35368617D02*
X46052381Y-35406712D01*
X46052381Y-35406712D02*
X46090476Y-35444807D01*
X46090476Y-35444807D02*
X46128571Y-35520998D01*
X46128571Y-35520998D02*
X46128571Y-35711474D01*
X46128571Y-35711474D02*
X46090476Y-35787664D01*
X46090476Y-35787664D02*
X46052381Y-35825760D01*
X46052381Y-35825760D02*
X45976190Y-35863855D01*
X45976190Y-35863855D02*
X45785714Y-35863855D01*
X45785714Y-35863855D02*
X45709524Y-35825760D01*
X45709524Y-35825760D02*
X45671428Y-35787664D01*
X45328571Y-42721950D02*
X45252381Y-42683855D01*
X45252381Y-42683855D02*
X45138095Y-42683855D01*
X45138095Y-42683855D02*
X45023809Y-42721950D01*
X45023809Y-42721950D02*
X44947619Y-42798140D01*
X44947619Y-42798140D02*
X44909524Y-42874331D01*
X44909524Y-42874331D02*
X44871428Y-43026712D01*
X44871428Y-43026712D02*
X44871428Y-43140998D01*
X44871428Y-43140998D02*
X44909524Y-43293379D01*
X44909524Y-43293379D02*
X44947619Y-43369569D01*
X44947619Y-43369569D02*
X45023809Y-43445760D01*
X45023809Y-43445760D02*
X45138095Y-43483855D01*
X45138095Y-43483855D02*
X45214286Y-43483855D01*
X45214286Y-43483855D02*
X45328571Y-43445760D01*
X45328571Y-43445760D02*
X45366667Y-43407664D01*
X45366667Y-43407664D02*
X45366667Y-43140998D01*
X45366667Y-43140998D02*
X45214286Y-43140998D01*
X45823809Y-43026712D02*
X45747619Y-42988617D01*
X45747619Y-42988617D02*
X45709524Y-42950521D01*
X45709524Y-42950521D02*
X45671428Y-42874331D01*
X45671428Y-42874331D02*
X45671428Y-42836236D01*
X45671428Y-42836236D02*
X45709524Y-42760045D01*
X45709524Y-42760045D02*
X45747619Y-42721950D01*
X45747619Y-42721950D02*
X45823809Y-42683855D01*
X45823809Y-42683855D02*
X45976190Y-42683855D01*
X45976190Y-42683855D02*
X46052381Y-42721950D01*
X46052381Y-42721950D02*
X46090476Y-42760045D01*
X46090476Y-42760045D02*
X46128571Y-42836236D01*
X46128571Y-42836236D02*
X46128571Y-42874331D01*
X46128571Y-42874331D02*
X46090476Y-42950521D01*
X46090476Y-42950521D02*
X46052381Y-42988617D01*
X46052381Y-42988617D02*
X45976190Y-43026712D01*
X45976190Y-43026712D02*
X45823809Y-43026712D01*
X45823809Y-43026712D02*
X45747619Y-43064807D01*
X45747619Y-43064807D02*
X45709524Y-43102902D01*
X45709524Y-43102902D02*
X45671428Y-43179093D01*
X45671428Y-43179093D02*
X45671428Y-43331474D01*
X45671428Y-43331474D02*
X45709524Y-43407664D01*
X45709524Y-43407664D02*
X45747619Y-43445760D01*
X45747619Y-43445760D02*
X45823809Y-43483855D01*
X45823809Y-43483855D02*
X45976190Y-43483855D01*
X45976190Y-43483855D02*
X46052381Y-43445760D01*
X46052381Y-43445760D02*
X46090476Y-43407664D01*
X46090476Y-43407664D02*
X46128571Y-43331474D01*
X46128571Y-43331474D02*
X46128571Y-43179093D01*
X46128571Y-43179093D02*
X46090476Y-43102902D01*
X46090476Y-43102902D02*
X46052381Y-43064807D01*
X46052381Y-43064807D02*
X45976190Y-43026712D01*
X44890475Y-50380045D02*
X44928571Y-50341950D01*
X44928571Y-50341950D02*
X45004761Y-50303855D01*
X45004761Y-50303855D02*
X45195237Y-50303855D01*
X45195237Y-50303855D02*
X45271428Y-50341950D01*
X45271428Y-50341950D02*
X45309523Y-50380045D01*
X45309523Y-50380045D02*
X45347618Y-50456236D01*
X45347618Y-50456236D02*
X45347618Y-50532426D01*
X45347618Y-50532426D02*
X45309523Y-50646712D01*
X45309523Y-50646712D02*
X44852380Y-51103855D01*
X44852380Y-51103855D02*
X45347618Y-51103855D01*
X45842857Y-50303855D02*
X45919047Y-50303855D01*
X45919047Y-50303855D02*
X45995238Y-50341950D01*
X45995238Y-50341950D02*
X46033333Y-50380045D01*
X46033333Y-50380045D02*
X46071428Y-50456236D01*
X46071428Y-50456236D02*
X46109523Y-50608617D01*
X46109523Y-50608617D02*
X46109523Y-50799093D01*
X46109523Y-50799093D02*
X46071428Y-50951474D01*
X46071428Y-50951474D02*
X46033333Y-51027664D01*
X46033333Y-51027664D02*
X45995238Y-51065760D01*
X45995238Y-51065760D02*
X45919047Y-51103855D01*
X45919047Y-51103855D02*
X45842857Y-51103855D01*
X45842857Y-51103855D02*
X45766666Y-51065760D01*
X45766666Y-51065760D02*
X45728571Y-51027664D01*
X45728571Y-51027664D02*
X45690476Y-50951474D01*
X45690476Y-50951474D02*
X45652380Y-50799093D01*
X45652380Y-50799093D02*
X45652380Y-50608617D01*
X45652380Y-50608617D02*
X45690476Y-50456236D01*
X45690476Y-50456236D02*
X45728571Y-50380045D01*
X45728571Y-50380045D02*
X45766666Y-50341950D01*
X45766666Y-50341950D02*
X45842857Y-50303855D01*
X44890475Y-52920045D02*
X44928571Y-52881950D01*
X44928571Y-52881950D02*
X45004761Y-52843855D01*
X45004761Y-52843855D02*
X45195237Y-52843855D01*
X45195237Y-52843855D02*
X45271428Y-52881950D01*
X45271428Y-52881950D02*
X45309523Y-52920045D01*
X45309523Y-52920045D02*
X45347618Y-52996236D01*
X45347618Y-52996236D02*
X45347618Y-53072426D01*
X45347618Y-53072426D02*
X45309523Y-53186712D01*
X45309523Y-53186712D02*
X44852380Y-53643855D01*
X44852380Y-53643855D02*
X45347618Y-53643855D01*
X46109523Y-53643855D02*
X45652380Y-53643855D01*
X45880952Y-53643855D02*
X45880952Y-52843855D01*
X45880952Y-52843855D02*
X45804761Y-52958140D01*
X45804761Y-52958140D02*
X45728571Y-53034331D01*
X45728571Y-53034331D02*
X45652380Y-53072426D01*
X55269923Y-35444807D02*
X55536589Y-35444807D01*
X55650875Y-35863855D02*
X55269923Y-35863855D01*
X55269923Y-35863855D02*
X55269923Y-35063855D01*
X55269923Y-35063855D02*
X55650875Y-35063855D01*
X55955637Y-35825760D02*
X56069923Y-35863855D01*
X56069923Y-35863855D02*
X56260399Y-35863855D01*
X56260399Y-35863855D02*
X56336590Y-35825760D01*
X56336590Y-35825760D02*
X56374685Y-35787664D01*
X56374685Y-35787664D02*
X56412780Y-35711474D01*
X56412780Y-35711474D02*
X56412780Y-35635283D01*
X56412780Y-35635283D02*
X56374685Y-35559093D01*
X56374685Y-35559093D02*
X56336590Y-35520998D01*
X56336590Y-35520998D02*
X56260399Y-35482902D01*
X56260399Y-35482902D02*
X56108018Y-35444807D01*
X56108018Y-35444807D02*
X56031828Y-35406712D01*
X56031828Y-35406712D02*
X55993733Y-35368617D01*
X55993733Y-35368617D02*
X55955637Y-35292426D01*
X55955637Y-35292426D02*
X55955637Y-35216236D01*
X55955637Y-35216236D02*
X55993733Y-35140045D01*
X55993733Y-35140045D02*
X56031828Y-35101950D01*
X56031828Y-35101950D02*
X56108018Y-35063855D01*
X56108018Y-35063855D02*
X56298495Y-35063855D01*
X56298495Y-35063855D02*
X56412780Y-35101950D01*
X56755638Y-35863855D02*
X56755638Y-35063855D01*
X56755638Y-35063855D02*
X57060400Y-35063855D01*
X57060400Y-35063855D02*
X57136590Y-35101950D01*
X57136590Y-35101950D02*
X57174685Y-35140045D01*
X57174685Y-35140045D02*
X57212781Y-35216236D01*
X57212781Y-35216236D02*
X57212781Y-35330521D01*
X57212781Y-35330521D02*
X57174685Y-35406712D01*
X57174685Y-35406712D02*
X57136590Y-35444807D01*
X57136590Y-35444807D02*
X57060400Y-35482902D01*
X57060400Y-35482902D02*
X56755638Y-35482902D01*
X57479447Y-35063855D02*
X57974685Y-35063855D01*
X57974685Y-35063855D02*
X57708019Y-35368617D01*
X57708019Y-35368617D02*
X57822304Y-35368617D01*
X57822304Y-35368617D02*
X57898495Y-35406712D01*
X57898495Y-35406712D02*
X57936590Y-35444807D01*
X57936590Y-35444807D02*
X57974685Y-35520998D01*
X57974685Y-35520998D02*
X57974685Y-35711474D01*
X57974685Y-35711474D02*
X57936590Y-35787664D01*
X57936590Y-35787664D02*
X57898495Y-35825760D01*
X57898495Y-35825760D02*
X57822304Y-35863855D01*
X57822304Y-35863855D02*
X57593733Y-35863855D01*
X57593733Y-35863855D02*
X57517542Y-35825760D01*
X57517542Y-35825760D02*
X57479447Y-35787664D01*
X58279447Y-35140045D02*
X58317543Y-35101950D01*
X58317543Y-35101950D02*
X58393733Y-35063855D01*
X58393733Y-35063855D02*
X58584209Y-35063855D01*
X58584209Y-35063855D02*
X58660400Y-35101950D01*
X58660400Y-35101950D02*
X58698495Y-35140045D01*
X58698495Y-35140045D02*
X58736590Y-35216236D01*
X58736590Y-35216236D02*
X58736590Y-35292426D01*
X58736590Y-35292426D02*
X58698495Y-35406712D01*
X58698495Y-35406712D02*
X58241352Y-35863855D01*
X58241352Y-35863855D02*
X58736590Y-35863855D01*
X59079448Y-35559093D02*
X59688972Y-35559093D01*
X60527067Y-35787664D02*
X60488971Y-35825760D01*
X60488971Y-35825760D02*
X60374686Y-35863855D01*
X60374686Y-35863855D02*
X60298495Y-35863855D01*
X60298495Y-35863855D02*
X60184209Y-35825760D01*
X60184209Y-35825760D02*
X60108019Y-35749569D01*
X60108019Y-35749569D02*
X60069924Y-35673379D01*
X60069924Y-35673379D02*
X60031828Y-35520998D01*
X60031828Y-35520998D02*
X60031828Y-35406712D01*
X60031828Y-35406712D02*
X60069924Y-35254331D01*
X60069924Y-35254331D02*
X60108019Y-35178140D01*
X60108019Y-35178140D02*
X60184209Y-35101950D01*
X60184209Y-35101950D02*
X60298495Y-35063855D01*
X60298495Y-35063855D02*
X60374686Y-35063855D01*
X60374686Y-35063855D02*
X60488971Y-35101950D01*
X60488971Y-35101950D02*
X60527067Y-35140045D01*
X60793733Y-35063855D02*
X61288971Y-35063855D01*
X61288971Y-35063855D02*
X61022305Y-35368617D01*
X61022305Y-35368617D02*
X61136590Y-35368617D01*
X61136590Y-35368617D02*
X61212781Y-35406712D01*
X61212781Y-35406712D02*
X61250876Y-35444807D01*
X61250876Y-35444807D02*
X61288971Y-35520998D01*
X61288971Y-35520998D02*
X61288971Y-35711474D01*
X61288971Y-35711474D02*
X61250876Y-35787664D01*
X61250876Y-35787664D02*
X61212781Y-35825760D01*
X61212781Y-35825760D02*
X61136590Y-35863855D01*
X61136590Y-35863855D02*
X60908019Y-35863855D01*
X60908019Y-35863855D02*
X60831828Y-35825760D01*
X60831828Y-35825760D02*
X60793733Y-35787664D01*
X57391276Y-33903855D02*
X57391276Y-34551474D01*
X57391276Y-34551474D02*
X57429371Y-34627664D01*
X57429371Y-34627664D02*
X57467466Y-34665760D01*
X57467466Y-34665760D02*
X57543657Y-34703855D01*
X57543657Y-34703855D02*
X57696038Y-34703855D01*
X57696038Y-34703855D02*
X57772228Y-34665760D01*
X57772228Y-34665760D02*
X57810323Y-34627664D01*
X57810323Y-34627664D02*
X57848419Y-34551474D01*
X57848419Y-34551474D02*
X57848419Y-33903855D01*
X58191275Y-34665760D02*
X58305561Y-34703855D01*
X58305561Y-34703855D02*
X58496037Y-34703855D01*
X58496037Y-34703855D02*
X58572228Y-34665760D01*
X58572228Y-34665760D02*
X58610323Y-34627664D01*
X58610323Y-34627664D02*
X58648418Y-34551474D01*
X58648418Y-34551474D02*
X58648418Y-34475283D01*
X58648418Y-34475283D02*
X58610323Y-34399093D01*
X58610323Y-34399093D02*
X58572228Y-34360998D01*
X58572228Y-34360998D02*
X58496037Y-34322902D01*
X58496037Y-34322902D02*
X58343656Y-34284807D01*
X58343656Y-34284807D02*
X58267466Y-34246712D01*
X58267466Y-34246712D02*
X58229371Y-34208617D01*
X58229371Y-34208617D02*
X58191275Y-34132426D01*
X58191275Y-34132426D02*
X58191275Y-34056236D01*
X58191275Y-34056236D02*
X58229371Y-33980045D01*
X58229371Y-33980045D02*
X58267466Y-33941950D01*
X58267466Y-33941950D02*
X58343656Y-33903855D01*
X58343656Y-33903855D02*
X58534133Y-33903855D01*
X58534133Y-33903855D02*
X58648418Y-33941950D01*
X59257942Y-34284807D02*
X59372228Y-34322902D01*
X59372228Y-34322902D02*
X59410323Y-34360998D01*
X59410323Y-34360998D02*
X59448419Y-34437188D01*
X59448419Y-34437188D02*
X59448419Y-34551474D01*
X59448419Y-34551474D02*
X59410323Y-34627664D01*
X59410323Y-34627664D02*
X59372228Y-34665760D01*
X59372228Y-34665760D02*
X59296038Y-34703855D01*
X59296038Y-34703855D02*
X58991276Y-34703855D01*
X58991276Y-34703855D02*
X58991276Y-33903855D01*
X58991276Y-33903855D02*
X59257942Y-33903855D01*
X59257942Y-33903855D02*
X59334133Y-33941950D01*
X59334133Y-33941950D02*
X59372228Y-33980045D01*
X59372228Y-33980045D02*
X59410323Y-34056236D01*
X59410323Y-34056236D02*
X59410323Y-34132426D01*
X59410323Y-34132426D02*
X59372228Y-34208617D01*
X59372228Y-34208617D02*
X59334133Y-34246712D01*
X59334133Y-34246712D02*
X59257942Y-34284807D01*
X59257942Y-34284807D02*
X58991276Y-34284807D01*
X69847619Y-35063855D02*
X69466667Y-35063855D01*
X69466667Y-35063855D02*
X69428571Y-35444807D01*
X69428571Y-35444807D02*
X69466667Y-35406712D01*
X69466667Y-35406712D02*
X69542857Y-35368617D01*
X69542857Y-35368617D02*
X69733333Y-35368617D01*
X69733333Y-35368617D02*
X69809524Y-35406712D01*
X69809524Y-35406712D02*
X69847619Y-35444807D01*
X69847619Y-35444807D02*
X69885714Y-35520998D01*
X69885714Y-35520998D02*
X69885714Y-35711474D01*
X69885714Y-35711474D02*
X69847619Y-35787664D01*
X69847619Y-35787664D02*
X69809524Y-35825760D01*
X69809524Y-35825760D02*
X69733333Y-35863855D01*
X69733333Y-35863855D02*
X69542857Y-35863855D01*
X69542857Y-35863855D02*
X69466667Y-35825760D01*
X69466667Y-35825760D02*
X69428571Y-35787664D01*
X70114286Y-35063855D02*
X70380953Y-35863855D01*
X70380953Y-35863855D02*
X70647619Y-35063855D01*
X69828571Y-42721950D02*
X69752381Y-42683855D01*
X69752381Y-42683855D02*
X69638095Y-42683855D01*
X69638095Y-42683855D02*
X69523809Y-42721950D01*
X69523809Y-42721950D02*
X69447619Y-42798140D01*
X69447619Y-42798140D02*
X69409524Y-42874331D01*
X69409524Y-42874331D02*
X69371428Y-43026712D01*
X69371428Y-43026712D02*
X69371428Y-43140998D01*
X69371428Y-43140998D02*
X69409524Y-43293379D01*
X69409524Y-43293379D02*
X69447619Y-43369569D01*
X69447619Y-43369569D02*
X69523809Y-43445760D01*
X69523809Y-43445760D02*
X69638095Y-43483855D01*
X69638095Y-43483855D02*
X69714286Y-43483855D01*
X69714286Y-43483855D02*
X69828571Y-43445760D01*
X69828571Y-43445760D02*
X69866667Y-43407664D01*
X69866667Y-43407664D02*
X69866667Y-43140998D01*
X69866667Y-43140998D02*
X69714286Y-43140998D01*
X70552381Y-42950521D02*
X70552381Y-43483855D01*
X70361905Y-42645760D02*
X70171428Y-43217188D01*
X70171428Y-43217188D02*
X70666667Y-43217188D01*
X69828571Y-45261950D02*
X69752381Y-45223855D01*
X69752381Y-45223855D02*
X69638095Y-45223855D01*
X69638095Y-45223855D02*
X69523809Y-45261950D01*
X69523809Y-45261950D02*
X69447619Y-45338140D01*
X69447619Y-45338140D02*
X69409524Y-45414331D01*
X69409524Y-45414331D02*
X69371428Y-45566712D01*
X69371428Y-45566712D02*
X69371428Y-45680998D01*
X69371428Y-45680998D02*
X69409524Y-45833379D01*
X69409524Y-45833379D02*
X69447619Y-45909569D01*
X69447619Y-45909569D02*
X69523809Y-45985760D01*
X69523809Y-45985760D02*
X69638095Y-46023855D01*
X69638095Y-46023855D02*
X69714286Y-46023855D01*
X69714286Y-46023855D02*
X69828571Y-45985760D01*
X69828571Y-45985760D02*
X69866667Y-45947664D01*
X69866667Y-45947664D02*
X69866667Y-45680998D01*
X69866667Y-45680998D02*
X69714286Y-45680998D01*
X70133333Y-45223855D02*
X70628571Y-45223855D01*
X70628571Y-45223855D02*
X70361905Y-45528617D01*
X70361905Y-45528617D02*
X70476190Y-45528617D01*
X70476190Y-45528617D02*
X70552381Y-45566712D01*
X70552381Y-45566712D02*
X70590476Y-45604807D01*
X70590476Y-45604807D02*
X70628571Y-45680998D01*
X70628571Y-45680998D02*
X70628571Y-45871474D01*
X70628571Y-45871474D02*
X70590476Y-45947664D01*
X70590476Y-45947664D02*
X70552381Y-45985760D01*
X70552381Y-45985760D02*
X70476190Y-46023855D01*
X70476190Y-46023855D02*
X70247619Y-46023855D01*
X70247619Y-46023855D02*
X70171428Y-45985760D01*
X70171428Y-45985760D02*
X70133333Y-45947664D01*
X69828571Y-47801950D02*
X69752381Y-47763855D01*
X69752381Y-47763855D02*
X69638095Y-47763855D01*
X69638095Y-47763855D02*
X69523809Y-47801950D01*
X69523809Y-47801950D02*
X69447619Y-47878140D01*
X69447619Y-47878140D02*
X69409524Y-47954331D01*
X69409524Y-47954331D02*
X69371428Y-48106712D01*
X69371428Y-48106712D02*
X69371428Y-48220998D01*
X69371428Y-48220998D02*
X69409524Y-48373379D01*
X69409524Y-48373379D02*
X69447619Y-48449569D01*
X69447619Y-48449569D02*
X69523809Y-48525760D01*
X69523809Y-48525760D02*
X69638095Y-48563855D01*
X69638095Y-48563855D02*
X69714286Y-48563855D01*
X69714286Y-48563855D02*
X69828571Y-48525760D01*
X69828571Y-48525760D02*
X69866667Y-48487664D01*
X69866667Y-48487664D02*
X69866667Y-48220998D01*
X69866667Y-48220998D02*
X69714286Y-48220998D01*
X70171428Y-47840045D02*
X70209524Y-47801950D01*
X70209524Y-47801950D02*
X70285714Y-47763855D01*
X70285714Y-47763855D02*
X70476190Y-47763855D01*
X70476190Y-47763855D02*
X70552381Y-47801950D01*
X70552381Y-47801950D02*
X70590476Y-47840045D01*
X70590476Y-47840045D02*
X70628571Y-47916236D01*
X70628571Y-47916236D02*
X70628571Y-47992426D01*
X70628571Y-47992426D02*
X70590476Y-48106712D01*
X70590476Y-48106712D02*
X70133333Y-48563855D01*
X70133333Y-48563855D02*
X70628571Y-48563855D01*
X69828571Y-50341950D02*
X69752381Y-50303855D01*
X69752381Y-50303855D02*
X69638095Y-50303855D01*
X69638095Y-50303855D02*
X69523809Y-50341950D01*
X69523809Y-50341950D02*
X69447619Y-50418140D01*
X69447619Y-50418140D02*
X69409524Y-50494331D01*
X69409524Y-50494331D02*
X69371428Y-50646712D01*
X69371428Y-50646712D02*
X69371428Y-50760998D01*
X69371428Y-50760998D02*
X69409524Y-50913379D01*
X69409524Y-50913379D02*
X69447619Y-50989569D01*
X69447619Y-50989569D02*
X69523809Y-51065760D01*
X69523809Y-51065760D02*
X69638095Y-51103855D01*
X69638095Y-51103855D02*
X69714286Y-51103855D01*
X69714286Y-51103855D02*
X69828571Y-51065760D01*
X69828571Y-51065760D02*
X69866667Y-51027664D01*
X69866667Y-51027664D02*
X69866667Y-50760998D01*
X69866667Y-50760998D02*
X69714286Y-50760998D01*
X70628571Y-51103855D02*
X70171428Y-51103855D01*
X70400000Y-51103855D02*
X70400000Y-50303855D01*
X70400000Y-50303855D02*
X70323809Y-50418140D01*
X70323809Y-50418140D02*
X70247619Y-50494331D01*
X70247619Y-50494331D02*
X70171428Y-50532426D01*
X69828571Y-52881950D02*
X69752381Y-52843855D01*
X69752381Y-52843855D02*
X69638095Y-52843855D01*
X69638095Y-52843855D02*
X69523809Y-52881950D01*
X69523809Y-52881950D02*
X69447619Y-52958140D01*
X69447619Y-52958140D02*
X69409524Y-53034331D01*
X69409524Y-53034331D02*
X69371428Y-53186712D01*
X69371428Y-53186712D02*
X69371428Y-53300998D01*
X69371428Y-53300998D02*
X69409524Y-53453379D01*
X69409524Y-53453379D02*
X69447619Y-53529569D01*
X69447619Y-53529569D02*
X69523809Y-53605760D01*
X69523809Y-53605760D02*
X69638095Y-53643855D01*
X69638095Y-53643855D02*
X69714286Y-53643855D01*
X69714286Y-53643855D02*
X69828571Y-53605760D01*
X69828571Y-53605760D02*
X69866667Y-53567664D01*
X69866667Y-53567664D02*
X69866667Y-53300998D01*
X69866667Y-53300998D02*
X69714286Y-53300998D01*
X70361905Y-52843855D02*
X70438095Y-52843855D01*
X70438095Y-52843855D02*
X70514286Y-52881950D01*
X70514286Y-52881950D02*
X70552381Y-52920045D01*
X70552381Y-52920045D02*
X70590476Y-52996236D01*
X70590476Y-52996236D02*
X70628571Y-53148617D01*
X70628571Y-53148617D02*
X70628571Y-53339093D01*
X70628571Y-53339093D02*
X70590476Y-53491474D01*
X70590476Y-53491474D02*
X70552381Y-53567664D01*
X70552381Y-53567664D02*
X70514286Y-53605760D01*
X70514286Y-53605760D02*
X70438095Y-53643855D01*
X70438095Y-53643855D02*
X70361905Y-53643855D01*
X70361905Y-53643855D02*
X70285714Y-53605760D01*
X70285714Y-53605760D02*
X70247619Y-53567664D01*
X70247619Y-53567664D02*
X70209524Y-53491474D01*
X70209524Y-53491474D02*
X70171428Y-53339093D01*
X70171428Y-53339093D02*
X70171428Y-53148617D01*
X70171428Y-53148617D02*
X70209524Y-52996236D01*
X70209524Y-52996236D02*
X70247619Y-52920045D01*
X70247619Y-52920045D02*
X70285714Y-52881950D01*
X70285714Y-52881950D02*
X70361905Y-52843855D01*
X69810476Y-37641950D02*
X69734286Y-37603855D01*
X69734286Y-37603855D02*
X69620000Y-37603855D01*
X69620000Y-37603855D02*
X69505714Y-37641950D01*
X69505714Y-37641950D02*
X69429524Y-37718140D01*
X69429524Y-37718140D02*
X69391429Y-37794331D01*
X69391429Y-37794331D02*
X69353333Y-37946712D01*
X69353333Y-37946712D02*
X69353333Y-38060998D01*
X69353333Y-38060998D02*
X69391429Y-38213379D01*
X69391429Y-38213379D02*
X69429524Y-38289569D01*
X69429524Y-38289569D02*
X69505714Y-38365760D01*
X69505714Y-38365760D02*
X69620000Y-38403855D01*
X69620000Y-38403855D02*
X69696191Y-38403855D01*
X69696191Y-38403855D02*
X69810476Y-38365760D01*
X69810476Y-38365760D02*
X69848572Y-38327664D01*
X69848572Y-38327664D02*
X69848572Y-38060998D01*
X69848572Y-38060998D02*
X69696191Y-38060998D01*
X70191429Y-38403855D02*
X70191429Y-37603855D01*
X70191429Y-37603855D02*
X70648572Y-38403855D01*
X70648572Y-38403855D02*
X70648572Y-37603855D01*
X71029524Y-38403855D02*
X71029524Y-37603855D01*
X71029524Y-37603855D02*
X71220000Y-37603855D01*
X71220000Y-37603855D02*
X71334286Y-37641950D01*
X71334286Y-37641950D02*
X71410476Y-37718140D01*
X71410476Y-37718140D02*
X71448571Y-37794331D01*
X71448571Y-37794331D02*
X71486667Y-37946712D01*
X71486667Y-37946712D02*
X71486667Y-38060998D01*
X71486667Y-38060998D02*
X71448571Y-38213379D01*
X71448571Y-38213379D02*
X71410476Y-38289569D01*
X71410476Y-38289569D02*
X71334286Y-38365760D01*
X71334286Y-38365760D02*
X71220000Y-38403855D01*
X71220000Y-38403855D02*
X71029524Y-38403855D01*
X69429523Y-40143855D02*
X69924761Y-40143855D01*
X69924761Y-40143855D02*
X69658095Y-40448617D01*
X69658095Y-40448617D02*
X69772380Y-40448617D01*
X69772380Y-40448617D02*
X69848571Y-40486712D01*
X69848571Y-40486712D02*
X69886666Y-40524807D01*
X69886666Y-40524807D02*
X69924761Y-40600998D01*
X69924761Y-40600998D02*
X69924761Y-40791474D01*
X69924761Y-40791474D02*
X69886666Y-40867664D01*
X69886666Y-40867664D02*
X69848571Y-40905760D01*
X69848571Y-40905760D02*
X69772380Y-40943855D01*
X69772380Y-40943855D02*
X69543809Y-40943855D01*
X69543809Y-40943855D02*
X69467618Y-40905760D01*
X69467618Y-40905760D02*
X69429523Y-40867664D01*
X70153333Y-40143855D02*
X70420000Y-40943855D01*
X70420000Y-40943855D02*
X70686666Y-40143855D01*
X70877142Y-40143855D02*
X71372380Y-40143855D01*
X71372380Y-40143855D02*
X71105714Y-40448617D01*
X71105714Y-40448617D02*
X71219999Y-40448617D01*
X71219999Y-40448617D02*
X71296190Y-40486712D01*
X71296190Y-40486712D02*
X71334285Y-40524807D01*
X71334285Y-40524807D02*
X71372380Y-40600998D01*
X71372380Y-40600998D02*
X71372380Y-40791474D01*
X71372380Y-40791474D02*
X71334285Y-40867664D01*
X71334285Y-40867664D02*
X71296190Y-40905760D01*
X71296190Y-40905760D02*
X71219999Y-40943855D01*
X71219999Y-40943855D02*
X70991428Y-40943855D01*
X70991428Y-40943855D02*
X70915237Y-40905760D01*
X70915237Y-40905760D02*
X70877142Y-40867664D01*
X78480953Y-42563855D02*
X78633334Y-42563855D01*
X78633334Y-42563855D02*
X78709524Y-42601950D01*
X78709524Y-42601950D02*
X78785715Y-42678140D01*
X78785715Y-42678140D02*
X78823810Y-42830521D01*
X78823810Y-42830521D02*
X78823810Y-43097188D01*
X78823810Y-43097188D02*
X78785715Y-43249569D01*
X78785715Y-43249569D02*
X78709524Y-43325760D01*
X78709524Y-43325760D02*
X78633334Y-43363855D01*
X78633334Y-43363855D02*
X78480953Y-43363855D01*
X78480953Y-43363855D02*
X78404762Y-43325760D01*
X78404762Y-43325760D02*
X78328572Y-43249569D01*
X78328572Y-43249569D02*
X78290476Y-43097188D01*
X78290476Y-43097188D02*
X78290476Y-42830521D01*
X78290476Y-42830521D02*
X78328572Y-42678140D01*
X78328572Y-42678140D02*
X78404762Y-42601950D01*
X78404762Y-42601950D02*
X78480953Y-42563855D01*
X79166667Y-43363855D02*
X79166667Y-42563855D01*
X79166667Y-42563855D02*
X79623810Y-43363855D01*
X79623810Y-43363855D02*
X79623810Y-42563855D01*
X80576190Y-42525760D02*
X79890476Y-43554331D01*
X80995238Y-42563855D02*
X81147619Y-42563855D01*
X81147619Y-42563855D02*
X81223809Y-42601950D01*
X81223809Y-42601950D02*
X81300000Y-42678140D01*
X81300000Y-42678140D02*
X81338095Y-42830521D01*
X81338095Y-42830521D02*
X81338095Y-43097188D01*
X81338095Y-43097188D02*
X81300000Y-43249569D01*
X81300000Y-43249569D02*
X81223809Y-43325760D01*
X81223809Y-43325760D02*
X81147619Y-43363855D01*
X81147619Y-43363855D02*
X80995238Y-43363855D01*
X80995238Y-43363855D02*
X80919047Y-43325760D01*
X80919047Y-43325760D02*
X80842857Y-43249569D01*
X80842857Y-43249569D02*
X80804761Y-43097188D01*
X80804761Y-43097188D02*
X80804761Y-42830521D01*
X80804761Y-42830521D02*
X80842857Y-42678140D01*
X80842857Y-42678140D02*
X80919047Y-42601950D01*
X80919047Y-42601950D02*
X80995238Y-42563855D01*
X81947618Y-42944807D02*
X81680952Y-42944807D01*
X81680952Y-43363855D02*
X81680952Y-42563855D01*
X81680952Y-42563855D02*
X82061904Y-42563855D01*
X82633332Y-42944807D02*
X82366666Y-42944807D01*
X82366666Y-43363855D02*
X82366666Y-42563855D01*
X82366666Y-42563855D02*
X82747618Y-42563855D01*
X38864716Y-66447618D02*
X38864716Y-66828571D01*
X38636144Y-66371428D02*
X39436144Y-66638095D01*
X39436144Y-66638095D02*
X38636144Y-66904761D01*
X39436144Y-67171428D02*
X38788525Y-67171428D01*
X38788525Y-67171428D02*
X38712335Y-67209523D01*
X38712335Y-67209523D02*
X38674240Y-67247618D01*
X38674240Y-67247618D02*
X38636144Y-67323809D01*
X38636144Y-67323809D02*
X38636144Y-67476190D01*
X38636144Y-67476190D02*
X38674240Y-67552380D01*
X38674240Y-67552380D02*
X38712335Y-67590475D01*
X38712335Y-67590475D02*
X38788525Y-67628571D01*
X38788525Y-67628571D02*
X39436144Y-67628571D01*
X39436144Y-67933332D02*
X38636144Y-68466666D01*
X39436144Y-68466666D02*
X38636144Y-67933332D01*
X38636144Y-69380952D02*
X39436144Y-69380952D01*
X39436144Y-69380952D02*
X39436144Y-69685714D01*
X39436144Y-69685714D02*
X39398049Y-69761904D01*
X39398049Y-69761904D02*
X39359954Y-69799999D01*
X39359954Y-69799999D02*
X39283763Y-69838095D01*
X39283763Y-69838095D02*
X39169478Y-69838095D01*
X39169478Y-69838095D02*
X39093287Y-69799999D01*
X39093287Y-69799999D02*
X39055192Y-69761904D01*
X39055192Y-69761904D02*
X39017097Y-69685714D01*
X39017097Y-69685714D02*
X39017097Y-69380952D01*
X39436144Y-70104761D02*
X38636144Y-70295237D01*
X38636144Y-70295237D02*
X39207573Y-70447618D01*
X39207573Y-70447618D02*
X38636144Y-70599999D01*
X38636144Y-70599999D02*
X39436144Y-70790476D01*
X38636144Y-71552381D02*
X39017097Y-71285714D01*
X38636144Y-71095238D02*
X39436144Y-71095238D01*
X39436144Y-71095238D02*
X39436144Y-71400000D01*
X39436144Y-71400000D02*
X39398049Y-71476190D01*
X39398049Y-71476190D02*
X39359954Y-71514285D01*
X39359954Y-71514285D02*
X39283763Y-71552381D01*
X39283763Y-71552381D02*
X39169478Y-71552381D01*
X39169478Y-71552381D02*
X39093287Y-71514285D01*
X39093287Y-71514285D02*
X39055192Y-71476190D01*
X39055192Y-71476190D02*
X39017097Y-71400000D01*
X39017097Y-71400000D02*
X39017097Y-71095238D01*
D12*
X52238095Y-79457419D02*
X51904762Y-78981228D01*
X51666667Y-79457419D02*
X51666667Y-78457419D01*
X51666667Y-78457419D02*
X52047619Y-78457419D01*
X52047619Y-78457419D02*
X52142857Y-78505038D01*
X52142857Y-78505038D02*
X52190476Y-78552657D01*
X52190476Y-78552657D02*
X52238095Y-78647895D01*
X52238095Y-78647895D02*
X52238095Y-78790752D01*
X52238095Y-78790752D02*
X52190476Y-78885990D01*
X52190476Y-78885990D02*
X52142857Y-78933609D01*
X52142857Y-78933609D02*
X52047619Y-78981228D01*
X52047619Y-78981228D02*
X51666667Y-78981228D01*
X52857143Y-78457419D02*
X53047619Y-78457419D01*
X53047619Y-78457419D02*
X53142857Y-78505038D01*
X53142857Y-78505038D02*
X53238095Y-78600276D01*
X53238095Y-78600276D02*
X53285714Y-78790752D01*
X53285714Y-78790752D02*
X53285714Y-79124085D01*
X53285714Y-79124085D02*
X53238095Y-79314561D01*
X53238095Y-79314561D02*
X53142857Y-79409800D01*
X53142857Y-79409800D02*
X53047619Y-79457419D01*
X53047619Y-79457419D02*
X52857143Y-79457419D01*
X52857143Y-79457419D02*
X52761905Y-79409800D01*
X52761905Y-79409800D02*
X52666667Y-79314561D01*
X52666667Y-79314561D02*
X52619048Y-79124085D01*
X52619048Y-79124085D02*
X52619048Y-78790752D01*
X52619048Y-78790752D02*
X52666667Y-78600276D01*
X52666667Y-78600276D02*
X52761905Y-78505038D01*
X52761905Y-78505038D02*
X52857143Y-78457419D01*
X54047619Y-78933609D02*
X54190476Y-78981228D01*
X54190476Y-78981228D02*
X54238095Y-79028847D01*
X54238095Y-79028847D02*
X54285714Y-79124085D01*
X54285714Y-79124085D02*
X54285714Y-79266942D01*
X54285714Y-79266942D02*
X54238095Y-79362180D01*
X54238095Y-79362180D02*
X54190476Y-79409800D01*
X54190476Y-79409800D02*
X54095238Y-79457419D01*
X54095238Y-79457419D02*
X53714286Y-79457419D01*
X53714286Y-79457419D02*
X53714286Y-78457419D01*
X53714286Y-78457419D02*
X54047619Y-78457419D01*
X54047619Y-78457419D02*
X54142857Y-78505038D01*
X54142857Y-78505038D02*
X54190476Y-78552657D01*
X54190476Y-78552657D02*
X54238095Y-78647895D01*
X54238095Y-78647895D02*
X54238095Y-78743133D01*
X54238095Y-78743133D02*
X54190476Y-78838371D01*
X54190476Y-78838371D02*
X54142857Y-78885990D01*
X54142857Y-78885990D02*
X54047619Y-78933609D01*
X54047619Y-78933609D02*
X53714286Y-78933609D01*
X54904762Y-78457419D02*
X55095238Y-78457419D01*
X55095238Y-78457419D02*
X55190476Y-78505038D01*
X55190476Y-78505038D02*
X55285714Y-78600276D01*
X55285714Y-78600276D02*
X55333333Y-78790752D01*
X55333333Y-78790752D02*
X55333333Y-79124085D01*
X55333333Y-79124085D02*
X55285714Y-79314561D01*
X55285714Y-79314561D02*
X55190476Y-79409800D01*
X55190476Y-79409800D02*
X55095238Y-79457419D01*
X55095238Y-79457419D02*
X54904762Y-79457419D01*
X54904762Y-79457419D02*
X54809524Y-79409800D01*
X54809524Y-79409800D02*
X54714286Y-79314561D01*
X54714286Y-79314561D02*
X54666667Y-79124085D01*
X54666667Y-79124085D02*
X54666667Y-78790752D01*
X54666667Y-78790752D02*
X54714286Y-78600276D01*
X54714286Y-78600276D02*
X54809524Y-78505038D01*
X54809524Y-78505038D02*
X54904762Y-78457419D01*
X55761905Y-79457419D02*
X55761905Y-78457419D01*
X56333333Y-79457419D02*
X55904762Y-78885990D01*
X56333333Y-78457419D02*
X55761905Y-79028847D01*
X56619048Y-78457419D02*
X57190476Y-78457419D01*
X56904762Y-79457419D02*
X56904762Y-78457419D01*
X57714286Y-78457419D02*
X57904762Y-78457419D01*
X57904762Y-78457419D02*
X58000000Y-78505038D01*
X58000000Y-78505038D02*
X58095238Y-78600276D01*
X58095238Y-78600276D02*
X58142857Y-78790752D01*
X58142857Y-78790752D02*
X58142857Y-79124085D01*
X58142857Y-79124085D02*
X58095238Y-79314561D01*
X58095238Y-79314561D02*
X58000000Y-79409800D01*
X58000000Y-79409800D02*
X57904762Y-79457419D01*
X57904762Y-79457419D02*
X57714286Y-79457419D01*
X57714286Y-79457419D02*
X57619048Y-79409800D01*
X57619048Y-79409800D02*
X57523810Y-79314561D01*
X57523810Y-79314561D02*
X57476191Y-79124085D01*
X57476191Y-79124085D02*
X57476191Y-78790752D01*
X57476191Y-78790752D02*
X57523810Y-78600276D01*
X57523810Y-78600276D02*
X57619048Y-78505038D01*
X57619048Y-78505038D02*
X57714286Y-78457419D01*
X58904762Y-78933609D02*
X59047619Y-78981228D01*
X59047619Y-78981228D02*
X59095238Y-79028847D01*
X59095238Y-79028847D02*
X59142857Y-79124085D01*
X59142857Y-79124085D02*
X59142857Y-79266942D01*
X59142857Y-79266942D02*
X59095238Y-79362180D01*
X59095238Y-79362180D02*
X59047619Y-79409800D01*
X59047619Y-79409800D02*
X58952381Y-79457419D01*
X58952381Y-79457419D02*
X58571429Y-79457419D01*
X58571429Y-79457419D02*
X58571429Y-78457419D01*
X58571429Y-78457419D02*
X58904762Y-78457419D01*
X58904762Y-78457419D02*
X59000000Y-78505038D01*
X59000000Y-78505038D02*
X59047619Y-78552657D01*
X59047619Y-78552657D02*
X59095238Y-78647895D01*
X59095238Y-78647895D02*
X59095238Y-78743133D01*
X59095238Y-78743133D02*
X59047619Y-78838371D01*
X59047619Y-78838371D02*
X59000000Y-78885990D01*
X59000000Y-78885990D02*
X58904762Y-78933609D01*
X58904762Y-78933609D02*
X58571429Y-78933609D01*
X59571429Y-78933609D02*
X59904762Y-78933609D01*
X60047619Y-79457419D02*
X59571429Y-79457419D01*
X59571429Y-79457419D02*
X59571429Y-78457419D01*
X59571429Y-78457419D02*
X60047619Y-78457419D01*
X61047619Y-79457419D02*
X60714286Y-78981228D01*
X60476191Y-79457419D02*
X60476191Y-78457419D01*
X60476191Y-78457419D02*
X60857143Y-78457419D01*
X60857143Y-78457419D02*
X60952381Y-78505038D01*
X60952381Y-78505038D02*
X61000000Y-78552657D01*
X61000000Y-78552657D02*
X61047619Y-78647895D01*
X61047619Y-78647895D02*
X61047619Y-78790752D01*
X61047619Y-78790752D02*
X61000000Y-78885990D01*
X61000000Y-78885990D02*
X60952381Y-78933609D01*
X60952381Y-78933609D02*
X60857143Y-78981228D01*
X60857143Y-78981228D02*
X60476191Y-78981228D01*
X61476191Y-79362180D02*
X61523810Y-79409800D01*
X61523810Y-79409800D02*
X61476191Y-79457419D01*
X61476191Y-79457419D02*
X61428572Y-79409800D01*
X61428572Y-79409800D02*
X61476191Y-79362180D01*
X61476191Y-79362180D02*
X61476191Y-79457419D01*
X61952381Y-79457419D02*
X61952381Y-78457419D01*
X61952381Y-78457419D02*
X62523809Y-79457419D01*
X62523809Y-79457419D02*
X62523809Y-78457419D01*
X63476190Y-79457419D02*
X63000000Y-79457419D01*
X63000000Y-79457419D02*
X63000000Y-78457419D01*
D13*
X48402568Y-81364619D02*
X48402568Y-80364619D01*
X48402568Y-80840809D02*
X48973996Y-80840809D01*
X48973996Y-81364619D02*
X48973996Y-80364619D01*
X49402568Y-81317000D02*
X49545425Y-81364619D01*
X49545425Y-81364619D02*
X49783520Y-81364619D01*
X49783520Y-81364619D02*
X49878758Y-81317000D01*
X49878758Y-81317000D02*
X49926377Y-81269380D01*
X49926377Y-81269380D02*
X49973996Y-81174142D01*
X49973996Y-81174142D02*
X49973996Y-81078904D01*
X49973996Y-81078904D02*
X49926377Y-80983666D01*
X49926377Y-80983666D02*
X49878758Y-80936047D01*
X49878758Y-80936047D02*
X49783520Y-80888428D01*
X49783520Y-80888428D02*
X49593044Y-80840809D01*
X49593044Y-80840809D02*
X49497806Y-80793190D01*
X49497806Y-80793190D02*
X49450187Y-80745571D01*
X49450187Y-80745571D02*
X49402568Y-80650333D01*
X49402568Y-80650333D02*
X49402568Y-80555095D01*
X49402568Y-80555095D02*
X49450187Y-80459857D01*
X49450187Y-80459857D02*
X49497806Y-80412238D01*
X49497806Y-80412238D02*
X49593044Y-80364619D01*
X49593044Y-80364619D02*
X49831139Y-80364619D01*
X49831139Y-80364619D02*
X49973996Y-80412238D01*
X50402568Y-81364619D02*
X50402568Y-80364619D01*
X50402568Y-80364619D02*
X50640663Y-80364619D01*
X50640663Y-80364619D02*
X50783520Y-80412238D01*
X50783520Y-80412238D02*
X50878758Y-80507476D01*
X50878758Y-80507476D02*
X50926377Y-80602714D01*
X50926377Y-80602714D02*
X50973996Y-80793190D01*
X50973996Y-80793190D02*
X50973996Y-80936047D01*
X50973996Y-80936047D02*
X50926377Y-81126523D01*
X50926377Y-81126523D02*
X50878758Y-81221761D01*
X50878758Y-81221761D02*
X50783520Y-81317000D01*
X50783520Y-81317000D02*
X50640663Y-81364619D01*
X50640663Y-81364619D02*
X50402568Y-81364619D01*
X51402568Y-80983666D02*
X52164473Y-80983666D01*
X52593044Y-81078904D02*
X53069234Y-81078904D01*
X52497806Y-81364619D02*
X52831139Y-80364619D01*
X52831139Y-80364619D02*
X53164472Y-81364619D01*
X53497806Y-81364619D02*
X53497806Y-80364619D01*
X53497806Y-80364619D02*
X54069234Y-81364619D01*
X54069234Y-81364619D02*
X54069234Y-80364619D01*
X54402568Y-80364619D02*
X54973996Y-80364619D01*
X54688282Y-81364619D02*
X54688282Y-80364619D01*
X55212092Y-80364619D02*
X55450187Y-81364619D01*
X55450187Y-81364619D02*
X55640663Y-80650333D01*
X55640663Y-80650333D02*
X55831139Y-81364619D01*
X55831139Y-81364619D02*
X56069235Y-80364619D01*
X56450187Y-80840809D02*
X56783520Y-80840809D01*
X56926377Y-81364619D02*
X56450187Y-81364619D01*
X56450187Y-81364619D02*
X56450187Y-80364619D01*
X56450187Y-80364619D02*
X56926377Y-80364619D01*
X57354949Y-81364619D02*
X57354949Y-80364619D01*
X58354948Y-80412238D02*
X58259710Y-80364619D01*
X58259710Y-80364619D02*
X58116853Y-80364619D01*
X58116853Y-80364619D02*
X57973996Y-80412238D01*
X57973996Y-80412238D02*
X57878758Y-80507476D01*
X57878758Y-80507476D02*
X57831139Y-80602714D01*
X57831139Y-80602714D02*
X57783520Y-80793190D01*
X57783520Y-80793190D02*
X57783520Y-80936047D01*
X57783520Y-80936047D02*
X57831139Y-81126523D01*
X57831139Y-81126523D02*
X57878758Y-81221761D01*
X57878758Y-81221761D02*
X57973996Y-81317000D01*
X57973996Y-81317000D02*
X58116853Y-81364619D01*
X58116853Y-81364619D02*
X58212091Y-81364619D01*
X58212091Y-81364619D02*
X58354948Y-81317000D01*
X58354948Y-81317000D02*
X58402567Y-81269380D01*
X58402567Y-81269380D02*
X58402567Y-80936047D01*
X58402567Y-80936047D02*
X58212091Y-80936047D01*
X58831139Y-81364619D02*
X58831139Y-80364619D01*
X58831139Y-80840809D02*
X59402567Y-80840809D01*
X59402567Y-81364619D02*
X59402567Y-80364619D01*
X59735901Y-80364619D02*
X60307329Y-80364619D01*
X60021615Y-81364619D02*
X60021615Y-80364619D01*
X60640663Y-80983666D02*
X61402568Y-80983666D01*
X61831139Y-80459857D02*
X61878758Y-80412238D01*
X61878758Y-80412238D02*
X61973996Y-80364619D01*
X61973996Y-80364619D02*
X62212091Y-80364619D01*
X62212091Y-80364619D02*
X62307329Y-80412238D01*
X62307329Y-80412238D02*
X62354948Y-80459857D01*
X62354948Y-80459857D02*
X62402567Y-80555095D01*
X62402567Y-80555095D02*
X62402567Y-80650333D01*
X62402567Y-80650333D02*
X62354948Y-80793190D01*
X62354948Y-80793190D02*
X61783520Y-81364619D01*
X61783520Y-81364619D02*
X62402567Y-81364619D01*
X62783520Y-81317000D02*
X62926377Y-81364619D01*
X62926377Y-81364619D02*
X63164472Y-81364619D01*
X63164472Y-81364619D02*
X63259710Y-81317000D01*
X63259710Y-81317000D02*
X63307329Y-81269380D01*
X63307329Y-81269380D02*
X63354948Y-81174142D01*
X63354948Y-81174142D02*
X63354948Y-81078904D01*
X63354948Y-81078904D02*
X63307329Y-80983666D01*
X63307329Y-80983666D02*
X63259710Y-80936047D01*
X63259710Y-80936047D02*
X63164472Y-80888428D01*
X63164472Y-80888428D02*
X62973996Y-80840809D01*
X62973996Y-80840809D02*
X62878758Y-80793190D01*
X62878758Y-80793190D02*
X62831139Y-80745571D01*
X62831139Y-80745571D02*
X62783520Y-80650333D01*
X62783520Y-80650333D02*
X62783520Y-80555095D01*
X62783520Y-80555095D02*
X62831139Y-80459857D01*
X62831139Y-80459857D02*
X62878758Y-80412238D01*
X62878758Y-80412238D02*
X62973996Y-80364619D01*
X62973996Y-80364619D02*
X63212091Y-80364619D01*
X63212091Y-80364619D02*
X63354948Y-80412238D01*
X63783520Y-80983666D02*
X64545425Y-80983666D01*
X64926377Y-80697952D02*
X65164472Y-81364619D01*
X65164472Y-81364619D02*
X65402567Y-80697952D01*
X65688282Y-80364619D02*
X66307329Y-80364619D01*
X66307329Y-80364619D02*
X65973996Y-80745571D01*
X65973996Y-80745571D02*
X66116853Y-80745571D01*
X66116853Y-80745571D02*
X66212091Y-80793190D01*
X66212091Y-80793190D02*
X66259710Y-80840809D01*
X66259710Y-80840809D02*
X66307329Y-80936047D01*
X66307329Y-80936047D02*
X66307329Y-81174142D01*
X66307329Y-81174142D02*
X66259710Y-81269380D01*
X66259710Y-81269380D02*
X66212091Y-81317000D01*
X66212091Y-81317000D02*
X66116853Y-81364619D01*
X66116853Y-81364619D02*
X65831139Y-81364619D01*
X65831139Y-81364619D02*
X65735901Y-81317000D01*
X65735901Y-81317000D02*
X65688282Y-81269380D01*
M02*
