%TF.GenerationSoftware,KiCad,Pcbnew,9.0.8+dfsg-1*%
%TF.CreationDate,2026-08-27T11:03:26+02:00*%
%TF.ProjectId,hsd-antweight-2s-v4,6873642d-616e-4747-9765-696768742d32,rev?*%
%TF.SameCoordinates,Original*%
%TF.FileFunction,Copper,L1,Top*%
%TF.FilePolarity,Positive*%
%FSLAX46Y46*%
G04 Gerber Fmt 4.6, Leading zero omitted, Abs format (unit mm)*
G04 Created by KiCad (PCBNEW 9.0.8+dfsg-1) date 2026-08-27 11:03:26*
%MOMM*%
%LPD*%
G01*
G04 APERTURE LIST*
%TA.AperFunction,NonConductor*%
%ADD10C,0.070722*%
%TD*%
%ADD11C,0.100000*%
%TA.AperFunction,NonConductor*%
%ADD12C,0.100000*%
%TD*%
%ADD13C,0.200000*%
%TA.AperFunction,NonConductor*%
%ADD14C,0.200000*%
%TD*%
%TA.AperFunction,ComponentPad*%
%ADD15R,2.000000X2.000000*%
%TD*%
%TA.AperFunction,ComponentPad*%
%ADD16C,2.000000*%
%TD*%
%TA.AperFunction,ComponentPad*%
%ADD17R,1.800000X1.800000*%
%TD*%
%TA.AperFunction,ComponentPad*%
%ADD18C,1.800000*%
%TD*%
%TA.AperFunction,Conductor*%
%ADD19C,1.200000*%
%TD*%
%TA.AperFunction,Conductor*%
%ADD20C,1.000000*%
%TD*%
G04 APERTURE END LIST*
D10*
X54978833Y-38102056D02*
X54377587Y-38102056D01*
X54377587Y-37507154D01*
X54978833Y-37507154D01*
X54978833Y-38102056D01*
%TA.AperFunction,NonConductor*%
G36*
X54978833Y-38102056D02*
G01*
X54377587Y-38102056D01*
X54377587Y-37507154D01*
X54978833Y-37507154D01*
X54978833Y-38102056D01*
G37*
%TD.AperFunction*%
X54978833Y-38850197D02*
X54377587Y-38850197D01*
X54377587Y-38255294D01*
X54978833Y-38255294D01*
X54978833Y-38850197D01*
%TA.AperFunction,NonConductor*%
G36*
X54978833Y-38850197D02*
G01*
X54377587Y-38850197D01*
X54377587Y-38255294D01*
X54978833Y-38255294D01*
X54978833Y-38850197D01*
G37*
%TD.AperFunction*%
X54978833Y-43339158D02*
X54377587Y-43339158D01*
X54377587Y-42744461D01*
X54978833Y-42744461D01*
X54978833Y-43339158D01*
%TA.AperFunction,NonConductor*%
G36*
X54978833Y-43339158D02*
G01*
X54377587Y-43339158D01*
X54377587Y-42744461D01*
X54978833Y-42744461D01*
X54978833Y-43339158D01*
G37*
%TD.AperFunction*%
X55733929Y-38102056D02*
X55133094Y-38102056D01*
X55133093Y-37507154D01*
X55733929Y-37507154D01*
X55733929Y-38102056D01*
%TA.AperFunction,NonConductor*%
G36*
X55733929Y-38102056D02*
G01*
X55133094Y-38102056D01*
X55133093Y-37507154D01*
X55733929Y-37507154D01*
X55733929Y-38102056D01*
G37*
%TD.AperFunction*%
X55733929Y-38850197D02*
X55133094Y-38850197D01*
X55133093Y-38255294D01*
X55733929Y-38255294D01*
X55733929Y-38850197D01*
%TA.AperFunction,NonConductor*%
G36*
X55733929Y-38850197D02*
G01*
X55133094Y-38850197D01*
X55133093Y-38255294D01*
X55733929Y-38255294D01*
X55733929Y-38850197D01*
G37*
%TD.AperFunction*%
X55733929Y-39598459D02*
X55133094Y-39598459D01*
X55133093Y-39003557D01*
X55733929Y-39003557D01*
X55733929Y-39598459D01*
%TA.AperFunction,NonConductor*%
G36*
X55733929Y-39598459D02*
G01*
X55133094Y-39598459D01*
X55133093Y-39003557D01*
X55733929Y-39003557D01*
X55733929Y-39598459D01*
G37*
%TD.AperFunction*%
X55733929Y-40346599D02*
X55133094Y-40346599D01*
X55133093Y-39751697D01*
X55733929Y-39751697D01*
X55733929Y-40346599D01*
%TA.AperFunction,NonConductor*%
G36*
X55733929Y-40346599D02*
G01*
X55133094Y-40346599D01*
X55133093Y-39751697D01*
X55733929Y-39751697D01*
X55733929Y-40346599D01*
G37*
%TD.AperFunction*%
X55733929Y-41094698D02*
X55133094Y-41094698D01*
X55133093Y-40500000D01*
X55733929Y-40500000D01*
X55733929Y-41094698D01*
%TA.AperFunction,NonConductor*%
G36*
X55733929Y-41094698D02*
G01*
X55133094Y-41094698D01*
X55133093Y-40500000D01*
X55733929Y-40500000D01*
X55733929Y-41094698D01*
G37*
%TD.AperFunction*%
X55733929Y-41843002D02*
X55133094Y-41843002D01*
X55133093Y-41248099D01*
X55733929Y-41248099D01*
X55733929Y-41843002D01*
%TA.AperFunction,NonConductor*%
G36*
X55733929Y-41843002D02*
G01*
X55133094Y-41843002D01*
X55133093Y-41248099D01*
X55733929Y-41248099D01*
X55733929Y-41843002D01*
G37*
%TD.AperFunction*%
X55733929Y-42591101D02*
X55133094Y-42591101D01*
X55133093Y-41996199D01*
X55733929Y-41996199D01*
X55733929Y-42591101D01*
%TA.AperFunction,NonConductor*%
G36*
X55733929Y-42591101D02*
G01*
X55133094Y-42591101D01*
X55133093Y-41996199D01*
X55733929Y-41996199D01*
X55733929Y-42591101D01*
G37*
%TD.AperFunction*%
X55733929Y-43339158D02*
X55133094Y-43339158D01*
X55133093Y-42744461D01*
X55733929Y-42744461D01*
X55733929Y-43339158D01*
%TA.AperFunction,NonConductor*%
G36*
X55733929Y-43339158D02*
G01*
X55133094Y-43339158D01*
X55133093Y-42744461D01*
X55733929Y-42744461D01*
X55733929Y-43339158D01*
G37*
%TD.AperFunction*%
X56489437Y-39598459D02*
X55888602Y-39598459D01*
X55888602Y-39003557D01*
X56489437Y-39003557D01*
X56489437Y-39598459D01*
%TA.AperFunction,NonConductor*%
G36*
X56489437Y-39598459D02*
G01*
X55888602Y-39598459D01*
X55888602Y-39003557D01*
X56489437Y-39003557D01*
X56489437Y-39598459D01*
G37*
%TD.AperFunction*%
X56489437Y-40346599D02*
X55888602Y-40346599D01*
X55888602Y-39751697D01*
X56489437Y-39751697D01*
X56489437Y-40346599D01*
%TA.AperFunction,NonConductor*%
G36*
X56489437Y-40346599D02*
G01*
X55888602Y-40346599D01*
X55888602Y-39751697D01*
X56489437Y-39751697D01*
X56489437Y-40346599D01*
G37*
%TD.AperFunction*%
X56489437Y-41094698D02*
X55888602Y-41094698D01*
X55888602Y-40500000D01*
X56489437Y-40500000D01*
X56489437Y-41094698D01*
%TA.AperFunction,NonConductor*%
G36*
X56489437Y-41094698D02*
G01*
X55888602Y-41094698D01*
X55888602Y-40500000D01*
X56489437Y-40500000D01*
X56489437Y-41094698D01*
G37*
%TD.AperFunction*%
X56489437Y-41843002D02*
X55888602Y-41843002D01*
X55888602Y-41248099D01*
X56489437Y-41248099D01*
X56489437Y-41843002D01*
%TA.AperFunction,NonConductor*%
G36*
X56489437Y-41843002D02*
G01*
X55888602Y-41843002D01*
X55888602Y-41248099D01*
X56489437Y-41248099D01*
X56489437Y-41843002D01*
G37*
%TD.AperFunction*%
X56489437Y-42591101D02*
X55888602Y-42591101D01*
X55888602Y-41996199D01*
X56489437Y-41996199D01*
X56489437Y-42591101D01*
%TA.AperFunction,NonConductor*%
G36*
X56489437Y-42591101D02*
G01*
X55888602Y-42591101D01*
X55888602Y-41996199D01*
X56489437Y-41996199D01*
X56489437Y-42591101D01*
G37*
%TD.AperFunction*%
X56489437Y-43339158D02*
X55888602Y-43339158D01*
X55888602Y-42744461D01*
X56489437Y-42744461D01*
X56489437Y-43339158D01*
%TA.AperFunction,NonConductor*%
G36*
X56489437Y-43339158D02*
G01*
X55888602Y-43339158D01*
X55888602Y-42744461D01*
X56489437Y-42744461D01*
X56489437Y-43339158D01*
G37*
%TD.AperFunction*%
X57244946Y-38102056D02*
X56643698Y-38102056D01*
X56643698Y-37507154D01*
X57244946Y-37507154D01*
X57244946Y-38102056D01*
%TA.AperFunction,NonConductor*%
G36*
X57244946Y-38102056D02*
G01*
X56643698Y-38102056D01*
X56643698Y-37507154D01*
X57244946Y-37507154D01*
X57244946Y-38102056D01*
G37*
%TD.AperFunction*%
X57244946Y-38850197D02*
X56643698Y-38850197D01*
X56643698Y-38255294D01*
X57244946Y-38255294D01*
X57244946Y-38850197D01*
%TA.AperFunction,NonConductor*%
G36*
X57244946Y-38850197D02*
G01*
X56643698Y-38850197D01*
X56643698Y-38255294D01*
X57244946Y-38255294D01*
X57244946Y-38850197D01*
G37*
%TD.AperFunction*%
X57244946Y-39598459D02*
X56643698Y-39598459D01*
X56643698Y-39003557D01*
X57244946Y-39003557D01*
X57244946Y-39598459D01*
%TA.AperFunction,NonConductor*%
G36*
X57244946Y-39598459D02*
G01*
X56643698Y-39598459D01*
X56643698Y-39003557D01*
X57244946Y-39003557D01*
X57244946Y-39598459D01*
G37*
%TD.AperFunction*%
X57244946Y-40346599D02*
X56643698Y-40346599D01*
X56643698Y-39751697D01*
X57244946Y-39751697D01*
X57244946Y-40346599D01*
%TA.AperFunction,NonConductor*%
G36*
X57244946Y-40346599D02*
G01*
X56643698Y-40346599D01*
X56643698Y-39751697D01*
X57244946Y-39751697D01*
X57244946Y-40346599D01*
G37*
%TD.AperFunction*%
X57244946Y-41094698D02*
X56643698Y-41094698D01*
X56643698Y-40500000D01*
X57244946Y-40500000D01*
X57244946Y-41094698D01*
%TA.AperFunction,NonConductor*%
G36*
X57244946Y-41094698D02*
G01*
X56643698Y-41094698D01*
X56643698Y-40500000D01*
X57244946Y-40500000D01*
X57244946Y-41094698D01*
G37*
%TD.AperFunction*%
X58000000Y-38102056D02*
X57399164Y-38102056D01*
X57399164Y-37507154D01*
X58000000Y-37507154D01*
X58000000Y-38102056D01*
%TA.AperFunction,NonConductor*%
G36*
X58000000Y-38102056D02*
G01*
X57399164Y-38102056D01*
X57399164Y-37507154D01*
X58000000Y-37507154D01*
X58000000Y-38102056D01*
G37*
%TD.AperFunction*%
X58000000Y-38850197D02*
X57399164Y-38850197D01*
X57399164Y-38255294D01*
X58000000Y-38255294D01*
X58000000Y-38850197D01*
%TA.AperFunction,NonConductor*%
G36*
X58000000Y-38850197D02*
G01*
X57399164Y-38850197D01*
X57399164Y-38255294D01*
X58000000Y-38255294D01*
X58000000Y-38850197D01*
G37*
%TD.AperFunction*%
X58000000Y-39598459D02*
X57399164Y-39598459D01*
X57399164Y-39003557D01*
X58000000Y-39003557D01*
X58000000Y-39598459D01*
%TA.AperFunction,NonConductor*%
G36*
X58000000Y-39598459D02*
G01*
X57399164Y-39598459D01*
X57399164Y-39003557D01*
X58000000Y-39003557D01*
X58000000Y-39598459D01*
G37*
%TD.AperFunction*%
X58000000Y-40346599D02*
X57399164Y-40346599D01*
X57399164Y-39751697D01*
X58000000Y-39751697D01*
X58000000Y-40346599D01*
%TA.AperFunction,NonConductor*%
G36*
X58000000Y-40346599D02*
G01*
X57399164Y-40346599D01*
X57399164Y-39751697D01*
X58000000Y-39751697D01*
X58000000Y-40346599D01*
G37*
%TD.AperFunction*%
X58000000Y-41094698D02*
X57399164Y-41094698D01*
X57399164Y-40500000D01*
X58000000Y-40500000D01*
X58000000Y-41094698D01*
%TA.AperFunction,NonConductor*%
G36*
X58000000Y-41094698D02*
G01*
X57399164Y-41094698D01*
X57399164Y-40500000D01*
X58000000Y-40500000D01*
X58000000Y-41094698D01*
G37*
%TD.AperFunction*%
X58755549Y-39598459D02*
X58154714Y-39598459D01*
X58154714Y-39003557D01*
X58755549Y-39003557D01*
X58755549Y-39598459D01*
%TA.AperFunction,NonConductor*%
G36*
X58755549Y-39598459D02*
G01*
X58154714Y-39598459D01*
X58154714Y-39003557D01*
X58755549Y-39003557D01*
X58755549Y-39598459D01*
G37*
%TD.AperFunction*%
X58755549Y-40346599D02*
X58154714Y-40346599D01*
X58154714Y-39751697D01*
X58755549Y-39751697D01*
X58755549Y-40346599D01*
%TA.AperFunction,NonConductor*%
G36*
X58755549Y-40346599D02*
G01*
X58154714Y-40346599D01*
X58154714Y-39751697D01*
X58755549Y-39751697D01*
X58755549Y-40346599D01*
G37*
%TD.AperFunction*%
X58755549Y-41094698D02*
X58154714Y-41094698D01*
X58154714Y-40500000D01*
X58755549Y-40500000D01*
X58755549Y-41094698D01*
%TA.AperFunction,NonConductor*%
G36*
X58755549Y-41094698D02*
G01*
X58154714Y-41094698D01*
X58154714Y-40500000D01*
X58755549Y-40500000D01*
X58755549Y-41094698D01*
G37*
%TD.AperFunction*%
X58755549Y-41843002D02*
X58154714Y-41843002D01*
X58154714Y-41248099D01*
X58755549Y-41248099D01*
X58755549Y-41843002D01*
%TA.AperFunction,NonConductor*%
G36*
X58755549Y-41843002D02*
G01*
X58154714Y-41843002D01*
X58154714Y-41248099D01*
X58755549Y-41248099D01*
X58755549Y-41843002D01*
G37*
%TD.AperFunction*%
X58755549Y-42591101D02*
X58154714Y-42591101D01*
X58154714Y-41996199D01*
X58755549Y-41996199D01*
X58755549Y-42591101D01*
%TA.AperFunction,NonConductor*%
G36*
X58755549Y-42591101D02*
G01*
X58154714Y-42591101D01*
X58154714Y-41996199D01*
X58755549Y-41996199D01*
X58755549Y-42591101D01*
G37*
%TD.AperFunction*%
X58755549Y-43339158D02*
X58154714Y-43339158D01*
X58154714Y-42744461D01*
X58755549Y-42744461D01*
X58755549Y-43339158D01*
%TA.AperFunction,NonConductor*%
G36*
X58755549Y-43339158D02*
G01*
X58154714Y-43339158D01*
X58154714Y-42744461D01*
X58755549Y-42744461D01*
X58755549Y-43339158D01*
G37*
%TD.AperFunction*%
X59511056Y-38102056D02*
X58909810Y-38102056D01*
X58909810Y-37507154D01*
X59511056Y-37507154D01*
X59511056Y-38102056D01*
%TA.AperFunction,NonConductor*%
G36*
X59511056Y-38102056D02*
G01*
X58909810Y-38102056D01*
X58909810Y-37507154D01*
X59511056Y-37507154D01*
X59511056Y-38102056D01*
G37*
%TD.AperFunction*%
X59511056Y-38850197D02*
X58909810Y-38850197D01*
X58909810Y-38255294D01*
X59511056Y-38255294D01*
X59511056Y-38850197D01*
%TA.AperFunction,NonConductor*%
G36*
X59511056Y-38850197D02*
G01*
X58909810Y-38850197D01*
X58909810Y-38255294D01*
X59511056Y-38255294D01*
X59511056Y-38850197D01*
G37*
%TD.AperFunction*%
X59511056Y-39598459D02*
X58909810Y-39598459D01*
X58909810Y-39003557D01*
X59511056Y-39003557D01*
X59511056Y-39598459D01*
%TA.AperFunction,NonConductor*%
G36*
X59511056Y-39598459D02*
G01*
X58909810Y-39598459D01*
X58909810Y-39003557D01*
X59511056Y-39003557D01*
X59511056Y-39598459D01*
G37*
%TD.AperFunction*%
X59511056Y-40346599D02*
X58909810Y-40346599D01*
X58909810Y-39751697D01*
X59511056Y-39751697D01*
X59511056Y-40346599D01*
%TA.AperFunction,NonConductor*%
G36*
X59511056Y-40346599D02*
G01*
X58909810Y-40346599D01*
X58909810Y-39751697D01*
X59511056Y-39751697D01*
X59511056Y-40346599D01*
G37*
%TD.AperFunction*%
X59511056Y-41094698D02*
X58909810Y-41094698D01*
X58909810Y-40500000D01*
X59511056Y-40500000D01*
X59511056Y-41094698D01*
%TA.AperFunction,NonConductor*%
G36*
X59511056Y-41094698D02*
G01*
X58909810Y-41094698D01*
X58909810Y-40500000D01*
X59511056Y-40500000D01*
X59511056Y-41094698D01*
G37*
%TD.AperFunction*%
X59511056Y-41843002D02*
X58909810Y-41843002D01*
X58909810Y-41248099D01*
X59511056Y-41248099D01*
X59511056Y-41843002D01*
%TA.AperFunction,NonConductor*%
G36*
X59511056Y-41843002D02*
G01*
X58909810Y-41843002D01*
X58909810Y-41248099D01*
X59511056Y-41248099D01*
X59511056Y-41843002D01*
G37*
%TD.AperFunction*%
X59511056Y-42591101D02*
X58909810Y-42591101D01*
X58909810Y-41996199D01*
X59511056Y-41996199D01*
X59511056Y-42591101D01*
%TA.AperFunction,NonConductor*%
G36*
X59511056Y-42591101D02*
G01*
X58909810Y-42591101D01*
X58909810Y-41996199D01*
X59511056Y-41996199D01*
X59511056Y-42591101D01*
G37*
%TD.AperFunction*%
X59511056Y-43339158D02*
X58909810Y-43339158D01*
X58909810Y-42744461D01*
X59511056Y-42744461D01*
X59511056Y-43339158D01*
%TA.AperFunction,NonConductor*%
G36*
X59511056Y-43339158D02*
G01*
X58909810Y-43339158D01*
X58909810Y-42744461D01*
X59511056Y-42744461D01*
X59511056Y-43339158D01*
G37*
%TD.AperFunction*%
X60266153Y-38102097D02*
X59665359Y-38102097D01*
X59665359Y-37507195D01*
X60266153Y-37507195D01*
X60266153Y-38102097D01*
%TA.AperFunction,NonConductor*%
G36*
X60266153Y-38102097D02*
G01*
X59665359Y-38102097D01*
X59665359Y-37507195D01*
X60266153Y-37507195D01*
X60266153Y-38102097D01*
G37*
%TD.AperFunction*%
X60266153Y-38850196D02*
X59665359Y-38850196D01*
X59665359Y-38255294D01*
X60266153Y-38255294D01*
X60266153Y-38850196D01*
%TA.AperFunction,NonConductor*%
G36*
X60266153Y-38850196D02*
G01*
X59665359Y-38850196D01*
X59665359Y-38255294D01*
X60266153Y-38255294D01*
X60266153Y-38850196D01*
G37*
%TD.AperFunction*%
X60267757Y-43339158D02*
X59666962Y-43339158D01*
X59666962Y-42744461D01*
X60267757Y-42744461D01*
X60267757Y-43339158D01*
%TA.AperFunction,NonConductor*%
G36*
X60267757Y-43339158D02*
G01*
X59666962Y-43339158D01*
X59666962Y-42744461D01*
X60267757Y-42744461D01*
X60267757Y-43339158D01*
G37*
%TD.AperFunction*%
D11*
D12*
X74680074Y-78878514D02*
X74708646Y-78849942D01*
X74708646Y-78849942D02*
X74765789Y-78821371D01*
X74765789Y-78821371D02*
X74908646Y-78821371D01*
X74908646Y-78821371D02*
X74965789Y-78849942D01*
X74965789Y-78849942D02*
X74994360Y-78878514D01*
X74994360Y-78878514D02*
X75022931Y-78935657D01*
X75022931Y-78935657D02*
X75022931Y-78992800D01*
X75022931Y-78992800D02*
X74994360Y-79078514D01*
X74994360Y-79078514D02*
X74651503Y-79421371D01*
X74651503Y-79421371D02*
X75022931Y-79421371D01*
D11*
D12*
X73161027Y-78872419D02*
X73494360Y-79872419D01*
X73494360Y-79872419D02*
X73827693Y-78872419D01*
D11*
D12*
X73803884Y-79348609D02*
X74137217Y-79348609D01*
X74280074Y-79872419D02*
X73803884Y-79872419D01*
X73803884Y-79872419D02*
X73803884Y-78872419D01*
X73803884Y-78872419D02*
X74280074Y-78872419D01*
D13*
D14*
X52369673Y-45367219D02*
X52369673Y-44367219D01*
X52369673Y-44367219D02*
X52607768Y-44367219D01*
X52607768Y-44367219D02*
X52750625Y-44414838D01*
X52750625Y-44414838D02*
X52845863Y-44510076D01*
X52845863Y-44510076D02*
X52893482Y-44605314D01*
X52893482Y-44605314D02*
X52941101Y-44795790D01*
X52941101Y-44795790D02*
X52941101Y-44938647D01*
X52941101Y-44938647D02*
X52893482Y-45129123D01*
X52893482Y-45129123D02*
X52845863Y-45224361D01*
X52845863Y-45224361D02*
X52750625Y-45319600D01*
X52750625Y-45319600D02*
X52607768Y-45367219D01*
X52607768Y-45367219D02*
X52369673Y-45367219D01*
X53750625Y-45319600D02*
X53655387Y-45367219D01*
X53655387Y-45367219D02*
X53464911Y-45367219D01*
X53464911Y-45367219D02*
X53369673Y-45319600D01*
X53369673Y-45319600D02*
X53322054Y-45224361D01*
X53322054Y-45224361D02*
X53322054Y-44843409D01*
X53322054Y-44843409D02*
X53369673Y-44748171D01*
X53369673Y-44748171D02*
X53464911Y-44700552D01*
X53464911Y-44700552D02*
X53655387Y-44700552D01*
X53655387Y-44700552D02*
X53750625Y-44748171D01*
X53750625Y-44748171D02*
X53798244Y-44843409D01*
X53798244Y-44843409D02*
X53798244Y-44938647D01*
X53798244Y-44938647D02*
X53322054Y-45033885D01*
X54179197Y-45319600D02*
X54274435Y-45367219D01*
X54274435Y-45367219D02*
X54464911Y-45367219D01*
X54464911Y-45367219D02*
X54560149Y-45319600D01*
X54560149Y-45319600D02*
X54607768Y-45224361D01*
X54607768Y-45224361D02*
X54607768Y-45176742D01*
X54607768Y-45176742D02*
X54560149Y-45081504D01*
X54560149Y-45081504D02*
X54464911Y-45033885D01*
X54464911Y-45033885D02*
X54322054Y-45033885D01*
X54322054Y-45033885D02*
X54226816Y-44986266D01*
X54226816Y-44986266D02*
X54179197Y-44891028D01*
X54179197Y-44891028D02*
X54179197Y-44843409D01*
X54179197Y-44843409D02*
X54226816Y-44748171D01*
X54226816Y-44748171D02*
X54322054Y-44700552D01*
X54322054Y-44700552D02*
X54464911Y-44700552D01*
X54464911Y-44700552D02*
X54560149Y-44748171D01*
X55036340Y-45367219D02*
X55036340Y-44700552D01*
X55036340Y-44367219D02*
X54988721Y-44414838D01*
X54988721Y-44414838D02*
X55036340Y-44462457D01*
X55036340Y-44462457D02*
X55083959Y-44414838D01*
X55083959Y-44414838D02*
X55036340Y-44367219D01*
X55036340Y-44367219D02*
X55036340Y-44462457D01*
X55941101Y-44700552D02*
X55941101Y-45510076D01*
X55941101Y-45510076D02*
X55893482Y-45605314D01*
X55893482Y-45605314D02*
X55845863Y-45652933D01*
X55845863Y-45652933D02*
X55750625Y-45700552D01*
X55750625Y-45700552D02*
X55607768Y-45700552D01*
X55607768Y-45700552D02*
X55512530Y-45652933D01*
X55941101Y-45319600D02*
X55845863Y-45367219D01*
X55845863Y-45367219D02*
X55655387Y-45367219D01*
X55655387Y-45367219D02*
X55560149Y-45319600D01*
X55560149Y-45319600D02*
X55512530Y-45271980D01*
X55512530Y-45271980D02*
X55464911Y-45176742D01*
X55464911Y-45176742D02*
X55464911Y-44891028D01*
X55464911Y-44891028D02*
X55512530Y-44795790D01*
X55512530Y-44795790D02*
X55560149Y-44748171D01*
X55560149Y-44748171D02*
X55655387Y-44700552D01*
X55655387Y-44700552D02*
X55845863Y-44700552D01*
X55845863Y-44700552D02*
X55941101Y-44748171D01*
X56417292Y-44700552D02*
X56417292Y-45367219D01*
X56417292Y-44795790D02*
X56464911Y-44748171D01*
X56464911Y-44748171D02*
X56560149Y-44700552D01*
X56560149Y-44700552D02*
X56703006Y-44700552D01*
X56703006Y-44700552D02*
X56798244Y-44748171D01*
X56798244Y-44748171D02*
X56845863Y-44843409D01*
X56845863Y-44843409D02*
X56845863Y-45367219D01*
X58083959Y-45367219D02*
X58083959Y-44367219D01*
X58083959Y-44748171D02*
X58179197Y-44700552D01*
X58179197Y-44700552D02*
X58369673Y-44700552D01*
X58369673Y-44700552D02*
X58464911Y-44748171D01*
X58464911Y-44748171D02*
X58512530Y-44795790D01*
X58512530Y-44795790D02*
X58560149Y-44891028D01*
X58560149Y-44891028D02*
X58560149Y-45176742D01*
X58560149Y-45176742D02*
X58512530Y-45271980D01*
X58512530Y-45271980D02*
X58464911Y-45319600D01*
X58464911Y-45319600D02*
X58369673Y-45367219D01*
X58369673Y-45367219D02*
X58179197Y-45367219D01*
X58179197Y-45367219D02*
X58083959Y-45319600D01*
X58893483Y-44700552D02*
X59131578Y-45367219D01*
X59369673Y-44700552D02*
X59131578Y-45367219D01*
X59131578Y-45367219D02*
X59036340Y-45605314D01*
X59036340Y-45605314D02*
X58988721Y-45652933D01*
X58988721Y-45652933D02*
X58893483Y-45700552D01*
X61083959Y-45367219D02*
X60750626Y-44891028D01*
X60512531Y-45367219D02*
X60512531Y-44367219D01*
X60512531Y-44367219D02*
X60893483Y-44367219D01*
X60893483Y-44367219D02*
X60988721Y-44414838D01*
X60988721Y-44414838D02*
X61036340Y-44462457D01*
X61036340Y-44462457D02*
X61083959Y-44557695D01*
X61083959Y-44557695D02*
X61083959Y-44700552D01*
X61083959Y-44700552D02*
X61036340Y-44795790D01*
X61036340Y-44795790D02*
X60988721Y-44843409D01*
X60988721Y-44843409D02*
X60893483Y-44891028D01*
X60893483Y-44891028D02*
X60512531Y-44891028D01*
X61893483Y-45319600D02*
X61798245Y-45367219D01*
X61798245Y-45367219D02*
X61607769Y-45367219D01*
X61607769Y-45367219D02*
X61512531Y-45319600D01*
X61512531Y-45319600D02*
X61464912Y-45224361D01*
X61464912Y-45224361D02*
X61464912Y-44843409D01*
X61464912Y-44843409D02*
X61512531Y-44748171D01*
X61512531Y-44748171D02*
X61607769Y-44700552D01*
X61607769Y-44700552D02*
X61798245Y-44700552D01*
X61798245Y-44700552D02*
X61893483Y-44748171D01*
X61893483Y-44748171D02*
X61941102Y-44843409D01*
X61941102Y-44843409D02*
X61941102Y-44938647D01*
X61941102Y-44938647D02*
X61464912Y-45033885D01*
X62369674Y-45367219D02*
X62369674Y-44700552D01*
X62369674Y-44367219D02*
X62322055Y-44414838D01*
X62322055Y-44414838D02*
X62369674Y-44462457D01*
X62369674Y-44462457D02*
X62417293Y-44414838D01*
X62417293Y-44414838D02*
X62369674Y-44367219D01*
X62369674Y-44367219D02*
X62369674Y-44462457D01*
X62845864Y-44700552D02*
X62845864Y-45367219D01*
X62845864Y-44795790D02*
X62893483Y-44748171D01*
X62893483Y-44748171D02*
X62988721Y-44700552D01*
X62988721Y-44700552D02*
X63131578Y-44700552D01*
X63131578Y-44700552D02*
X63226816Y-44748171D01*
X63226816Y-44748171D02*
X63274435Y-44843409D01*
X63274435Y-44843409D02*
X63274435Y-45367219D01*
D13*
D14*
X52369673Y-47367219D02*
X52369673Y-46367219D01*
X53274434Y-47367219D02*
X53274434Y-46367219D01*
X53274434Y-47319600D02*
X53179196Y-47367219D01*
X53179196Y-47367219D02*
X52988720Y-47367219D01*
X52988720Y-47367219D02*
X52893482Y-47319600D01*
X52893482Y-47319600D02*
X52845863Y-47271980D01*
X52845863Y-47271980D02*
X52798244Y-47176742D01*
X52798244Y-47176742D02*
X52798244Y-46891028D01*
X52798244Y-46891028D02*
X52845863Y-46795790D01*
X52845863Y-46795790D02*
X52893482Y-46748171D01*
X52893482Y-46748171D02*
X52988720Y-46700552D01*
X52988720Y-46700552D02*
X53179196Y-46700552D01*
X53179196Y-46700552D02*
X53274434Y-46748171D01*
X54131577Y-47319600D02*
X54036339Y-47367219D01*
X54036339Y-47367219D02*
X53845863Y-47367219D01*
X53845863Y-47367219D02*
X53750625Y-47319600D01*
X53750625Y-47319600D02*
X53703006Y-47224361D01*
X53703006Y-47224361D02*
X53703006Y-46843409D01*
X53703006Y-46843409D02*
X53750625Y-46748171D01*
X53750625Y-46748171D02*
X53845863Y-46700552D01*
X53845863Y-46700552D02*
X54036339Y-46700552D01*
X54036339Y-46700552D02*
X54131577Y-46748171D01*
X54131577Y-46748171D02*
X54179196Y-46843409D01*
X54179196Y-46843409D02*
X54179196Y-46938647D01*
X54179196Y-46938647D02*
X53703006Y-47033885D01*
X55036339Y-47367219D02*
X55036339Y-46843409D01*
X55036339Y-46843409D02*
X54988720Y-46748171D01*
X54988720Y-46748171D02*
X54893482Y-46700552D01*
X54893482Y-46700552D02*
X54703006Y-46700552D01*
X54703006Y-46700552D02*
X54607768Y-46748171D01*
X55036339Y-47319600D02*
X54941101Y-47367219D01*
X54941101Y-47367219D02*
X54703006Y-47367219D01*
X54703006Y-47367219D02*
X54607768Y-47319600D01*
X54607768Y-47319600D02*
X54560149Y-47224361D01*
X54560149Y-47224361D02*
X54560149Y-47129123D01*
X54560149Y-47129123D02*
X54607768Y-47033885D01*
X54607768Y-47033885D02*
X54703006Y-46986266D01*
X54703006Y-46986266D02*
X54941101Y-46986266D01*
X54941101Y-46986266D02*
X55036339Y-46938647D01*
X56274435Y-47367219D02*
X56274435Y-46367219D01*
X56274435Y-46748171D02*
X56369673Y-46700552D01*
X56369673Y-46700552D02*
X56560149Y-46700552D01*
X56560149Y-46700552D02*
X56655387Y-46748171D01*
X56655387Y-46748171D02*
X56703006Y-46795790D01*
X56703006Y-46795790D02*
X56750625Y-46891028D01*
X56750625Y-46891028D02*
X56750625Y-47176742D01*
X56750625Y-47176742D02*
X56703006Y-47271980D01*
X56703006Y-47271980D02*
X56655387Y-47319600D01*
X56655387Y-47319600D02*
X56560149Y-47367219D01*
X56560149Y-47367219D02*
X56369673Y-47367219D01*
X56369673Y-47367219D02*
X56274435Y-47319600D01*
X57083959Y-46700552D02*
X57322054Y-47367219D01*
X57560149Y-46700552D02*
X57322054Y-47367219D01*
X57322054Y-47367219D02*
X57226816Y-47605314D01*
X57226816Y-47605314D02*
X57179197Y-47652933D01*
X57179197Y-47652933D02*
X57083959Y-47700552D01*
X58607769Y-46367219D02*
X58845864Y-47367219D01*
X58845864Y-47367219D02*
X59036340Y-46652933D01*
X59036340Y-46652933D02*
X59226816Y-47367219D01*
X59226816Y-47367219D02*
X59464912Y-46367219D01*
X60274435Y-47367219D02*
X60274435Y-46843409D01*
X60274435Y-46843409D02*
X60226816Y-46748171D01*
X60226816Y-46748171D02*
X60131578Y-46700552D01*
X60131578Y-46700552D02*
X59941102Y-46700552D01*
X59941102Y-46700552D02*
X59845864Y-46748171D01*
X60274435Y-47319600D02*
X60179197Y-47367219D01*
X60179197Y-47367219D02*
X59941102Y-47367219D01*
X59941102Y-47367219D02*
X59845864Y-47319600D01*
X59845864Y-47319600D02*
X59798245Y-47224361D01*
X59798245Y-47224361D02*
X59798245Y-47129123D01*
X59798245Y-47129123D02*
X59845864Y-47033885D01*
X59845864Y-47033885D02*
X59941102Y-46986266D01*
X59941102Y-46986266D02*
X60179197Y-46986266D01*
X60179197Y-46986266D02*
X60274435Y-46938647D01*
X60893483Y-47367219D02*
X60798245Y-47319600D01*
X60798245Y-47319600D02*
X60750626Y-47224361D01*
X60750626Y-47224361D02*
X60750626Y-46367219D01*
X61417293Y-47367219D02*
X61322055Y-47319600D01*
X61322055Y-47319600D02*
X61274436Y-47224361D01*
X61274436Y-47224361D02*
X61274436Y-46367219D01*
X61798246Y-47367219D02*
X61798246Y-46700552D01*
X61798246Y-46367219D02*
X61750627Y-46414838D01*
X61750627Y-46414838D02*
X61798246Y-46462457D01*
X61798246Y-46462457D02*
X61845865Y-46414838D01*
X61845865Y-46414838D02*
X61798246Y-46367219D01*
X61798246Y-46367219D02*
X61798246Y-46462457D01*
X62655388Y-47319600D02*
X62560150Y-47367219D01*
X62560150Y-47367219D02*
X62369674Y-47367219D01*
X62369674Y-47367219D02*
X62274436Y-47319600D01*
X62274436Y-47319600D02*
X62226817Y-47224361D01*
X62226817Y-47224361D02*
X62226817Y-46843409D01*
X62226817Y-46843409D02*
X62274436Y-46748171D01*
X62274436Y-46748171D02*
X62369674Y-46700552D01*
X62369674Y-46700552D02*
X62560150Y-46700552D01*
X62560150Y-46700552D02*
X62655388Y-46748171D01*
X62655388Y-46748171D02*
X62703007Y-46843409D01*
X62703007Y-46843409D02*
X62703007Y-46938647D01*
X62703007Y-46938647D02*
X62226817Y-47033885D01*
D15*
%TO.P,U1,1*%
%TO.N,GPIO5*%
X47600400Y-35500000D03*
X50140400Y-35500000D03*
D16*
%TO.P,U1,2*%
%TO.N,AIN2_GPIO6*%
X47600400Y-38040000D03*
X50140400Y-38040000D03*
%TO.P,U1,3*%
%TO.N,AIN1_GPIO7*%
X47600400Y-40580000D03*
X50140400Y-40580000D03*
%TO.P,U1,4*%
%TO.N,GPIO8_LED_EXPANSION*%
X47600400Y-43120000D03*
X50140400Y-43120000D03*
%TO.P,U1,5*%
%TO.N,BIN1_GPIO9*%
X47600400Y-45660000D03*
X50140400Y-45660000D03*
%TO.P,U1,6*%
%TO.N,BIN2_GPIO10*%
X47600400Y-48200000D03*
X50140400Y-48200000D03*
%TO.P,U1,7*%
%TO.N,GPIO20_SPARE*%
X47600400Y-50740000D03*
X50140400Y-50740000D03*
%TO.P,U1,8*%
%TO.N,GPIO21_SPARE*%
X47600400Y-53280000D03*
X50140400Y-53280000D03*
%TO.P,U1,9*%
%TO.N,GPIO0_SPARE*%
X65380400Y-53280000D03*
X67920400Y-53280000D03*
%TO.P,U1,10*%
%TO.N,GPIO1_SPARE*%
X65380400Y-50740000D03*
X67920400Y-50740000D03*
%TO.P,U1,11*%
%TO.N,GPIO2_SPARE*%
X65380400Y-48200000D03*
X67920400Y-48200000D03*
%TO.P,U1,12*%
%TO.N,GPIO3_SPARE*%
X65380400Y-45660000D03*
X67920400Y-45660000D03*
%TO.P,U1,13*%
%TO.N,GPIO4_SPARE*%
X65380400Y-43120000D03*
X67920400Y-43120000D03*
%TO.P,U1,14*%
%TO.N,3V3*%
X65380400Y-40580000D03*
X67920400Y-40580000D03*
%TO.P,U1,15*%
%TO.N,GND*%
X65380400Y-38040000D03*
X67920400Y-38040000D03*
%TO.P,U1,16*%
%TO.N,ESP_5V_IN*%
X65380400Y-35500000D03*
X67920400Y-35500000D03*
%TD*%
D15*
%TO.P,SW1,1*%
%TO.N,VBAT_RAW*%
X81000000Y-45500000D03*
D16*
%TO.P,SW1,2*%
%TO.N,VBAT_SW*%
X81000000Y-42960000D03*
%TD*%
D15*
%TO.P,U3,1*%
%TO.N,VBAT_SW*%
X60090000Y-83300000D03*
D16*
%TO.P,U3,2*%
%TO.N,GND*%
X57550000Y-83300000D03*
%TO.P,U3,3*%
%TO.N,REG_5V_OUT*%
X55010000Y-83300000D03*
%TD*%
D15*
%TO.P,J10,1*%
%TO.N,ESP_5V_IN*%
X41000000Y-71080000D03*
D16*
%TO.P,J10,2*%
%TO.N,GND*%
X41000000Y-68540000D03*
%TO.P,J10,3*%
%TO.N,VBAT_SW*%
X41000000Y-66000000D03*
%TD*%
D17*
%TO.P,J6,1*%
%TO.N,M2A*%
X45000000Y-77000000D03*
D18*
%TO.P,J6,2*%
%TO.N,M2B*%
X43000000Y-77000000D03*
%TD*%
D17*
%TO.P,J4,1*%
%TO.N,VBAT_RAW*%
X77000000Y-66000000D03*
D18*
%TO.P,J4,2*%
%TO.N,GND*%
X77000000Y-68000000D03*
%TD*%
D15*
%TO.P,U2,1*%
%TO.N,AIN1_GPIO7*%
X51080000Y-61880000D03*
D16*
%TO.P,U2,2*%
%TO.N,N/C*%
X51080000Y-77120000D03*
%TO.P,U2,3*%
%TO.N,AIN2_GPIO6*%
X53620000Y-61880000D03*
%TO.P,U2,4*%
%TO.N,M2B*%
X53620000Y-77120000D03*
%TO.P,U2,5*%
%TO.N,VBAT_SW*%
X56160000Y-61880000D03*
%TO.P,U2,6*%
%TO.N,M2A*%
X56160000Y-77120000D03*
%TO.P,U2,7*%
%TO.N,GND*%
X58700000Y-61880000D03*
%TO.P,U2,8*%
%TO.N,M1B*%
X58700000Y-77120000D03*
%TO.P,U2,9*%
%TO.N,BIN1_GPIO9*%
X61240000Y-61880000D03*
%TO.P,U2,10*%
%TO.N,M1A*%
X61240000Y-77120000D03*
%TO.P,U2,11*%
%TO.N,BIN2_GPIO10*%
X63780000Y-61880000D03*
%TO.P,U2,12*%
%TO.N,GPIO5*%
X63780000Y-77120000D03*
%TD*%
D17*
%TO.P,J4_ALT,1*%
%TO.N,VBAT_RAW*%
X82000000Y-66000000D03*
D18*
%TO.P,J4_ALT,2*%
%TO.N,GND*%
X82000000Y-68540000D03*
%TD*%
D15*
%TO.P,JP1,1*%
%TO.N,REG_5V_OUT*%
X36500000Y-46420000D03*
D16*
%TO.P,JP1,2*%
%TO.N,ESP_5V_IN*%
X36500000Y-48960000D03*
%TO.P,JP1,3*%
%TO.N,VBAT_SW*%
X36500000Y-51500000D03*
%TD*%
D17*
%TO.P,J5,1*%
%TO.N,M1A*%
X71500000Y-77000000D03*
D18*
%TO.P,J5,2*%
%TO.N,M1B*%
X69500000Y-77000000D03*
%TD*%
D15*
%TO.P,C1_C2,1*%
%TO.N,VBAT_SW*%
X33000000Y-39500000D03*
D16*
%TO.P,C1_C2,2*%
%TO.N,GND*%
X37000000Y-39500000D03*
%TD*%
D19*
%TO.N,GND*%
X77000000Y-68000000D02*
X58000000Y-68500000D01*
X57500000Y-81000000D02*
X77000000Y-81000000D01*
X77000000Y-68000000D02*
X82000000Y-68540000D01*
X74000000Y-38000000D02*
X74000000Y-68000000D01*
X74000000Y-68000000D02*
X77000000Y-68000000D01*
X77000000Y-81000000D02*
X77000000Y-68000000D01*
X57550000Y-83300000D02*
X57500000Y-81000000D01*
X65380400Y-38040000D02*
X67920400Y-38040000D01*
X74000000Y-33000000D02*
X74000000Y-38000000D01*
X37000000Y-33000000D02*
X74000000Y-33000000D01*
X67920400Y-38040000D02*
X74000000Y-38000000D01*
X58000000Y-68500000D02*
X58700000Y-61880000D01*
X37000000Y-39500000D02*
X37000000Y-33000000D01*
X41000000Y-68540000D02*
X58000000Y-68500000D01*
%TO.N,VBAT_RAW*%
X81000000Y-66000000D02*
X77000000Y-66000000D01*
X81000000Y-45500000D02*
X81000000Y-66000000D01*
%TO.N,VBAT_SW*%
X41000000Y-66000000D02*
X56000000Y-66000000D01*
X81000000Y-37500000D02*
X81000000Y-31000000D01*
X81000000Y-42960000D02*
X81000000Y-37500000D01*
X33000000Y-31000000D02*
X33000000Y-39500000D01*
X88000000Y-37500000D02*
X81000000Y-37500000D01*
X88000000Y-73500000D02*
X88000000Y-37500000D01*
X81000000Y-31000000D02*
X33000000Y-31000000D01*
X56000000Y-66000000D02*
X56160000Y-61880000D01*
X78500000Y-83000000D02*
X88000000Y-73500000D01*
X60090000Y-83300000D02*
X78500000Y-83000000D01*
%TO.N,3V3*%
X65380400Y-40580000D02*
X67920400Y-40580000D01*
D20*
%TO.N,GPIO5*%
X47600400Y-35500000D02*
X50140400Y-35500000D01*
%TO.N,AIN2_GPIO6*%
X40500000Y-64000000D02*
X40500000Y-38000000D01*
X47600400Y-38040000D02*
X50140400Y-38040000D01*
X53500000Y-64000000D02*
X40500000Y-64000000D01*
X53620000Y-61880000D02*
X53500000Y-64000000D01*
X40500000Y-38000000D02*
X47600400Y-38040000D01*
%TO.N,AIN1_GPIO7*%
X42000000Y-40500000D02*
X42000000Y-62000000D01*
X42000000Y-62000000D02*
X51080000Y-61880000D01*
X47600400Y-40580000D02*
X50140400Y-40580000D01*
X47600400Y-40580000D02*
X42000000Y-40500000D01*
%TO.N,BIN1_GPIO9*%
X61000000Y-60000000D02*
X43500000Y-60000000D01*
X61240000Y-61880000D02*
X61000000Y-60000000D01*
X43500000Y-45500000D02*
X47600400Y-45660000D01*
X47600400Y-45660000D02*
X50140400Y-45660000D01*
X43500000Y-60000000D02*
X43500000Y-45500000D01*
%TO.N,BIN2_GPIO10*%
X47600400Y-48200000D02*
X50140400Y-48200000D01*
X63780000Y-61880000D02*
X63500000Y-58500000D01*
X63500000Y-58500000D02*
X45000000Y-58500000D01*
D19*
X63780000Y-61500000D02*
X63780000Y-61880000D01*
D20*
X45000000Y-58500000D02*
X45000000Y-48500000D01*
X45000000Y-48500000D02*
X47600400Y-48200000D01*
D19*
%TO.N,M1A*%
X71500000Y-79500000D02*
X71500000Y-77000000D01*
X61500000Y-79500000D02*
X71500000Y-79500000D01*
X61240000Y-77120000D02*
X61500000Y-79500000D01*
%TO.N,M1B*%
X69500000Y-75000000D02*
X69500000Y-77000000D01*
X59000000Y-75000000D02*
X69500000Y-75000000D01*
X58700000Y-77120000D02*
X59000000Y-75000000D01*
%TO.N,M2A*%
X45000000Y-79500000D02*
X45000000Y-77000000D01*
X56160000Y-77120000D02*
X56000000Y-79500000D01*
X56000000Y-79500000D02*
X45000000Y-79500000D01*
%TO.N,M2B*%
X53500000Y-75000000D02*
X43000000Y-75000000D01*
X43000000Y-75000000D02*
X43000000Y-77000000D01*
X53620000Y-77120000D02*
X53500000Y-75000000D01*
D20*
%TO.N,GPIO0_SPARE*%
X65380400Y-53280000D02*
X67920400Y-53280000D01*
%TO.N,GPIO1_SPARE*%
X65380400Y-50740000D02*
X67920400Y-50740000D01*
%TO.N,GPIO2_SPARE*%
X65380400Y-48200000D02*
X67920400Y-48200000D01*
%TO.N,GPIO3_SPARE*%
X65380400Y-45660000D02*
X67920400Y-45660000D01*
%TO.N,GPIO4_SPARE*%
X65380400Y-43120000D02*
X67920400Y-43120000D01*
%TO.N,GPIO20_SPARE*%
X47600400Y-50740000D02*
X50140400Y-50740000D01*
%TO.N,GPIO21_SPARE*%
X47600400Y-53280000D02*
X50140400Y-53280000D01*
%TO.N,GPIO8_LED_EXPANSION*%
X47600400Y-43120000D02*
X50140400Y-43120000D01*
D19*
%TO.N,ESP_5V_IN*%
X65380400Y-35500000D02*
X67920400Y-35500000D01*
%TO.N,REG_5V_OUT*%
X55010000Y-83300000D02*
X38500000Y-83500000D01*
X39000000Y-46500000D02*
X36500000Y-46420000D01*
X38500000Y-83500000D02*
X39000000Y-46500000D01*
%TD*%
M02*
