%TF.GenerationSoftware,KiCad,Pcbnew,9.0.8+dfsg-1*%
%TF.CreationDate,2026-08-27T14:57:31+02:00*%
%TF.ProjectId,hsd-antweight-2s-v4,6873642d-616e-4747-9765-696768742d32,rev?*%
%TF.SameCoordinates,Original*%
%TF.FileFunction,Copper,L2,Bot*%
%TF.FilePolarity,Positive*%
%FSLAX46Y46*%
G04 Gerber Fmt 4.6, Leading zero omitted, Abs format (unit mm)*
G04 Created by KiCad (PCBNEW 9.0.8+dfsg-1) date 2026-08-27 14:57:31*
%MOMM*%
%LPD*%
G01*
G04 APERTURE LIST*
%TA.AperFunction,ComponentPad*%
%ADD10R,2.000000X2.000000*%
%TD*%
%TA.AperFunction,ComponentPad*%
%ADD11C,2.000000*%
%TD*%
%TA.AperFunction,ComponentPad*%
%ADD12R,1.800000X1.800000*%
%TD*%
%TA.AperFunction,ComponentPad*%
%ADD13C,1.800000*%
%TD*%
%TA.AperFunction,Conductor*%
%ADD14C,1.200000*%
%TD*%
%TA.AperFunction,Conductor*%
%ADD15C,1.000000*%
%TD*%
G04 APERTURE END LIST*
D10*
%TO.P,U1,1*%
%TO.N,GPIO5*%
X47600400Y-35500000D03*
X50140400Y-35500000D03*
D11*
%TO.P,U1,2*%
%TO.N,AIN2_GPIO6*%
X47600400Y-38040000D03*
X50140400Y-38040000D03*
%TO.P,U1,3*%
%TO.N,AIN1_GPIO7*%
X47600400Y-40580000D03*
X50140400Y-40580000D03*
%TO.P,U1,4*%
%TO.N,GPIO8_LED_EXPANSION*%
X47600400Y-43120000D03*
X50140400Y-43120000D03*
%TO.P,U1,5*%
%TO.N,BIN1_GPIO9*%
X47600400Y-45660000D03*
X50140400Y-45660000D03*
%TO.P,U1,6*%
%TO.N,BIN2_GPIO10*%
X47600400Y-48200000D03*
X50140400Y-48200000D03*
%TO.P,U1,7*%
%TO.N,GPIO20_SPARE*%
X47600400Y-50740000D03*
X50140400Y-50740000D03*
%TO.P,U1,8*%
%TO.N,GPIO21_SPARE*%
X47600400Y-53280000D03*
X50140400Y-53280000D03*
%TO.P,U1,9*%
%TO.N,GPIO0_SPARE*%
X65380400Y-53280000D03*
X67920400Y-53280000D03*
%TO.P,U1,10*%
%TO.N,GPIO1_SPARE*%
X65380400Y-50740000D03*
X67920400Y-50740000D03*
%TO.P,U1,11*%
%TO.N,GPIO2_SPARE*%
X65380400Y-48200000D03*
X67920400Y-48200000D03*
%TO.P,U1,12*%
%TO.N,GPIO3_SPARE*%
X65380400Y-45660000D03*
X67920400Y-45660000D03*
%TO.P,U1,13*%
%TO.N,GPIO4_SPARE*%
X65380400Y-43120000D03*
X67920400Y-43120000D03*
%TO.P,U1,14*%
%TO.N,3V3*%
X65380400Y-40580000D03*
X67920400Y-40580000D03*
%TO.P,U1,15*%
%TO.N,GND*%
X65380400Y-38040000D03*
X67920400Y-38040000D03*
%TO.P,U1,16*%
%TO.N,ESP_5V_IN*%
X65380400Y-35500000D03*
X67920400Y-35500000D03*
%TD*%
D10*
%TO.P,SW1,1*%
%TO.N,VBAT_RAW*%
X81000000Y-45500000D03*
D11*
%TO.P,SW1,2*%
%TO.N,VBAT_SW*%
X81000000Y-42960000D03*
%TD*%
D10*
%TO.P,U3,1*%
%TO.N,VBAT_SW*%
X60090000Y-83300000D03*
D11*
%TO.P,U3,2*%
%TO.N,GND*%
X57550000Y-83300000D03*
%TO.P,U3,3*%
%TO.N,REG_5V_OUT*%
X55010000Y-83300000D03*
%TD*%
D10*
%TO.P,J10,1*%
%TO.N,ESP_5V_IN*%
X41000000Y-71080000D03*
D11*
%TO.P,J10,2*%
%TO.N,GND*%
X41000000Y-68540000D03*
%TO.P,J10,3*%
%TO.N,VBAT_SW*%
X41000000Y-66000000D03*
%TD*%
D12*
%TO.P,J6,1*%
%TO.N,M2A*%
X45000000Y-77000000D03*
D13*
%TO.P,J6,2*%
%TO.N,M2B*%
X43000000Y-77000000D03*
%TD*%
D12*
%TO.P,J4,1*%
%TO.N,VBAT_RAW*%
X77000000Y-66000000D03*
D13*
%TO.P,J4,2*%
%TO.N,GND*%
X77000000Y-68000000D03*
%TD*%
D10*
%TO.P,U2,1*%
%TO.N,AIN1_GPIO7*%
X51080000Y-61880000D03*
D11*
%TO.P,U2,2*%
%TO.N,N/C*%
X51080000Y-77120000D03*
%TO.P,U2,3*%
%TO.N,AIN2_GPIO6*%
X53620000Y-61880000D03*
%TO.P,U2,4*%
%TO.N,M2B*%
X53620000Y-77120000D03*
%TO.P,U2,5*%
%TO.N,VBAT_SW*%
X56160000Y-61880000D03*
%TO.P,U2,6*%
%TO.N,M2A*%
X56160000Y-77120000D03*
%TO.P,U2,7*%
%TO.N,GND*%
X58700000Y-61880000D03*
%TO.P,U2,8*%
%TO.N,M1B*%
X58700000Y-77120000D03*
%TO.P,U2,9*%
%TO.N,BIN1_GPIO9*%
X61240000Y-61880000D03*
%TO.P,U2,10*%
%TO.N,M1A*%
X61240000Y-77120000D03*
%TO.P,U2,11*%
%TO.N,BIN2_GPIO10*%
X63780000Y-61880000D03*
%TO.P,U2,12*%
%TO.N,GPIO5*%
X63780000Y-77120000D03*
%TD*%
D12*
%TO.P,J4_ALT,1*%
%TO.N,VBAT_RAW*%
X82000000Y-66000000D03*
D13*
%TO.P,J4_ALT,2*%
%TO.N,GND*%
X82000000Y-68540000D03*
%TD*%
D10*
%TO.P,JP1,1*%
%TO.N,REG_5V_OUT*%
X36500000Y-46420000D03*
D11*
%TO.P,JP1,2*%
%TO.N,ESP_5V_IN*%
X36500000Y-48960000D03*
%TO.P,JP1,3*%
%TO.N,VBAT_SW*%
X36500000Y-51500000D03*
%TD*%
D12*
%TO.P,J5,1*%
%TO.N,M1A*%
X71500000Y-77000000D03*
D13*
%TO.P,J5,2*%
%TO.N,M1B*%
X69500000Y-77000000D03*
%TD*%
D10*
%TO.P,C1_C2,1*%
%TO.N,VBAT_SW*%
X33000000Y-39500000D03*
D11*
%TO.P,C1_C2,2*%
%TO.N,GND*%
X37000000Y-39500000D03*
%TD*%
D14*
%TO.N,VBAT_RAW*%
X77000000Y-66000000D02*
X77000000Y-66239600D01*
%TO.N,VBAT_SW*%
X33000000Y-39500000D02*
X33000000Y-42000000D01*
X36500000Y-51500000D02*
X40670455Y-51500000D01*
X40500000Y-44000000D02*
X40670455Y-51500000D01*
X33000000Y-42000000D02*
X40500000Y-44000000D01*
X56080000Y-61880000D02*
X56160000Y-61880000D01*
X60000000Y-83300000D02*
X60090000Y-83300000D01*
X40670455Y-51500000D02*
X41000000Y-66000000D01*
D15*
%TO.N,GPIO5*%
X73500000Y-73500000D02*
X63500000Y-73500000D01*
X74000000Y-62500000D02*
X73500000Y-73500000D01*
X76000000Y-61500000D02*
X74000000Y-62500000D01*
X76000000Y-32500000D02*
X76000000Y-61500000D01*
X50000000Y-32500000D02*
X50140400Y-35500000D01*
X76000000Y-32500000D02*
X50000000Y-32500000D01*
X63500000Y-73500000D02*
X63780000Y-77120000D01*
D14*
%TO.N,ESP_5V_IN*%
X71500000Y-71000000D02*
X41000000Y-71080000D01*
X32000000Y-49000000D02*
X36500000Y-48960000D01*
X72000000Y-35500000D02*
X71500000Y-71000000D01*
X41000000Y-71080000D02*
X31500000Y-71000000D01*
X67920400Y-35500000D02*
X72000000Y-35500000D01*
X31500000Y-71000000D02*
X32000000Y-49000000D01*
%TO.N,REG_5V_OUT*%
X36500000Y-46420000D02*
X36500000Y-46510000D01*
%TD*%
M02*
