%TF.GenerationSoftware,KiCad,Pcbnew,9.0.8+dfsg-1*%
%TF.CreationDate,2026-08-20T11:33:50+02:00*%
%TF.ProjectId,hsd-antweight-2s-v3,6873642d-616e-4747-9765-696768742d32,rev?*%
%TF.SameCoordinates,Original*%
%TF.FileFunction,Copper,L1,Top*%
%TF.FilePolarity,Positive*%
%FSLAX46Y46*%
G04 Gerber Fmt 4.6, Leading zero omitted, Abs format (unit mm)*
G04 Created by KiCad (PCBNEW 9.0.8+dfsg-1) date 2026-08-20 11:33:50*
%MOMM*%
%LPD*%
G01*
G04 APERTURE LIST*
%ADD10C,0.100000*%
%TA.AperFunction,NonConductor*%
%ADD11C,0.100000*%
%TD*%
%TA.AperFunction,ComponentPad*%
%ADD12R,2.000000X2.000000*%
%TD*%
%TA.AperFunction,ComponentPad*%
%ADD13C,2.000000*%
%TD*%
%TA.AperFunction,ComponentPad*%
%ADD14R,1.800000X1.800000*%
%TD*%
%TA.AperFunction,ComponentPad*%
%ADD15C,1.800000*%
%TD*%
%TA.AperFunction,Conductor*%
%ADD16C,1.200000*%
%TD*%
%TA.AperFunction,Conductor*%
%ADD17C,1.000000*%
%TD*%
G04 APERTURE END LIST*
D10*
D11*
X74680074Y-78878514D02*
X74708646Y-78849942D01*
X74708646Y-78849942D02*
X74765789Y-78821371D01*
X74765789Y-78821371D02*
X74908646Y-78821371D01*
X74908646Y-78821371D02*
X74965789Y-78849942D01*
X74965789Y-78849942D02*
X74994360Y-78878514D01*
X74994360Y-78878514D02*
X75022931Y-78935657D01*
X75022931Y-78935657D02*
X75022931Y-78992800D01*
X75022931Y-78992800D02*
X74994360Y-79078514D01*
X74994360Y-79078514D02*
X74651503Y-79421371D01*
X74651503Y-79421371D02*
X75022931Y-79421371D01*
D10*
D11*
X73161027Y-78872419D02*
X73494360Y-79872419D01*
X73494360Y-79872419D02*
X73827693Y-78872419D01*
D10*
D11*
X73803884Y-79348609D02*
X74137217Y-79348609D01*
X74280074Y-79872419D02*
X73803884Y-79872419D01*
X73803884Y-79872419D02*
X73803884Y-78872419D01*
X73803884Y-78872419D02*
X74280074Y-78872419D01*
D12*
%TO.P,U1,1*%
%TO.N,GPIO5_SPARE*%
X47600400Y-35500000D03*
X50140400Y-35500000D03*
D13*
%TO.P,U1,2*%
%TO.N,AIN2_GPIO6*%
X47600400Y-38040000D03*
X50140400Y-38040000D03*
%TO.P,U1,3*%
%TO.N,AIN1_GPIO7*%
X47600400Y-40580000D03*
X50140400Y-40580000D03*
%TO.P,U1,4*%
%TO.N,GPIO8_LED_EXPANSION*%
X47600400Y-43120000D03*
X50140400Y-43120000D03*
%TO.P,U1,5*%
%TO.N,BIN1_GPIO9*%
X47600400Y-45660000D03*
X50140400Y-45660000D03*
%TO.P,U1,6*%
%TO.N,BIN2_GPIO10*%
X47600400Y-48200000D03*
X50140400Y-48200000D03*
%TO.P,U1,7*%
%TO.N,GPIO20_SPARE*%
X47600400Y-50740000D03*
X50140400Y-50740000D03*
%TO.P,U1,8*%
%TO.N,GPIO21_SPARE*%
X47600400Y-53280000D03*
X50140400Y-53280000D03*
%TO.P,U1,9*%
%TO.N,GPIO0_SPARE*%
X65380400Y-53280000D03*
X67920400Y-53280000D03*
%TO.P,U1,10*%
%TO.N,GPIO1_SPARE*%
X65380400Y-50740000D03*
X67920400Y-50740000D03*
%TO.P,U1,11*%
%TO.N,GPIO2_SPARE*%
X65380400Y-48200000D03*
X67920400Y-48200000D03*
%TO.P,U1,12*%
%TO.N,GPIO3_SPARE*%
X65380400Y-45660000D03*
X67920400Y-45660000D03*
%TO.P,U1,13*%
%TO.N,GPIO4_SPARE*%
X65380400Y-43120000D03*
X67920400Y-43120000D03*
%TO.P,U1,14*%
%TO.N,3V3*%
X65380400Y-40580000D03*
X67920400Y-40580000D03*
%TO.P,U1,15*%
%TO.N,GND*%
X65380400Y-38040000D03*
X67920400Y-38040000D03*
%TO.P,U1,16*%
%TO.N,5V_NC*%
X65380400Y-35500000D03*
X67920400Y-35500000D03*
%TD*%
D12*
%TO.P,SW1,1*%
%TO.N,VBAT_RAW*%
X81000000Y-45500000D03*
D13*
%TO.P,SW1,2*%
%TO.N,VBAT_SW*%
X81000000Y-40500000D03*
%TD*%
D12*
%TO.P,U3,1*%
%TO.N,VBAT_SW*%
X60090000Y-83300000D03*
D13*
%TO.P,U3,2*%
%TO.N,GND*%
X57550000Y-83300000D03*
%TO.P,U3,3*%
%TO.N,REG_3V3_2S*%
X55010000Y-83300000D03*
%TD*%
D12*
%TO.P,J10,1*%
%TO.N,3V3*%
X41000000Y-71080000D03*
D13*
%TO.P,J10,2*%
%TO.N,GND*%
X41000000Y-68540000D03*
%TO.P,J10,3*%
%TO.N,VBAT_SW*%
X41000000Y-66000000D03*
%TD*%
D14*
%TO.P,J6,1*%
%TO.N,M2A*%
X45000000Y-77000000D03*
D15*
%TO.P,J6,2*%
%TO.N,M2B*%
X43000000Y-77000000D03*
%TD*%
D14*
%TO.P,J4,1*%
%TO.N,VBAT_RAW*%
X77000000Y-66000000D03*
D15*
%TO.P,J4,2*%
%TO.N,GND*%
X77000000Y-68000000D03*
%TD*%
D12*
%TO.P,U2,1*%
%TO.N,AIN1_GPIO7*%
X51080000Y-61880000D03*
D13*
%TO.P,U2,2*%
%TO.N,N/C*%
X51080000Y-77120000D03*
%TO.P,U2,3*%
%TO.N,AIN2_GPIO6*%
X53620000Y-61880000D03*
%TO.P,U2,4*%
%TO.N,M2B*%
X53620000Y-77120000D03*
%TO.P,U2,5*%
%TO.N,VBAT_SW*%
X56160000Y-61880000D03*
%TO.P,U2,6*%
%TO.N,M2A*%
X56160000Y-77120000D03*
%TO.P,U2,7*%
%TO.N,GND*%
X58700000Y-61880000D03*
%TO.P,U2,8*%
%TO.N,M1B*%
X58700000Y-77120000D03*
%TO.P,U2,9*%
%TO.N,BIN1_GPIO9*%
X61240000Y-61880000D03*
%TO.P,U2,10*%
%TO.N,M1A*%
X61240000Y-77120000D03*
%TO.P,U2,11*%
%TO.N,BIN2_GPIO10*%
X63780000Y-61880000D03*
%TO.P,U2,12*%
%TO.N,N/C*%
X63780000Y-77120000D03*
%TD*%
D12*
%TO.P,JP1,1*%
%TO.N,REG_3V3_2S*%
X36500000Y-46420000D03*
D13*
%TO.P,JP1,2*%
%TO.N,3V3*%
X36500000Y-48960000D03*
%TO.P,JP1,3*%
%TO.N,VBAT_SW*%
X36500000Y-51500000D03*
%TD*%
D14*
%TO.P,J5,1*%
%TO.N,M1A*%
X71500000Y-77000000D03*
D15*
%TO.P,J5,2*%
%TO.N,M1B*%
X69500000Y-77000000D03*
%TD*%
D12*
%TO.P,C1_C2,1*%
%TO.N,VBAT_SW*%
X33000000Y-39500000D03*
D13*
%TO.P,C1_C2,2*%
%TO.N,GND*%
X37000000Y-39500000D03*
%TD*%
D16*
%TO.N,GND*%
X77000000Y-68000000D02*
X58000000Y-68500000D01*
X57500000Y-81000000D02*
X77000000Y-81000000D01*
X74000000Y-38000000D02*
X74000000Y-68000000D01*
X74000000Y-68000000D02*
X77000000Y-68000000D01*
X77000000Y-81000000D02*
X77000000Y-68000000D01*
X57550000Y-83300000D02*
X57500000Y-81000000D01*
X65380400Y-38040000D02*
X67920400Y-38040000D01*
X74000000Y-33000000D02*
X74000000Y-38000000D01*
X37000000Y-33000000D02*
X74000000Y-33000000D01*
X67920400Y-38040000D02*
X74000000Y-38000000D01*
X58000000Y-68500000D02*
X58700000Y-61880000D01*
X37000000Y-39500000D02*
X37000000Y-33000000D01*
X41000000Y-68540000D02*
X58000000Y-68500000D01*
%TO.N,VBAT_RAW*%
X81000000Y-66000000D02*
X77000000Y-66000000D01*
X81000000Y-45500000D02*
X81000000Y-66000000D01*
%TO.N,VBAT_SW*%
X41000000Y-66000000D02*
X56000000Y-66000000D01*
X79500000Y-82000000D02*
X79500000Y-69500000D01*
X81000000Y-37500000D02*
X81000000Y-31000000D01*
X78500000Y-83000000D02*
X79500000Y-82000000D01*
X81000000Y-40500000D02*
X81000000Y-37500000D01*
X33000000Y-31000000D02*
X33000000Y-39500000D01*
X79500000Y-69500000D02*
X83000000Y-68000000D01*
X88000000Y-51500000D02*
X88000000Y-37500000D01*
X86000000Y-53000000D02*
X88000000Y-51500000D01*
X81000000Y-31000000D02*
X33000000Y-31000000D01*
X88000000Y-37500000D02*
X81000000Y-37500000D01*
X56000000Y-66000000D02*
X56160000Y-61880000D01*
X83000000Y-53000000D02*
X86000000Y-53000000D01*
X83000000Y-68000000D02*
X83000000Y-53000000D01*
X60090000Y-83300000D02*
X78500000Y-83000000D01*
%TO.N,3V3*%
X65380400Y-40580000D02*
X67920400Y-40580000D01*
D17*
%TO.N,GPIO5_SPARE*%
X47600400Y-35500000D02*
X50140400Y-35500000D01*
%TO.N,AIN2_GPIO6*%
X40500000Y-64000000D02*
X40500000Y-38000000D01*
X47600400Y-38040000D02*
X50140400Y-38040000D01*
X53500000Y-64000000D02*
X40500000Y-64000000D01*
X53620000Y-61880000D02*
X53500000Y-64000000D01*
X40500000Y-38000000D02*
X47600400Y-38040000D01*
%TO.N,AIN1_GPIO7*%
X42000000Y-40500000D02*
X42000000Y-62000000D01*
X42000000Y-62000000D02*
X51080000Y-61880000D01*
X47600400Y-40580000D02*
X50140400Y-40580000D01*
X47600400Y-40580000D02*
X42000000Y-40500000D01*
%TO.N,BIN1_GPIO9*%
X61000000Y-60000000D02*
X43500000Y-60000000D01*
X61240000Y-61880000D02*
X61000000Y-60000000D01*
X43500000Y-45500000D02*
X47600400Y-45660000D01*
X47600400Y-45660000D02*
X50140400Y-45660000D01*
X43500000Y-60000000D02*
X43500000Y-45500000D01*
%TO.N,BIN2_GPIO10*%
X47600400Y-48200000D02*
X50140400Y-48200000D01*
X63780000Y-61880000D02*
X63500000Y-58500000D01*
X63500000Y-58500000D02*
X45000000Y-58500000D01*
D16*
X63780000Y-61500000D02*
X63780000Y-61880000D01*
D17*
X45000000Y-58500000D02*
X45000000Y-48500000D01*
X45000000Y-48500000D02*
X47600400Y-48200000D01*
D16*
%TO.N,M1A*%
X71500000Y-79500000D02*
X71500000Y-77000000D01*
X61500000Y-79500000D02*
X71500000Y-79500000D01*
X61240000Y-77120000D02*
X61500000Y-79500000D01*
%TO.N,M1B*%
X69500000Y-75000000D02*
X69500000Y-77000000D01*
X59000000Y-75000000D02*
X69500000Y-75000000D01*
X58700000Y-77120000D02*
X59000000Y-75000000D01*
%TO.N,M2A*%
X45000000Y-79500000D02*
X45000000Y-77000000D01*
X56160000Y-77120000D02*
X56000000Y-79500000D01*
X56000000Y-79500000D02*
X45000000Y-79500000D01*
%TO.N,M2B*%
X53500000Y-75000000D02*
X43000000Y-75000000D01*
X43000000Y-75000000D02*
X43000000Y-77000000D01*
X53620000Y-77120000D02*
X53500000Y-75000000D01*
D17*
%TO.N,GPIO0_SPARE*%
X65380400Y-53280000D02*
X67920400Y-53280000D01*
%TO.N,GPIO1_SPARE*%
X65380400Y-50740000D02*
X67920400Y-50740000D01*
%TO.N,GPIO2_SPARE*%
X65380400Y-48200000D02*
X67920400Y-48200000D01*
%TO.N,GPIO3_SPARE*%
X65380400Y-45660000D02*
X67920400Y-45660000D01*
%TO.N,GPIO4_SPARE*%
X65380400Y-43120000D02*
X67920400Y-43120000D01*
%TO.N,GPIO20_SPARE*%
X47600400Y-50740000D02*
X50140400Y-50740000D01*
%TO.N,GPIO21_SPARE*%
X47600400Y-53280000D02*
X50140400Y-53280000D01*
%TO.N,GPIO8_LED_EXPANSION*%
X47600400Y-43120000D02*
X50140400Y-43120000D01*
%TO.N,5V_NC*%
X65380400Y-35500000D02*
X67920400Y-35500000D01*
D16*
%TO.N,REG_3V3_2S*%
X55010000Y-83300000D02*
X38500000Y-83500000D01*
X39000000Y-46500000D02*
X36500000Y-46420000D01*
X38500000Y-83500000D02*
X39000000Y-46500000D01*
%TD*%
M02*
