%TF.GenerationSoftware,KiCad,Pcbnew,9.0.8+dfsg-1*%
%TF.CreationDate,2026-08-20T11:33:50+02:00*%
%TF.ProjectId,hsd-antweight-2s-v3,6873642d-616e-4747-9765-696768742d32,rev?*%
%TF.SameCoordinates,Original*%
%TF.FileFunction,Legend,Bot*%
%TF.FilePolarity,Positive*%
%FSLAX46Y46*%
G04 Gerber Fmt 4.6, Leading zero omitted, Abs format (unit mm)*
G04 Created by KiCad (PCBNEW 9.0.8+dfsg-1) date 2026-08-20 11:33:50*
%MOMM*%
%LPD*%
G01*
G04 APERTURE LIST*
%ADD10C,0.120000*%
%ADD11C,0.100000*%
G04 APERTURE END LIST*
D10*
X34552382Y-86563855D02*
X34552382Y-87135283D01*
X34552382Y-87135283D02*
X34590477Y-87249569D01*
X34590477Y-87249569D02*
X34666668Y-87325760D01*
X34666668Y-87325760D02*
X34780953Y-87363855D01*
X34780953Y-87363855D02*
X34857144Y-87363855D01*
X34171429Y-87363855D02*
X34171429Y-86563855D01*
X34171429Y-86563855D02*
X33866667Y-86563855D01*
X33866667Y-86563855D02*
X33790477Y-86601950D01*
X33790477Y-86601950D02*
X33752382Y-86640045D01*
X33752382Y-86640045D02*
X33714286Y-86716236D01*
X33714286Y-86716236D02*
X33714286Y-86830521D01*
X33714286Y-86830521D02*
X33752382Y-86906712D01*
X33752382Y-86906712D02*
X33790477Y-86944807D01*
X33790477Y-86944807D02*
X33866667Y-86982902D01*
X33866667Y-86982902D02*
X34171429Y-86982902D01*
X32952382Y-87363855D02*
X33409525Y-87363855D01*
X33180953Y-87363855D02*
X33180953Y-86563855D01*
X33180953Y-86563855D02*
X33257144Y-86678140D01*
X33257144Y-86678140D02*
X33333334Y-86754331D01*
X33333334Y-86754331D02*
X33409525Y-86792426D01*
X32038096Y-87325760D02*
X31923810Y-87363855D01*
X31923810Y-87363855D02*
X31733334Y-87363855D01*
X31733334Y-87363855D02*
X31657143Y-87325760D01*
X31657143Y-87325760D02*
X31619048Y-87287664D01*
X31619048Y-87287664D02*
X31580953Y-87211474D01*
X31580953Y-87211474D02*
X31580953Y-87135283D01*
X31580953Y-87135283D02*
X31619048Y-87059093D01*
X31619048Y-87059093D02*
X31657143Y-87020998D01*
X31657143Y-87020998D02*
X31733334Y-86982902D01*
X31733334Y-86982902D02*
X31885715Y-86944807D01*
X31885715Y-86944807D02*
X31961905Y-86906712D01*
X31961905Y-86906712D02*
X32000000Y-86868617D01*
X32000000Y-86868617D02*
X32038096Y-86792426D01*
X32038096Y-86792426D02*
X32038096Y-86716236D01*
X32038096Y-86716236D02*
X32000000Y-86640045D01*
X32000000Y-86640045D02*
X31961905Y-86601950D01*
X31961905Y-86601950D02*
X31885715Y-86563855D01*
X31885715Y-86563855D02*
X31695238Y-86563855D01*
X31695238Y-86563855D02*
X31580953Y-86601950D01*
X31238095Y-86944807D02*
X30971429Y-86944807D01*
X30857143Y-87363855D02*
X31238095Y-87363855D01*
X31238095Y-87363855D02*
X31238095Y-86563855D01*
X31238095Y-86563855D02*
X30857143Y-86563855D01*
X30133333Y-87363855D02*
X30514285Y-87363855D01*
X30514285Y-87363855D02*
X30514285Y-86563855D01*
X29866666Y-87287664D02*
X29828571Y-87325760D01*
X29828571Y-87325760D02*
X29866666Y-87363855D01*
X29866666Y-87363855D02*
X29904762Y-87325760D01*
X29904762Y-87325760D02*
X29866666Y-87287664D01*
X29866666Y-87287664D02*
X29866666Y-87363855D01*
X29866666Y-86868617D02*
X29828571Y-86906712D01*
X29828571Y-86906712D02*
X29866666Y-86944807D01*
X29866666Y-86944807D02*
X29904762Y-86906712D01*
X29904762Y-86906712D02*
X29866666Y-86868617D01*
X29866666Y-86868617D02*
X29866666Y-86944807D01*
X28914286Y-86640045D02*
X28876190Y-86601950D01*
X28876190Y-86601950D02*
X28800000Y-86563855D01*
X28800000Y-86563855D02*
X28609524Y-86563855D01*
X28609524Y-86563855D02*
X28533333Y-86601950D01*
X28533333Y-86601950D02*
X28495238Y-86640045D01*
X28495238Y-86640045D02*
X28457143Y-86716236D01*
X28457143Y-86716236D02*
X28457143Y-86792426D01*
X28457143Y-86792426D02*
X28495238Y-86906712D01*
X28495238Y-86906712D02*
X28952381Y-87363855D01*
X28952381Y-87363855D02*
X28457143Y-87363855D01*
X28152381Y-87325760D02*
X28038095Y-87363855D01*
X28038095Y-87363855D02*
X27847619Y-87363855D01*
X27847619Y-87363855D02*
X27771428Y-87325760D01*
X27771428Y-87325760D02*
X27733333Y-87287664D01*
X27733333Y-87287664D02*
X27695238Y-87211474D01*
X27695238Y-87211474D02*
X27695238Y-87135283D01*
X27695238Y-87135283D02*
X27733333Y-87059093D01*
X27733333Y-87059093D02*
X27771428Y-87020998D01*
X27771428Y-87020998D02*
X27847619Y-86982902D01*
X27847619Y-86982902D02*
X28000000Y-86944807D01*
X28000000Y-86944807D02*
X28076190Y-86906712D01*
X28076190Y-86906712D02*
X28114285Y-86868617D01*
X28114285Y-86868617D02*
X28152381Y-86792426D01*
X28152381Y-86792426D02*
X28152381Y-86716236D01*
X28152381Y-86716236D02*
X28114285Y-86640045D01*
X28114285Y-86640045D02*
X28076190Y-86601950D01*
X28076190Y-86601950D02*
X28000000Y-86563855D01*
X28000000Y-86563855D02*
X27809523Y-86563855D01*
X27809523Y-86563855D02*
X27695238Y-86601950D01*
X27352380Y-86944807D02*
X26742857Y-86944807D01*
X26742857Y-87173379D02*
X27352380Y-87173379D01*
X25942857Y-87363855D02*
X26400000Y-87363855D01*
X26171428Y-87363855D02*
X26171428Y-86563855D01*
X26171428Y-86563855D02*
X26247619Y-86678140D01*
X26247619Y-86678140D02*
X26323809Y-86754331D01*
X26323809Y-86754331D02*
X26400000Y-86792426D01*
X25599999Y-87059093D02*
X24990476Y-87059093D01*
X24647619Y-86640045D02*
X24609523Y-86601950D01*
X24609523Y-86601950D02*
X24533333Y-86563855D01*
X24533333Y-86563855D02*
X24342857Y-86563855D01*
X24342857Y-86563855D02*
X24266666Y-86601950D01*
X24266666Y-86601950D02*
X24228571Y-86640045D01*
X24228571Y-86640045D02*
X24190476Y-86716236D01*
X24190476Y-86716236D02*
X24190476Y-86792426D01*
X24190476Y-86792426D02*
X24228571Y-86906712D01*
X24228571Y-86906712D02*
X24685714Y-87363855D01*
X24685714Y-87363855D02*
X24190476Y-87363855D01*
X23047618Y-87630521D02*
X23047618Y-86487664D01*
X21447618Y-87363855D02*
X21904761Y-87363855D01*
X21676189Y-87363855D02*
X21676189Y-86563855D01*
X21676189Y-86563855D02*
X21752380Y-86678140D01*
X21752380Y-86678140D02*
X21828570Y-86754331D01*
X21828570Y-86754331D02*
X21904761Y-86792426D01*
X21142856Y-87325760D02*
X21028570Y-87363855D01*
X21028570Y-87363855D02*
X20838094Y-87363855D01*
X20838094Y-87363855D02*
X20761903Y-87325760D01*
X20761903Y-87325760D02*
X20723808Y-87287664D01*
X20723808Y-87287664D02*
X20685713Y-87211474D01*
X20685713Y-87211474D02*
X20685713Y-87135283D01*
X20685713Y-87135283D02*
X20723808Y-87059093D01*
X20723808Y-87059093D02*
X20761903Y-87020998D01*
X20761903Y-87020998D02*
X20838094Y-86982902D01*
X20838094Y-86982902D02*
X20990475Y-86944807D01*
X20990475Y-86944807D02*
X21066665Y-86906712D01*
X21066665Y-86906712D02*
X21104760Y-86868617D01*
X21104760Y-86868617D02*
X21142856Y-86792426D01*
X21142856Y-86792426D02*
X21142856Y-86716236D01*
X21142856Y-86716236D02*
X21104760Y-86640045D01*
X21104760Y-86640045D02*
X21066665Y-86601950D01*
X21066665Y-86601950D02*
X20990475Y-86563855D01*
X20990475Y-86563855D02*
X20799998Y-86563855D01*
X20799998Y-86563855D02*
X20685713Y-86601950D01*
X20342855Y-86944807D02*
X19733332Y-86944807D01*
X19733332Y-87173379D02*
X20342855Y-87173379D01*
X19390475Y-86640045D02*
X19352379Y-86601950D01*
X19352379Y-86601950D02*
X19276189Y-86563855D01*
X19276189Y-86563855D02*
X19085713Y-86563855D01*
X19085713Y-86563855D02*
X19009522Y-86601950D01*
X19009522Y-86601950D02*
X18971427Y-86640045D01*
X18971427Y-86640045D02*
X18933332Y-86716236D01*
X18933332Y-86716236D02*
X18933332Y-86792426D01*
X18933332Y-86792426D02*
X18971427Y-86906712D01*
X18971427Y-86906712D02*
X19428570Y-87363855D01*
X19428570Y-87363855D02*
X18933332Y-87363855D01*
X18590474Y-87059093D02*
X17980951Y-87059093D01*
X17676189Y-86563855D02*
X17180951Y-86563855D01*
X17180951Y-86563855D02*
X17447617Y-86868617D01*
X17447617Y-86868617D02*
X17333332Y-86868617D01*
X17333332Y-86868617D02*
X17257141Y-86906712D01*
X17257141Y-86906712D02*
X17219046Y-86944807D01*
X17219046Y-86944807D02*
X17180951Y-87020998D01*
X17180951Y-87020998D02*
X17180951Y-87211474D01*
X17180951Y-87211474D02*
X17219046Y-87287664D01*
X17219046Y-87287664D02*
X17257141Y-87325760D01*
X17257141Y-87325760D02*
X17333332Y-87363855D01*
X17333332Y-87363855D02*
X17561903Y-87363855D01*
X17561903Y-87363855D02*
X17638094Y-87325760D01*
X17638094Y-87325760D02*
X17676189Y-87287664D01*
X60966189Y-81063855D02*
X60699522Y-81863855D01*
X60699522Y-81863855D02*
X60432856Y-81063855D01*
X60166189Y-81863855D02*
X60166189Y-81063855D01*
X59785237Y-81863855D02*
X59785237Y-81063855D01*
X59785237Y-81063855D02*
X59328094Y-81863855D01*
X59328094Y-81863855D02*
X59328094Y-81063855D01*
X58159523Y-81101950D02*
X58235713Y-81063855D01*
X58235713Y-81063855D02*
X58349999Y-81063855D01*
X58349999Y-81063855D02*
X58464285Y-81101950D01*
X58464285Y-81101950D02*
X58540475Y-81178140D01*
X58540475Y-81178140D02*
X58578570Y-81254331D01*
X58578570Y-81254331D02*
X58616666Y-81406712D01*
X58616666Y-81406712D02*
X58616666Y-81520998D01*
X58616666Y-81520998D02*
X58578570Y-81673379D01*
X58578570Y-81673379D02*
X58540475Y-81749569D01*
X58540475Y-81749569D02*
X58464285Y-81825760D01*
X58464285Y-81825760D02*
X58349999Y-81863855D01*
X58349999Y-81863855D02*
X58273808Y-81863855D01*
X58273808Y-81863855D02*
X58159523Y-81825760D01*
X58159523Y-81825760D02*
X58121427Y-81787664D01*
X58121427Y-81787664D02*
X58121427Y-81520998D01*
X58121427Y-81520998D02*
X58273808Y-81520998D01*
X57778570Y-81863855D02*
X57778570Y-81063855D01*
X57778570Y-81063855D02*
X57321427Y-81863855D01*
X57321427Y-81863855D02*
X57321427Y-81063855D01*
X56940475Y-81863855D02*
X56940475Y-81063855D01*
X56940475Y-81063855D02*
X56749999Y-81063855D01*
X56749999Y-81063855D02*
X56635713Y-81101950D01*
X56635713Y-81101950D02*
X56559523Y-81178140D01*
X56559523Y-81178140D02*
X56521428Y-81254331D01*
X56521428Y-81254331D02*
X56483332Y-81406712D01*
X56483332Y-81406712D02*
X56483332Y-81520998D01*
X56483332Y-81520998D02*
X56521428Y-81673379D01*
X56521428Y-81673379D02*
X56559523Y-81749569D01*
X56559523Y-81749569D02*
X56635713Y-81825760D01*
X56635713Y-81825760D02*
X56749999Y-81863855D01*
X56749999Y-81863855D02*
X56940475Y-81863855D01*
X56000476Y-81063855D02*
X55505238Y-81063855D01*
X55505238Y-81063855D02*
X55771904Y-81368617D01*
X55771904Y-81368617D02*
X55657619Y-81368617D01*
X55657619Y-81368617D02*
X55581428Y-81406712D01*
X55581428Y-81406712D02*
X55543333Y-81444807D01*
X55543333Y-81444807D02*
X55505238Y-81520998D01*
X55505238Y-81520998D02*
X55505238Y-81711474D01*
X55505238Y-81711474D02*
X55543333Y-81787664D01*
X55543333Y-81787664D02*
X55581428Y-81825760D01*
X55581428Y-81825760D02*
X55657619Y-81863855D01*
X55657619Y-81863855D02*
X55886190Y-81863855D01*
X55886190Y-81863855D02*
X55962381Y-81825760D01*
X55962381Y-81825760D02*
X56000476Y-81787664D01*
X55276666Y-81063855D02*
X55009999Y-81863855D01*
X55009999Y-81863855D02*
X54743333Y-81063855D01*
X54552857Y-81063855D02*
X54057619Y-81063855D01*
X54057619Y-81063855D02*
X54324285Y-81368617D01*
X54324285Y-81368617D02*
X54210000Y-81368617D01*
X54210000Y-81368617D02*
X54133809Y-81406712D01*
X54133809Y-81406712D02*
X54095714Y-81444807D01*
X54095714Y-81444807D02*
X54057619Y-81520998D01*
X54057619Y-81520998D02*
X54057619Y-81711474D01*
X54057619Y-81711474D02*
X54095714Y-81787664D01*
X54095714Y-81787664D02*
X54133809Y-81825760D01*
X54133809Y-81825760D02*
X54210000Y-81863855D01*
X54210000Y-81863855D02*
X54438571Y-81863855D01*
X54438571Y-81863855D02*
X54514762Y-81825760D01*
X54514762Y-81825760D02*
X54552857Y-81787664D01*
X60056190Y-69863855D02*
X60056190Y-69063855D01*
X60056190Y-69063855D02*
X59865714Y-69063855D01*
X59865714Y-69063855D02*
X59751428Y-69101950D01*
X59751428Y-69101950D02*
X59675238Y-69178140D01*
X59675238Y-69178140D02*
X59637143Y-69254331D01*
X59637143Y-69254331D02*
X59599047Y-69406712D01*
X59599047Y-69406712D02*
X59599047Y-69520998D01*
X59599047Y-69520998D02*
X59637143Y-69673379D01*
X59637143Y-69673379D02*
X59675238Y-69749569D01*
X59675238Y-69749569D02*
X59751428Y-69825760D01*
X59751428Y-69825760D02*
X59865714Y-69863855D01*
X59865714Y-69863855D02*
X60056190Y-69863855D01*
X58799047Y-69863855D02*
X59065714Y-69482902D01*
X59256190Y-69863855D02*
X59256190Y-69063855D01*
X59256190Y-69063855D02*
X58951428Y-69063855D01*
X58951428Y-69063855D02*
X58875238Y-69101950D01*
X58875238Y-69101950D02*
X58837143Y-69140045D01*
X58837143Y-69140045D02*
X58799047Y-69216236D01*
X58799047Y-69216236D02*
X58799047Y-69330521D01*
X58799047Y-69330521D02*
X58837143Y-69406712D01*
X58837143Y-69406712D02*
X58875238Y-69444807D01*
X58875238Y-69444807D02*
X58951428Y-69482902D01*
X58951428Y-69482902D02*
X59256190Y-69482902D01*
X58570476Y-69063855D02*
X58303809Y-69863855D01*
X58303809Y-69863855D02*
X58037143Y-69063855D01*
X57656191Y-69406712D02*
X57732381Y-69368617D01*
X57732381Y-69368617D02*
X57770476Y-69330521D01*
X57770476Y-69330521D02*
X57808572Y-69254331D01*
X57808572Y-69254331D02*
X57808572Y-69216236D01*
X57808572Y-69216236D02*
X57770476Y-69140045D01*
X57770476Y-69140045D02*
X57732381Y-69101950D01*
X57732381Y-69101950D02*
X57656191Y-69063855D01*
X57656191Y-69063855D02*
X57503810Y-69063855D01*
X57503810Y-69063855D02*
X57427619Y-69101950D01*
X57427619Y-69101950D02*
X57389524Y-69140045D01*
X57389524Y-69140045D02*
X57351429Y-69216236D01*
X57351429Y-69216236D02*
X57351429Y-69254331D01*
X57351429Y-69254331D02*
X57389524Y-69330521D01*
X57389524Y-69330521D02*
X57427619Y-69368617D01*
X57427619Y-69368617D02*
X57503810Y-69406712D01*
X57503810Y-69406712D02*
X57656191Y-69406712D01*
X57656191Y-69406712D02*
X57732381Y-69444807D01*
X57732381Y-69444807D02*
X57770476Y-69482902D01*
X57770476Y-69482902D02*
X57808572Y-69559093D01*
X57808572Y-69559093D02*
X57808572Y-69711474D01*
X57808572Y-69711474D02*
X57770476Y-69787664D01*
X57770476Y-69787664D02*
X57732381Y-69825760D01*
X57732381Y-69825760D02*
X57656191Y-69863855D01*
X57656191Y-69863855D02*
X57503810Y-69863855D01*
X57503810Y-69863855D02*
X57427619Y-69825760D01*
X57427619Y-69825760D02*
X57389524Y-69787664D01*
X57389524Y-69787664D02*
X57351429Y-69711474D01*
X57351429Y-69711474D02*
X57351429Y-69559093D01*
X57351429Y-69559093D02*
X57389524Y-69482902D01*
X57389524Y-69482902D02*
X57427619Y-69444807D01*
X57427619Y-69444807D02*
X57503810Y-69406712D01*
X56894286Y-69406712D02*
X56970476Y-69368617D01*
X56970476Y-69368617D02*
X57008571Y-69330521D01*
X57008571Y-69330521D02*
X57046667Y-69254331D01*
X57046667Y-69254331D02*
X57046667Y-69216236D01*
X57046667Y-69216236D02*
X57008571Y-69140045D01*
X57008571Y-69140045D02*
X56970476Y-69101950D01*
X56970476Y-69101950D02*
X56894286Y-69063855D01*
X56894286Y-69063855D02*
X56741905Y-69063855D01*
X56741905Y-69063855D02*
X56665714Y-69101950D01*
X56665714Y-69101950D02*
X56627619Y-69140045D01*
X56627619Y-69140045D02*
X56589524Y-69216236D01*
X56589524Y-69216236D02*
X56589524Y-69254331D01*
X56589524Y-69254331D02*
X56627619Y-69330521D01*
X56627619Y-69330521D02*
X56665714Y-69368617D01*
X56665714Y-69368617D02*
X56741905Y-69406712D01*
X56741905Y-69406712D02*
X56894286Y-69406712D01*
X56894286Y-69406712D02*
X56970476Y-69444807D01*
X56970476Y-69444807D02*
X57008571Y-69482902D01*
X57008571Y-69482902D02*
X57046667Y-69559093D01*
X57046667Y-69559093D02*
X57046667Y-69711474D01*
X57046667Y-69711474D02*
X57008571Y-69787664D01*
X57008571Y-69787664D02*
X56970476Y-69825760D01*
X56970476Y-69825760D02*
X56894286Y-69863855D01*
X56894286Y-69863855D02*
X56741905Y-69863855D01*
X56741905Y-69863855D02*
X56665714Y-69825760D01*
X56665714Y-69825760D02*
X56627619Y-69787664D01*
X56627619Y-69787664D02*
X56589524Y-69711474D01*
X56589524Y-69711474D02*
X56589524Y-69559093D01*
X56589524Y-69559093D02*
X56627619Y-69482902D01*
X56627619Y-69482902D02*
X56665714Y-69444807D01*
X56665714Y-69444807D02*
X56741905Y-69406712D01*
X56322857Y-69063855D02*
X55827619Y-69063855D01*
X55827619Y-69063855D02*
X56094285Y-69368617D01*
X56094285Y-69368617D02*
X55980000Y-69368617D01*
X55980000Y-69368617D02*
X55903809Y-69406712D01*
X55903809Y-69406712D02*
X55865714Y-69444807D01*
X55865714Y-69444807D02*
X55827619Y-69520998D01*
X55827619Y-69520998D02*
X55827619Y-69711474D01*
X55827619Y-69711474D02*
X55865714Y-69787664D01*
X55865714Y-69787664D02*
X55903809Y-69825760D01*
X55903809Y-69825760D02*
X55980000Y-69863855D01*
X55980000Y-69863855D02*
X56208571Y-69863855D01*
X56208571Y-69863855D02*
X56284762Y-69825760D01*
X56284762Y-69825760D02*
X56322857Y-69787664D01*
X55560952Y-69063855D02*
X55065714Y-69063855D01*
X55065714Y-69063855D02*
X55332380Y-69368617D01*
X55332380Y-69368617D02*
X55218095Y-69368617D01*
X55218095Y-69368617D02*
X55141904Y-69406712D01*
X55141904Y-69406712D02*
X55103809Y-69444807D01*
X55103809Y-69444807D02*
X55065714Y-69520998D01*
X55065714Y-69520998D02*
X55065714Y-69711474D01*
X55065714Y-69711474D02*
X55103809Y-69787664D01*
X55103809Y-69787664D02*
X55141904Y-69825760D01*
X55141904Y-69825760D02*
X55218095Y-69863855D01*
X55218095Y-69863855D02*
X55446666Y-69863855D01*
X55446666Y-69863855D02*
X55522857Y-69825760D01*
X55522857Y-69825760D02*
X55560952Y-69787664D01*
X75790476Y-64824255D02*
X75257142Y-64824255D01*
X75257142Y-64824255D02*
X75600000Y-65624255D01*
X75066666Y-64824255D02*
X74799999Y-65624255D01*
X74799999Y-65624255D02*
X74533333Y-64824255D01*
X73923809Y-65090921D02*
X73923809Y-65624255D01*
X74114285Y-64786160D02*
X74304762Y-65357588D01*
X74304762Y-65357588D02*
X73809523Y-65357588D01*
X75409523Y-66862350D02*
X75485713Y-66824255D01*
X75485713Y-66824255D02*
X75599999Y-66824255D01*
X75599999Y-66824255D02*
X75714285Y-66862350D01*
X75714285Y-66862350D02*
X75790475Y-66938540D01*
X75790475Y-66938540D02*
X75828570Y-67014731D01*
X75828570Y-67014731D02*
X75866666Y-67167112D01*
X75866666Y-67167112D02*
X75866666Y-67281398D01*
X75866666Y-67281398D02*
X75828570Y-67433779D01*
X75828570Y-67433779D02*
X75790475Y-67509969D01*
X75790475Y-67509969D02*
X75714285Y-67586160D01*
X75714285Y-67586160D02*
X75599999Y-67624255D01*
X75599999Y-67624255D02*
X75523808Y-67624255D01*
X75523808Y-67624255D02*
X75409523Y-67586160D01*
X75409523Y-67586160D02*
X75371427Y-67548064D01*
X75371427Y-67548064D02*
X75371427Y-67281398D01*
X75371427Y-67281398D02*
X75523808Y-67281398D01*
X75028570Y-67624255D02*
X75028570Y-66824255D01*
X75028570Y-66824255D02*
X74571427Y-67624255D01*
X74571427Y-67624255D02*
X74571427Y-66824255D01*
X74190475Y-67624255D02*
X74190475Y-66824255D01*
X74190475Y-66824255D02*
X73999999Y-66824255D01*
X73999999Y-66824255D02*
X73885713Y-66862350D01*
X73885713Y-66862350D02*
X73809523Y-66938540D01*
X73809523Y-66938540D02*
X73771428Y-67014731D01*
X73771428Y-67014731D02*
X73733332Y-67167112D01*
X73733332Y-67167112D02*
X73733332Y-67281398D01*
X73733332Y-67281398D02*
X73771428Y-67433779D01*
X73771428Y-67433779D02*
X73809523Y-67509969D01*
X73809523Y-67509969D02*
X73885713Y-67586160D01*
X73885713Y-67586160D02*
X73999999Y-67624255D01*
X73999999Y-67624255D02*
X74190475Y-67624255D01*
X79414284Y-45559093D02*
X78804761Y-45559093D01*
X79109522Y-45863855D02*
X79109522Y-45254331D01*
X78423808Y-45863855D02*
X78423808Y-45063855D01*
X78042856Y-45863855D02*
X78042856Y-45063855D01*
X78042856Y-45063855D02*
X77585713Y-45863855D01*
X77585713Y-45863855D02*
X77585713Y-45063855D01*
X69863855Y-72952381D02*
X69063855Y-72952381D01*
X69063855Y-72952381D02*
X69635283Y-73219047D01*
X69635283Y-73219047D02*
X69063855Y-73485714D01*
X69063855Y-73485714D02*
X69863855Y-73485714D01*
X69863855Y-74285714D02*
X69863855Y-73828571D01*
X69863855Y-74057143D02*
X69063855Y-74057143D01*
X69063855Y-74057143D02*
X69178140Y-73980952D01*
X69178140Y-73980952D02*
X69254331Y-73904762D01*
X69254331Y-73904762D02*
X69292426Y-73828571D01*
X69444807Y-74895238D02*
X69482902Y-75009524D01*
X69482902Y-75009524D02*
X69520998Y-75047619D01*
X69520998Y-75047619D02*
X69597188Y-75085715D01*
X69597188Y-75085715D02*
X69711474Y-75085715D01*
X69711474Y-75085715D02*
X69787664Y-75047619D01*
X69787664Y-75047619D02*
X69825760Y-75009524D01*
X69825760Y-75009524D02*
X69863855Y-74933334D01*
X69863855Y-74933334D02*
X69863855Y-74628572D01*
X69863855Y-74628572D02*
X69063855Y-74628572D01*
X69063855Y-74628572D02*
X69063855Y-74895238D01*
X69063855Y-74895238D02*
X69101950Y-74971429D01*
X69101950Y-74971429D02*
X69140045Y-75009524D01*
X69140045Y-75009524D02*
X69216236Y-75047619D01*
X69216236Y-75047619D02*
X69292426Y-75047619D01*
X69292426Y-75047619D02*
X69368617Y-75009524D01*
X69368617Y-75009524D02*
X69406712Y-74971429D01*
X69406712Y-74971429D02*
X69444807Y-74895238D01*
X69444807Y-74895238D02*
X69444807Y-74628572D01*
X71863855Y-73009524D02*
X71063855Y-73009524D01*
X71063855Y-73009524D02*
X71635283Y-73276190D01*
X71635283Y-73276190D02*
X71063855Y-73542857D01*
X71063855Y-73542857D02*
X71863855Y-73542857D01*
X71863855Y-74342857D02*
X71863855Y-73885714D01*
X71863855Y-74114286D02*
X71063855Y-74114286D01*
X71063855Y-74114286D02*
X71178140Y-74038095D01*
X71178140Y-74038095D02*
X71254331Y-73961905D01*
X71254331Y-73961905D02*
X71292426Y-73885714D01*
X71635283Y-74647619D02*
X71635283Y-75028572D01*
X71863855Y-74571429D02*
X71063855Y-74838096D01*
X71063855Y-74838096D02*
X71863855Y-75104762D01*
X42636144Y-75047618D02*
X43436144Y-75047618D01*
X43436144Y-75047618D02*
X42864716Y-74780952D01*
X42864716Y-74780952D02*
X43436144Y-74514285D01*
X43436144Y-74514285D02*
X42636144Y-74514285D01*
X43359954Y-74171428D02*
X43398049Y-74133332D01*
X43398049Y-74133332D02*
X43436144Y-74057142D01*
X43436144Y-74057142D02*
X43436144Y-73866666D01*
X43436144Y-73866666D02*
X43398049Y-73790475D01*
X43398049Y-73790475D02*
X43359954Y-73752380D01*
X43359954Y-73752380D02*
X43283763Y-73714285D01*
X43283763Y-73714285D02*
X43207573Y-73714285D01*
X43207573Y-73714285D02*
X43093287Y-73752380D01*
X43093287Y-73752380D02*
X42636144Y-74209523D01*
X42636144Y-74209523D02*
X42636144Y-73714285D01*
X43055192Y-73104761D02*
X43017097Y-72990475D01*
X43017097Y-72990475D02*
X42979001Y-72952380D01*
X42979001Y-72952380D02*
X42902811Y-72914284D01*
X42902811Y-72914284D02*
X42788525Y-72914284D01*
X42788525Y-72914284D02*
X42712335Y-72952380D01*
X42712335Y-72952380D02*
X42674240Y-72990475D01*
X42674240Y-72990475D02*
X42636144Y-73066665D01*
X42636144Y-73066665D02*
X42636144Y-73371427D01*
X42636144Y-73371427D02*
X43436144Y-73371427D01*
X43436144Y-73371427D02*
X43436144Y-73104761D01*
X43436144Y-73104761D02*
X43398049Y-73028570D01*
X43398049Y-73028570D02*
X43359954Y-72990475D01*
X43359954Y-72990475D02*
X43283763Y-72952380D01*
X43283763Y-72952380D02*
X43207573Y-72952380D01*
X43207573Y-72952380D02*
X43131382Y-72990475D01*
X43131382Y-72990475D02*
X43093287Y-73028570D01*
X43093287Y-73028570D02*
X43055192Y-73104761D01*
X43055192Y-73104761D02*
X43055192Y-73371427D01*
X44636144Y-74990475D02*
X45436144Y-74990475D01*
X45436144Y-74990475D02*
X44864716Y-74723809D01*
X44864716Y-74723809D02*
X45436144Y-74457142D01*
X45436144Y-74457142D02*
X44636144Y-74457142D01*
X45359954Y-74114285D02*
X45398049Y-74076189D01*
X45398049Y-74076189D02*
X45436144Y-73999999D01*
X45436144Y-73999999D02*
X45436144Y-73809523D01*
X45436144Y-73809523D02*
X45398049Y-73733332D01*
X45398049Y-73733332D02*
X45359954Y-73695237D01*
X45359954Y-73695237D02*
X45283763Y-73657142D01*
X45283763Y-73657142D02*
X45207573Y-73657142D01*
X45207573Y-73657142D02*
X45093287Y-73695237D01*
X45093287Y-73695237D02*
X44636144Y-74152380D01*
X44636144Y-74152380D02*
X44636144Y-73657142D01*
X44864716Y-73352380D02*
X44864716Y-72971427D01*
X44636144Y-73428570D02*
X45436144Y-73161903D01*
X45436144Y-73161903D02*
X44636144Y-72895237D01*
X51164716Y-65561904D02*
X51164716Y-65180951D01*
X50936144Y-65638094D02*
X51736144Y-65371427D01*
X51736144Y-65371427D02*
X50936144Y-65104761D01*
X50936144Y-64838094D02*
X51736144Y-64838094D01*
X50936144Y-64038095D02*
X50936144Y-64495238D01*
X50936144Y-64266666D02*
X51736144Y-64266666D01*
X51736144Y-64266666D02*
X51621859Y-64342857D01*
X51621859Y-64342857D02*
X51545668Y-64419047D01*
X51545668Y-64419047D02*
X51507573Y-64495238D01*
X51355192Y-74014285D02*
X51355192Y-74280951D01*
X50936144Y-74280951D02*
X51736144Y-74280951D01*
X51736144Y-74280951D02*
X51736144Y-73899999D01*
X50936144Y-73214285D02*
X50936144Y-73595237D01*
X50936144Y-73595237D02*
X51736144Y-73595237D01*
X51736144Y-73061904D02*
X51736144Y-72604761D01*
X50936144Y-72833333D02*
X51736144Y-72833333D01*
X53704716Y-65561904D02*
X53704716Y-65180951D01*
X53476144Y-65638094D02*
X54276144Y-65371427D01*
X54276144Y-65371427D02*
X53476144Y-65104761D01*
X53476144Y-64838094D02*
X54276144Y-64838094D01*
X54199954Y-64495238D02*
X54238049Y-64457142D01*
X54238049Y-64457142D02*
X54276144Y-64380952D01*
X54276144Y-64380952D02*
X54276144Y-64190476D01*
X54276144Y-64190476D02*
X54238049Y-64114285D01*
X54238049Y-64114285D02*
X54199954Y-64076190D01*
X54199954Y-64076190D02*
X54123763Y-64038095D01*
X54123763Y-64038095D02*
X54047573Y-64038095D01*
X54047573Y-64038095D02*
X53933287Y-64076190D01*
X53933287Y-64076190D02*
X53476144Y-64533333D01*
X53476144Y-64533333D02*
X53476144Y-64038095D01*
X53476144Y-74547618D02*
X54276144Y-74547618D01*
X54276144Y-74547618D02*
X53704716Y-74280952D01*
X53704716Y-74280952D02*
X54276144Y-74014285D01*
X54276144Y-74014285D02*
X53476144Y-74014285D01*
X54199954Y-73671428D02*
X54238049Y-73633332D01*
X54238049Y-73633332D02*
X54276144Y-73557142D01*
X54276144Y-73557142D02*
X54276144Y-73366666D01*
X54276144Y-73366666D02*
X54238049Y-73290475D01*
X54238049Y-73290475D02*
X54199954Y-73252380D01*
X54199954Y-73252380D02*
X54123763Y-73214285D01*
X54123763Y-73214285D02*
X54047573Y-73214285D01*
X54047573Y-73214285D02*
X53933287Y-73252380D01*
X53933287Y-73252380D02*
X53476144Y-73709523D01*
X53476144Y-73709523D02*
X53476144Y-73214285D01*
X53895192Y-72604761D02*
X53857097Y-72490475D01*
X53857097Y-72490475D02*
X53819001Y-72452380D01*
X53819001Y-72452380D02*
X53742811Y-72414284D01*
X53742811Y-72414284D02*
X53628525Y-72414284D01*
X53628525Y-72414284D02*
X53552335Y-72452380D01*
X53552335Y-72452380D02*
X53514240Y-72490475D01*
X53514240Y-72490475D02*
X53476144Y-72566665D01*
X53476144Y-72566665D02*
X53476144Y-72871427D01*
X53476144Y-72871427D02*
X54276144Y-72871427D01*
X54276144Y-72871427D02*
X54276144Y-72604761D01*
X54276144Y-72604761D02*
X54238049Y-72528570D01*
X54238049Y-72528570D02*
X54199954Y-72490475D01*
X54199954Y-72490475D02*
X54123763Y-72452380D01*
X54123763Y-72452380D02*
X54047573Y-72452380D01*
X54047573Y-72452380D02*
X53971382Y-72490475D01*
X53971382Y-72490475D02*
X53933287Y-72528570D01*
X53933287Y-72528570D02*
X53895192Y-72604761D01*
X53895192Y-72604761D02*
X53895192Y-72871427D01*
X56816144Y-65866666D02*
X56016144Y-65599999D01*
X56016144Y-65599999D02*
X56816144Y-65333333D01*
X56092335Y-64609523D02*
X56054240Y-64647619D01*
X56054240Y-64647619D02*
X56016144Y-64761904D01*
X56016144Y-64761904D02*
X56016144Y-64838095D01*
X56016144Y-64838095D02*
X56054240Y-64952381D01*
X56054240Y-64952381D02*
X56130430Y-65028571D01*
X56130430Y-65028571D02*
X56206620Y-65066666D01*
X56206620Y-65066666D02*
X56359001Y-65104762D01*
X56359001Y-65104762D02*
X56473287Y-65104762D01*
X56473287Y-65104762D02*
X56625668Y-65066666D01*
X56625668Y-65066666D02*
X56701859Y-65028571D01*
X56701859Y-65028571D02*
X56778049Y-64952381D01*
X56778049Y-64952381D02*
X56816144Y-64838095D01*
X56816144Y-64838095D02*
X56816144Y-64761904D01*
X56816144Y-64761904D02*
X56778049Y-64647619D01*
X56778049Y-64647619D02*
X56739954Y-64609523D01*
X56092335Y-63809523D02*
X56054240Y-63847619D01*
X56054240Y-63847619D02*
X56016144Y-63961904D01*
X56016144Y-63961904D02*
X56016144Y-64038095D01*
X56016144Y-64038095D02*
X56054240Y-64152381D01*
X56054240Y-64152381D02*
X56130430Y-64228571D01*
X56130430Y-64228571D02*
X56206620Y-64266666D01*
X56206620Y-64266666D02*
X56359001Y-64304762D01*
X56359001Y-64304762D02*
X56473287Y-64304762D01*
X56473287Y-64304762D02*
X56625668Y-64266666D01*
X56625668Y-64266666D02*
X56701859Y-64228571D01*
X56701859Y-64228571D02*
X56778049Y-64152381D01*
X56778049Y-64152381D02*
X56816144Y-64038095D01*
X56816144Y-64038095D02*
X56816144Y-63961904D01*
X56816144Y-63961904D02*
X56778049Y-63847619D01*
X56778049Y-63847619D02*
X56739954Y-63809523D01*
X56016144Y-74490475D02*
X56816144Y-74490475D01*
X56816144Y-74490475D02*
X56244716Y-74223809D01*
X56244716Y-74223809D02*
X56816144Y-73957142D01*
X56816144Y-73957142D02*
X56016144Y-73957142D01*
X56739954Y-73614285D02*
X56778049Y-73576189D01*
X56778049Y-73576189D02*
X56816144Y-73499999D01*
X56816144Y-73499999D02*
X56816144Y-73309523D01*
X56816144Y-73309523D02*
X56778049Y-73233332D01*
X56778049Y-73233332D02*
X56739954Y-73195237D01*
X56739954Y-73195237D02*
X56663763Y-73157142D01*
X56663763Y-73157142D02*
X56587573Y-73157142D01*
X56587573Y-73157142D02*
X56473287Y-73195237D01*
X56473287Y-73195237D02*
X56016144Y-73652380D01*
X56016144Y-73652380D02*
X56016144Y-73157142D01*
X56244716Y-72852380D02*
X56244716Y-72471427D01*
X56016144Y-72928570D02*
X56816144Y-72661903D01*
X56816144Y-72661903D02*
X56016144Y-72395237D01*
X59318049Y-65409523D02*
X59356144Y-65485713D01*
X59356144Y-65485713D02*
X59356144Y-65599999D01*
X59356144Y-65599999D02*
X59318049Y-65714285D01*
X59318049Y-65714285D02*
X59241859Y-65790475D01*
X59241859Y-65790475D02*
X59165668Y-65828570D01*
X59165668Y-65828570D02*
X59013287Y-65866666D01*
X59013287Y-65866666D02*
X58899001Y-65866666D01*
X58899001Y-65866666D02*
X58746620Y-65828570D01*
X58746620Y-65828570D02*
X58670430Y-65790475D01*
X58670430Y-65790475D02*
X58594240Y-65714285D01*
X58594240Y-65714285D02*
X58556144Y-65599999D01*
X58556144Y-65599999D02*
X58556144Y-65523808D01*
X58556144Y-65523808D02*
X58594240Y-65409523D01*
X58594240Y-65409523D02*
X58632335Y-65371427D01*
X58632335Y-65371427D02*
X58899001Y-65371427D01*
X58899001Y-65371427D02*
X58899001Y-65523808D01*
X58556144Y-65028570D02*
X59356144Y-65028570D01*
X59356144Y-65028570D02*
X58556144Y-64571427D01*
X58556144Y-64571427D02*
X59356144Y-64571427D01*
X58556144Y-64190475D02*
X59356144Y-64190475D01*
X59356144Y-64190475D02*
X59356144Y-63999999D01*
X59356144Y-63999999D02*
X59318049Y-63885713D01*
X59318049Y-63885713D02*
X59241859Y-63809523D01*
X59241859Y-63809523D02*
X59165668Y-63771428D01*
X59165668Y-63771428D02*
X59013287Y-63733332D01*
X59013287Y-63733332D02*
X58899001Y-63733332D01*
X58899001Y-63733332D02*
X58746620Y-63771428D01*
X58746620Y-63771428D02*
X58670430Y-63809523D01*
X58670430Y-63809523D02*
X58594240Y-63885713D01*
X58594240Y-63885713D02*
X58556144Y-63999999D01*
X58556144Y-63999999D02*
X58556144Y-64190475D01*
X58556144Y-74547618D02*
X59356144Y-74547618D01*
X59356144Y-74547618D02*
X58784716Y-74280952D01*
X58784716Y-74280952D02*
X59356144Y-74014285D01*
X59356144Y-74014285D02*
X58556144Y-74014285D01*
X58556144Y-73214285D02*
X58556144Y-73671428D01*
X58556144Y-73442856D02*
X59356144Y-73442856D01*
X59356144Y-73442856D02*
X59241859Y-73519047D01*
X59241859Y-73519047D02*
X59165668Y-73595237D01*
X59165668Y-73595237D02*
X59127573Y-73671428D01*
X58975192Y-72604761D02*
X58937097Y-72490475D01*
X58937097Y-72490475D02*
X58899001Y-72452380D01*
X58899001Y-72452380D02*
X58822811Y-72414284D01*
X58822811Y-72414284D02*
X58708525Y-72414284D01*
X58708525Y-72414284D02*
X58632335Y-72452380D01*
X58632335Y-72452380D02*
X58594240Y-72490475D01*
X58594240Y-72490475D02*
X58556144Y-72566665D01*
X58556144Y-72566665D02*
X58556144Y-72871427D01*
X58556144Y-72871427D02*
X59356144Y-72871427D01*
X59356144Y-72871427D02*
X59356144Y-72604761D01*
X59356144Y-72604761D02*
X59318049Y-72528570D01*
X59318049Y-72528570D02*
X59279954Y-72490475D01*
X59279954Y-72490475D02*
X59203763Y-72452380D01*
X59203763Y-72452380D02*
X59127573Y-72452380D01*
X59127573Y-72452380D02*
X59051382Y-72490475D01*
X59051382Y-72490475D02*
X59013287Y-72528570D01*
X59013287Y-72528570D02*
X58975192Y-72604761D01*
X58975192Y-72604761D02*
X58975192Y-72871427D01*
X61515192Y-65314285D02*
X61477097Y-65199999D01*
X61477097Y-65199999D02*
X61439001Y-65161904D01*
X61439001Y-65161904D02*
X61362811Y-65123808D01*
X61362811Y-65123808D02*
X61248525Y-65123808D01*
X61248525Y-65123808D02*
X61172335Y-65161904D01*
X61172335Y-65161904D02*
X61134240Y-65199999D01*
X61134240Y-65199999D02*
X61096144Y-65276189D01*
X61096144Y-65276189D02*
X61096144Y-65580951D01*
X61096144Y-65580951D02*
X61896144Y-65580951D01*
X61896144Y-65580951D02*
X61896144Y-65314285D01*
X61896144Y-65314285D02*
X61858049Y-65238094D01*
X61858049Y-65238094D02*
X61819954Y-65199999D01*
X61819954Y-65199999D02*
X61743763Y-65161904D01*
X61743763Y-65161904D02*
X61667573Y-65161904D01*
X61667573Y-65161904D02*
X61591382Y-65199999D01*
X61591382Y-65199999D02*
X61553287Y-65238094D01*
X61553287Y-65238094D02*
X61515192Y-65314285D01*
X61515192Y-65314285D02*
X61515192Y-65580951D01*
X61096144Y-64780951D02*
X61896144Y-64780951D01*
X61096144Y-63980952D02*
X61096144Y-64438095D01*
X61096144Y-64209523D02*
X61896144Y-64209523D01*
X61896144Y-64209523D02*
X61781859Y-64285714D01*
X61781859Y-64285714D02*
X61705668Y-64361904D01*
X61705668Y-64361904D02*
X61667573Y-64438095D01*
X61096144Y-74490475D02*
X61896144Y-74490475D01*
X61896144Y-74490475D02*
X61324716Y-74223809D01*
X61324716Y-74223809D02*
X61896144Y-73957142D01*
X61896144Y-73957142D02*
X61096144Y-73957142D01*
X61096144Y-73157142D02*
X61096144Y-73614285D01*
X61096144Y-73385713D02*
X61896144Y-73385713D01*
X61896144Y-73385713D02*
X61781859Y-73461904D01*
X61781859Y-73461904D02*
X61705668Y-73538094D01*
X61705668Y-73538094D02*
X61667573Y-73614285D01*
X61324716Y-72852380D02*
X61324716Y-72471427D01*
X61096144Y-72928570D02*
X61896144Y-72661903D01*
X61896144Y-72661903D02*
X61096144Y-72395237D01*
X64055192Y-65314285D02*
X64017097Y-65199999D01*
X64017097Y-65199999D02*
X63979001Y-65161904D01*
X63979001Y-65161904D02*
X63902811Y-65123808D01*
X63902811Y-65123808D02*
X63788525Y-65123808D01*
X63788525Y-65123808D02*
X63712335Y-65161904D01*
X63712335Y-65161904D02*
X63674240Y-65199999D01*
X63674240Y-65199999D02*
X63636144Y-65276189D01*
X63636144Y-65276189D02*
X63636144Y-65580951D01*
X63636144Y-65580951D02*
X64436144Y-65580951D01*
X64436144Y-65580951D02*
X64436144Y-65314285D01*
X64436144Y-65314285D02*
X64398049Y-65238094D01*
X64398049Y-65238094D02*
X64359954Y-65199999D01*
X64359954Y-65199999D02*
X64283763Y-65161904D01*
X64283763Y-65161904D02*
X64207573Y-65161904D01*
X64207573Y-65161904D02*
X64131382Y-65199999D01*
X64131382Y-65199999D02*
X64093287Y-65238094D01*
X64093287Y-65238094D02*
X64055192Y-65314285D01*
X64055192Y-65314285D02*
X64055192Y-65580951D01*
X63636144Y-64780951D02*
X64436144Y-64780951D01*
X64359954Y-64438095D02*
X64398049Y-64399999D01*
X64398049Y-64399999D02*
X64436144Y-64323809D01*
X64436144Y-64323809D02*
X64436144Y-64133333D01*
X64436144Y-64133333D02*
X64398049Y-64057142D01*
X64398049Y-64057142D02*
X64359954Y-64019047D01*
X64359954Y-64019047D02*
X64283763Y-63980952D01*
X64283763Y-63980952D02*
X64207573Y-63980952D01*
X64207573Y-63980952D02*
X64093287Y-64019047D01*
X64093287Y-64019047D02*
X63636144Y-64476190D01*
X63636144Y-64476190D02*
X63636144Y-63980952D01*
X64055192Y-74433333D02*
X64055192Y-74166667D01*
X63636144Y-74052381D02*
X63636144Y-74433333D01*
X63636144Y-74433333D02*
X64436144Y-74433333D01*
X64436144Y-74433333D02*
X64436144Y-74052381D01*
X64055192Y-73709523D02*
X64055192Y-73442857D01*
X63636144Y-73328571D02*
X63636144Y-73709523D01*
X63636144Y-73709523D02*
X64436144Y-73709523D01*
X64436144Y-73709523D02*
X64436144Y-73328571D01*
X63636144Y-72985713D02*
X64436144Y-72985713D01*
X64436144Y-72985713D02*
X64436144Y-72680951D01*
X64436144Y-72680951D02*
X64398049Y-72604761D01*
X64398049Y-72604761D02*
X64359954Y-72566666D01*
X64359954Y-72566666D02*
X64283763Y-72528570D01*
X64283763Y-72528570D02*
X64169478Y-72528570D01*
X64169478Y-72528570D02*
X64093287Y-72566666D01*
X64093287Y-72566666D02*
X64055192Y-72604761D01*
X64055192Y-72604761D02*
X64017097Y-72680951D01*
X64017097Y-72680951D02*
X64017097Y-72985713D01*
X78636144Y-67204761D02*
X78636144Y-67585713D01*
X78636144Y-67585713D02*
X79436144Y-67585713D01*
X78636144Y-66938094D02*
X79169478Y-66938094D01*
X79436144Y-66938094D02*
X79398049Y-66976190D01*
X79398049Y-66976190D02*
X79359954Y-66938094D01*
X79359954Y-66938094D02*
X79398049Y-66899999D01*
X79398049Y-66899999D02*
X79436144Y-66938094D01*
X79436144Y-66938094D02*
X79359954Y-66938094D01*
X78636144Y-66557142D02*
X79436144Y-66557142D01*
X79436144Y-66557142D02*
X79436144Y-66252380D01*
X79436144Y-66252380D02*
X79398049Y-66176190D01*
X79398049Y-66176190D02*
X79359954Y-66138095D01*
X79359954Y-66138095D02*
X79283763Y-66099999D01*
X79283763Y-66099999D02*
X79169478Y-66099999D01*
X79169478Y-66099999D02*
X79093287Y-66138095D01*
X79093287Y-66138095D02*
X79055192Y-66176190D01*
X79055192Y-66176190D02*
X79017097Y-66252380D01*
X79017097Y-66252380D02*
X79017097Y-66557142D01*
X78636144Y-65642857D02*
X78674240Y-65719047D01*
X78674240Y-65719047D02*
X78712335Y-65757142D01*
X78712335Y-65757142D02*
X78788525Y-65795238D01*
X78788525Y-65795238D02*
X79017097Y-65795238D01*
X79017097Y-65795238D02*
X79093287Y-65757142D01*
X79093287Y-65757142D02*
X79131382Y-65719047D01*
X79131382Y-65719047D02*
X79169478Y-65642857D01*
X79169478Y-65642857D02*
X79169478Y-65528571D01*
X79169478Y-65528571D02*
X79131382Y-65452380D01*
X79131382Y-65452380D02*
X79093287Y-65414285D01*
X79093287Y-65414285D02*
X79017097Y-65376190D01*
X79017097Y-65376190D02*
X78788525Y-65376190D01*
X78788525Y-65376190D02*
X78712335Y-65414285D01*
X78712335Y-65414285D02*
X78674240Y-65452380D01*
X78674240Y-65452380D02*
X78636144Y-65528571D01*
X78636144Y-65528571D02*
X78636144Y-65642857D01*
D11*
X34743734Y-45967657D02*
X34696115Y-45920038D01*
X34696115Y-45920038D02*
X34600877Y-45872419D01*
X34600877Y-45872419D02*
X34362782Y-45872419D01*
X34362782Y-45872419D02*
X34267544Y-45920038D01*
X34267544Y-45920038D02*
X34219925Y-45967657D01*
X34219925Y-45967657D02*
X34172306Y-46062895D01*
X34172306Y-46062895D02*
X34172306Y-46158133D01*
X34172306Y-46158133D02*
X34219925Y-46300990D01*
X34219925Y-46300990D02*
X34791353Y-46872419D01*
X34791353Y-46872419D02*
X34172306Y-46872419D01*
X33791353Y-46824800D02*
X33648496Y-46872419D01*
X33648496Y-46872419D02*
X33410401Y-46872419D01*
X33410401Y-46872419D02*
X33315163Y-46824800D01*
X33315163Y-46824800D02*
X33267544Y-46777180D01*
X33267544Y-46777180D02*
X33219925Y-46681942D01*
X33219925Y-46681942D02*
X33219925Y-46586704D01*
X33219925Y-46586704D02*
X33267544Y-46491466D01*
X33267544Y-46491466D02*
X33315163Y-46443847D01*
X33315163Y-46443847D02*
X33410401Y-46396228D01*
X33410401Y-46396228D02*
X33600877Y-46348609D01*
X33600877Y-46348609D02*
X33696115Y-46300990D01*
X33696115Y-46300990D02*
X33743734Y-46253371D01*
X33743734Y-46253371D02*
X33791353Y-46158133D01*
X33791353Y-46158133D02*
X33791353Y-46062895D01*
X33791353Y-46062895D02*
X33743734Y-45967657D01*
X33743734Y-45967657D02*
X33696115Y-45920038D01*
X33696115Y-45920038D02*
X33600877Y-45872419D01*
X33600877Y-45872419D02*
X33362782Y-45872419D01*
X33362782Y-45872419D02*
X33219925Y-45920038D01*
X32077068Y-45824800D02*
X32934210Y-47110514D01*
X31838972Y-45872419D02*
X31172306Y-45872419D01*
X31172306Y-45872419D02*
X31600877Y-46872419D01*
X30791353Y-46777180D02*
X30743734Y-46824800D01*
X30743734Y-46824800D02*
X30791353Y-46872419D01*
X30791353Y-46872419D02*
X30838972Y-46824800D01*
X30838972Y-46824800D02*
X30791353Y-46777180D01*
X30791353Y-46777180D02*
X30791353Y-46872419D01*
X29886592Y-46205752D02*
X29886592Y-46872419D01*
X30124687Y-45824800D02*
X30362782Y-46539085D01*
X30362782Y-46539085D02*
X29743735Y-46539085D01*
X29505639Y-45872419D02*
X29172306Y-46872419D01*
X29172306Y-46872419D02*
X28838973Y-45872419D01*
X34791353Y-48372419D02*
X34172306Y-48372419D01*
X34172306Y-48372419D02*
X34505639Y-48753371D01*
X34505639Y-48753371D02*
X34362782Y-48753371D01*
X34362782Y-48753371D02*
X34267544Y-48800990D01*
X34267544Y-48800990D02*
X34219925Y-48848609D01*
X34219925Y-48848609D02*
X34172306Y-48943847D01*
X34172306Y-48943847D02*
X34172306Y-49181942D01*
X34172306Y-49181942D02*
X34219925Y-49277180D01*
X34219925Y-49277180D02*
X34267544Y-49324800D01*
X34267544Y-49324800D02*
X34362782Y-49372419D01*
X34362782Y-49372419D02*
X34648496Y-49372419D01*
X34648496Y-49372419D02*
X34743734Y-49324800D01*
X34743734Y-49324800D02*
X34791353Y-49277180D01*
X33886591Y-48372419D02*
X33553258Y-49372419D01*
X33553258Y-49372419D02*
X33219925Y-48372419D01*
X32981829Y-48372419D02*
X32362782Y-48372419D01*
X32362782Y-48372419D02*
X32696115Y-48753371D01*
X32696115Y-48753371D02*
X32553258Y-48753371D01*
X32553258Y-48753371D02*
X32458020Y-48800990D01*
X32458020Y-48800990D02*
X32410401Y-48848609D01*
X32410401Y-48848609D02*
X32362782Y-48943847D01*
X32362782Y-48943847D02*
X32362782Y-49181942D01*
X32362782Y-49181942D02*
X32410401Y-49277180D01*
X32410401Y-49277180D02*
X32458020Y-49324800D01*
X32458020Y-49324800D02*
X32553258Y-49372419D01*
X32553258Y-49372419D02*
X32838972Y-49372419D01*
X32838972Y-49372419D02*
X32934210Y-49324800D01*
X32934210Y-49324800D02*
X32981829Y-49277180D01*
X34172306Y-51872419D02*
X34743734Y-51872419D01*
X34458020Y-51872419D02*
X34458020Y-50872419D01*
X34458020Y-50872419D02*
X34553258Y-51015276D01*
X34553258Y-51015276D02*
X34648496Y-51110514D01*
X34648496Y-51110514D02*
X34743734Y-51158133D01*
X33791353Y-51824800D02*
X33648496Y-51872419D01*
X33648496Y-51872419D02*
X33410401Y-51872419D01*
X33410401Y-51872419D02*
X33315163Y-51824800D01*
X33315163Y-51824800D02*
X33267544Y-51777180D01*
X33267544Y-51777180D02*
X33219925Y-51681942D01*
X33219925Y-51681942D02*
X33219925Y-51586704D01*
X33219925Y-51586704D02*
X33267544Y-51491466D01*
X33267544Y-51491466D02*
X33315163Y-51443847D01*
X33315163Y-51443847D02*
X33410401Y-51396228D01*
X33410401Y-51396228D02*
X33600877Y-51348609D01*
X33600877Y-51348609D02*
X33696115Y-51300990D01*
X33696115Y-51300990D02*
X33743734Y-51253371D01*
X33743734Y-51253371D02*
X33791353Y-51158133D01*
X33791353Y-51158133D02*
X33791353Y-51062895D01*
X33791353Y-51062895D02*
X33743734Y-50967657D01*
X33743734Y-50967657D02*
X33696115Y-50920038D01*
X33696115Y-50920038D02*
X33600877Y-50872419D01*
X33600877Y-50872419D02*
X33362782Y-50872419D01*
X33362782Y-50872419D02*
X33219925Y-50920038D01*
X32077068Y-50824800D02*
X32934210Y-52110514D01*
X31838972Y-50872419D02*
X31219925Y-50872419D01*
X31219925Y-50872419D02*
X31553258Y-51253371D01*
X31553258Y-51253371D02*
X31410401Y-51253371D01*
X31410401Y-51253371D02*
X31315163Y-51300990D01*
X31315163Y-51300990D02*
X31267544Y-51348609D01*
X31267544Y-51348609D02*
X31219925Y-51443847D01*
X31219925Y-51443847D02*
X31219925Y-51681942D01*
X31219925Y-51681942D02*
X31267544Y-51777180D01*
X31267544Y-51777180D02*
X31315163Y-51824800D01*
X31315163Y-51824800D02*
X31410401Y-51872419D01*
X31410401Y-51872419D02*
X31696115Y-51872419D01*
X31696115Y-51872419D02*
X31791353Y-51824800D01*
X31791353Y-51824800D02*
X31838972Y-51777180D01*
X30791353Y-51777180D02*
X30743734Y-51824800D01*
X30743734Y-51824800D02*
X30791353Y-51872419D01*
X30791353Y-51872419D02*
X30838972Y-51824800D01*
X30838972Y-51824800D02*
X30791353Y-51777180D01*
X30791353Y-51777180D02*
X30791353Y-51872419D01*
X30410401Y-50872419D02*
X29743735Y-50872419D01*
X29743735Y-50872419D02*
X30172306Y-51872419D01*
X29505639Y-50872419D02*
X29172306Y-51872419D01*
X29172306Y-51872419D02*
X28838973Y-50872419D01*
M02*
