%TF.GenerationSoftware,KiCad,Pcbnew,9.0.8+dfsg-1*%
%TF.CreationDate,2026-08-12T08:56:44+02:00*%
%TF.ProjectId,rein-2s-controller,7265696e-2d32-4732-9d63-6f6e74726f6c,rev?*%
%TF.SameCoordinates,Original*%
%TF.FileFunction,Soldermask,Bot*%
%TF.FilePolarity,Negative*%
%FSLAX46Y46*%
G04 Gerber Fmt 4.6, Leading zero omitted, Abs format (unit mm)*
G04 Created by KiCad (PCBNEW 9.0.8+dfsg-1) date 2026-08-12 08:56:44*
%MOMM*%
%LPD*%
G01*
G04 APERTURE LIST*
%ADD10R,2.000000X2.000000*%
%ADD11C,2.000000*%
%ADD12R,1.800000X1.800000*%
%ADD13C,1.800000*%
G04 APERTURE END LIST*
D10*
%TO.C,J8*%
X26360000Y-19010000D03*
D11*
X26360000Y-21550000D03*
X26360000Y-24090000D03*
X26360000Y-26630000D03*
X26360000Y-29170000D03*
X26360000Y-31710000D03*
X26360000Y-34250000D03*
X26360000Y-36790000D03*
%TD*%
D10*
%TO.C,SW1*%
X22200000Y-76500000D03*
D11*
X27200000Y-76500000D03*
%TD*%
D10*
%TO.C,U3*%
X26960000Y-68500000D03*
D11*
X29500000Y-68500000D03*
X32040000Y-68500000D03*
%TD*%
D10*
%TO.C,J10*%
X42420000Y-76500000D03*
D11*
X44960000Y-76500000D03*
X47500000Y-76500000D03*
%TD*%
D10*
%TO.C,U1*%
X28900000Y-19010000D03*
D11*
X28900000Y-21550000D03*
X28900000Y-24090000D03*
X28900000Y-26630000D03*
X28900000Y-29170000D03*
X28900000Y-31710000D03*
X28900000Y-34250000D03*
X28900000Y-36790000D03*
X44140000Y-36790000D03*
X44140000Y-34250000D03*
X44140000Y-31710000D03*
X44140000Y-29170000D03*
X44140000Y-26630000D03*
X44140000Y-24090000D03*
X44140000Y-21550000D03*
X44140000Y-19010000D03*
%TD*%
D12*
%TO.C,J6*%
X21500000Y-52040000D03*
D13*
X21500000Y-54040000D03*
%TD*%
D12*
%TO.C,J4*%
X34500000Y-76500000D03*
D13*
X36500000Y-76500000D03*
%TD*%
D10*
%TO.C,U2*%
X43020000Y-44470000D03*
D11*
X43020000Y-59710000D03*
X40480000Y-44470000D03*
X40480000Y-59710000D03*
X37940000Y-44470000D03*
X37940000Y-59710000D03*
X35400000Y-44470000D03*
X35400000Y-59710000D03*
X32860000Y-44470000D03*
X32860000Y-59710000D03*
X30320000Y-44470000D03*
X30320000Y-59710000D03*
%TD*%
D10*
%TO.C,J9*%
X46680000Y-36790000D03*
D11*
X46680000Y-34250000D03*
X46680000Y-31710000D03*
X46680000Y-29170000D03*
X46680000Y-26630000D03*
X46680000Y-24090000D03*
X46680000Y-21550000D03*
X46680000Y-19010000D03*
%TD*%
D12*
%TO.C,J5*%
X51500000Y-54000000D03*
D13*
X51500000Y-52000000D03*
%TD*%
D10*
%TO.C,C1_C2*%
X53000000Y-68500000D03*
D11*
X53000000Y-72500000D03*
%TD*%
M02*
