%TF.GenerationSoftware,KiCad,Pcbnew,9.0.8+dfsg-1*%
%TF.CreationDate,2026-08-12T08:56:12+02:00*%
%TF.ProjectId,rein-2s-controller,7265696e-2d32-4732-9d63-6f6e74726f6c,rev?*%
%TF.SameCoordinates,Original*%
%TF.FileFunction,Legend,Top*%
%TF.FilePolarity,Positive*%
%FSLAX46Y46*%
G04 Gerber Fmt 4.6, Leading zero omitted, Abs format (unit mm)*
G04 Created by KiCad (PCBNEW 9.0.8+dfsg-1) date 2026-08-12 08:56:12*
%MOMM*%
%LPD*%
G01*
G04 APERTURE LIST*
%ADD10C,0.120000*%
G04 APERTURE END LIST*
D10*
X17509524Y-52363855D02*
X17509524Y-51563855D01*
X17509524Y-51563855D02*
X17776190Y-52135283D01*
X17776190Y-52135283D02*
X18042857Y-51563855D01*
X18042857Y-51563855D02*
X18042857Y-52363855D01*
X18842857Y-52363855D02*
X18385714Y-52363855D01*
X18614286Y-52363855D02*
X18614286Y-51563855D01*
X18614286Y-51563855D02*
X18538095Y-51678140D01*
X18538095Y-51678140D02*
X18461905Y-51754331D01*
X18461905Y-51754331D02*
X18385714Y-51792426D01*
X19147619Y-52135283D02*
X19528572Y-52135283D01*
X19071429Y-52363855D02*
X19338096Y-51563855D01*
X19338096Y-51563855D02*
X19604762Y-52363855D01*
X17452381Y-54363855D02*
X17452381Y-53563855D01*
X17452381Y-53563855D02*
X17719047Y-54135283D01*
X17719047Y-54135283D02*
X17985714Y-53563855D01*
X17985714Y-53563855D02*
X17985714Y-54363855D01*
X18785714Y-54363855D02*
X18328571Y-54363855D01*
X18557143Y-54363855D02*
X18557143Y-53563855D01*
X18557143Y-53563855D02*
X18480952Y-53678140D01*
X18480952Y-53678140D02*
X18404762Y-53754331D01*
X18404762Y-53754331D02*
X18328571Y-53792426D01*
X19395238Y-53944807D02*
X19509524Y-53982902D01*
X19509524Y-53982902D02*
X19547619Y-54020998D01*
X19547619Y-54020998D02*
X19585715Y-54097188D01*
X19585715Y-54097188D02*
X19585715Y-54211474D01*
X19585715Y-54211474D02*
X19547619Y-54287664D01*
X19547619Y-54287664D02*
X19509524Y-54325760D01*
X19509524Y-54325760D02*
X19433334Y-54363855D01*
X19433334Y-54363855D02*
X19128572Y-54363855D01*
X19128572Y-54363855D02*
X19128572Y-53563855D01*
X19128572Y-53563855D02*
X19395238Y-53563855D01*
X19395238Y-53563855D02*
X19471429Y-53601950D01*
X19471429Y-53601950D02*
X19509524Y-53640045D01*
X19509524Y-53640045D02*
X19547619Y-53716236D01*
X19547619Y-53716236D02*
X19547619Y-53792426D01*
X19547619Y-53792426D02*
X19509524Y-53868617D01*
X19509524Y-53868617D02*
X19471429Y-53906712D01*
X19471429Y-53906712D02*
X19395238Y-53944807D01*
X19395238Y-53944807D02*
X19128572Y-53944807D01*
X21085715Y-78559093D02*
X21695239Y-78559093D01*
X21390477Y-78863855D02*
X21390477Y-78254331D01*
X22076191Y-78863855D02*
X22076191Y-78063855D01*
X22457143Y-78863855D02*
X22457143Y-78063855D01*
X22457143Y-78063855D02*
X22914286Y-78863855D01*
X22914286Y-78863855D02*
X22914286Y-78063855D01*
X23647619Y-18573855D02*
X23266667Y-18573855D01*
X23266667Y-18573855D02*
X23228571Y-18954807D01*
X23228571Y-18954807D02*
X23266667Y-18916712D01*
X23266667Y-18916712D02*
X23342857Y-18878617D01*
X23342857Y-18878617D02*
X23533333Y-18878617D01*
X23533333Y-18878617D02*
X23609524Y-18916712D01*
X23609524Y-18916712D02*
X23647619Y-18954807D01*
X23647619Y-18954807D02*
X23685714Y-19030998D01*
X23685714Y-19030998D02*
X23685714Y-19221474D01*
X23685714Y-19221474D02*
X23647619Y-19297664D01*
X23647619Y-19297664D02*
X23609524Y-19335760D01*
X23609524Y-19335760D02*
X23533333Y-19373855D01*
X23533333Y-19373855D02*
X23342857Y-19373855D01*
X23342857Y-19373855D02*
X23266667Y-19335760D01*
X23266667Y-19335760D02*
X23228571Y-19297664D01*
X23914286Y-18573855D02*
X24180953Y-19373855D01*
X24180953Y-19373855D02*
X24447619Y-18573855D01*
X23190476Y-21151950D02*
X23114286Y-21113855D01*
X23114286Y-21113855D02*
X23000000Y-21113855D01*
X23000000Y-21113855D02*
X22885714Y-21151950D01*
X22885714Y-21151950D02*
X22809524Y-21228140D01*
X22809524Y-21228140D02*
X22771429Y-21304331D01*
X22771429Y-21304331D02*
X22733333Y-21456712D01*
X22733333Y-21456712D02*
X22733333Y-21570998D01*
X22733333Y-21570998D02*
X22771429Y-21723379D01*
X22771429Y-21723379D02*
X22809524Y-21799569D01*
X22809524Y-21799569D02*
X22885714Y-21875760D01*
X22885714Y-21875760D02*
X23000000Y-21913855D01*
X23000000Y-21913855D02*
X23076191Y-21913855D01*
X23076191Y-21913855D02*
X23190476Y-21875760D01*
X23190476Y-21875760D02*
X23228572Y-21837664D01*
X23228572Y-21837664D02*
X23228572Y-21570998D01*
X23228572Y-21570998D02*
X23076191Y-21570998D01*
X23571429Y-21913855D02*
X23571429Y-21113855D01*
X23571429Y-21113855D02*
X24028572Y-21913855D01*
X24028572Y-21913855D02*
X24028572Y-21113855D01*
X24409524Y-21913855D02*
X24409524Y-21113855D01*
X24409524Y-21113855D02*
X24600000Y-21113855D01*
X24600000Y-21113855D02*
X24714286Y-21151950D01*
X24714286Y-21151950D02*
X24790476Y-21228140D01*
X24790476Y-21228140D02*
X24828571Y-21304331D01*
X24828571Y-21304331D02*
X24866667Y-21456712D01*
X24866667Y-21456712D02*
X24866667Y-21570998D01*
X24866667Y-21570998D02*
X24828571Y-21723379D01*
X24828571Y-21723379D02*
X24790476Y-21799569D01*
X24790476Y-21799569D02*
X24714286Y-21875760D01*
X24714286Y-21875760D02*
X24600000Y-21913855D01*
X24600000Y-21913855D02*
X24409524Y-21913855D01*
X22809523Y-23653855D02*
X23304761Y-23653855D01*
X23304761Y-23653855D02*
X23038095Y-23958617D01*
X23038095Y-23958617D02*
X23152380Y-23958617D01*
X23152380Y-23958617D02*
X23228571Y-23996712D01*
X23228571Y-23996712D02*
X23266666Y-24034807D01*
X23266666Y-24034807D02*
X23304761Y-24110998D01*
X23304761Y-24110998D02*
X23304761Y-24301474D01*
X23304761Y-24301474D02*
X23266666Y-24377664D01*
X23266666Y-24377664D02*
X23228571Y-24415760D01*
X23228571Y-24415760D02*
X23152380Y-24453855D01*
X23152380Y-24453855D02*
X22923809Y-24453855D01*
X22923809Y-24453855D02*
X22847618Y-24415760D01*
X22847618Y-24415760D02*
X22809523Y-24377664D01*
X23533333Y-23653855D02*
X23800000Y-24453855D01*
X23800000Y-24453855D02*
X24066666Y-23653855D01*
X24257142Y-23653855D02*
X24752380Y-23653855D01*
X24752380Y-23653855D02*
X24485714Y-23958617D01*
X24485714Y-23958617D02*
X24599999Y-23958617D01*
X24599999Y-23958617D02*
X24676190Y-23996712D01*
X24676190Y-23996712D02*
X24714285Y-24034807D01*
X24714285Y-24034807D02*
X24752380Y-24110998D01*
X24752380Y-24110998D02*
X24752380Y-24301474D01*
X24752380Y-24301474D02*
X24714285Y-24377664D01*
X24714285Y-24377664D02*
X24676190Y-24415760D01*
X24676190Y-24415760D02*
X24599999Y-24453855D01*
X24599999Y-24453855D02*
X24371428Y-24453855D01*
X24371428Y-24453855D02*
X24295237Y-24415760D01*
X24295237Y-24415760D02*
X24257142Y-24377664D01*
X23628571Y-26231950D02*
X23552381Y-26193855D01*
X23552381Y-26193855D02*
X23438095Y-26193855D01*
X23438095Y-26193855D02*
X23323809Y-26231950D01*
X23323809Y-26231950D02*
X23247619Y-26308140D01*
X23247619Y-26308140D02*
X23209524Y-26384331D01*
X23209524Y-26384331D02*
X23171428Y-26536712D01*
X23171428Y-26536712D02*
X23171428Y-26650998D01*
X23171428Y-26650998D02*
X23209524Y-26803379D01*
X23209524Y-26803379D02*
X23247619Y-26879569D01*
X23247619Y-26879569D02*
X23323809Y-26955760D01*
X23323809Y-26955760D02*
X23438095Y-26993855D01*
X23438095Y-26993855D02*
X23514286Y-26993855D01*
X23514286Y-26993855D02*
X23628571Y-26955760D01*
X23628571Y-26955760D02*
X23666667Y-26917664D01*
X23666667Y-26917664D02*
X23666667Y-26650998D01*
X23666667Y-26650998D02*
X23514286Y-26650998D01*
X24352381Y-26460521D02*
X24352381Y-26993855D01*
X24161905Y-26155760D02*
X23971428Y-26727188D01*
X23971428Y-26727188D02*
X24466667Y-26727188D01*
X23628571Y-28771950D02*
X23552381Y-28733855D01*
X23552381Y-28733855D02*
X23438095Y-28733855D01*
X23438095Y-28733855D02*
X23323809Y-28771950D01*
X23323809Y-28771950D02*
X23247619Y-28848140D01*
X23247619Y-28848140D02*
X23209524Y-28924331D01*
X23209524Y-28924331D02*
X23171428Y-29076712D01*
X23171428Y-29076712D02*
X23171428Y-29190998D01*
X23171428Y-29190998D02*
X23209524Y-29343379D01*
X23209524Y-29343379D02*
X23247619Y-29419569D01*
X23247619Y-29419569D02*
X23323809Y-29495760D01*
X23323809Y-29495760D02*
X23438095Y-29533855D01*
X23438095Y-29533855D02*
X23514286Y-29533855D01*
X23514286Y-29533855D02*
X23628571Y-29495760D01*
X23628571Y-29495760D02*
X23666667Y-29457664D01*
X23666667Y-29457664D02*
X23666667Y-29190998D01*
X23666667Y-29190998D02*
X23514286Y-29190998D01*
X23933333Y-28733855D02*
X24428571Y-28733855D01*
X24428571Y-28733855D02*
X24161905Y-29038617D01*
X24161905Y-29038617D02*
X24276190Y-29038617D01*
X24276190Y-29038617D02*
X24352381Y-29076712D01*
X24352381Y-29076712D02*
X24390476Y-29114807D01*
X24390476Y-29114807D02*
X24428571Y-29190998D01*
X24428571Y-29190998D02*
X24428571Y-29381474D01*
X24428571Y-29381474D02*
X24390476Y-29457664D01*
X24390476Y-29457664D02*
X24352381Y-29495760D01*
X24352381Y-29495760D02*
X24276190Y-29533855D01*
X24276190Y-29533855D02*
X24047619Y-29533855D01*
X24047619Y-29533855D02*
X23971428Y-29495760D01*
X23971428Y-29495760D02*
X23933333Y-29457664D01*
X23628571Y-31311950D02*
X23552381Y-31273855D01*
X23552381Y-31273855D02*
X23438095Y-31273855D01*
X23438095Y-31273855D02*
X23323809Y-31311950D01*
X23323809Y-31311950D02*
X23247619Y-31388140D01*
X23247619Y-31388140D02*
X23209524Y-31464331D01*
X23209524Y-31464331D02*
X23171428Y-31616712D01*
X23171428Y-31616712D02*
X23171428Y-31730998D01*
X23171428Y-31730998D02*
X23209524Y-31883379D01*
X23209524Y-31883379D02*
X23247619Y-31959569D01*
X23247619Y-31959569D02*
X23323809Y-32035760D01*
X23323809Y-32035760D02*
X23438095Y-32073855D01*
X23438095Y-32073855D02*
X23514286Y-32073855D01*
X23514286Y-32073855D02*
X23628571Y-32035760D01*
X23628571Y-32035760D02*
X23666667Y-31997664D01*
X23666667Y-31997664D02*
X23666667Y-31730998D01*
X23666667Y-31730998D02*
X23514286Y-31730998D01*
X23971428Y-31350045D02*
X24009524Y-31311950D01*
X24009524Y-31311950D02*
X24085714Y-31273855D01*
X24085714Y-31273855D02*
X24276190Y-31273855D01*
X24276190Y-31273855D02*
X24352381Y-31311950D01*
X24352381Y-31311950D02*
X24390476Y-31350045D01*
X24390476Y-31350045D02*
X24428571Y-31426236D01*
X24428571Y-31426236D02*
X24428571Y-31502426D01*
X24428571Y-31502426D02*
X24390476Y-31616712D01*
X24390476Y-31616712D02*
X23933333Y-32073855D01*
X23933333Y-32073855D02*
X24428571Y-32073855D01*
X23628571Y-33851950D02*
X23552381Y-33813855D01*
X23552381Y-33813855D02*
X23438095Y-33813855D01*
X23438095Y-33813855D02*
X23323809Y-33851950D01*
X23323809Y-33851950D02*
X23247619Y-33928140D01*
X23247619Y-33928140D02*
X23209524Y-34004331D01*
X23209524Y-34004331D02*
X23171428Y-34156712D01*
X23171428Y-34156712D02*
X23171428Y-34270998D01*
X23171428Y-34270998D02*
X23209524Y-34423379D01*
X23209524Y-34423379D02*
X23247619Y-34499569D01*
X23247619Y-34499569D02*
X23323809Y-34575760D01*
X23323809Y-34575760D02*
X23438095Y-34613855D01*
X23438095Y-34613855D02*
X23514286Y-34613855D01*
X23514286Y-34613855D02*
X23628571Y-34575760D01*
X23628571Y-34575760D02*
X23666667Y-34537664D01*
X23666667Y-34537664D02*
X23666667Y-34270998D01*
X23666667Y-34270998D02*
X23514286Y-34270998D01*
X24428571Y-34613855D02*
X23971428Y-34613855D01*
X24200000Y-34613855D02*
X24200000Y-33813855D01*
X24200000Y-33813855D02*
X24123809Y-33928140D01*
X24123809Y-33928140D02*
X24047619Y-34004331D01*
X24047619Y-34004331D02*
X23971428Y-34042426D01*
X23628571Y-36391950D02*
X23552381Y-36353855D01*
X23552381Y-36353855D02*
X23438095Y-36353855D01*
X23438095Y-36353855D02*
X23323809Y-36391950D01*
X23323809Y-36391950D02*
X23247619Y-36468140D01*
X23247619Y-36468140D02*
X23209524Y-36544331D01*
X23209524Y-36544331D02*
X23171428Y-36696712D01*
X23171428Y-36696712D02*
X23171428Y-36810998D01*
X23171428Y-36810998D02*
X23209524Y-36963379D01*
X23209524Y-36963379D02*
X23247619Y-37039569D01*
X23247619Y-37039569D02*
X23323809Y-37115760D01*
X23323809Y-37115760D02*
X23438095Y-37153855D01*
X23438095Y-37153855D02*
X23514286Y-37153855D01*
X23514286Y-37153855D02*
X23628571Y-37115760D01*
X23628571Y-37115760D02*
X23666667Y-37077664D01*
X23666667Y-37077664D02*
X23666667Y-36810998D01*
X23666667Y-36810998D02*
X23514286Y-36810998D01*
X24161905Y-36353855D02*
X24238095Y-36353855D01*
X24238095Y-36353855D02*
X24314286Y-36391950D01*
X24314286Y-36391950D02*
X24352381Y-36430045D01*
X24352381Y-36430045D02*
X24390476Y-36506236D01*
X24390476Y-36506236D02*
X24428571Y-36658617D01*
X24428571Y-36658617D02*
X24428571Y-36849093D01*
X24428571Y-36849093D02*
X24390476Y-37001474D01*
X24390476Y-37001474D02*
X24352381Y-37077664D01*
X24352381Y-37077664D02*
X24314286Y-37115760D01*
X24314286Y-37115760D02*
X24238095Y-37153855D01*
X24238095Y-37153855D02*
X24161905Y-37153855D01*
X24161905Y-37153855D02*
X24085714Y-37115760D01*
X24085714Y-37115760D02*
X24047619Y-37077664D01*
X24047619Y-37077664D02*
X24009524Y-37001474D01*
X24009524Y-37001474D02*
X23971428Y-36849093D01*
X23971428Y-36849093D02*
X23971428Y-36658617D01*
X23971428Y-36658617D02*
X24009524Y-36506236D01*
X24009524Y-36506236D02*
X24047619Y-36430045D01*
X24047619Y-36430045D02*
X24085714Y-36391950D01*
X24085714Y-36391950D02*
X24161905Y-36353855D01*
X22961903Y-74825760D02*
X23076189Y-74863855D01*
X23076189Y-74863855D02*
X23266665Y-74863855D01*
X23266665Y-74863855D02*
X23342856Y-74825760D01*
X23342856Y-74825760D02*
X23380951Y-74787664D01*
X23380951Y-74787664D02*
X23419046Y-74711474D01*
X23419046Y-74711474D02*
X23419046Y-74635283D01*
X23419046Y-74635283D02*
X23380951Y-74559093D01*
X23380951Y-74559093D02*
X23342856Y-74520998D01*
X23342856Y-74520998D02*
X23266665Y-74482902D01*
X23266665Y-74482902D02*
X23114284Y-74444807D01*
X23114284Y-74444807D02*
X23038094Y-74406712D01*
X23038094Y-74406712D02*
X22999999Y-74368617D01*
X22999999Y-74368617D02*
X22961903Y-74292426D01*
X22961903Y-74292426D02*
X22961903Y-74216236D01*
X22961903Y-74216236D02*
X22999999Y-74140045D01*
X22999999Y-74140045D02*
X23038094Y-74101950D01*
X23038094Y-74101950D02*
X23114284Y-74063855D01*
X23114284Y-74063855D02*
X23304761Y-74063855D01*
X23304761Y-74063855D02*
X23419046Y-74101950D01*
X23685713Y-74063855D02*
X23876189Y-74863855D01*
X23876189Y-74863855D02*
X24028570Y-74292426D01*
X24028570Y-74292426D02*
X24180951Y-74863855D01*
X24180951Y-74863855D02*
X24371428Y-74063855D01*
X25285714Y-74444807D02*
X25552380Y-74444807D01*
X25666666Y-74863855D02*
X25285714Y-74863855D01*
X25285714Y-74863855D02*
X25285714Y-74063855D01*
X25285714Y-74063855D02*
X25666666Y-74063855D01*
X25933333Y-74063855D02*
X26466667Y-74863855D01*
X26466667Y-74063855D02*
X25933333Y-74863855D01*
X26657143Y-74063855D02*
X27114286Y-74063855D01*
X26885714Y-74863855D02*
X26885714Y-74063855D01*
X25209523Y-78444807D02*
X25323809Y-78482902D01*
X25323809Y-78482902D02*
X25361904Y-78520998D01*
X25361904Y-78520998D02*
X25400000Y-78597188D01*
X25400000Y-78597188D02*
X25400000Y-78711474D01*
X25400000Y-78711474D02*
X25361904Y-78787664D01*
X25361904Y-78787664D02*
X25323809Y-78825760D01*
X25323809Y-78825760D02*
X25247619Y-78863855D01*
X25247619Y-78863855D02*
X24942857Y-78863855D01*
X24942857Y-78863855D02*
X24942857Y-78063855D01*
X24942857Y-78063855D02*
X25209523Y-78063855D01*
X25209523Y-78063855D02*
X25285714Y-78101950D01*
X25285714Y-78101950D02*
X25323809Y-78140045D01*
X25323809Y-78140045D02*
X25361904Y-78216236D01*
X25361904Y-78216236D02*
X25361904Y-78292426D01*
X25361904Y-78292426D02*
X25323809Y-78368617D01*
X25323809Y-78368617D02*
X25285714Y-78406712D01*
X25285714Y-78406712D02*
X25209523Y-78444807D01*
X25209523Y-78444807D02*
X24942857Y-78444807D01*
X25895238Y-78482902D02*
X25895238Y-78863855D01*
X25628571Y-78063855D02*
X25895238Y-78482902D01*
X25895238Y-78482902D02*
X26161904Y-78063855D01*
X26428571Y-78863855D02*
X26428571Y-78063855D01*
X26428571Y-78063855D02*
X26733333Y-78063855D01*
X26733333Y-78063855D02*
X26809523Y-78101950D01*
X26809523Y-78101950D02*
X26847618Y-78140045D01*
X26847618Y-78140045D02*
X26885714Y-78216236D01*
X26885714Y-78216236D02*
X26885714Y-78330521D01*
X26885714Y-78330521D02*
X26847618Y-78406712D01*
X26847618Y-78406712D02*
X26809523Y-78444807D01*
X26809523Y-78444807D02*
X26733333Y-78482902D01*
X26733333Y-78482902D02*
X26428571Y-78482902D01*
X27190475Y-78635283D02*
X27571428Y-78635283D01*
X27114285Y-78863855D02*
X27380952Y-78063855D01*
X27380952Y-78063855D02*
X27647618Y-78863855D01*
X27876189Y-78825760D02*
X27990475Y-78863855D01*
X27990475Y-78863855D02*
X28180951Y-78863855D01*
X28180951Y-78863855D02*
X28257142Y-78825760D01*
X28257142Y-78825760D02*
X28295237Y-78787664D01*
X28295237Y-78787664D02*
X28333332Y-78711474D01*
X28333332Y-78711474D02*
X28333332Y-78635283D01*
X28333332Y-78635283D02*
X28295237Y-78559093D01*
X28295237Y-78559093D02*
X28257142Y-78520998D01*
X28257142Y-78520998D02*
X28180951Y-78482902D01*
X28180951Y-78482902D02*
X28028570Y-78444807D01*
X28028570Y-78444807D02*
X27952380Y-78406712D01*
X27952380Y-78406712D02*
X27914285Y-78368617D01*
X27914285Y-78368617D02*
X27876189Y-78292426D01*
X27876189Y-78292426D02*
X27876189Y-78216236D01*
X27876189Y-78216236D02*
X27914285Y-78140045D01*
X27914285Y-78140045D02*
X27952380Y-78101950D01*
X27952380Y-78101950D02*
X28028570Y-78063855D01*
X28028570Y-78063855D02*
X28219047Y-78063855D01*
X28219047Y-78063855D02*
X28333332Y-78101950D01*
X28638094Y-78825760D02*
X28752380Y-78863855D01*
X28752380Y-78863855D02*
X28942856Y-78863855D01*
X28942856Y-78863855D02*
X29019047Y-78825760D01*
X29019047Y-78825760D02*
X29057142Y-78787664D01*
X29057142Y-78787664D02*
X29095237Y-78711474D01*
X29095237Y-78711474D02*
X29095237Y-78635283D01*
X29095237Y-78635283D02*
X29057142Y-78559093D01*
X29057142Y-78559093D02*
X29019047Y-78520998D01*
X29019047Y-78520998D02*
X28942856Y-78482902D01*
X28942856Y-78482902D02*
X28790475Y-78444807D01*
X28790475Y-78444807D02*
X28714285Y-78406712D01*
X28714285Y-78406712D02*
X28676190Y-78368617D01*
X28676190Y-78368617D02*
X28638094Y-78292426D01*
X28638094Y-78292426D02*
X28638094Y-78216236D01*
X28638094Y-78216236D02*
X28676190Y-78140045D01*
X28676190Y-78140045D02*
X28714285Y-78101950D01*
X28714285Y-78101950D02*
X28790475Y-78063855D01*
X28790475Y-78063855D02*
X28980952Y-78063855D01*
X28980952Y-78063855D02*
X29095237Y-78101950D01*
X35295238Y-74863855D02*
X34914286Y-74863855D01*
X34914286Y-74863855D02*
X34914286Y-74063855D01*
X35561905Y-74863855D02*
X35561905Y-74330521D01*
X35561905Y-74063855D02*
X35523809Y-74101950D01*
X35523809Y-74101950D02*
X35561905Y-74140045D01*
X35561905Y-74140045D02*
X35600000Y-74101950D01*
X35600000Y-74101950D02*
X35561905Y-74063855D01*
X35561905Y-74063855D02*
X35561905Y-74140045D01*
X35942857Y-74863855D02*
X35942857Y-74063855D01*
X35942857Y-74063855D02*
X36247619Y-74063855D01*
X36247619Y-74063855D02*
X36323809Y-74101950D01*
X36323809Y-74101950D02*
X36361904Y-74140045D01*
X36361904Y-74140045D02*
X36400000Y-74216236D01*
X36400000Y-74216236D02*
X36400000Y-74330521D01*
X36400000Y-74330521D02*
X36361904Y-74406712D01*
X36361904Y-74406712D02*
X36323809Y-74444807D01*
X36323809Y-74444807D02*
X36247619Y-74482902D01*
X36247619Y-74482902D02*
X35942857Y-74482902D01*
X36857142Y-74863855D02*
X36780952Y-74825760D01*
X36780952Y-74825760D02*
X36742857Y-74787664D01*
X36742857Y-74787664D02*
X36704761Y-74711474D01*
X36704761Y-74711474D02*
X36704761Y-74482902D01*
X36704761Y-74482902D02*
X36742857Y-74406712D01*
X36742857Y-74406712D02*
X36780952Y-74368617D01*
X36780952Y-74368617D02*
X36857142Y-74330521D01*
X36857142Y-74330521D02*
X36971428Y-74330521D01*
X36971428Y-74330521D02*
X37047619Y-74368617D01*
X37047619Y-74368617D02*
X37085714Y-74406712D01*
X37085714Y-74406712D02*
X37123809Y-74482902D01*
X37123809Y-74482902D02*
X37123809Y-74711474D01*
X37123809Y-74711474D02*
X37085714Y-74787664D01*
X37085714Y-74787664D02*
X37047619Y-74825760D01*
X37047619Y-74825760D02*
X36971428Y-74863855D01*
X36971428Y-74863855D02*
X36857142Y-74863855D01*
X33529523Y-34954807D02*
X33796189Y-34954807D01*
X33910475Y-35373855D02*
X33529523Y-35373855D01*
X33529523Y-35373855D02*
X33529523Y-34573855D01*
X33529523Y-34573855D02*
X33910475Y-34573855D01*
X34215237Y-35335760D02*
X34329523Y-35373855D01*
X34329523Y-35373855D02*
X34519999Y-35373855D01*
X34519999Y-35373855D02*
X34596190Y-35335760D01*
X34596190Y-35335760D02*
X34634285Y-35297664D01*
X34634285Y-35297664D02*
X34672380Y-35221474D01*
X34672380Y-35221474D02*
X34672380Y-35145283D01*
X34672380Y-35145283D02*
X34634285Y-35069093D01*
X34634285Y-35069093D02*
X34596190Y-35030998D01*
X34596190Y-35030998D02*
X34519999Y-34992902D01*
X34519999Y-34992902D02*
X34367618Y-34954807D01*
X34367618Y-34954807D02*
X34291428Y-34916712D01*
X34291428Y-34916712D02*
X34253333Y-34878617D01*
X34253333Y-34878617D02*
X34215237Y-34802426D01*
X34215237Y-34802426D02*
X34215237Y-34726236D01*
X34215237Y-34726236D02*
X34253333Y-34650045D01*
X34253333Y-34650045D02*
X34291428Y-34611950D01*
X34291428Y-34611950D02*
X34367618Y-34573855D01*
X34367618Y-34573855D02*
X34558095Y-34573855D01*
X34558095Y-34573855D02*
X34672380Y-34611950D01*
X35015238Y-35373855D02*
X35015238Y-34573855D01*
X35015238Y-34573855D02*
X35320000Y-34573855D01*
X35320000Y-34573855D02*
X35396190Y-34611950D01*
X35396190Y-34611950D02*
X35434285Y-34650045D01*
X35434285Y-34650045D02*
X35472381Y-34726236D01*
X35472381Y-34726236D02*
X35472381Y-34840521D01*
X35472381Y-34840521D02*
X35434285Y-34916712D01*
X35434285Y-34916712D02*
X35396190Y-34954807D01*
X35396190Y-34954807D02*
X35320000Y-34992902D01*
X35320000Y-34992902D02*
X35015238Y-34992902D01*
X35739047Y-34573855D02*
X36234285Y-34573855D01*
X36234285Y-34573855D02*
X35967619Y-34878617D01*
X35967619Y-34878617D02*
X36081904Y-34878617D01*
X36081904Y-34878617D02*
X36158095Y-34916712D01*
X36158095Y-34916712D02*
X36196190Y-34954807D01*
X36196190Y-34954807D02*
X36234285Y-35030998D01*
X36234285Y-35030998D02*
X36234285Y-35221474D01*
X36234285Y-35221474D02*
X36196190Y-35297664D01*
X36196190Y-35297664D02*
X36158095Y-35335760D01*
X36158095Y-35335760D02*
X36081904Y-35373855D01*
X36081904Y-35373855D02*
X35853333Y-35373855D01*
X35853333Y-35373855D02*
X35777142Y-35335760D01*
X35777142Y-35335760D02*
X35739047Y-35297664D01*
X36539047Y-34650045D02*
X36577143Y-34611950D01*
X36577143Y-34611950D02*
X36653333Y-34573855D01*
X36653333Y-34573855D02*
X36843809Y-34573855D01*
X36843809Y-34573855D02*
X36920000Y-34611950D01*
X36920000Y-34611950D02*
X36958095Y-34650045D01*
X36958095Y-34650045D02*
X36996190Y-34726236D01*
X36996190Y-34726236D02*
X36996190Y-34802426D01*
X36996190Y-34802426D02*
X36958095Y-34916712D01*
X36958095Y-34916712D02*
X36500952Y-35373855D01*
X36500952Y-35373855D02*
X36996190Y-35373855D01*
X37339048Y-35069093D02*
X37948572Y-35069093D01*
X38786667Y-35297664D02*
X38748571Y-35335760D01*
X38748571Y-35335760D02*
X38634286Y-35373855D01*
X38634286Y-35373855D02*
X38558095Y-35373855D01*
X38558095Y-35373855D02*
X38443809Y-35335760D01*
X38443809Y-35335760D02*
X38367619Y-35259569D01*
X38367619Y-35259569D02*
X38329524Y-35183379D01*
X38329524Y-35183379D02*
X38291428Y-35030998D01*
X38291428Y-35030998D02*
X38291428Y-34916712D01*
X38291428Y-34916712D02*
X38329524Y-34764331D01*
X38329524Y-34764331D02*
X38367619Y-34688140D01*
X38367619Y-34688140D02*
X38443809Y-34611950D01*
X38443809Y-34611950D02*
X38558095Y-34573855D01*
X38558095Y-34573855D02*
X38634286Y-34573855D01*
X38634286Y-34573855D02*
X38748571Y-34611950D01*
X38748571Y-34611950D02*
X38786667Y-34650045D01*
X39053333Y-34573855D02*
X39548571Y-34573855D01*
X39548571Y-34573855D02*
X39281905Y-34878617D01*
X39281905Y-34878617D02*
X39396190Y-34878617D01*
X39396190Y-34878617D02*
X39472381Y-34916712D01*
X39472381Y-34916712D02*
X39510476Y-34954807D01*
X39510476Y-34954807D02*
X39548571Y-35030998D01*
X39548571Y-35030998D02*
X39548571Y-35221474D01*
X39548571Y-35221474D02*
X39510476Y-35297664D01*
X39510476Y-35297664D02*
X39472381Y-35335760D01*
X39472381Y-35335760D02*
X39396190Y-35373855D01*
X39396190Y-35373855D02*
X39167619Y-35373855D01*
X39167619Y-35373855D02*
X39091428Y-35335760D01*
X39091428Y-35335760D02*
X39053333Y-35297664D01*
X34043809Y-52453855D02*
X34043809Y-51653855D01*
X34043809Y-51653855D02*
X34234285Y-51653855D01*
X34234285Y-51653855D02*
X34348571Y-51691950D01*
X34348571Y-51691950D02*
X34424761Y-51768140D01*
X34424761Y-51768140D02*
X34462856Y-51844331D01*
X34462856Y-51844331D02*
X34500952Y-51996712D01*
X34500952Y-51996712D02*
X34500952Y-52110998D01*
X34500952Y-52110998D02*
X34462856Y-52263379D01*
X34462856Y-52263379D02*
X34424761Y-52339569D01*
X34424761Y-52339569D02*
X34348571Y-52415760D01*
X34348571Y-52415760D02*
X34234285Y-52453855D01*
X34234285Y-52453855D02*
X34043809Y-52453855D01*
X35300952Y-52453855D02*
X35034285Y-52072902D01*
X34843809Y-52453855D02*
X34843809Y-51653855D01*
X34843809Y-51653855D02*
X35148571Y-51653855D01*
X35148571Y-51653855D02*
X35224761Y-51691950D01*
X35224761Y-51691950D02*
X35262856Y-51730045D01*
X35262856Y-51730045D02*
X35300952Y-51806236D01*
X35300952Y-51806236D02*
X35300952Y-51920521D01*
X35300952Y-51920521D02*
X35262856Y-51996712D01*
X35262856Y-51996712D02*
X35224761Y-52034807D01*
X35224761Y-52034807D02*
X35148571Y-52072902D01*
X35148571Y-52072902D02*
X34843809Y-52072902D01*
X35529523Y-51653855D02*
X35796190Y-52453855D01*
X35796190Y-52453855D02*
X36062856Y-51653855D01*
X36443808Y-51996712D02*
X36367618Y-51958617D01*
X36367618Y-51958617D02*
X36329523Y-51920521D01*
X36329523Y-51920521D02*
X36291427Y-51844331D01*
X36291427Y-51844331D02*
X36291427Y-51806236D01*
X36291427Y-51806236D02*
X36329523Y-51730045D01*
X36329523Y-51730045D02*
X36367618Y-51691950D01*
X36367618Y-51691950D02*
X36443808Y-51653855D01*
X36443808Y-51653855D02*
X36596189Y-51653855D01*
X36596189Y-51653855D02*
X36672380Y-51691950D01*
X36672380Y-51691950D02*
X36710475Y-51730045D01*
X36710475Y-51730045D02*
X36748570Y-51806236D01*
X36748570Y-51806236D02*
X36748570Y-51844331D01*
X36748570Y-51844331D02*
X36710475Y-51920521D01*
X36710475Y-51920521D02*
X36672380Y-51958617D01*
X36672380Y-51958617D02*
X36596189Y-51996712D01*
X36596189Y-51996712D02*
X36443808Y-51996712D01*
X36443808Y-51996712D02*
X36367618Y-52034807D01*
X36367618Y-52034807D02*
X36329523Y-52072902D01*
X36329523Y-52072902D02*
X36291427Y-52149093D01*
X36291427Y-52149093D02*
X36291427Y-52301474D01*
X36291427Y-52301474D02*
X36329523Y-52377664D01*
X36329523Y-52377664D02*
X36367618Y-52415760D01*
X36367618Y-52415760D02*
X36443808Y-52453855D01*
X36443808Y-52453855D02*
X36596189Y-52453855D01*
X36596189Y-52453855D02*
X36672380Y-52415760D01*
X36672380Y-52415760D02*
X36710475Y-52377664D01*
X36710475Y-52377664D02*
X36748570Y-52301474D01*
X36748570Y-52301474D02*
X36748570Y-52149093D01*
X36748570Y-52149093D02*
X36710475Y-52072902D01*
X36710475Y-52072902D02*
X36672380Y-52034807D01*
X36672380Y-52034807D02*
X36596189Y-51996712D01*
X37205713Y-51996712D02*
X37129523Y-51958617D01*
X37129523Y-51958617D02*
X37091428Y-51920521D01*
X37091428Y-51920521D02*
X37053332Y-51844331D01*
X37053332Y-51844331D02*
X37053332Y-51806236D01*
X37053332Y-51806236D02*
X37091428Y-51730045D01*
X37091428Y-51730045D02*
X37129523Y-51691950D01*
X37129523Y-51691950D02*
X37205713Y-51653855D01*
X37205713Y-51653855D02*
X37358094Y-51653855D01*
X37358094Y-51653855D02*
X37434285Y-51691950D01*
X37434285Y-51691950D02*
X37472380Y-51730045D01*
X37472380Y-51730045D02*
X37510475Y-51806236D01*
X37510475Y-51806236D02*
X37510475Y-51844331D01*
X37510475Y-51844331D02*
X37472380Y-51920521D01*
X37472380Y-51920521D02*
X37434285Y-51958617D01*
X37434285Y-51958617D02*
X37358094Y-51996712D01*
X37358094Y-51996712D02*
X37205713Y-51996712D01*
X37205713Y-51996712D02*
X37129523Y-52034807D01*
X37129523Y-52034807D02*
X37091428Y-52072902D01*
X37091428Y-52072902D02*
X37053332Y-52149093D01*
X37053332Y-52149093D02*
X37053332Y-52301474D01*
X37053332Y-52301474D02*
X37091428Y-52377664D01*
X37091428Y-52377664D02*
X37129523Y-52415760D01*
X37129523Y-52415760D02*
X37205713Y-52453855D01*
X37205713Y-52453855D02*
X37358094Y-52453855D01*
X37358094Y-52453855D02*
X37434285Y-52415760D01*
X37434285Y-52415760D02*
X37472380Y-52377664D01*
X37472380Y-52377664D02*
X37510475Y-52301474D01*
X37510475Y-52301474D02*
X37510475Y-52149093D01*
X37510475Y-52149093D02*
X37472380Y-52072902D01*
X37472380Y-52072902D02*
X37434285Y-52034807D01*
X37434285Y-52034807D02*
X37358094Y-51996712D01*
X37777142Y-51653855D02*
X38272380Y-51653855D01*
X38272380Y-51653855D02*
X38005714Y-51958617D01*
X38005714Y-51958617D02*
X38119999Y-51958617D01*
X38119999Y-51958617D02*
X38196190Y-51996712D01*
X38196190Y-51996712D02*
X38234285Y-52034807D01*
X38234285Y-52034807D02*
X38272380Y-52110998D01*
X38272380Y-52110998D02*
X38272380Y-52301474D01*
X38272380Y-52301474D02*
X38234285Y-52377664D01*
X38234285Y-52377664D02*
X38196190Y-52415760D01*
X38196190Y-52415760D02*
X38119999Y-52453855D01*
X38119999Y-52453855D02*
X37891428Y-52453855D01*
X37891428Y-52453855D02*
X37815237Y-52415760D01*
X37815237Y-52415760D02*
X37777142Y-52377664D01*
X38539047Y-51653855D02*
X39034285Y-51653855D01*
X39034285Y-51653855D02*
X38767619Y-51958617D01*
X38767619Y-51958617D02*
X38881904Y-51958617D01*
X38881904Y-51958617D02*
X38958095Y-51996712D01*
X38958095Y-51996712D02*
X38996190Y-52034807D01*
X38996190Y-52034807D02*
X39034285Y-52110998D01*
X39034285Y-52110998D02*
X39034285Y-52301474D01*
X39034285Y-52301474D02*
X38996190Y-52377664D01*
X38996190Y-52377664D02*
X38958095Y-52415760D01*
X38958095Y-52415760D02*
X38881904Y-52453855D01*
X38881904Y-52453855D02*
X38653333Y-52453855D01*
X38653333Y-52453855D02*
X38577142Y-52415760D01*
X38577142Y-52415760D02*
X38539047Y-52377664D01*
X36130476Y-17413855D02*
X36130476Y-18061474D01*
X36130476Y-18061474D02*
X36168571Y-18137664D01*
X36168571Y-18137664D02*
X36206666Y-18175760D01*
X36206666Y-18175760D02*
X36282857Y-18213855D01*
X36282857Y-18213855D02*
X36435238Y-18213855D01*
X36435238Y-18213855D02*
X36511428Y-18175760D01*
X36511428Y-18175760D02*
X36549523Y-18137664D01*
X36549523Y-18137664D02*
X36587619Y-18061474D01*
X36587619Y-18061474D02*
X36587619Y-17413855D01*
X36930475Y-18175760D02*
X37044761Y-18213855D01*
X37044761Y-18213855D02*
X37235237Y-18213855D01*
X37235237Y-18213855D02*
X37311428Y-18175760D01*
X37311428Y-18175760D02*
X37349523Y-18137664D01*
X37349523Y-18137664D02*
X37387618Y-18061474D01*
X37387618Y-18061474D02*
X37387618Y-17985283D01*
X37387618Y-17985283D02*
X37349523Y-17909093D01*
X37349523Y-17909093D02*
X37311428Y-17870998D01*
X37311428Y-17870998D02*
X37235237Y-17832902D01*
X37235237Y-17832902D02*
X37082856Y-17794807D01*
X37082856Y-17794807D02*
X37006666Y-17756712D01*
X37006666Y-17756712D02*
X36968571Y-17718617D01*
X36968571Y-17718617D02*
X36930475Y-17642426D01*
X36930475Y-17642426D02*
X36930475Y-17566236D01*
X36930475Y-17566236D02*
X36968571Y-17490045D01*
X36968571Y-17490045D02*
X37006666Y-17451950D01*
X37006666Y-17451950D02*
X37082856Y-17413855D01*
X37082856Y-17413855D02*
X37273333Y-17413855D01*
X37273333Y-17413855D02*
X37387618Y-17451950D01*
X37997142Y-17794807D02*
X38111428Y-17832902D01*
X38111428Y-17832902D02*
X38149523Y-17870998D01*
X38149523Y-17870998D02*
X38187619Y-17947188D01*
X38187619Y-17947188D02*
X38187619Y-18061474D01*
X38187619Y-18061474D02*
X38149523Y-18137664D01*
X38149523Y-18137664D02*
X38111428Y-18175760D01*
X38111428Y-18175760D02*
X38035238Y-18213855D01*
X38035238Y-18213855D02*
X37730476Y-18213855D01*
X37730476Y-18213855D02*
X37730476Y-17413855D01*
X37730476Y-17413855D02*
X37997142Y-17413855D01*
X37997142Y-17413855D02*
X38073333Y-17451950D01*
X38073333Y-17451950D02*
X38111428Y-17490045D01*
X38111428Y-17490045D02*
X38149523Y-17566236D01*
X38149523Y-17566236D02*
X38149523Y-17642426D01*
X38149523Y-17642426D02*
X38111428Y-17718617D01*
X38111428Y-17718617D02*
X38073333Y-17756712D01*
X38073333Y-17756712D02*
X37997142Y-17794807D01*
X37997142Y-17794807D02*
X37730476Y-17794807D01*
X42407618Y-74635283D02*
X42788571Y-74635283D01*
X42331428Y-74863855D02*
X42598095Y-74063855D01*
X42598095Y-74063855D02*
X42864761Y-74863855D01*
X43131428Y-74063855D02*
X43131428Y-74711474D01*
X43131428Y-74711474D02*
X43169523Y-74787664D01*
X43169523Y-74787664D02*
X43207618Y-74825760D01*
X43207618Y-74825760D02*
X43283809Y-74863855D01*
X43283809Y-74863855D02*
X43436190Y-74863855D01*
X43436190Y-74863855D02*
X43512380Y-74825760D01*
X43512380Y-74825760D02*
X43550475Y-74787664D01*
X43550475Y-74787664D02*
X43588571Y-74711474D01*
X43588571Y-74711474D02*
X43588571Y-74063855D01*
X43893332Y-74063855D02*
X44426666Y-74863855D01*
X44426666Y-74063855D02*
X43893332Y-74863855D01*
X45340952Y-74863855D02*
X45340952Y-74063855D01*
X45340952Y-74063855D02*
X45645714Y-74063855D01*
X45645714Y-74063855D02*
X45721904Y-74101950D01*
X45721904Y-74101950D02*
X45759999Y-74140045D01*
X45759999Y-74140045D02*
X45798095Y-74216236D01*
X45798095Y-74216236D02*
X45798095Y-74330521D01*
X45798095Y-74330521D02*
X45759999Y-74406712D01*
X45759999Y-74406712D02*
X45721904Y-74444807D01*
X45721904Y-74444807D02*
X45645714Y-74482902D01*
X45645714Y-74482902D02*
X45340952Y-74482902D01*
X46064761Y-74063855D02*
X46255237Y-74863855D01*
X46255237Y-74863855D02*
X46407618Y-74292426D01*
X46407618Y-74292426D02*
X46559999Y-74863855D01*
X46559999Y-74863855D02*
X46750476Y-74063855D01*
X47512381Y-74863855D02*
X47245714Y-74482902D01*
X47055238Y-74863855D02*
X47055238Y-74063855D01*
X47055238Y-74063855D02*
X47360000Y-74063855D01*
X47360000Y-74063855D02*
X47436190Y-74101950D01*
X47436190Y-74101950D02*
X47474285Y-74140045D01*
X47474285Y-74140045D02*
X47512381Y-74216236D01*
X47512381Y-74216236D02*
X47512381Y-74330521D01*
X47512381Y-74330521D02*
X47474285Y-74406712D01*
X47474285Y-74406712D02*
X47436190Y-74444807D01*
X47436190Y-74444807D02*
X47360000Y-74482902D01*
X47360000Y-74482902D02*
X47055238Y-74482902D01*
X48428571Y-18611950D02*
X48352381Y-18573855D01*
X48352381Y-18573855D02*
X48238095Y-18573855D01*
X48238095Y-18573855D02*
X48123809Y-18611950D01*
X48123809Y-18611950D02*
X48047619Y-18688140D01*
X48047619Y-18688140D02*
X48009524Y-18764331D01*
X48009524Y-18764331D02*
X47971428Y-18916712D01*
X47971428Y-18916712D02*
X47971428Y-19030998D01*
X47971428Y-19030998D02*
X48009524Y-19183379D01*
X48009524Y-19183379D02*
X48047619Y-19259569D01*
X48047619Y-19259569D02*
X48123809Y-19335760D01*
X48123809Y-19335760D02*
X48238095Y-19373855D01*
X48238095Y-19373855D02*
X48314286Y-19373855D01*
X48314286Y-19373855D02*
X48428571Y-19335760D01*
X48428571Y-19335760D02*
X48466667Y-19297664D01*
X48466667Y-19297664D02*
X48466667Y-19030998D01*
X48466667Y-19030998D02*
X48314286Y-19030998D01*
X49190476Y-18573855D02*
X48809524Y-18573855D01*
X48809524Y-18573855D02*
X48771428Y-18954807D01*
X48771428Y-18954807D02*
X48809524Y-18916712D01*
X48809524Y-18916712D02*
X48885714Y-18878617D01*
X48885714Y-18878617D02*
X49076190Y-18878617D01*
X49076190Y-18878617D02*
X49152381Y-18916712D01*
X49152381Y-18916712D02*
X49190476Y-18954807D01*
X49190476Y-18954807D02*
X49228571Y-19030998D01*
X49228571Y-19030998D02*
X49228571Y-19221474D01*
X49228571Y-19221474D02*
X49190476Y-19297664D01*
X49190476Y-19297664D02*
X49152381Y-19335760D01*
X49152381Y-19335760D02*
X49076190Y-19373855D01*
X49076190Y-19373855D02*
X48885714Y-19373855D01*
X48885714Y-19373855D02*
X48809524Y-19335760D01*
X48809524Y-19335760D02*
X48771428Y-19297664D01*
X48428571Y-26231950D02*
X48352381Y-26193855D01*
X48352381Y-26193855D02*
X48238095Y-26193855D01*
X48238095Y-26193855D02*
X48123809Y-26231950D01*
X48123809Y-26231950D02*
X48047619Y-26308140D01*
X48047619Y-26308140D02*
X48009524Y-26384331D01*
X48009524Y-26384331D02*
X47971428Y-26536712D01*
X47971428Y-26536712D02*
X47971428Y-26650998D01*
X47971428Y-26650998D02*
X48009524Y-26803379D01*
X48009524Y-26803379D02*
X48047619Y-26879569D01*
X48047619Y-26879569D02*
X48123809Y-26955760D01*
X48123809Y-26955760D02*
X48238095Y-26993855D01*
X48238095Y-26993855D02*
X48314286Y-26993855D01*
X48314286Y-26993855D02*
X48428571Y-26955760D01*
X48428571Y-26955760D02*
X48466667Y-26917664D01*
X48466667Y-26917664D02*
X48466667Y-26650998D01*
X48466667Y-26650998D02*
X48314286Y-26650998D01*
X48923809Y-26536712D02*
X48847619Y-26498617D01*
X48847619Y-26498617D02*
X48809524Y-26460521D01*
X48809524Y-26460521D02*
X48771428Y-26384331D01*
X48771428Y-26384331D02*
X48771428Y-26346236D01*
X48771428Y-26346236D02*
X48809524Y-26270045D01*
X48809524Y-26270045D02*
X48847619Y-26231950D01*
X48847619Y-26231950D02*
X48923809Y-26193855D01*
X48923809Y-26193855D02*
X49076190Y-26193855D01*
X49076190Y-26193855D02*
X49152381Y-26231950D01*
X49152381Y-26231950D02*
X49190476Y-26270045D01*
X49190476Y-26270045D02*
X49228571Y-26346236D01*
X49228571Y-26346236D02*
X49228571Y-26384331D01*
X49228571Y-26384331D02*
X49190476Y-26460521D01*
X49190476Y-26460521D02*
X49152381Y-26498617D01*
X49152381Y-26498617D02*
X49076190Y-26536712D01*
X49076190Y-26536712D02*
X48923809Y-26536712D01*
X48923809Y-26536712D02*
X48847619Y-26574807D01*
X48847619Y-26574807D02*
X48809524Y-26612902D01*
X48809524Y-26612902D02*
X48771428Y-26689093D01*
X48771428Y-26689093D02*
X48771428Y-26841474D01*
X48771428Y-26841474D02*
X48809524Y-26917664D01*
X48809524Y-26917664D02*
X48847619Y-26955760D01*
X48847619Y-26955760D02*
X48923809Y-26993855D01*
X48923809Y-26993855D02*
X49076190Y-26993855D01*
X49076190Y-26993855D02*
X49152381Y-26955760D01*
X49152381Y-26955760D02*
X49190476Y-26917664D01*
X49190476Y-26917664D02*
X49228571Y-26841474D01*
X49228571Y-26841474D02*
X49228571Y-26689093D01*
X49228571Y-26689093D02*
X49190476Y-26612902D01*
X49190476Y-26612902D02*
X49152381Y-26574807D01*
X49152381Y-26574807D02*
X49076190Y-26536712D01*
X47990475Y-33890045D02*
X48028571Y-33851950D01*
X48028571Y-33851950D02*
X48104761Y-33813855D01*
X48104761Y-33813855D02*
X48295237Y-33813855D01*
X48295237Y-33813855D02*
X48371428Y-33851950D01*
X48371428Y-33851950D02*
X48409523Y-33890045D01*
X48409523Y-33890045D02*
X48447618Y-33966236D01*
X48447618Y-33966236D02*
X48447618Y-34042426D01*
X48447618Y-34042426D02*
X48409523Y-34156712D01*
X48409523Y-34156712D02*
X47952380Y-34613855D01*
X47952380Y-34613855D02*
X48447618Y-34613855D01*
X48942857Y-33813855D02*
X49019047Y-33813855D01*
X49019047Y-33813855D02*
X49095238Y-33851950D01*
X49095238Y-33851950D02*
X49133333Y-33890045D01*
X49133333Y-33890045D02*
X49171428Y-33966236D01*
X49171428Y-33966236D02*
X49209523Y-34118617D01*
X49209523Y-34118617D02*
X49209523Y-34309093D01*
X49209523Y-34309093D02*
X49171428Y-34461474D01*
X49171428Y-34461474D02*
X49133333Y-34537664D01*
X49133333Y-34537664D02*
X49095238Y-34575760D01*
X49095238Y-34575760D02*
X49019047Y-34613855D01*
X49019047Y-34613855D02*
X48942857Y-34613855D01*
X48942857Y-34613855D02*
X48866666Y-34575760D01*
X48866666Y-34575760D02*
X48828571Y-34537664D01*
X48828571Y-34537664D02*
X48790476Y-34461474D01*
X48790476Y-34461474D02*
X48752380Y-34309093D01*
X48752380Y-34309093D02*
X48752380Y-34118617D01*
X48752380Y-34118617D02*
X48790476Y-33966236D01*
X48790476Y-33966236D02*
X48828571Y-33890045D01*
X48828571Y-33890045D02*
X48866666Y-33851950D01*
X48866666Y-33851950D02*
X48942857Y-33813855D01*
X47990475Y-36430045D02*
X48028571Y-36391950D01*
X48028571Y-36391950D02*
X48104761Y-36353855D01*
X48104761Y-36353855D02*
X48295237Y-36353855D01*
X48295237Y-36353855D02*
X48371428Y-36391950D01*
X48371428Y-36391950D02*
X48409523Y-36430045D01*
X48409523Y-36430045D02*
X48447618Y-36506236D01*
X48447618Y-36506236D02*
X48447618Y-36582426D01*
X48447618Y-36582426D02*
X48409523Y-36696712D01*
X48409523Y-36696712D02*
X47952380Y-37153855D01*
X47952380Y-37153855D02*
X48447618Y-37153855D01*
X49209523Y-37153855D02*
X48752380Y-37153855D01*
X48980952Y-37153855D02*
X48980952Y-36353855D01*
X48980952Y-36353855D02*
X48904761Y-36468140D01*
X48904761Y-36468140D02*
X48828571Y-36544331D01*
X48828571Y-36544331D02*
X48752380Y-36582426D01*
X51095238Y-21685283D02*
X51476191Y-21685283D01*
X51019048Y-21913855D02*
X51285715Y-21113855D01*
X51285715Y-21113855D02*
X51552381Y-21913855D01*
X51780952Y-21190045D02*
X51819048Y-21151950D01*
X51819048Y-21151950D02*
X51895238Y-21113855D01*
X51895238Y-21113855D02*
X52085714Y-21113855D01*
X52085714Y-21113855D02*
X52161905Y-21151950D01*
X52161905Y-21151950D02*
X52200000Y-21190045D01*
X52200000Y-21190045D02*
X52238095Y-21266236D01*
X52238095Y-21266236D02*
X52238095Y-21342426D01*
X52238095Y-21342426D02*
X52200000Y-21456712D01*
X52200000Y-21456712D02*
X51742857Y-21913855D01*
X51742857Y-21913855D02*
X52238095Y-21913855D01*
X53152381Y-21075760D02*
X52466667Y-22104331D01*
X53380952Y-21685283D02*
X53761905Y-21685283D01*
X53304762Y-21913855D02*
X53571429Y-21113855D01*
X53571429Y-21113855D02*
X53838095Y-21913855D01*
X54104762Y-21913855D02*
X54104762Y-21113855D01*
X54447618Y-21190045D02*
X54485714Y-21151950D01*
X54485714Y-21151950D02*
X54561904Y-21113855D01*
X54561904Y-21113855D02*
X54752380Y-21113855D01*
X54752380Y-21113855D02*
X54828571Y-21151950D01*
X54828571Y-21151950D02*
X54866666Y-21190045D01*
X54866666Y-21190045D02*
X54904761Y-21266236D01*
X54904761Y-21266236D02*
X54904761Y-21342426D01*
X54904761Y-21342426D02*
X54866666Y-21456712D01*
X54866666Y-21456712D02*
X54409523Y-21913855D01*
X54409523Y-21913855D02*
X54904761Y-21913855D01*
X51095238Y-24225283D02*
X51476191Y-24225283D01*
X51019048Y-24453855D02*
X51285715Y-23653855D01*
X51285715Y-23653855D02*
X51552381Y-24453855D01*
X52238095Y-24453855D02*
X51780952Y-24453855D01*
X52009524Y-24453855D02*
X52009524Y-23653855D01*
X52009524Y-23653855D02*
X51933333Y-23768140D01*
X51933333Y-23768140D02*
X51857143Y-23844331D01*
X51857143Y-23844331D02*
X51780952Y-23882426D01*
X53152381Y-23615760D02*
X52466667Y-24644331D01*
X53380952Y-24225283D02*
X53761905Y-24225283D01*
X53304762Y-24453855D02*
X53571429Y-23653855D01*
X53571429Y-23653855D02*
X53838095Y-24453855D01*
X54104762Y-24453855D02*
X54104762Y-23653855D01*
X54904761Y-24453855D02*
X54447618Y-24453855D01*
X54676190Y-24453855D02*
X54676190Y-23653855D01*
X54676190Y-23653855D02*
X54599999Y-23768140D01*
X54599999Y-23768140D02*
X54523809Y-23844331D01*
X54523809Y-23844331D02*
X54447618Y-23882426D01*
X51285714Y-29114807D02*
X51400000Y-29152902D01*
X51400000Y-29152902D02*
X51438095Y-29190998D01*
X51438095Y-29190998D02*
X51476191Y-29267188D01*
X51476191Y-29267188D02*
X51476191Y-29381474D01*
X51476191Y-29381474D02*
X51438095Y-29457664D01*
X51438095Y-29457664D02*
X51400000Y-29495760D01*
X51400000Y-29495760D02*
X51323810Y-29533855D01*
X51323810Y-29533855D02*
X51019048Y-29533855D01*
X51019048Y-29533855D02*
X51019048Y-28733855D01*
X51019048Y-28733855D02*
X51285714Y-28733855D01*
X51285714Y-28733855D02*
X51361905Y-28771950D01*
X51361905Y-28771950D02*
X51400000Y-28810045D01*
X51400000Y-28810045D02*
X51438095Y-28886236D01*
X51438095Y-28886236D02*
X51438095Y-28962426D01*
X51438095Y-28962426D02*
X51400000Y-29038617D01*
X51400000Y-29038617D02*
X51361905Y-29076712D01*
X51361905Y-29076712D02*
X51285714Y-29114807D01*
X51285714Y-29114807D02*
X51019048Y-29114807D01*
X52238095Y-29533855D02*
X51780952Y-29533855D01*
X52009524Y-29533855D02*
X52009524Y-28733855D01*
X52009524Y-28733855D02*
X51933333Y-28848140D01*
X51933333Y-28848140D02*
X51857143Y-28924331D01*
X51857143Y-28924331D02*
X51780952Y-28962426D01*
X53152381Y-28695760D02*
X52466667Y-29724331D01*
X53685714Y-29114807D02*
X53800000Y-29152902D01*
X53800000Y-29152902D02*
X53838095Y-29190998D01*
X53838095Y-29190998D02*
X53876191Y-29267188D01*
X53876191Y-29267188D02*
X53876191Y-29381474D01*
X53876191Y-29381474D02*
X53838095Y-29457664D01*
X53838095Y-29457664D02*
X53800000Y-29495760D01*
X53800000Y-29495760D02*
X53723810Y-29533855D01*
X53723810Y-29533855D02*
X53419048Y-29533855D01*
X53419048Y-29533855D02*
X53419048Y-28733855D01*
X53419048Y-28733855D02*
X53685714Y-28733855D01*
X53685714Y-28733855D02*
X53761905Y-28771950D01*
X53761905Y-28771950D02*
X53800000Y-28810045D01*
X53800000Y-28810045D02*
X53838095Y-28886236D01*
X53838095Y-28886236D02*
X53838095Y-28962426D01*
X53838095Y-28962426D02*
X53800000Y-29038617D01*
X53800000Y-29038617D02*
X53761905Y-29076712D01*
X53761905Y-29076712D02*
X53685714Y-29114807D01*
X53685714Y-29114807D02*
X53419048Y-29114807D01*
X54219048Y-29533855D02*
X54219048Y-28733855D01*
X55019047Y-29533855D02*
X54561904Y-29533855D01*
X54790476Y-29533855D02*
X54790476Y-28733855D01*
X54790476Y-28733855D02*
X54714285Y-28848140D01*
X54714285Y-28848140D02*
X54638095Y-28924331D01*
X54638095Y-28924331D02*
X54561904Y-28962426D01*
X51285714Y-31654807D02*
X51400000Y-31692902D01*
X51400000Y-31692902D02*
X51438095Y-31730998D01*
X51438095Y-31730998D02*
X51476191Y-31807188D01*
X51476191Y-31807188D02*
X51476191Y-31921474D01*
X51476191Y-31921474D02*
X51438095Y-31997664D01*
X51438095Y-31997664D02*
X51400000Y-32035760D01*
X51400000Y-32035760D02*
X51323810Y-32073855D01*
X51323810Y-32073855D02*
X51019048Y-32073855D01*
X51019048Y-32073855D02*
X51019048Y-31273855D01*
X51019048Y-31273855D02*
X51285714Y-31273855D01*
X51285714Y-31273855D02*
X51361905Y-31311950D01*
X51361905Y-31311950D02*
X51400000Y-31350045D01*
X51400000Y-31350045D02*
X51438095Y-31426236D01*
X51438095Y-31426236D02*
X51438095Y-31502426D01*
X51438095Y-31502426D02*
X51400000Y-31578617D01*
X51400000Y-31578617D02*
X51361905Y-31616712D01*
X51361905Y-31616712D02*
X51285714Y-31654807D01*
X51285714Y-31654807D02*
X51019048Y-31654807D01*
X51780952Y-31350045D02*
X51819048Y-31311950D01*
X51819048Y-31311950D02*
X51895238Y-31273855D01*
X51895238Y-31273855D02*
X52085714Y-31273855D01*
X52085714Y-31273855D02*
X52161905Y-31311950D01*
X52161905Y-31311950D02*
X52200000Y-31350045D01*
X52200000Y-31350045D02*
X52238095Y-31426236D01*
X52238095Y-31426236D02*
X52238095Y-31502426D01*
X52238095Y-31502426D02*
X52200000Y-31616712D01*
X52200000Y-31616712D02*
X51742857Y-32073855D01*
X51742857Y-32073855D02*
X52238095Y-32073855D01*
X53152381Y-31235760D02*
X52466667Y-32264331D01*
X53685714Y-31654807D02*
X53800000Y-31692902D01*
X53800000Y-31692902D02*
X53838095Y-31730998D01*
X53838095Y-31730998D02*
X53876191Y-31807188D01*
X53876191Y-31807188D02*
X53876191Y-31921474D01*
X53876191Y-31921474D02*
X53838095Y-31997664D01*
X53838095Y-31997664D02*
X53800000Y-32035760D01*
X53800000Y-32035760D02*
X53723810Y-32073855D01*
X53723810Y-32073855D02*
X53419048Y-32073855D01*
X53419048Y-32073855D02*
X53419048Y-31273855D01*
X53419048Y-31273855D02*
X53685714Y-31273855D01*
X53685714Y-31273855D02*
X53761905Y-31311950D01*
X53761905Y-31311950D02*
X53800000Y-31350045D01*
X53800000Y-31350045D02*
X53838095Y-31426236D01*
X53838095Y-31426236D02*
X53838095Y-31502426D01*
X53838095Y-31502426D02*
X53800000Y-31578617D01*
X53800000Y-31578617D02*
X53761905Y-31616712D01*
X53761905Y-31616712D02*
X53685714Y-31654807D01*
X53685714Y-31654807D02*
X53419048Y-31654807D01*
X54219048Y-32073855D02*
X54219048Y-31273855D01*
X54561904Y-31350045D02*
X54600000Y-31311950D01*
X54600000Y-31311950D02*
X54676190Y-31273855D01*
X54676190Y-31273855D02*
X54866666Y-31273855D01*
X54866666Y-31273855D02*
X54942857Y-31311950D01*
X54942857Y-31311950D02*
X54980952Y-31350045D01*
X54980952Y-31350045D02*
X55019047Y-31426236D01*
X55019047Y-31426236D02*
X55019047Y-31502426D01*
X55019047Y-31502426D02*
X54980952Y-31616712D01*
X54980952Y-31616712D02*
X54523809Y-32073855D01*
X54523809Y-32073855D02*
X55019047Y-32073855D01*
X53452381Y-52363855D02*
X53452381Y-51563855D01*
X53452381Y-51563855D02*
X53719047Y-52135283D01*
X53719047Y-52135283D02*
X53985714Y-51563855D01*
X53985714Y-51563855D02*
X53985714Y-52363855D01*
X54328571Y-51640045D02*
X54366667Y-51601950D01*
X54366667Y-51601950D02*
X54442857Y-51563855D01*
X54442857Y-51563855D02*
X54633333Y-51563855D01*
X54633333Y-51563855D02*
X54709524Y-51601950D01*
X54709524Y-51601950D02*
X54747619Y-51640045D01*
X54747619Y-51640045D02*
X54785714Y-51716236D01*
X54785714Y-51716236D02*
X54785714Y-51792426D01*
X54785714Y-51792426D02*
X54747619Y-51906712D01*
X54747619Y-51906712D02*
X54290476Y-52363855D01*
X54290476Y-52363855D02*
X54785714Y-52363855D01*
X55395238Y-51944807D02*
X55509524Y-51982902D01*
X55509524Y-51982902D02*
X55547619Y-52020998D01*
X55547619Y-52020998D02*
X55585715Y-52097188D01*
X55585715Y-52097188D02*
X55585715Y-52211474D01*
X55585715Y-52211474D02*
X55547619Y-52287664D01*
X55547619Y-52287664D02*
X55509524Y-52325760D01*
X55509524Y-52325760D02*
X55433334Y-52363855D01*
X55433334Y-52363855D02*
X55128572Y-52363855D01*
X55128572Y-52363855D02*
X55128572Y-51563855D01*
X55128572Y-51563855D02*
X55395238Y-51563855D01*
X55395238Y-51563855D02*
X55471429Y-51601950D01*
X55471429Y-51601950D02*
X55509524Y-51640045D01*
X55509524Y-51640045D02*
X55547619Y-51716236D01*
X55547619Y-51716236D02*
X55547619Y-51792426D01*
X55547619Y-51792426D02*
X55509524Y-51868617D01*
X55509524Y-51868617D02*
X55471429Y-51906712D01*
X55471429Y-51906712D02*
X55395238Y-51944807D01*
X55395238Y-51944807D02*
X55128572Y-51944807D01*
X53509524Y-54363855D02*
X53509524Y-53563855D01*
X53509524Y-53563855D02*
X53776190Y-54135283D01*
X53776190Y-54135283D02*
X54042857Y-53563855D01*
X54042857Y-53563855D02*
X54042857Y-54363855D01*
X54385714Y-53640045D02*
X54423810Y-53601950D01*
X54423810Y-53601950D02*
X54500000Y-53563855D01*
X54500000Y-53563855D02*
X54690476Y-53563855D01*
X54690476Y-53563855D02*
X54766667Y-53601950D01*
X54766667Y-53601950D02*
X54804762Y-53640045D01*
X54804762Y-53640045D02*
X54842857Y-53716236D01*
X54842857Y-53716236D02*
X54842857Y-53792426D01*
X54842857Y-53792426D02*
X54804762Y-53906712D01*
X54804762Y-53906712D02*
X54347619Y-54363855D01*
X54347619Y-54363855D02*
X54842857Y-54363855D01*
X55147619Y-54135283D02*
X55528572Y-54135283D01*
X55071429Y-54363855D02*
X55338096Y-53563855D01*
X55338096Y-53563855D02*
X55604762Y-54363855D01*
X30455283Y-48511904D02*
X30455283Y-48130951D01*
X30683855Y-48588094D02*
X29883855Y-48321427D01*
X29883855Y-48321427D02*
X30683855Y-48054761D01*
X30683855Y-47788094D02*
X29883855Y-47788094D01*
X30683855Y-46988095D02*
X30683855Y-47445238D01*
X30683855Y-47216666D02*
X29883855Y-47216666D01*
X29883855Y-47216666D02*
X29998140Y-47292857D01*
X29998140Y-47292857D02*
X30074331Y-47369047D01*
X30074331Y-47369047D02*
X30112426Y-47445238D01*
X30264807Y-56964285D02*
X30264807Y-57230951D01*
X30683855Y-57230951D02*
X29883855Y-57230951D01*
X29883855Y-57230951D02*
X29883855Y-56849999D01*
X30683855Y-56164285D02*
X30683855Y-56545237D01*
X30683855Y-56545237D02*
X29883855Y-56545237D01*
X29883855Y-56011904D02*
X29883855Y-55554761D01*
X30683855Y-55783333D02*
X29883855Y-55783333D01*
X32995283Y-48511904D02*
X32995283Y-48130951D01*
X33223855Y-48588094D02*
X32423855Y-48321427D01*
X32423855Y-48321427D02*
X33223855Y-48054761D01*
X33223855Y-47788094D02*
X32423855Y-47788094D01*
X32500045Y-47445238D02*
X32461950Y-47407142D01*
X32461950Y-47407142D02*
X32423855Y-47330952D01*
X32423855Y-47330952D02*
X32423855Y-47140476D01*
X32423855Y-47140476D02*
X32461950Y-47064285D01*
X32461950Y-47064285D02*
X32500045Y-47026190D01*
X32500045Y-47026190D02*
X32576236Y-46988095D01*
X32576236Y-46988095D02*
X32652426Y-46988095D01*
X32652426Y-46988095D02*
X32766712Y-47026190D01*
X32766712Y-47026190D02*
X33223855Y-47483333D01*
X33223855Y-47483333D02*
X33223855Y-46988095D01*
X33223855Y-57497618D02*
X32423855Y-57497618D01*
X32423855Y-57497618D02*
X32995283Y-57230952D01*
X32995283Y-57230952D02*
X32423855Y-56964285D01*
X32423855Y-56964285D02*
X33223855Y-56964285D01*
X32500045Y-56621428D02*
X32461950Y-56583332D01*
X32461950Y-56583332D02*
X32423855Y-56507142D01*
X32423855Y-56507142D02*
X32423855Y-56316666D01*
X32423855Y-56316666D02*
X32461950Y-56240475D01*
X32461950Y-56240475D02*
X32500045Y-56202380D01*
X32500045Y-56202380D02*
X32576236Y-56164285D01*
X32576236Y-56164285D02*
X32652426Y-56164285D01*
X32652426Y-56164285D02*
X32766712Y-56202380D01*
X32766712Y-56202380D02*
X33223855Y-56659523D01*
X33223855Y-56659523D02*
X33223855Y-56164285D01*
X32804807Y-55554761D02*
X32842902Y-55440475D01*
X32842902Y-55440475D02*
X32880998Y-55402380D01*
X32880998Y-55402380D02*
X32957188Y-55364284D01*
X32957188Y-55364284D02*
X33071474Y-55364284D01*
X33071474Y-55364284D02*
X33147664Y-55402380D01*
X33147664Y-55402380D02*
X33185760Y-55440475D01*
X33185760Y-55440475D02*
X33223855Y-55516665D01*
X33223855Y-55516665D02*
X33223855Y-55821427D01*
X33223855Y-55821427D02*
X32423855Y-55821427D01*
X32423855Y-55821427D02*
X32423855Y-55554761D01*
X32423855Y-55554761D02*
X32461950Y-55478570D01*
X32461950Y-55478570D02*
X32500045Y-55440475D01*
X32500045Y-55440475D02*
X32576236Y-55402380D01*
X32576236Y-55402380D02*
X32652426Y-55402380D01*
X32652426Y-55402380D02*
X32728617Y-55440475D01*
X32728617Y-55440475D02*
X32766712Y-55478570D01*
X32766712Y-55478570D02*
X32804807Y-55554761D01*
X32804807Y-55554761D02*
X32804807Y-55821427D01*
X34559093Y-79990475D02*
X34559093Y-79380952D01*
X34863855Y-79685713D02*
X34254331Y-79685713D01*
X34406712Y-78885714D02*
X34368617Y-78961904D01*
X34368617Y-78961904D02*
X34330521Y-78999999D01*
X34330521Y-78999999D02*
X34254331Y-79038095D01*
X34254331Y-79038095D02*
X34216236Y-79038095D01*
X34216236Y-79038095D02*
X34140045Y-78999999D01*
X34140045Y-78999999D02*
X34101950Y-78961904D01*
X34101950Y-78961904D02*
X34063855Y-78885714D01*
X34063855Y-78885714D02*
X34063855Y-78733333D01*
X34063855Y-78733333D02*
X34101950Y-78657142D01*
X34101950Y-78657142D02*
X34140045Y-78619047D01*
X34140045Y-78619047D02*
X34216236Y-78580952D01*
X34216236Y-78580952D02*
X34254331Y-78580952D01*
X34254331Y-78580952D02*
X34330521Y-78619047D01*
X34330521Y-78619047D02*
X34368617Y-78657142D01*
X34368617Y-78657142D02*
X34406712Y-78733333D01*
X34406712Y-78733333D02*
X34406712Y-78885714D01*
X34406712Y-78885714D02*
X34444807Y-78961904D01*
X34444807Y-78961904D02*
X34482902Y-78999999D01*
X34482902Y-78999999D02*
X34559093Y-79038095D01*
X34559093Y-79038095D02*
X34711474Y-79038095D01*
X34711474Y-79038095D02*
X34787664Y-78999999D01*
X34787664Y-78999999D02*
X34825760Y-78961904D01*
X34825760Y-78961904D02*
X34863855Y-78885714D01*
X34863855Y-78885714D02*
X34863855Y-78733333D01*
X34863855Y-78733333D02*
X34825760Y-78657142D01*
X34825760Y-78657142D02*
X34787664Y-78619047D01*
X34787664Y-78619047D02*
X34711474Y-78580952D01*
X34711474Y-78580952D02*
X34559093Y-78580952D01*
X34559093Y-78580952D02*
X34482902Y-78619047D01*
X34482902Y-78619047D02*
X34444807Y-78657142D01*
X34444807Y-78657142D02*
X34406712Y-78733333D01*
X34330521Y-78314285D02*
X34863855Y-78123809D01*
X34863855Y-78123809D02*
X34330521Y-77933332D01*
X34963855Y-48816666D02*
X35763855Y-48549999D01*
X35763855Y-48549999D02*
X34963855Y-48283333D01*
X35687664Y-47559523D02*
X35725760Y-47597619D01*
X35725760Y-47597619D02*
X35763855Y-47711904D01*
X35763855Y-47711904D02*
X35763855Y-47788095D01*
X35763855Y-47788095D02*
X35725760Y-47902381D01*
X35725760Y-47902381D02*
X35649569Y-47978571D01*
X35649569Y-47978571D02*
X35573379Y-48016666D01*
X35573379Y-48016666D02*
X35420998Y-48054762D01*
X35420998Y-48054762D02*
X35306712Y-48054762D01*
X35306712Y-48054762D02*
X35154331Y-48016666D01*
X35154331Y-48016666D02*
X35078140Y-47978571D01*
X35078140Y-47978571D02*
X35001950Y-47902381D01*
X35001950Y-47902381D02*
X34963855Y-47788095D01*
X34963855Y-47788095D02*
X34963855Y-47711904D01*
X34963855Y-47711904D02*
X35001950Y-47597619D01*
X35001950Y-47597619D02*
X35040045Y-47559523D01*
X35687664Y-46759523D02*
X35725760Y-46797619D01*
X35725760Y-46797619D02*
X35763855Y-46911904D01*
X35763855Y-46911904D02*
X35763855Y-46988095D01*
X35763855Y-46988095D02*
X35725760Y-47102381D01*
X35725760Y-47102381D02*
X35649569Y-47178571D01*
X35649569Y-47178571D02*
X35573379Y-47216666D01*
X35573379Y-47216666D02*
X35420998Y-47254762D01*
X35420998Y-47254762D02*
X35306712Y-47254762D01*
X35306712Y-47254762D02*
X35154331Y-47216666D01*
X35154331Y-47216666D02*
X35078140Y-47178571D01*
X35078140Y-47178571D02*
X35001950Y-47102381D01*
X35001950Y-47102381D02*
X34963855Y-46988095D01*
X34963855Y-46988095D02*
X34963855Y-46911904D01*
X34963855Y-46911904D02*
X35001950Y-46797619D01*
X35001950Y-46797619D02*
X35040045Y-46759523D01*
X35763855Y-57440475D02*
X34963855Y-57440475D01*
X34963855Y-57440475D02*
X35535283Y-57173809D01*
X35535283Y-57173809D02*
X34963855Y-56907142D01*
X34963855Y-56907142D02*
X35763855Y-56907142D01*
X35040045Y-56564285D02*
X35001950Y-56526189D01*
X35001950Y-56526189D02*
X34963855Y-56449999D01*
X34963855Y-56449999D02*
X34963855Y-56259523D01*
X34963855Y-56259523D02*
X35001950Y-56183332D01*
X35001950Y-56183332D02*
X35040045Y-56145237D01*
X35040045Y-56145237D02*
X35116236Y-56107142D01*
X35116236Y-56107142D02*
X35192426Y-56107142D01*
X35192426Y-56107142D02*
X35306712Y-56145237D01*
X35306712Y-56145237D02*
X35763855Y-56602380D01*
X35763855Y-56602380D02*
X35763855Y-56107142D01*
X35535283Y-55802380D02*
X35535283Y-55421427D01*
X35763855Y-55878570D02*
X34963855Y-55611903D01*
X34963855Y-55611903D02*
X35763855Y-55345237D01*
X36101950Y-79609523D02*
X36063855Y-79685713D01*
X36063855Y-79685713D02*
X36063855Y-79799999D01*
X36063855Y-79799999D02*
X36101950Y-79914285D01*
X36101950Y-79914285D02*
X36178140Y-79990475D01*
X36178140Y-79990475D02*
X36254331Y-80028570D01*
X36254331Y-80028570D02*
X36406712Y-80066666D01*
X36406712Y-80066666D02*
X36520998Y-80066666D01*
X36520998Y-80066666D02*
X36673379Y-80028570D01*
X36673379Y-80028570D02*
X36749569Y-79990475D01*
X36749569Y-79990475D02*
X36825760Y-79914285D01*
X36825760Y-79914285D02*
X36863855Y-79799999D01*
X36863855Y-79799999D02*
X36863855Y-79723808D01*
X36863855Y-79723808D02*
X36825760Y-79609523D01*
X36825760Y-79609523D02*
X36787664Y-79571427D01*
X36787664Y-79571427D02*
X36520998Y-79571427D01*
X36520998Y-79571427D02*
X36520998Y-79723808D01*
X36863855Y-79228570D02*
X36063855Y-79228570D01*
X36063855Y-79228570D02*
X36863855Y-78771427D01*
X36863855Y-78771427D02*
X36063855Y-78771427D01*
X36863855Y-78390475D02*
X36063855Y-78390475D01*
X36063855Y-78390475D02*
X36063855Y-78199999D01*
X36063855Y-78199999D02*
X36101950Y-78085713D01*
X36101950Y-78085713D02*
X36178140Y-78009523D01*
X36178140Y-78009523D02*
X36254331Y-77971428D01*
X36254331Y-77971428D02*
X36406712Y-77933332D01*
X36406712Y-77933332D02*
X36520998Y-77933332D01*
X36520998Y-77933332D02*
X36673379Y-77971428D01*
X36673379Y-77971428D02*
X36749569Y-78009523D01*
X36749569Y-78009523D02*
X36825760Y-78085713D01*
X36825760Y-78085713D02*
X36863855Y-78199999D01*
X36863855Y-78199999D02*
X36863855Y-78390475D01*
X37541950Y-48359523D02*
X37503855Y-48435713D01*
X37503855Y-48435713D02*
X37503855Y-48549999D01*
X37503855Y-48549999D02*
X37541950Y-48664285D01*
X37541950Y-48664285D02*
X37618140Y-48740475D01*
X37618140Y-48740475D02*
X37694331Y-48778570D01*
X37694331Y-48778570D02*
X37846712Y-48816666D01*
X37846712Y-48816666D02*
X37960998Y-48816666D01*
X37960998Y-48816666D02*
X38113379Y-48778570D01*
X38113379Y-48778570D02*
X38189569Y-48740475D01*
X38189569Y-48740475D02*
X38265760Y-48664285D01*
X38265760Y-48664285D02*
X38303855Y-48549999D01*
X38303855Y-48549999D02*
X38303855Y-48473808D01*
X38303855Y-48473808D02*
X38265760Y-48359523D01*
X38265760Y-48359523D02*
X38227664Y-48321427D01*
X38227664Y-48321427D02*
X37960998Y-48321427D01*
X37960998Y-48321427D02*
X37960998Y-48473808D01*
X38303855Y-47978570D02*
X37503855Y-47978570D01*
X37503855Y-47978570D02*
X38303855Y-47521427D01*
X38303855Y-47521427D02*
X37503855Y-47521427D01*
X38303855Y-47140475D02*
X37503855Y-47140475D01*
X37503855Y-47140475D02*
X37503855Y-46949999D01*
X37503855Y-46949999D02*
X37541950Y-46835713D01*
X37541950Y-46835713D02*
X37618140Y-46759523D01*
X37618140Y-46759523D02*
X37694331Y-46721428D01*
X37694331Y-46721428D02*
X37846712Y-46683332D01*
X37846712Y-46683332D02*
X37960998Y-46683332D01*
X37960998Y-46683332D02*
X38113379Y-46721428D01*
X38113379Y-46721428D02*
X38189569Y-46759523D01*
X38189569Y-46759523D02*
X38265760Y-46835713D01*
X38265760Y-46835713D02*
X38303855Y-46949999D01*
X38303855Y-46949999D02*
X38303855Y-47140475D01*
X38303855Y-57497618D02*
X37503855Y-57497618D01*
X37503855Y-57497618D02*
X38075283Y-57230952D01*
X38075283Y-57230952D02*
X37503855Y-56964285D01*
X37503855Y-56964285D02*
X38303855Y-56964285D01*
X38303855Y-56164285D02*
X38303855Y-56621428D01*
X38303855Y-56392856D02*
X37503855Y-56392856D01*
X37503855Y-56392856D02*
X37618140Y-56469047D01*
X37618140Y-56469047D02*
X37694331Y-56545237D01*
X37694331Y-56545237D02*
X37732426Y-56621428D01*
X37884807Y-55554761D02*
X37922902Y-55440475D01*
X37922902Y-55440475D02*
X37960998Y-55402380D01*
X37960998Y-55402380D02*
X38037188Y-55364284D01*
X38037188Y-55364284D02*
X38151474Y-55364284D01*
X38151474Y-55364284D02*
X38227664Y-55402380D01*
X38227664Y-55402380D02*
X38265760Y-55440475D01*
X38265760Y-55440475D02*
X38303855Y-55516665D01*
X38303855Y-55516665D02*
X38303855Y-55821427D01*
X38303855Y-55821427D02*
X37503855Y-55821427D01*
X37503855Y-55821427D02*
X37503855Y-55554761D01*
X37503855Y-55554761D02*
X37541950Y-55478570D01*
X37541950Y-55478570D02*
X37580045Y-55440475D01*
X37580045Y-55440475D02*
X37656236Y-55402380D01*
X37656236Y-55402380D02*
X37732426Y-55402380D01*
X37732426Y-55402380D02*
X37808617Y-55440475D01*
X37808617Y-55440475D02*
X37846712Y-55478570D01*
X37846712Y-55478570D02*
X37884807Y-55554761D01*
X37884807Y-55554761D02*
X37884807Y-55821427D01*
X40424807Y-48264285D02*
X40462902Y-48149999D01*
X40462902Y-48149999D02*
X40500998Y-48111904D01*
X40500998Y-48111904D02*
X40577188Y-48073808D01*
X40577188Y-48073808D02*
X40691474Y-48073808D01*
X40691474Y-48073808D02*
X40767664Y-48111904D01*
X40767664Y-48111904D02*
X40805760Y-48149999D01*
X40805760Y-48149999D02*
X40843855Y-48226189D01*
X40843855Y-48226189D02*
X40843855Y-48530951D01*
X40843855Y-48530951D02*
X40043855Y-48530951D01*
X40043855Y-48530951D02*
X40043855Y-48264285D01*
X40043855Y-48264285D02*
X40081950Y-48188094D01*
X40081950Y-48188094D02*
X40120045Y-48149999D01*
X40120045Y-48149999D02*
X40196236Y-48111904D01*
X40196236Y-48111904D02*
X40272426Y-48111904D01*
X40272426Y-48111904D02*
X40348617Y-48149999D01*
X40348617Y-48149999D02*
X40386712Y-48188094D01*
X40386712Y-48188094D02*
X40424807Y-48264285D01*
X40424807Y-48264285D02*
X40424807Y-48530951D01*
X40843855Y-47730951D02*
X40043855Y-47730951D01*
X40843855Y-46930952D02*
X40843855Y-47388095D01*
X40843855Y-47159523D02*
X40043855Y-47159523D01*
X40043855Y-47159523D02*
X40158140Y-47235714D01*
X40158140Y-47235714D02*
X40234331Y-47311904D01*
X40234331Y-47311904D02*
X40272426Y-47388095D01*
X40843855Y-57440475D02*
X40043855Y-57440475D01*
X40043855Y-57440475D02*
X40615283Y-57173809D01*
X40615283Y-57173809D02*
X40043855Y-56907142D01*
X40043855Y-56907142D02*
X40843855Y-56907142D01*
X40843855Y-56107142D02*
X40843855Y-56564285D01*
X40843855Y-56335713D02*
X40043855Y-56335713D01*
X40043855Y-56335713D02*
X40158140Y-56411904D01*
X40158140Y-56411904D02*
X40234331Y-56488094D01*
X40234331Y-56488094D02*
X40272426Y-56564285D01*
X40615283Y-55802380D02*
X40615283Y-55421427D01*
X40843855Y-55878570D02*
X40043855Y-55611903D01*
X40043855Y-55611903D02*
X40843855Y-55345237D01*
X42063855Y-80990476D02*
X42063855Y-80495238D01*
X42063855Y-80495238D02*
X42368617Y-80761904D01*
X42368617Y-80761904D02*
X42368617Y-80647619D01*
X42368617Y-80647619D02*
X42406712Y-80571428D01*
X42406712Y-80571428D02*
X42444807Y-80533333D01*
X42444807Y-80533333D02*
X42520998Y-80495238D01*
X42520998Y-80495238D02*
X42711474Y-80495238D01*
X42711474Y-80495238D02*
X42787664Y-80533333D01*
X42787664Y-80533333D02*
X42825760Y-80571428D01*
X42825760Y-80571428D02*
X42863855Y-80647619D01*
X42863855Y-80647619D02*
X42863855Y-80876190D01*
X42863855Y-80876190D02*
X42825760Y-80952381D01*
X42825760Y-80952381D02*
X42787664Y-80990476D01*
X42063855Y-80266666D02*
X42863855Y-79999999D01*
X42863855Y-79999999D02*
X42063855Y-79733333D01*
X42063855Y-79542857D02*
X42063855Y-79047619D01*
X42063855Y-79047619D02*
X42368617Y-79314285D01*
X42368617Y-79314285D02*
X42368617Y-79200000D01*
X42368617Y-79200000D02*
X42406712Y-79123809D01*
X42406712Y-79123809D02*
X42444807Y-79085714D01*
X42444807Y-79085714D02*
X42520998Y-79047619D01*
X42520998Y-79047619D02*
X42711474Y-79047619D01*
X42711474Y-79047619D02*
X42787664Y-79085714D01*
X42787664Y-79085714D02*
X42825760Y-79123809D01*
X42825760Y-79123809D02*
X42863855Y-79200000D01*
X42863855Y-79200000D02*
X42863855Y-79428571D01*
X42863855Y-79428571D02*
X42825760Y-79504762D01*
X42825760Y-79504762D02*
X42787664Y-79542857D01*
X42964807Y-48264285D02*
X43002902Y-48149999D01*
X43002902Y-48149999D02*
X43040998Y-48111904D01*
X43040998Y-48111904D02*
X43117188Y-48073808D01*
X43117188Y-48073808D02*
X43231474Y-48073808D01*
X43231474Y-48073808D02*
X43307664Y-48111904D01*
X43307664Y-48111904D02*
X43345760Y-48149999D01*
X43345760Y-48149999D02*
X43383855Y-48226189D01*
X43383855Y-48226189D02*
X43383855Y-48530951D01*
X43383855Y-48530951D02*
X42583855Y-48530951D01*
X42583855Y-48530951D02*
X42583855Y-48264285D01*
X42583855Y-48264285D02*
X42621950Y-48188094D01*
X42621950Y-48188094D02*
X42660045Y-48149999D01*
X42660045Y-48149999D02*
X42736236Y-48111904D01*
X42736236Y-48111904D02*
X42812426Y-48111904D01*
X42812426Y-48111904D02*
X42888617Y-48149999D01*
X42888617Y-48149999D02*
X42926712Y-48188094D01*
X42926712Y-48188094D02*
X42964807Y-48264285D01*
X42964807Y-48264285D02*
X42964807Y-48530951D01*
X43383855Y-47730951D02*
X42583855Y-47730951D01*
X42660045Y-47388095D02*
X42621950Y-47349999D01*
X42621950Y-47349999D02*
X42583855Y-47273809D01*
X42583855Y-47273809D02*
X42583855Y-47083333D01*
X42583855Y-47083333D02*
X42621950Y-47007142D01*
X42621950Y-47007142D02*
X42660045Y-46969047D01*
X42660045Y-46969047D02*
X42736236Y-46930952D01*
X42736236Y-46930952D02*
X42812426Y-46930952D01*
X42812426Y-46930952D02*
X42926712Y-46969047D01*
X42926712Y-46969047D02*
X43383855Y-47426190D01*
X43383855Y-47426190D02*
X43383855Y-46930952D01*
X42964807Y-57383333D02*
X42964807Y-57116667D01*
X43383855Y-57002381D02*
X43383855Y-57383333D01*
X43383855Y-57383333D02*
X42583855Y-57383333D01*
X42583855Y-57383333D02*
X42583855Y-57002381D01*
X42964807Y-56659523D02*
X42964807Y-56392857D01*
X43383855Y-56278571D02*
X43383855Y-56659523D01*
X43383855Y-56659523D02*
X42583855Y-56659523D01*
X42583855Y-56659523D02*
X42583855Y-56278571D01*
X43383855Y-55935713D02*
X42583855Y-55935713D01*
X42583855Y-55935713D02*
X42583855Y-55630951D01*
X42583855Y-55630951D02*
X42621950Y-55554761D01*
X42621950Y-55554761D02*
X42660045Y-55516666D01*
X42660045Y-55516666D02*
X42736236Y-55478570D01*
X42736236Y-55478570D02*
X42850521Y-55478570D01*
X42850521Y-55478570D02*
X42926712Y-55516666D01*
X42926712Y-55516666D02*
X42964807Y-55554761D01*
X42964807Y-55554761D02*
X43002902Y-55630951D01*
X43002902Y-55630951D02*
X43002902Y-55935713D01*
X44601950Y-80609523D02*
X44563855Y-80685713D01*
X44563855Y-80685713D02*
X44563855Y-80799999D01*
X44563855Y-80799999D02*
X44601950Y-80914285D01*
X44601950Y-80914285D02*
X44678140Y-80990475D01*
X44678140Y-80990475D02*
X44754331Y-81028570D01*
X44754331Y-81028570D02*
X44906712Y-81066666D01*
X44906712Y-81066666D02*
X45020998Y-81066666D01*
X45020998Y-81066666D02*
X45173379Y-81028570D01*
X45173379Y-81028570D02*
X45249569Y-80990475D01*
X45249569Y-80990475D02*
X45325760Y-80914285D01*
X45325760Y-80914285D02*
X45363855Y-80799999D01*
X45363855Y-80799999D02*
X45363855Y-80723808D01*
X45363855Y-80723808D02*
X45325760Y-80609523D01*
X45325760Y-80609523D02*
X45287664Y-80571427D01*
X45287664Y-80571427D02*
X45020998Y-80571427D01*
X45020998Y-80571427D02*
X45020998Y-80723808D01*
X45363855Y-80228570D02*
X44563855Y-80228570D01*
X44563855Y-80228570D02*
X45363855Y-79771427D01*
X45363855Y-79771427D02*
X44563855Y-79771427D01*
X45363855Y-79390475D02*
X44563855Y-79390475D01*
X44563855Y-79390475D02*
X44563855Y-79199999D01*
X44563855Y-79199999D02*
X44601950Y-79085713D01*
X44601950Y-79085713D02*
X44678140Y-79009523D01*
X44678140Y-79009523D02*
X44754331Y-78971428D01*
X44754331Y-78971428D02*
X44906712Y-78933332D01*
X44906712Y-78933332D02*
X45020998Y-78933332D01*
X45020998Y-78933332D02*
X45173379Y-78971428D01*
X45173379Y-78971428D02*
X45249569Y-79009523D01*
X45249569Y-79009523D02*
X45325760Y-79085713D01*
X45325760Y-79085713D02*
X45363855Y-79199999D01*
X45363855Y-79199999D02*
X45363855Y-79390475D01*
X47063855Y-80814285D02*
X47863855Y-80547618D01*
X47863855Y-80547618D02*
X47063855Y-80280952D01*
X47444807Y-79747619D02*
X47482902Y-79633333D01*
X47482902Y-79633333D02*
X47520998Y-79595238D01*
X47520998Y-79595238D02*
X47597188Y-79557142D01*
X47597188Y-79557142D02*
X47711474Y-79557142D01*
X47711474Y-79557142D02*
X47787664Y-79595238D01*
X47787664Y-79595238D02*
X47825760Y-79633333D01*
X47825760Y-79633333D02*
X47863855Y-79709523D01*
X47863855Y-79709523D02*
X47863855Y-80014285D01*
X47863855Y-80014285D02*
X47063855Y-80014285D01*
X47063855Y-80014285D02*
X47063855Y-79747619D01*
X47063855Y-79747619D02*
X47101950Y-79671428D01*
X47101950Y-79671428D02*
X47140045Y-79633333D01*
X47140045Y-79633333D02*
X47216236Y-79595238D01*
X47216236Y-79595238D02*
X47292426Y-79595238D01*
X47292426Y-79595238D02*
X47368617Y-79633333D01*
X47368617Y-79633333D02*
X47406712Y-79671428D01*
X47406712Y-79671428D02*
X47444807Y-79747619D01*
X47444807Y-79747619D02*
X47444807Y-80014285D01*
X47635283Y-79252381D02*
X47635283Y-78871428D01*
X47863855Y-79328571D02*
X47063855Y-79061904D01*
X47063855Y-79061904D02*
X47863855Y-78795238D01*
X47063855Y-78642857D02*
X47063855Y-78185714D01*
X47863855Y-78414286D02*
X47063855Y-78414286D01*
M02*
