%TF.GenerationSoftware,KiCad,Pcbnew,9.0.8+dfsg-1*%
%TF.CreationDate,2026-08-12T15:41:26+02:00*%
%TF.ProjectId,rein-2s-controller,7265696e-2d32-4732-9d63-6f6e74726f6c,rev?*%
%TF.SameCoordinates,Original*%
%TF.FileFunction,Copper,L1,Top*%
%TF.FilePolarity,Positive*%
%FSLAX46Y46*%
G04 Gerber Fmt 4.6, Leading zero omitted, Abs format (unit mm)*
G04 Created by KiCad (PCBNEW 9.0.8+dfsg-1) date 2026-08-12 15:41:26*
%MOMM*%
%LPD*%
G01*
G04 APERTURE LIST*
%TA.AperFunction,NonConductor*%
%ADD10C,0.120000*%
%TD*%
%TA.AperFunction,ComponentPad*%
%ADD11R,2.000000X2.000000*%
%TD*%
%TA.AperFunction,ComponentPad*%
%ADD12C,2.000000*%
%TD*%
%TA.AperFunction,ComponentPad*%
%ADD13R,1.800000X1.800000*%
%TD*%
%TA.AperFunction,ComponentPad*%
%ADD14C,1.800000*%
%TD*%
%TA.AperFunction,Conductor*%
%ADD15C,1.200000*%
%TD*%
%TA.AperFunction,Conductor*%
%ADD16C,0.400000*%
%TD*%
%TA.AperFunction,Conductor*%
%ADD17C,0.250000*%
%TD*%
%TA.AperFunction,Conductor*%
%ADD18C,0.500000*%
%TD*%
%ADD19C,0.350000*%
G04 APERTURE END LIST*
D10*
X51384000Y-75386000D02*
X51958000Y-75386000D01*
X51958000Y-75959000D01*
X51384000Y-75959000D01*
X51384000Y-75386000D01*
%TA.AperFunction,NonConductor*%
G36*
X51384000Y-75386000D02*
G01*
X51958000Y-75386000D01*
X51958000Y-75959000D01*
X51384000Y-75959000D01*
X51384000Y-75386000D01*
G37*
%TD.AperFunction*%
X51384000Y-76106500D02*
X51958000Y-76106500D01*
X51958000Y-76679500D01*
X51384000Y-76679500D01*
X51384000Y-76106500D01*
%TA.AperFunction,NonConductor*%
G36*
X51384000Y-76106500D02*
G01*
X51958000Y-76106500D01*
X51958000Y-76679500D01*
X51384000Y-76679500D01*
X51384000Y-76106500D01*
G37*
%TD.AperFunction*%
X51384000Y-80427000D02*
X51958000Y-80427000D01*
X51958000Y-81000000D01*
X51384000Y-81000000D01*
X51384000Y-80427000D01*
%TA.AperFunction,NonConductor*%
G36*
X51384000Y-80427000D02*
G01*
X51958000Y-80427000D01*
X51958000Y-81000000D01*
X51384000Y-81000000D01*
X51384000Y-80427000D01*
G37*
%TD.AperFunction*%
X52105000Y-75386000D02*
X52678000Y-75386000D01*
X52678000Y-75959000D01*
X52105000Y-75959000D01*
X52105000Y-75386000D01*
%TA.AperFunction,NonConductor*%
G36*
X52105000Y-75386000D02*
G01*
X52678000Y-75386000D01*
X52678000Y-75959000D01*
X52105000Y-75959000D01*
X52105000Y-75386000D01*
G37*
%TD.AperFunction*%
X52105000Y-76106500D02*
X52678000Y-76106500D01*
X52678000Y-76679500D01*
X52105000Y-76679500D01*
X52105000Y-76106500D01*
%TA.AperFunction,NonConductor*%
G36*
X52105000Y-76106500D02*
G01*
X52678000Y-76106500D01*
X52678000Y-76679500D01*
X52105000Y-76679500D01*
X52105000Y-76106500D01*
G37*
%TD.AperFunction*%
X52105000Y-76826000D02*
X52678000Y-76826000D01*
X52678000Y-77399000D01*
X52105000Y-77399000D01*
X52105000Y-76826000D01*
%TA.AperFunction,NonConductor*%
G36*
X52105000Y-76826000D02*
G01*
X52678000Y-76826000D01*
X52678000Y-77399000D01*
X52105000Y-77399000D01*
X52105000Y-76826000D01*
G37*
%TD.AperFunction*%
X52105000Y-77547000D02*
X52678000Y-77547000D01*
X52678000Y-78119000D01*
X52105000Y-78119000D01*
X52105000Y-77547000D01*
%TA.AperFunction,NonConductor*%
G36*
X52105000Y-77547000D02*
G01*
X52678000Y-77547000D01*
X52678000Y-78119000D01*
X52105000Y-78119000D01*
X52105000Y-77547000D01*
G37*
%TD.AperFunction*%
X52105000Y-78267000D02*
X52678000Y-78267000D01*
X52678000Y-78840000D01*
X52105000Y-78840000D01*
X52105000Y-78267000D01*
%TA.AperFunction,NonConductor*%
G36*
X52105000Y-78267000D02*
G01*
X52678000Y-78267000D01*
X52678000Y-78840000D01*
X52105000Y-78840000D01*
X52105000Y-78267000D01*
G37*
%TD.AperFunction*%
X52105000Y-78987000D02*
X52678000Y-78987000D01*
X52678000Y-79560000D01*
X52105000Y-79560000D01*
X52105000Y-78987000D01*
%TA.AperFunction,NonConductor*%
G36*
X52105000Y-78987000D02*
G01*
X52678000Y-78987000D01*
X52678000Y-79560000D01*
X52105000Y-79560000D01*
X52105000Y-78987000D01*
G37*
%TD.AperFunction*%
X52105000Y-79707000D02*
X52678000Y-79707000D01*
X52678000Y-80279000D01*
X52105000Y-80279000D01*
X52105000Y-79707000D01*
%TA.AperFunction,NonConductor*%
G36*
X52105000Y-79707000D02*
G01*
X52678000Y-79707000D01*
X52678000Y-80279000D01*
X52105000Y-80279000D01*
X52105000Y-79707000D01*
G37*
%TD.AperFunction*%
X52105000Y-80427000D02*
X52678000Y-80427000D01*
X52678000Y-81000000D01*
X52105000Y-81000000D01*
X52105000Y-80427000D01*
%TA.AperFunction,NonConductor*%
G36*
X52105000Y-80427000D02*
G01*
X52678000Y-80427000D01*
X52678000Y-81000000D01*
X52105000Y-81000000D01*
X52105000Y-80427000D01*
G37*
%TD.AperFunction*%
X52824000Y-76826000D02*
X53397000Y-76826000D01*
X53397000Y-77399000D01*
X52824000Y-77399000D01*
X52824000Y-76826000D01*
%TA.AperFunction,NonConductor*%
G36*
X52824000Y-76826000D02*
G01*
X53397000Y-76826000D01*
X53397000Y-77399000D01*
X52824000Y-77399000D01*
X52824000Y-76826000D01*
G37*
%TD.AperFunction*%
X52824000Y-77547000D02*
X53397000Y-77547000D01*
X53397000Y-78119000D01*
X52824000Y-78119000D01*
X52824000Y-77547000D01*
%TA.AperFunction,NonConductor*%
G36*
X52824000Y-77547000D02*
G01*
X53397000Y-77547000D01*
X53397000Y-78119000D01*
X52824000Y-78119000D01*
X52824000Y-77547000D01*
G37*
%TD.AperFunction*%
X52824000Y-78267000D02*
X53397000Y-78267000D01*
X53397000Y-78840000D01*
X52824000Y-78840000D01*
X52824000Y-78267000D01*
%TA.AperFunction,NonConductor*%
G36*
X52824000Y-78267000D02*
G01*
X53397000Y-78267000D01*
X53397000Y-78840000D01*
X52824000Y-78840000D01*
X52824000Y-78267000D01*
G37*
%TD.AperFunction*%
X52824000Y-78987000D02*
X53397000Y-78987000D01*
X53397000Y-79560000D01*
X52824000Y-79560000D01*
X52824000Y-78987000D01*
%TA.AperFunction,NonConductor*%
G36*
X52824000Y-78987000D02*
G01*
X53397000Y-78987000D01*
X53397000Y-79560000D01*
X52824000Y-79560000D01*
X52824000Y-78987000D01*
G37*
%TD.AperFunction*%
X52824000Y-79707000D02*
X53397000Y-79707000D01*
X53397000Y-80279000D01*
X52824000Y-80279000D01*
X52824000Y-79707000D01*
%TA.AperFunction,NonConductor*%
G36*
X52824000Y-79707000D02*
G01*
X53397000Y-79707000D01*
X53397000Y-80279000D01*
X52824000Y-80279000D01*
X52824000Y-79707000D01*
G37*
%TD.AperFunction*%
X52824000Y-80427000D02*
X53397000Y-80427000D01*
X53397000Y-81000000D01*
X52824000Y-81000000D01*
X52824000Y-80427000D01*
%TA.AperFunction,NonConductor*%
G36*
X52824000Y-80427000D02*
G01*
X53397000Y-80427000D01*
X53397000Y-81000000D01*
X52824000Y-81000000D01*
X52824000Y-80427000D01*
G37*
%TD.AperFunction*%
X53544000Y-75386000D02*
X54118000Y-75386000D01*
X54118000Y-75959000D01*
X53544000Y-75959000D01*
X53544000Y-75386000D01*
%TA.AperFunction,NonConductor*%
G36*
X53544000Y-75386000D02*
G01*
X54118000Y-75386000D01*
X54118000Y-75959000D01*
X53544000Y-75959000D01*
X53544000Y-75386000D01*
G37*
%TD.AperFunction*%
X53544000Y-76106500D02*
X54118000Y-76106500D01*
X54118000Y-76679500D01*
X53544000Y-76679500D01*
X53544000Y-76106500D01*
%TA.AperFunction,NonConductor*%
G36*
X53544000Y-76106500D02*
G01*
X54118000Y-76106500D01*
X54118000Y-76679500D01*
X53544000Y-76679500D01*
X53544000Y-76106500D01*
G37*
%TD.AperFunction*%
X53544000Y-76826000D02*
X54118000Y-76826000D01*
X54118000Y-77399000D01*
X53544000Y-77399000D01*
X53544000Y-76826000D01*
%TA.AperFunction,NonConductor*%
G36*
X53544000Y-76826000D02*
G01*
X54118000Y-76826000D01*
X54118000Y-77399000D01*
X53544000Y-77399000D01*
X53544000Y-76826000D01*
G37*
%TD.AperFunction*%
X53544000Y-77547000D02*
X54118000Y-77547000D01*
X54118000Y-78119000D01*
X53544000Y-78119000D01*
X53544000Y-77547000D01*
%TA.AperFunction,NonConductor*%
G36*
X53544000Y-77547000D02*
G01*
X54118000Y-77547000D01*
X54118000Y-78119000D01*
X53544000Y-78119000D01*
X53544000Y-77547000D01*
G37*
%TD.AperFunction*%
X53544000Y-78267000D02*
X54118000Y-78267000D01*
X54118000Y-78840000D01*
X53544000Y-78840000D01*
X53544000Y-78267000D01*
%TA.AperFunction,NonConductor*%
G36*
X53544000Y-78267000D02*
G01*
X54118000Y-78267000D01*
X54118000Y-78840000D01*
X53544000Y-78840000D01*
X53544000Y-78267000D01*
G37*
%TD.AperFunction*%
X54265000Y-75386000D02*
X54838000Y-75386000D01*
X54838000Y-75959000D01*
X54265000Y-75959000D01*
X54265000Y-75386000D01*
%TA.AperFunction,NonConductor*%
G36*
X54265000Y-75386000D02*
G01*
X54838000Y-75386000D01*
X54838000Y-75959000D01*
X54265000Y-75959000D01*
X54265000Y-75386000D01*
G37*
%TD.AperFunction*%
X54265000Y-76106500D02*
X54838000Y-76106500D01*
X54838000Y-76679500D01*
X54265000Y-76679500D01*
X54265000Y-76106500D01*
%TA.AperFunction,NonConductor*%
G36*
X54265000Y-76106500D02*
G01*
X54838000Y-76106500D01*
X54838000Y-76679500D01*
X54265000Y-76679500D01*
X54265000Y-76106500D01*
G37*
%TD.AperFunction*%
X54265000Y-76826000D02*
X54838000Y-76826000D01*
X54838000Y-77399000D01*
X54265000Y-77399000D01*
X54265000Y-76826000D01*
%TA.AperFunction,NonConductor*%
G36*
X54265000Y-76826000D02*
G01*
X54838000Y-76826000D01*
X54838000Y-77399000D01*
X54265000Y-77399000D01*
X54265000Y-76826000D01*
G37*
%TD.AperFunction*%
X54265000Y-77547000D02*
X54838000Y-77547000D01*
X54838000Y-78119000D01*
X54265000Y-78119000D01*
X54265000Y-77547000D01*
%TA.AperFunction,NonConductor*%
G36*
X54265000Y-77547000D02*
G01*
X54838000Y-77547000D01*
X54838000Y-78119000D01*
X54265000Y-78119000D01*
X54265000Y-77547000D01*
G37*
%TD.AperFunction*%
X54265000Y-78267000D02*
X54838000Y-78267000D01*
X54838000Y-78840000D01*
X54265000Y-78840000D01*
X54265000Y-78267000D01*
%TA.AperFunction,NonConductor*%
G36*
X54265000Y-78267000D02*
G01*
X54838000Y-78267000D01*
X54838000Y-78840000D01*
X54265000Y-78840000D01*
X54265000Y-78267000D01*
G37*
%TD.AperFunction*%
X54985000Y-76826000D02*
X55558000Y-76826000D01*
X55558000Y-77399000D01*
X54985000Y-77399000D01*
X54985000Y-76826000D01*
%TA.AperFunction,NonConductor*%
G36*
X54985000Y-76826000D02*
G01*
X55558000Y-76826000D01*
X55558000Y-77399000D01*
X54985000Y-77399000D01*
X54985000Y-76826000D01*
G37*
%TD.AperFunction*%
X54985000Y-77547000D02*
X55558000Y-77547000D01*
X55558000Y-78119000D01*
X54985000Y-78119000D01*
X54985000Y-77547000D01*
%TA.AperFunction,NonConductor*%
G36*
X54985000Y-77547000D02*
G01*
X55558000Y-77547000D01*
X55558000Y-78119000D01*
X54985000Y-78119000D01*
X54985000Y-77547000D01*
G37*
%TD.AperFunction*%
X54985000Y-78267000D02*
X55558000Y-78267000D01*
X55558000Y-78840000D01*
X54985000Y-78840000D01*
X54985000Y-78267000D01*
%TA.AperFunction,NonConductor*%
G36*
X54985000Y-78267000D02*
G01*
X55558000Y-78267000D01*
X55558000Y-78840000D01*
X54985000Y-78840000D01*
X54985000Y-78267000D01*
G37*
%TD.AperFunction*%
X54985000Y-78987000D02*
X55558000Y-78987000D01*
X55558000Y-79560000D01*
X54985000Y-79560000D01*
X54985000Y-78987000D01*
%TA.AperFunction,NonConductor*%
G36*
X54985000Y-78987000D02*
G01*
X55558000Y-78987000D01*
X55558000Y-79560000D01*
X54985000Y-79560000D01*
X54985000Y-78987000D01*
G37*
%TD.AperFunction*%
X54985000Y-79707000D02*
X55558000Y-79707000D01*
X55558000Y-80279000D01*
X54985000Y-80279000D01*
X54985000Y-79707000D01*
%TA.AperFunction,NonConductor*%
G36*
X54985000Y-79707000D02*
G01*
X55558000Y-79707000D01*
X55558000Y-80279000D01*
X54985000Y-80279000D01*
X54985000Y-79707000D01*
G37*
%TD.AperFunction*%
X54985000Y-80427000D02*
X55558000Y-80427000D01*
X55558000Y-81000000D01*
X54985000Y-81000000D01*
X54985000Y-80427000D01*
%TA.AperFunction,NonConductor*%
G36*
X54985000Y-80427000D02*
G01*
X55558000Y-80427000D01*
X55558000Y-81000000D01*
X54985000Y-81000000D01*
X54985000Y-80427000D01*
G37*
%TD.AperFunction*%
X55706000Y-75386000D02*
X56278000Y-75386000D01*
X56278000Y-75959000D01*
X55706000Y-75959000D01*
X55706000Y-75386000D01*
%TA.AperFunction,NonConductor*%
G36*
X55706000Y-75386000D02*
G01*
X56278000Y-75386000D01*
X56278000Y-75959000D01*
X55706000Y-75959000D01*
X55706000Y-75386000D01*
G37*
%TD.AperFunction*%
X55706000Y-76106500D02*
X56278000Y-76106500D01*
X56278000Y-76679500D01*
X55706000Y-76679500D01*
X55706000Y-76106500D01*
%TA.AperFunction,NonConductor*%
G36*
X55706000Y-76106500D02*
G01*
X56278000Y-76106500D01*
X56278000Y-76679500D01*
X55706000Y-76679500D01*
X55706000Y-76106500D01*
G37*
%TD.AperFunction*%
X55706000Y-76826000D02*
X56278000Y-76826000D01*
X56278000Y-77399000D01*
X55706000Y-77399000D01*
X55706000Y-76826000D01*
%TA.AperFunction,NonConductor*%
G36*
X55706000Y-76826000D02*
G01*
X56278000Y-76826000D01*
X56278000Y-77399000D01*
X55706000Y-77399000D01*
X55706000Y-76826000D01*
G37*
%TD.AperFunction*%
X55706000Y-77547000D02*
X56278000Y-77547000D01*
X56278000Y-78119000D01*
X55706000Y-78119000D01*
X55706000Y-77547000D01*
%TA.AperFunction,NonConductor*%
G36*
X55706000Y-77547000D02*
G01*
X56278000Y-77547000D01*
X56278000Y-78119000D01*
X55706000Y-78119000D01*
X55706000Y-77547000D01*
G37*
%TD.AperFunction*%
X55706000Y-78267000D02*
X56278000Y-78267000D01*
X56278000Y-78840000D01*
X55706000Y-78840000D01*
X55706000Y-78267000D01*
%TA.AperFunction,NonConductor*%
G36*
X55706000Y-78267000D02*
G01*
X56278000Y-78267000D01*
X56278000Y-78840000D01*
X55706000Y-78840000D01*
X55706000Y-78267000D01*
G37*
%TD.AperFunction*%
X55706000Y-78987000D02*
X56278000Y-78987000D01*
X56278000Y-79560000D01*
X55706000Y-79560000D01*
X55706000Y-78987000D01*
%TA.AperFunction,NonConductor*%
G36*
X55706000Y-78987000D02*
G01*
X56278000Y-78987000D01*
X56278000Y-79560000D01*
X55706000Y-79560000D01*
X55706000Y-78987000D01*
G37*
%TD.AperFunction*%
X55706000Y-79707000D02*
X56278000Y-79707000D01*
X56278000Y-80279000D01*
X55706000Y-80279000D01*
X55706000Y-79707000D01*
%TA.AperFunction,NonConductor*%
G36*
X55706000Y-79707000D02*
G01*
X56278000Y-79707000D01*
X56278000Y-80279000D01*
X55706000Y-80279000D01*
X55706000Y-79707000D01*
G37*
%TD.AperFunction*%
X55706000Y-80427000D02*
X56278000Y-80427000D01*
X56278000Y-81000000D01*
X55706000Y-81000000D01*
X55706000Y-80427000D01*
%TA.AperFunction,NonConductor*%
G36*
X55706000Y-80427000D02*
G01*
X56278000Y-80427000D01*
X56278000Y-81000000D01*
X55706000Y-81000000D01*
X55706000Y-80427000D01*
G37*
%TD.AperFunction*%
X56425000Y-75386000D02*
X56998000Y-75386000D01*
X56998000Y-75959000D01*
X56425000Y-75959000D01*
X56425000Y-75386000D01*
%TA.AperFunction,NonConductor*%
G36*
X56425000Y-75386000D02*
G01*
X56998000Y-75386000D01*
X56998000Y-75959000D01*
X56425000Y-75959000D01*
X56425000Y-75386000D01*
G37*
%TD.AperFunction*%
X56425000Y-76106500D02*
X56998000Y-76106500D01*
X56998000Y-76679500D01*
X56425000Y-76679500D01*
X56425000Y-76106500D01*
%TA.AperFunction,NonConductor*%
G36*
X56425000Y-76106500D02*
G01*
X56998000Y-76106500D01*
X56998000Y-76679500D01*
X56425000Y-76679500D01*
X56425000Y-76106500D01*
G37*
%TD.AperFunction*%
X56425000Y-76107000D02*
X56998000Y-76107000D01*
X56998000Y-76679000D01*
X56425000Y-76679000D01*
X56425000Y-76107000D01*
%TA.AperFunction,NonConductor*%
G36*
X56425000Y-76107000D02*
G01*
X56998000Y-76107000D01*
X56998000Y-76679000D01*
X56425000Y-76679000D01*
X56425000Y-76107000D01*
G37*
%TD.AperFunction*%
X56427000Y-80427000D02*
X57000000Y-80427000D01*
X57000000Y-81000000D01*
X56427000Y-81000000D01*
X56427000Y-80427000D01*
%TA.AperFunction,NonConductor*%
G36*
X56427000Y-80427000D02*
G01*
X57000000Y-80427000D01*
X57000000Y-81000000D01*
X56427000Y-81000000D01*
X56427000Y-80427000D01*
G37*
%TD.AperFunction*%
D11*
%TO.P,J8,1*%
%TO.N,5V_NC*%
X26360000Y-19010000D03*
D12*
%TO.P,J8,2*%
%TO.N,GND*%
X26360000Y-21550000D03*
%TO.P,J8,3*%
%TO.N,3V3*%
X26360000Y-24090000D03*
%TO.P,J8,4*%
%TO.N,GPIO4_SPARE*%
X26360000Y-26630000D03*
%TO.P,J8,5*%
%TO.N,GPIO3_SPARE*%
X26360000Y-29170000D03*
%TO.P,J8,6*%
%TO.N,GPIO2_SPARE*%
X26360000Y-31710000D03*
%TO.P,J8,7*%
%TO.N,GPIO1_SPARE*%
X26360000Y-34250000D03*
%TO.P,J8,8*%
%TO.N,GPIO0_SPARE*%
X26360000Y-36790000D03*
%TD*%
D11*
%TO.P,SW1,1*%
%TO.N,VBAT_RAW*%
X22200000Y-76500000D03*
D12*
%TO.P,SW1,2*%
%TO.N,VBAT_SW*%
X27200000Y-76500000D03*
%TD*%
D11*
%TO.P,U3,1*%
%TO.N,VBAT_SW*%
X26960000Y-68500000D03*
D12*
%TO.P,U3,2*%
%TO.N,GND*%
X29500000Y-68500000D03*
%TO.P,U3,3*%
%TO.N,3V3*%
X32040000Y-68500000D03*
%TD*%
D11*
%TO.P,J10,1*%
%TO.N,3V3*%
X42420000Y-76500000D03*
D12*
%TO.P,J10,2*%
%TO.N,GND*%
X44960000Y-76500000D03*
%TO.P,J10,3*%
%TO.N,VBAT_SW*%
X47500000Y-76500000D03*
%TD*%
D11*
%TO.P,U1,1*%
%TO.N,5V_NC*%
X28900000Y-19010000D03*
D12*
%TO.P,U1,2*%
%TO.N,GND*%
X28900000Y-21550000D03*
%TO.P,U1,3*%
%TO.N,3V3*%
X28900000Y-24090000D03*
%TO.P,U1,4*%
%TO.N,GPIO4_SPARE*%
X28900000Y-26630000D03*
%TO.P,U1,5*%
%TO.N,GPIO3_SPARE*%
X28900000Y-29170000D03*
%TO.P,U1,6*%
%TO.N,GPIO2_SPARE*%
X28900000Y-31710000D03*
%TO.P,U1,7*%
%TO.N,GPIO1_SPARE*%
X28900000Y-34250000D03*
%TO.P,U1,8*%
%TO.N,GPIO0_SPARE*%
X28900000Y-36790000D03*
%TO.P,U1,9*%
%TO.N,GPIO21_SPARE*%
X44140000Y-36790000D03*
%TO.P,U1,10*%
%TO.N,GPIO20_SPARE*%
X44140000Y-34250000D03*
%TO.P,U1,11*%
%TO.N,BIN2_GPIO10*%
X44140000Y-31710000D03*
%TO.P,U1,12*%
%TO.N,BIN1_GPIO9*%
X44140000Y-29170000D03*
%TO.P,U1,13*%
%TO.N,GPIO8_LED_EXPANSION*%
X44140000Y-26630000D03*
%TO.P,U1,14*%
%TO.N,AIN1_GPIO7*%
X44140000Y-24090000D03*
%TO.P,U1,15*%
%TO.N,AIN2_GPIO6*%
X44140000Y-21550000D03*
%TO.P,U1,16*%
%TO.N,GPIO5_SPARE*%
X44140000Y-19010000D03*
%TD*%
D13*
%TO.P,J6,1*%
%TO.N,M2A*%
X21500000Y-52040000D03*
D14*
%TO.P,J6,2*%
%TO.N,M2B*%
X21500000Y-54040000D03*
%TD*%
D13*
%TO.P,J4,1*%
%TO.N,VBAT_RAW*%
X34500000Y-76500000D03*
D14*
%TO.P,J4,2*%
%TO.N,GND*%
X36500000Y-76500000D03*
%TD*%
D11*
%TO.P,U2,1*%
%TO.N,BIN2_GPIO10*%
X43020000Y-44470000D03*
D12*
%TO.P,U2,2*%
%TO.N,GND*%
X43020000Y-59710000D03*
%TO.P,U2,3*%
%TO.N,BIN1_GPIO9*%
X40480000Y-44470000D03*
%TO.P,U2,4*%
%TO.N,M1A*%
X40480000Y-59710000D03*
%TO.P,U2,5*%
%TO.N,GND*%
X37940000Y-44470000D03*
%TO.P,U2,6*%
%TO.N,M1B*%
X37940000Y-59710000D03*
%TO.P,U2,7*%
%TO.N,VBAT_SW*%
X35400000Y-44470000D03*
%TO.P,U2,8*%
%TO.N,M2A*%
X35400000Y-59710000D03*
%TO.P,U2,9*%
%TO.N,AIN2_GPIO6*%
X32860000Y-44470000D03*
%TO.P,U2,10*%
%TO.N,M2B*%
X32860000Y-59710000D03*
%TO.P,U2,11*%
%TO.N,AIN1_GPIO7*%
X30320000Y-44470000D03*
%TO.P,U2,12*%
%TO.N,N/C*%
X30320000Y-59710000D03*
%TD*%
D11*
%TO.P,J9,1*%
%TO.N,GPIO21_SPARE*%
X46680000Y-36790000D03*
D12*
%TO.P,J9,2*%
%TO.N,GPIO20_SPARE*%
X46680000Y-34250000D03*
%TO.P,J9,3*%
%TO.N,BIN2_GPIO10*%
X46680000Y-31710000D03*
%TO.P,J9,4*%
%TO.N,BIN1_GPIO9*%
X46680000Y-29170000D03*
%TO.P,J9,5*%
%TO.N,GPIO8_LED_EXPANSION*%
X46680000Y-26630000D03*
%TO.P,J9,6*%
%TO.N,AIN1_GPIO7*%
X46680000Y-24090000D03*
%TO.P,J9,7*%
%TO.N,AIN2_GPIO6*%
X46680000Y-21550000D03*
%TO.P,J9,8*%
%TO.N,GPIO5_SPARE*%
X46680000Y-19010000D03*
%TD*%
D13*
%TO.P,J5,1*%
%TO.N,M1A*%
X51500000Y-54000000D03*
D14*
%TO.P,J5,2*%
%TO.N,M1B*%
X51500000Y-52000000D03*
%TD*%
D11*
%TO.P,C1_C2,1*%
%TO.N,VBAT_SW*%
X53000000Y-68500000D03*
D12*
%TO.P,C1_C2,2*%
%TO.N,GND*%
X53000000Y-72500000D03*
%TD*%
D15*
%TO.N,GND*%
X38500000Y-21500000D02*
X37940000Y-44470000D01*
X28900000Y-21550000D02*
X38500000Y-21500000D01*
X28900000Y-21550000D02*
X26360000Y-21550000D01*
X37940000Y-44470000D02*
X38000000Y-49500000D01*
X38000000Y-49500000D02*
X43000000Y-49500000D01*
X43000000Y-49500000D02*
X43020000Y-59710000D01*
%TO.N,VBAT_SW*%
X30660000Y-64000000D02*
X38500000Y-64000000D01*
X35400000Y-44470000D02*
X35500000Y-49500000D01*
X27000000Y-64000000D02*
X30660000Y-64000000D01*
X27000000Y-64000000D02*
X26960000Y-68500000D01*
X47500000Y-64000000D02*
X47500000Y-68500000D01*
X53000000Y-68500000D02*
X47500000Y-68500000D01*
X27000000Y-49500000D02*
X27000000Y-64000000D01*
X35500000Y-49500000D02*
X27000000Y-49500000D01*
X26960000Y-68500000D02*
X27200000Y-68740000D01*
X27200000Y-68740000D02*
X27200000Y-76500000D01*
X47500000Y-68500000D02*
X47500000Y-76500000D01*
X38500000Y-64000000D02*
X47500000Y-64000000D01*
%TO.N,3V3*%
X39500000Y-68500000D02*
X40500000Y-76500000D01*
X40500000Y-76500000D02*
X42420000Y-76500000D01*
X32040000Y-68500000D02*
X39500000Y-68500000D01*
D16*
X28900000Y-24090000D02*
X26360000Y-24090000D01*
D17*
%TO.N,GPIO5_SPARE*%
X44140000Y-19010000D02*
X46680000Y-19010000D01*
%TO.N,AIN2_GPIO6*%
X44140000Y-21550000D02*
X46680000Y-21550000D01*
%TO.N,AIN1_GPIO7*%
X44140000Y-24090000D02*
X46680000Y-24090000D01*
%TO.N,BIN1_GPIO9*%
X44140000Y-29170000D02*
X46680000Y-29170000D01*
X44140000Y-29170000D02*
X46680000Y-29170000D01*
%TO.N,BIN2_GPIO10*%
X44140000Y-31710000D02*
X46680000Y-31710000D01*
%TO.N,GPIO0_SPARE*%
X28900000Y-36790000D02*
X26360000Y-36790000D01*
%TO.N,GPIO1_SPARE*%
X28900000Y-34250000D02*
X26360000Y-34250000D01*
%TO.N,GPIO2_SPARE*%
X28900000Y-31710000D02*
X26360000Y-31710000D01*
%TO.N,GPIO3_SPARE*%
X28900000Y-29170000D02*
X26360000Y-29170000D01*
%TO.N,GPIO4_SPARE*%
X28900000Y-26630000D02*
X26360000Y-26630000D01*
%TO.N,GPIO20_SPARE*%
X44140000Y-34250000D02*
X46680000Y-34250000D01*
%TO.N,GPIO21_SPARE*%
X44140000Y-36790000D02*
X46680000Y-36790000D01*
%TO.N,GPIO8_LED_EXPANSION*%
X44140000Y-26630000D02*
X46680000Y-26630000D01*
D18*
%TO.N,5V_NC*%
X28900000Y-19010000D02*
X26360000Y-19010000D01*
%TD*%
D19*
X26360000Y-19010000D03*
X26360000Y-21550000D03*
X26360000Y-24090000D03*
X26360000Y-26630000D03*
X26360000Y-29170000D03*
X26360000Y-31710000D03*
X26360000Y-34250000D03*
X26360000Y-36790000D03*
X22200000Y-76500000D03*
X27200000Y-76500000D03*
X26960000Y-68500000D03*
X29500000Y-68500000D03*
X32040000Y-68500000D03*
X42420000Y-76500000D03*
X44960000Y-76500000D03*
X47500000Y-76500000D03*
X28900000Y-19010000D03*
X28900000Y-21550000D03*
X28900000Y-24090000D03*
X28900000Y-26630000D03*
X28900000Y-29170000D03*
X28900000Y-31710000D03*
X28900000Y-34250000D03*
X28900000Y-36790000D03*
X44140000Y-36790000D03*
X44140000Y-34250000D03*
X44140000Y-31710000D03*
X44140000Y-29170000D03*
X44140000Y-26630000D03*
X44140000Y-24090000D03*
X44140000Y-21550000D03*
X44140000Y-19010000D03*
X21500000Y-52040000D03*
X21500000Y-54040000D03*
X34500000Y-76500000D03*
X36500000Y-76500000D03*
X43020000Y-44470000D03*
X43020000Y-59710000D03*
X40480000Y-44470000D03*
X40480000Y-59710000D03*
X37940000Y-44470000D03*
X37940000Y-59710000D03*
X35400000Y-44470000D03*
X35400000Y-59710000D03*
X32860000Y-44470000D03*
X32860000Y-59710000D03*
X30320000Y-44470000D03*
X30320000Y-59710000D03*
X46680000Y-36790000D03*
X46680000Y-34250000D03*
X46680000Y-31710000D03*
X46680000Y-29170000D03*
X46680000Y-26630000D03*
X46680000Y-24090000D03*
X46680000Y-21550000D03*
X46680000Y-19010000D03*
X51500000Y-54000000D03*
X51500000Y-52000000D03*
X53000000Y-68500000D03*
X53000000Y-72500000D03*
M02*
